<svg width="460" height="386" viewBox="0 0 460 386" fill="none" xmlns="http://www.w3.org/2000/svg">
<mask id="mask0_0_1359" style="mask-type:luminance" maskUnits="userSpaceOnUse" x="40" y="0" width="368" height="386">
<path fill-rule="evenodd" clip-rule="evenodd" d="M40 0H408V386H40V0Z" fill="white"/>
</mask>
<g mask="url(#mask0_0_1359)">
<path fill-rule="evenodd" clip-rule="evenodd" d="M406.619 238.114C407.919 229.738 408.328 221.211 407.732 212.591C403.675 153.835 382.675 77.7584 340.526 34.9628C327.611 21.8489 311.708 12.1239 293.889 7.32604C253.523 -3.54289 215.213 -6.24658 184.622 27.314C164.803 49.0565 161.273 76.8204 146.356 100.815C118.058 146.33 52.5388 157.539 41.5098 215.676C33.4219 258.306 59.1041 300.097 88.1142 329.262C117.381 358.685 156.458 379.285 197.788 384.593C207.808 385.879 217.94 386.299 228.033 385.789C303.821 381.962 394.425 316.687 406.619 238.114" fill="white"/>
</g>
<path fill-rule="evenodd" clip-rule="evenodd" d="M281.263 246.027C272.576 259.41 257.794 258.215 257.794 258.215C257.794 258.215 256.564 259.41 253.73 254.315C250.878 249.219 242.713 245.728 242.713 245.728C242.061 250.861 240.719 258.626 227.391 248.547C214.044 238.468 218.07 223.76 219.207 215.996C220.344 208.25 224.893 205.655 224.893 205.655L230.261 202.818C230.261 202.818 214.733 198.824 213.987 198.674C213.242 198.525 199.411 186.934 213.447 183.874C227.484 180.812 249.35 192.982 253.581 195.389C257.794 197.797 282.512 218.721 282.512 218.721C282.512 218.721 289.968 232.663 281.263 246.027M397.732 244.851C390.518 203.024 364.979 165.6 323.484 152.199C312.747 148.727 301.88 146.189 290.994 144.397L290.975 144.453C290.36 147.925 289.074 151.247 287.004 154.085C282.679 160.02 276.714 164.891 269.817 167.43C262.771 170.043 254.047 170.378 247.504 166.272C243.571 163.809 239.749 159.46 239.06 154.775C238.277 149.493 240.961 144.49 244.745 141C212.683 141.262 182.522 146.544 158.363 152.554C159.221 156.063 160.339 159.479 161.83 162.782C163.881 167.318 166.789 171.629 170.387 175.082C174.86 170.64 178.812 165.657 182.093 160.244C188.394 162.185 193.203 168.251 193.65 174.839V175.008C194.918 186.99 183.398 195.987 173.742 201.53C162.558 207.97 150.086 212.785 137.84 216.798C132.788 218.459 126.226 219.896 120.895 218.142H120.877C120.298 217.955 119.739 217.731 119.199 217.47C113.886 214.857 110.325 209.388 107.548 204.386C99.6443 190.182 94.4996 174.709 91.0137 158.806C66.8176 161.905 64.0454 145.47 62.6099 141.476L41.9319 199.402C38.8749 211.087 43.5912 222.584 52.3895 229.135C57.0123 232.588 62.7725 234.66 69.1293 234.66H154.84L193.762 334.629L204.798 363H267.804C262.678 363 259.9 361.749 257.868 359.715C255.855 357.68 254.588 354.88 254.588 351.801C254.588 345.66 259.621 340.621 267.804 340.621H268.382C267.767 340.621 267.17 340.565 266.555 340.509C266.947 340.471 267.319 340.397 267.692 340.322C267.282 340.303 266.872 340.285 266.481 340.229C270.078 339.818 273.303 338.194 275.782 335.749C278.467 333.099 280.2 329.459 280.443 325.427C280.461 325.241 280.461 325.035 280.461 324.849V324.55C280.312 316.636 274.273 310.103 266.555 309.17C266.984 309.133 267.394 309.096 267.804 309.096C267.431 309.002 267.021 308.947 266.63 308.89C267.245 308.834 267.86 308.797 268.456 308.797L314.556 309.04L323.037 309.077H333.103C333.569 309.077 334.036 309.096 334.483 309.133L349.433 309.208L359.424 309.264C368.092 309.32 375.139 316.45 375.082 325.129C375.064 327.574 374.505 329.889 373.48 331.942C377.618 331.344 381.495 329.646 384.757 326.305C391.953 318.951 395.047 307.939 397.191 298.14C400.956 280.725 400.732 262.359 397.732 244.851" fill="#353642"/>
<path fill-rule="evenodd" clip-rule="evenodd" d="M91 158.827C91 158.827 102.665 157.4 107.036 149L103.229 170.542C103.229 170.542 149.636 154.585 158.148 152.548C158.148 152.548 160.89 170.383 171.808 175.172L183.07 160.729C183.07 160.729 197.196 164.315 193.33 183.735C189.464 203.155 136.032 219.369 126.972 218.994C117.911 218.619 108.154 212.996 98.1644 182.772L91 158.827Z" fill="#353642"/>
<path fill-rule="evenodd" clip-rule="evenodd" d="M115.785 139C112.941 139 110.637 137.957 109.224 136.007L109.167 135.921L101.933 124.178C99.3349 119.959 93.7707 118.381 89.266 120.582L88 118.105C93.8173 115.261 101.003 117.301 104.359 122.749L111.563 134.445C112.893 136.234 115.295 136.309 116.614 136.194C117.603 136.107 119 135.826 120.035 134.983C122.055 133.338 121.253 131.396 118.689 127.666C118.467 127.343 118.252 127.03 118.053 126.731C114.778 121.783 111.587 116.734 108.897 112.448L111.311 111C113.992 115.272 117.172 120.303 120.431 125.226C120.621 125.513 120.827 125.812 121.04 126.122C122.959 128.915 126.173 133.589 121.847 137.112C120.584 138.14 118.861 138.777 116.867 138.952C116.499 138.984 116.138 139 115.785 139" fill="black"/>
<path fill-rule="evenodd" clip-rule="evenodd" d="M131.067 138C128.165 138 125.26 136.582 123.359 133.95L123.314 133.885L109 111.548L111.299 110L125.591 132.302C127.704 135.194 131.662 136.027 134.432 134.154C136.435 132.801 136.806 130.277 135.48 127.045L138.015 125.952C139.858 130.441 139.084 134.387 135.947 136.508C134.455 137.516 132.761 138 131.067 138" fill="black"/>
<path fill-rule="evenodd" clip-rule="evenodd" d="M203.403 364L153.932 236.624H69.4357C60.2474 236.624 51.7578 232.437 46.1442 225.137C40.5335 217.841 38.6489 208.545 40.9729 199.633L41.0101 199.512L70.6766 116.957C74.6452 101.787 83.6699 90.5373 95.4441 86.0872C106.338 81.9686 118.65 83.9872 130.112 91.7712C139.087 97.8681 146 106.824 150.657 118.391C152.057 121.872 154.663 128.35 148.209 131.837C145.864 133.084 140.523 134.186 137.045 129.453C135.546 127.413 133.551 124.227 131.438 120.853C128.225 115.721 124.584 109.904 121.465 106.096L123.617 104.319C126.85 108.265 130.541 114.162 133.799 119.364C135.882 122.692 137.851 125.836 139.288 127.792C142.225 131.789 146.707 129.47 146.896 129.368C150.07 127.654 150.368 125.147 148.073 119.439C143.626 108.398 137.058 99.8683 128.55 94.0886C117.86 86.8285 106.451 84.9168 96.4267 88.7054C85.4944 92.8379 77.0864 103.416 73.3573 117.727L73.3201 117.848L43.6541 200.401C41.5747 208.45 43.2846 216.839 48.3509 223.427C53.4325 230.035 61.1184 233.826 69.4357 233.826H155.837L206 362.984L203.403 364Z" fill="black"/>
<path fill-rule="evenodd" clip-rule="evenodd" d="M153.825 114L152.908 111.386C154.929 110.699 156.155 108.94 156.19 106.682C156.227 104.19 154.629 100.667 150.002 98.941C140.589 95.4225 123.863 90.4271 118.961 88.98L118.626 88.8683C118.469 88.8193 118.346 88.7793 118.255 88.7571L118.153 88.7277C118.068 88.6999 118.019 88.6853 118 88.6802L118.692 86C118.692 86 118.787 86.0217 118.996 86.0895C119.12 86.1224 119.28 86.1709 119.475 86.2321L119.607 86.273C119.722 86.2988 119.818 86.3342 119.892 86.3676C124.968 87.8672 141.577 92.8338 150.999 96.3558C155.926 98.1932 159.066 102.263 158.999 106.723C158.948 110.144 156.965 112.932 153.825 114V114Z" fill="black"/>
<path fill-rule="evenodd" clip-rule="evenodd" d="M331.352 254C330.826 254 330.278 253.911 329.732 253.733L329.644 253.875L327.247 252.402L327.269 252.365C316.44 245.001 262.983 204.242 260.616 202.436L260.534 202.369C246.913 190.256 228.596 186.143 215.629 184.827C212.758 184.536 210.089 186.224 209.13 188.932C208.841 189.782 208.735 190.703 208.829 191.577C209.101 194.346 211.111 196.544 213.831 197.059C224.7 199.066 238.812 202.838 244.278 209.402L242.13 211.19C238.281 206.569 228.049 202.526 213.317 199.805C209.36 199.057 206.442 195.865 206.048 191.862C205.913 190.6 206.064 189.266 206.488 188.018C207.884 184.073 211.758 181.624 215.911 182.047C229.277 183.404 248.178 187.663 262.353 200.246C264.232 201.679 322.864 246.374 329.898 250.751C330.951 251.389 331.808 251.264 332.081 250.97C332.312 250.722 332.19 250.179 331.768 249.586L331.701 249.482L331.066 248.395C327.557 242.39 323.383 236.757 318.661 231.65L320.715 229.754C325.574 235.009 329.869 240.807 333.48 246.987L334.086 248.022C335.523 250.087 335.053 251.88 334.127 252.875C333.43 253.621 332.437 254 331.352 254" fill="black"/>
<path fill-rule="evenodd" clip-rule="evenodd" d="M101 173L107.969 134L110.715 134.488L104.654 168.406C117.124 163.327 176.727 140.553 243.977 139.994L244 142.776C169.271 143.398 104.045 171.663 103.394 171.949L101 173Z" fill="black"/>
<path fill-rule="evenodd" clip-rule="evenodd" d="M363.016 340.246C363.016 340.246 354.756 338.36 352.562 345.026C350.367 351.692 348.07 362.297 363.865 362.921C379.658 363.545 370.38 360.419 369.445 355.273C368.51 350.126 363.016 340.246 363.016 340.246" fill="#353642"/>
<path fill-rule="evenodd" clip-rule="evenodd" d="M219.341 221L217 219.512C217.339 219.025 217.722 218.605 218.134 218.263C227 211.04 236.901 218.052 237 218.123L235.3 220.263L236.15 219.193L235.303 220.265C234.97 220.027 227.088 214.498 219.968 220.299C219.754 220.477 219.541 220.714 219.341 221" fill="black"/>
<path fill-rule="evenodd" clip-rule="evenodd" d="M124.822 133.241C127.359 136.676 132.172 137.797 135.736 135.444C137.9 134.007 139.169 131.151 137.34 126.727C137.676 127.211 137.975 127.641 138.273 128.033C141.967 133.055 147.694 130.031 147.694 130.031C152.339 127.529 151.556 123.366 149.522 118.326C147.321 112.875 144.69 108.227 141.761 104.25C143.832 102.309 146.295 100.349 148.888 101.208C151.686 102.141 152.47 105.651 152.787 108.581C152.936 109.944 153.086 111.288 153.235 112.651C153.981 119.334 154.727 126.017 155.473 132.7C156.22 139.364 156.966 146.103 158.589 152.6C159.447 156.11 160.566 159.526 162.059 162.83C164.111 167.366 167.021 171.678 170.622 175.132C175.099 170.689 179.054 165.705 182.338 160.291C188.643 162.232 193.456 168.299 193.904 174.889V175.057C195.173 187.042 183.643 196.04 173.979 201.584C162.786 208.025 150.306 212.841 138.049 216.855C132.994 218.516 126.427 219.953 121.091 218.199H121.072C120.494 218.012 119.934 217.788 119.394 217.527C114.077 214.913 110.513 209.443 107.734 204.441C94.4138 180.508 88.9105 153.029 86 125.812C91.8205 125.009 97.6226 124.113 103.35 122.881C103.368 122.899 103.368 122.918 103.387 122.937L109.991 133.895L110.532 134.809C111.969 136.844 114.45 137.405 116.819 137.199C118.312 137.068 119.804 136.62 120.961 135.65C124.636 132.588 121.184 128.407 119.282 125.475" fill="white"/>
<path fill-rule="evenodd" clip-rule="evenodd" d="M124.822 133.241C127.359 136.676 132.172 137.797 135.736 135.444C137.9 134.007 139.169 131.151 137.34 126.727C137.676 127.211 137.975 127.641 138.273 128.033C141.967 133.055 147.694 130.031 147.694 130.031C152.339 127.529 151.556 123.366 149.522 118.326C147.321 112.875 144.69 108.227 141.761 104.25C143.832 102.309 146.295 100.349 148.888 101.208C151.686 102.141 152.47 105.651 152.787 108.581C152.936 109.944 153.086 111.288 153.235 112.651C153.981 119.334 154.727 126.017 155.473 132.7C156.22 139.364 156.966 146.103 158.589 152.6C159.447 156.11 160.566 159.526 162.059 162.83C164.111 167.366 167.021 171.678 170.622 175.132C175.099 170.689 179.054 165.705 182.338 160.291C188.643 162.232 193.456 168.299 193.904 174.889V175.057C195.173 187.042 183.643 196.04 173.979 201.584C162.786 208.025 150.306 212.841 138.049 216.855C132.994 218.516 126.427 219.953 121.091 218.199H121.072C120.494 218.012 119.934 217.788 119.394 217.527C114.077 214.913 110.513 209.443 107.734 204.441C94.4138 180.508 88.9105 153.029 86 125.812C91.8205 125.009 97.6226 124.113 103.35 122.881C103.368 122.899 103.368 122.918 103.387 122.937L109.991 133.895L110.532 134.809C111.969 136.844 114.45 137.405 116.819 137.199C118.312 137.068 119.804 136.62 120.961 135.65C124.636 132.588 121.184 128.407 119.282 125.475" fill="#6D49D5"/>
<path fill-rule="evenodd" clip-rule="evenodd" d="M126.395 134.861C128.66 137.928 132.555 137.544 135.736 135.444C137.668 134.161 139.258 134.537 137.626 130.588C137.925 131.021 137.968 129.538 138.234 129.887C141.532 134.37 138.273 128.033 138.273 128.033C142.881 133.857 152.9 128.373 151.085 123.874C149.12 119.007 147.092 111.832 144.477 108.283C146.538 106.351 146.13 106.638 148.737 108.175C150.177 109.024 151.01 110.634 151.188 112.298C151.397 114.25 151.606 116.116 151.814 118.023C152.481 123.988 153.147 129.954 153.813 135.921C154.479 141.87 155.145 147.886 156.594 153.685C157.36 156.818 158.36 159.868 159.692 162.818C161.524 166.867 167.407 173.609 170.622 176.693C174.619 172.726 179.407 165.415 182.338 160.583C187.967 162.316 187.72 167.7 188.12 173.583V173.733C189.252 184.432 178.96 192.464 170.334 197.413C160.341 203.163 149.2 207.463 138.259 211.045C133.745 212.529 127.883 213.812 123.12 212.245H123.103C122.587 212.079 122.088 211.879 121.605 211.645C116.858 209.312 113.678 204.429 111.196 199.963C100.331 180.442 95.2922 158.278 92.5214 136.063C92.0891 132.596 94.4737 129.416 97.9229 128.873C101.042 128.381 104.147 127.828 107.227 127.166C107.257 127.18 107.286 127.192 107.316 127.205L113.211 136.987C114.493 138.804 114.704 137.382 116.819 137.199C118.152 137.082 120.743 136.821 121.775 135.954C125.056 133.222 123.204 132.088 121.505 129.471" fill="#6D49D5"/>
<path fill-rule="evenodd" clip-rule="evenodd" d="M218.785 233L216 232.922C216.061 230.643 216.965 228.815 218.612 227.633C220.797 226.066 224.258 225.624 228.895 226.319C232.196 226.813 234.887 227.708 235 227.746L234.13 230.446C231.361 229.52 223.462 227.627 220.214 229.959C219.277 230.631 218.823 231.597 218.785 233" fill="black"/>
<path fill-rule="evenodd" clip-rule="evenodd" d="M83.62 324.006L50.3396 238.882C48.574 231.831 53.9162 225 61.1976 225H193.397C199.507 225 204.82 229.181 206.247 235.111L242.685 320.216C244.376 327.243 239.042 334 231.803 334H96.4414C90.3772 334 85.0907 329.88 83.62 324.006" fill="white"/>
<path fill-rule="evenodd" clip-rule="evenodd" d="M237.683 255C237.032 255 236.379 254.892 235.743 254.675C224.927 250.984 218.573 245.212 216.858 237.522C215.968 233.526 215.769 229.056 216.268 224.237C216.668 220.365 217.27 215.869 218.699 211.885C219.99 208.282 222.772 205.294 226.142 203.89C229.11 202.654 232.23 202.706 235.164 204.039L233.981 206.57C231.209 205.311 228.787 205.814 227.242 206.458C224.592 207.561 222.395 209.937 221.363 212.813C220.035 216.522 219.463 220.812 219.08 224.519C218.611 229.044 218.793 233.217 219.619 236.923C221.108 243.602 226.844 248.689 236.668 252.042C237.701 252.395 238.561 252.142 239.1 251.867C239.995 251.41 240.682 250.559 240.986 249.531C241.779 246.843 239.74 244.911 239.653 244.831L241.569 242.782C241.71 242.908 244.99 245.935 243.7 250.309C243.182 252.067 241.978 253.537 240.398 254.342C239.54 254.779 238.615 255 237.683 255" fill="black"/>
<path fill-rule="evenodd" clip-rule="evenodd" d="M83.62 324.006L50.3396 238.882C48.574 231.831 53.9162 225 61.1976 225H193.397C199.507 225 204.82 229.181 206.247 235.111L242.685 320.216C244.376 327.243 239.042 334 231.803 334H96.4414C90.3772 334 85.0907 329.88 83.62 324.006" fill="#6D49D5"/>
<path fill-rule="evenodd" clip-rule="evenodd" d="M51.076 238.884L84.3576 324.082C84.3791 324.137 84.397 324.193 84.4113 324.25C85.7306 329.522 90.4507 333.204 95.8895 333.204H231.392C234.415 333.204 237.222 331.844 239.093 329.472C240.941 327.13 241.615 324.132 240.952 321.23L204.524 236.077C204.492 236.005 204.468 235.93 204.449 235.854C203.167 230.521 198.437 226.796 192.946 226.796H60.6083C57.5676 226.796 54.7515 228.169 52.8798 230.563C51.0269 232.935 50.3716 235.963 51.076 238.884M231.392 336H95.8895C89.1948 336 83.3805 331.489 81.719 325.017L48.4359 239.814C48.4144 239.759 48.3965 239.703 48.3817 239.645C47.4343 235.857 48.2697 231.92 50.6745 228.843C53.0798 225.765 56.7 224 60.6083 224H192.946C199.695 224 205.515 228.551 207.142 235.084L243.572 320.243C243.603 320.315 243.628 320.39 243.646 320.466C244.554 324.24 243.696 328.154 241.291 331.202C238.886 334.251 235.278 336 231.392 336" fill="black"/>
<path fill-rule="evenodd" clip-rule="evenodd" d="M88.0069 320.74L57.3133 241.864C55.6846 235.329 60.6118 229 67.327 229H189.252C194.887 229 199.787 232.874 201.104 238.369L234.71 317.228C236.269 323.739 231.35 330 224.673 330H99.8317C94.2389 330 89.3633 326.182 88.0069 320.74" fill="#6D49D5"/>
<path fill-rule="evenodd" clip-rule="evenodd" d="M371.429 363L348 309.104L350.571 308L374 361.896L371.429 363Z" fill="black"/>
<path fill-rule="evenodd" clip-rule="evenodd" d="M0 364H460V361H0V364Z" fill="black"/>
<path fill-rule="evenodd" clip-rule="evenodd" d="M236.179 123C236.105 123 236.031 123 235.956 122.998C233.264 122.945 230.794 121.924 229 120.123L231.089 118.302C232.352 119.571 234.103 120.291 236.016 120.328C238.219 120.372 240.323 119.544 241.995 118L244 119.901C241.83 121.904 239.061 123 236.179 123" fill="black"/>
<path fill-rule="evenodd" clip-rule="evenodd" d="M169.05 176C165.433 172.579 162.344 168.206 160.119 163.354C155.701 153.719 154.517 143.195 153.371 133.017L150.666 109.069C150.263 105.402 149.319 103.447 147.694 102.912C145.86 102.311 143.836 103.864 141.927 105.629L140 103.601C141.59 102.131 144.899 99.0719 148.583 100.274C152.258 101.482 153.13 105.699 153.467 108.766L156.171 132.71C157.293 142.673 158.453 152.974 162.686 162.208C164.765 166.739 167.64 170.815 171 173.993L169.05 176Z" fill="black"/>
<path fill-rule="evenodd" clip-rule="evenodd" d="M124.848 220C123.552 220 122.039 219.822 120.275 219.412C120.136 219.393 120.04 219.362 120 219.348L120.393 218.165V216.634L120.832 216.69C124.017 217.442 128.079 217.772 129.343 215.071C130.356 212.933 130.233 210.148 128.982 206.789C128.577 205.708 128.085 204.609 127.609 203.546C126.778 201.689 125.919 199.767 125.397 197.709L125.027 196.241L126.538 196.002C142.405 193.488 157.568 185.805 169.236 174.369C173.695 169.999 177.582 165.139 180.784 159.925L181.352 159L182.398 159.318C189.325 161.423 194.505 167.88 194.996 175.019L195 175.28H192.19V175.162C191.789 169.609 187.824 164.378 182.587 162.324C179.384 167.368 175.561 172.08 171.214 176.339C159.517 187.804 144.423 195.626 128.553 198.477C129 199.79 129.577 201.08 130.179 202.424C130.671 203.525 131.18 204.663 131.617 205.827C133.138 209.91 133.229 213.413 131.89 216.241C131.023 218.093 129.096 220 124.848 220" fill="black"/>
<path fill-rule="evenodd" clip-rule="evenodd" d="M126.102 221C124.021 221 122.127 220.735 120.429 220.205H120.427L120.199 220.137C119.564 219.932 118.939 219.682 118.34 219.393C112.661 216.6 108.946 210.909 106.059 205.71C94.5489 185.017 87.7905 160.574 84.1444 126.454L84 125.102L85.3457 124.916C90.4548 124.211 96.5007 123.314 102.601 122L103.19 124.741C97.5296 125.959 91.9367 126.823 87.0754 127.506C90.7113 160.53 97.3386 184.269 108.505 204.346C111.183 209.167 114.589 214.424 119.566 216.872C119.982 217.073 120.423 217.254 120.871 217.407L121.084 217.471C125.063 218.781 130.478 218.328 137.177 216.126C151.963 211.28 163.304 206.459 172.866 200.954C186.571 193.086 193.044 184.609 192.107 175.758C192 174.538 191.758 173.366 191.365 172.154L194.029 171.29C194.481 172.686 194.771 174.098 194.894 175.487C195.956 185.52 189.014 194.914 174.261 203.385C164.528 208.988 153.022 213.884 138.05 218.789C133.572 220.262 129.576 221 126.102 221" fill="black"/>
<path fill-rule="evenodd" clip-rule="evenodd" d="M199 69.2059L199.001 69.2269C201.161 77.6065 207.99 82.1357 214.467 82.6608C214.774 81.1982 215.418 79.7919 216.382 78.6326C220.444 73.8022 222.198 82.8652 235.235 76.357C253.303 67.3206 260.165 72.5035 260.165 72.5035C260.763 72.9559 260.698 77.1372 260.775 77.8744C261.259 82.192 261.744 86.4886 262.248 90.8057C262.552 93.4384 262.856 96.0501 263.139 98.6618C263.382 98.214 263.667 97.7858 263.953 97.379C265.601 91.5199 268.52 84.6065 274.878 87.5829C276.17 88.1905 277.281 89.1603 278.143 90.2832C282.347 95.8355 279.157 101.198 274.763 105.169C273.777 106.329 272.476 107.431 271.09 108.472C271.813 109.978 274.765 115.956 274.766 115.977C275.072 116.583 285.402 104.83 286.174 103.549C287.309 100.402 287.957 97.0957 287.996 93.7596C288.166 80.0143 282.601 64.0184 271.528 56.1336C268.781 54.1828 269.657 52.3027 269.478 49.6464C269.445 48.9927 268.642 48.7766 268.211 49.2704C264.742 53.2873 256.146 52.8887 256.146 52.8887C226.329 45.3775 216.304 58.7074 210.304 61.0645C207.45 62.1982 204.734 61.8508 202.663 61.1956C202.381 62.8688 201.17 64.2653 199.543 64.7832L199.696 66.1736C199.823 67.2899 199.55 68.3293 199 69.2059" fill="#6D49D5"/>
<path fill-rule="evenodd" clip-rule="evenodd" d="M211.479 88.5005L211.521 88.4995Z" fill="#6D49D5"/>
<path fill-rule="evenodd" clip-rule="evenodd" d="M273.189 107.88C273.73 108.975 274.565 110.653 275.264 112.058C275.453 112.438 275.617 112.766 275.759 113.051C278.49 110.372 284.954 103.057 285.528 102.137C288.531 97.2114 290.145 91.9095 290.195 86.8043C290.35 74.4802 285.474 58.5103 274.234 50.6069C271.712 48.8374 270.386 47.0165 269.903 44.556C265.898 47.9679 259.781 47.6572 259.503 47.6394L259.245 47.6003C235.758 41.7568 224.905 48.876 218.422 53.1295C216.77 54.2131 215.343 55.1487 214.022 55.6617C209.943 57.2497 206.156 56.2673 203.781 55.228L204.243 59.2811C204.313 59.9335 204.289 60.5213 204.17 61.0847C203.793 63.2203 202.207 65.0239 200.117 65.6956C200.074 65.7119 200.031 65.7272 199.987 65.7419C200.094 66.6663 200.256 67.5694 200.472 68.4389L200.509 68.596C202.585 76.2965 208.617 79.8055 213.627 80.6033C214.048 79.357 214.687 78.2114 215.508 77.2367C217.891 74.4375 220.127 75.2424 222.099 75.9512C224.569 76.838 227.95 78.0543 234.906 74.6241C253.624 65.3799 261.117 70.7016 261.427 70.933C262.28 71.5717 262.457 72.8408 262.557 76.33C262.567 76.6951 262.579 77.1085 262.592 77.229C263.077 81.5034 263.563 85.7655 264.07 90.0484L264.147 90.7059C264.215 91.2881 264.283 91.8693 264.351 92.45C265.522 89.5262 267.23 86.6655 269.83 85.4827C271.688 84.6376 273.751 84.7281 275.963 85.7512C277.392 86.4148 278.706 87.4831 279.762 88.8418C283.72 94.0029 282.449 99.9165 276.193 105.501C275.233 106.349 274.227 107.146 273.189 107.88V107.88ZM242.937 136C232.28 136 222.438 127.335 217.976 116.877C214.477 108.657 212.833 98.837 212.951 86.8541C212.973 85.8016 212.994 84.7617 213.056 83.7147C213.056 83.6278 213.059 83.5047 213.084 83.3598C213.085 83.3507 213.086 83.342 213.086 83.3329C207.184 82.3576 200.122 78.2013 197.757 69.1416L197.715 68.9545C197.387 67.5923 197.175 66.1619 197.083 64.701L197 63.379L198.557 63.2071C198.802 63.1868 198.991 63.1456 199.16 63.082L199.235 63.0561C200.363 62.7017 201.218 61.733 201.414 60.5889L201.425 60.5264C201.486 60.2493 201.497 59.9416 201.458 59.5857L200.328 49.6774L202.919 51.5898C202.964 51.6224 207.812 55.0917 213.001 53.0715C214.047 52.6658 215.359 51.8049 216.877 50.8088C223.733 46.3118 235.198 38.7898 259.783 44.8672C260.644 44.8885 266.033 44.8961 268.785 41.7486C269.38 41.0764 270.298 40.8313 271.128 41.1181C271.927 41.3932 272.471 42.1168 272.516 42.9609C272.649 44.9205 273.254 46.5141 275.852 48.336C287.922 56.8236 293.16 73.7876 292.996 86.8353C292.941 92.4347 291.187 98.2253 287.924 103.579C287.381 104.467 284.035 108.262 282.053 110.446C276.418 116.652 275.966 116.634 275.246 116.607L274.422 116.576L273.859 115.513C273.655 115.101 273.237 114.262 272.753 113.291C271.848 111.473 270.716 109.198 270.304 108.35L269.544 106.919L270.786 106.145C270.852 106.101 270.919 106.057 270.979 106.02C272.115 105.255 273.255 104.374 274.326 103.428C279.484 98.8233 280.568 94.4834 277.54 90.534C276.76 89.5323 275.804 88.7472 274.779 88.2718C273.326 87.6001 272.089 87.5141 270.997 88.0109C267.936 89.4036 266.283 95.207 265.74 97.1138C265.423 98.2706 265.243 99.3135 265.206 100.199L262.414 100.291L262.175 98.1007C261.917 95.7475 261.642 93.3952 261.365 91.0272L261.288 90.3713C260.78 86.0858 260.294 81.8191 259.807 77.5311C259.783 77.3048 259.773 76.9906 259.757 76.4089C259.735 75.6472 259.68 73.7398 259.511 73.0071C257.014 71.5386 249.271 70.6355 236.153 77.1146C228.124 81.0737 223.925 79.565 221.146 78.5664C219.226 77.8763 218.77 77.7126 217.652 79.0265C216.862 79.9642 216.299 81.1372 216.028 82.4135C215.956 82.7588 215.905 83.1646 215.872 83.6476L215.856 83.8271C215.795 84.838 215.773 85.8682 215.752 86.8643C215.637 98.475 217.209 107.932 220.556 115.793C222.947 121.398 227.278 126.629 232.139 129.785C236.063 132.331 242.212 134.784 249.219 132.001C253.579 130.259 257.442 127.271 259.969 125.175L261.765 127.31C259.093 129.527 254.993 132.692 250.262 134.582C247.814 135.554 245.355 136 242.937 136V136Z" fill="black"/>
<path fill-rule="evenodd" clip-rule="evenodd" d="M220.321 105.161C220.998 106.689 222.521 107.406 223.725 106.765C224.928 106.124 225.355 104.366 224.679 102.839C224.003 101.311 222.479 100.594 221.275 101.235C220.072 101.876 219.645 103.634 220.321 105.161" fill="black"/>
<path fill-rule="evenodd" clip-rule="evenodd" d="M239.321 104.161C239.998 105.689 241.521 106.406 242.725 105.765C243.928 105.124 244.355 103.366 243.679 101.839C243.003 100.311 241.479 99.5935 240.275 100.235C239.072 100.876 238.645 102.634 239.321 104.161" fill="black"/>
<path fill-rule="evenodd" clip-rule="evenodd" d="M230.502 112C229.873 112 229.271 111.892 228.747 111.622C228.086 111.282 227.267 110.559 227.11 109.047C227.021 108.177 226.047 101.045 225.489 96.9892C224.369 96.0203 220.234 93.0687 214.263 96.1141L213 93.6442C217.569 91.3138 221.336 91.8863 223.693 92.7761C226.258 93.7451 227.744 95.2982 227.806 95.3636L228.112 95.6866L228.172 96.1262C228.237 96.5937 229.751 107.584 229.872 108.763C229.888 108.916 229.926 109.109 230.019 109.156C230.695 109.506 233.013 108.747 234.631 107.834L236 110.247C235.383 110.596 232.765 112 230.502 112" fill="black"/>
<path fill-rule="evenodd" clip-rule="evenodd" d="M249.941 96C243.824 89.7252 234.343 94.0743 234.248 94.119L233 91.7677C233.113 91.7143 244.476 86.5062 252 94.2238L249.941 96Z" fill="black"/>
<path fill-rule="evenodd" clip-rule="evenodd" d="M258.782 171C254.146 171 249.801 169.886 246.258 167.686C242.571 165.396 237.974 160.777 237.153 155.296C236.405 150.31 238.428 145.108 242.717 140.917L241.659 135.532L244.412 135L245.766 141.895L245.19 142.421C241.203 146.066 239.285 150.609 239.926 154.888C240.608 159.432 244.565 163.353 247.747 165.329C253.312 168.785 261.224 169.17 268.91 166.359C275.25 164.04 281.141 159.505 285.499 153.588C287.357 151.064 288.613 148.039 289.228 144.598L289.238 144.54L292 145.024L291.99 145.083C291.298 148.946 289.876 152.359 287.764 155.228C283.084 161.582 276.733 166.462 269.88 168.969C266.165 170.327 262.385 171 258.782 171" fill="black"/>
<path fill-rule="evenodd" clip-rule="evenodd" d="M245.307 153L243 141.59L245.693 141L248 152.41L245.307 153Z" fill="black"/>
<path fill-rule="evenodd" clip-rule="evenodd" d="M369.311 334C362.495 334.001 355.335 331.73 349.041 329.28C318.448 317.38 289.637 296.262 260.965 264.723C248.042 250.493 231.169 238.894 231 238.779L232.584 236.471C232.755 236.588 249.892 248.365 263.041 262.844C291.414 294.055 319.879 314.935 350.06 326.674C360.955 330.917 374.583 334.639 383.335 325.695C387.202 321.757 391.66 315.417 395.43 298.238C398.931 282.103 399.115 263.881 395.961 245.543C392.301 224.395 383.984 204.923 371.907 189.233C359.026 172.497 341.94 160.343 322.497 154.085C312.314 150.803 301.463 148.204 290.245 146.358C284.75 146.302 280.184 142.347 279.363 136.912L275.815 113.417L278.586 113L282.134 136.495C282.753 140.59 286.214 143.562 290.363 143.562L290.59 143.581C301.985 145.45 313.009 148.088 323.359 151.423C343.344 157.856 360.901 170.342 374.129 187.53C386.482 203.577 394.985 223.474 398.722 245.068C401.937 263.758 401.746 282.348 398.169 298.833C394.246 316.707 389.482 323.43 385.339 327.651C380.764 332.324 375.165 334 369.311 334" fill="black"/>
<path fill-rule="evenodd" clip-rule="evenodd" d="M99.8774 303.698C96.0568 303.662 92.7366 300.535 91.8763 296.181C90.1833 287.618 89.7372 274.379 102.102 271.492C117.559 267.883 129.443 284.964 135.272 295.764C137.229 299.391 135.009 304.035 131.361 304L99.8774 303.698Z" fill="#D7E8F0"/>
<path fill-rule="evenodd" clip-rule="evenodd" d="M104.567 251.595C107.855 256.376 107.804 262.001 104.453 264.158C101.102 266.315 95.7206 264.187 92.4331 259.406C89.1451 254.624 89.1959 248.999 92.5466 246.842C95.8973 244.686 101.279 246.813 104.567 251.595" fill="#D7E8F0"/>
<path fill-rule="evenodd" clip-rule="evenodd" d="M360.276 340.87C360.034 340.907 359.774 340.944 359.532 341H359.44L323.196 340.814L268.821 340.533C268.616 340.533 268.412 340.533 268.207 340.515C267.799 340.496 267.39 340.478 267 340.422C270.586 340.011 273.799 338.388 276.27 335.943C278.945 333.294 280.673 329.655 280.914 325.625C280.933 325.439 280.933 325.233 280.933 325.047V324.748C280.933 317.173 275.508 310.754 268.319 309.299C267.948 309.206 267.538 309.149 267.149 309.094C267.762 309.037 268.374 309 268.969 309L314.91 309.243L323.363 309.28L334.769 309.336C342.776 310.045 349.092 316.837 349.092 325.047C349.092 325.793 349.037 326.54 348.925 327.267C348.442 330.719 346.826 333.816 344.485 336.168C341.624 339.041 337.723 340.814 333.394 340.814H361C359.402 340.814 359.848 340.832 360.276 340.87" fill="white"/>
<path fill-rule="evenodd" clip-rule="evenodd" d="M286.09 359.771C288.123 361.771 290.922 363 294 363H267.228C262.097 363 259.317 361.771 257.284 359.771C255.269 357.77 254 355.018 254 351.991C254 345.954 259.038 341 267.228 341H294C287.844 341 282.806 345.954 282.806 351.991C282.806 355.018 284.075 357.77 286.09 359.771" fill="#D7E8F0"/>
<path fill-rule="evenodd" clip-rule="evenodd" d="M375 325.16C374.981 327.63 374.422 329.969 373.396 332.043H373.377C372.631 333.665 371.587 335.135 370.337 336.38C368.286 338.436 365.693 339.906 362.803 340.585C361.665 340.849 360.471 341 359.24 341C359.483 340.943 359.744 340.906 359.987 340.868C359.557 340.83 359.11 340.811 360.714 340.811H333C337.345 340.811 341.262 339.02 344.134 336.116C346.484 333.74 348.106 330.609 348.592 327.121C348.703 326.386 348.759 325.632 348.759 324.877C348.759 316.58 342.418 309.716 334.38 309L349.337 309.075L359.333 309.132C368.006 309.188 375.055 316.392 375 325.16" fill="#6D49D5"/>
<path fill-rule="evenodd" clip-rule="evenodd" d="M273.881 338.742L358.84 339.185C358.864 339.185 358.889 339.185 358.914 339.185C362.693 339.185 366.263 337.695 368.973 334.985C371.689 332.27 373.195 328.657 373.214 324.811V324.811C373.234 320.968 371.762 317.338 369.07 314.587C366.375 311.834 362.795 310.307 358.988 310.288L274.055 309.845C278.727 312.975 281.748 318.342 281.717 324.333C281.694 328.932 279.894 333.25 276.651 336.494C275.803 337.341 274.873 338.094 273.881 338.742M358.915 342C358.885 342 358.855 342 358.826 341.999L268.208 341.527C267.615 341.523 266.974 341.485 266.247 341.407C265.54 341.332 265.003 340.731 265 340.014C264.997 339.295 265.53 338.69 266.236 338.609C269.441 338.242 272.365 336.819 274.691 334.493C277.406 331.778 278.912 328.165 278.932 324.319C278.969 317.006 273.574 310.805 266.381 309.897C265.676 309.808 265.151 309.197 265.161 308.48C265.172 307.762 265.715 307.167 266.422 307.099C267.152 307.03 267.796 306.997 268.384 307L359.001 307.473C363.554 307.497 367.833 309.32 371.05 312.608C374.266 315.893 376.024 320.232 376 324.825C375.977 329.423 374.177 333.742 370.933 336.985C367.697 340.221 363.432 342 358.915 342" fill="black"/>
<path fill-rule="evenodd" clip-rule="evenodd" d="M273.898 339.228H332.868C336.685 339.228 340.286 337.741 343.007 335.041C345.716 332.353 347.207 328.788 347.207 325C347.207 317.154 340.775 310.771 332.868 310.771H273.923C278.624 313.83 281.681 319.099 281.681 325C281.681 329.528 279.899 333.79 276.662 337.001C275.817 337.839 274.889 338.585 273.898 339.228M332.868 342H268.224C267.632 342 266.989 341.965 266.258 341.892C265.549 341.822 265.007 341.233 265 340.526C264.993 339.819 265.525 339.221 266.232 339.137C269.444 338.759 272.368 337.342 274.688 335.041C277.396 332.353 278.888 328.788 278.888 325C278.888 317.798 273.446 311.72 266.23 310.863C265.524 310.778 264.993 310.18 265 309.473C265.007 308.767 265.549 308.178 266.257 308.107C266.987 308.035 267.63 308 268.224 308H332.868C342.315 308 350 315.626 350 325C350 329.528 348.218 333.789 344.982 337.001C341.734 340.224 337.432 342 332.868 342" fill="black"/>
<path fill-rule="evenodd" clip-rule="evenodd" d="M267.608 341.779C260.653 341.779 255.796 345.777 255.796 351.5C255.796 354.087 256.814 356.524 258.66 358.36C260.084 359.774 262.26 361.221 267.608 361.221H353.292C352.942 360.941 352.607 360.642 352.288 360.325C349.913 357.964 348.604 354.83 348.604 351.5C348.604 347.606 350.412 344.086 353.278 341.779H267.608ZM360.602 364H267.608C262.611 364 259.241 362.866 256.684 360.325C254.308 357.964 253 354.83 253 351.5C253 344.257 259.143 339 267.608 339H360.602C361.374 339 362 339.622 362 340.39C362 341.157 361.374 341.779 360.602 341.779C360.493 341.779 360.396 341.779 360.31 341.78C360.222 341.809 360.13 341.829 360.034 341.841C355.112 342.427 351.401 346.58 351.401 351.5C351.401 354.087 352.418 356.524 354.265 358.36C355.848 359.933 357.842 360.901 360.032 361.159C360.129 361.171 360.221 361.191 360.31 361.221C360.397 361.221 360.493 361.221 360.602 361.221C361.374 361.221 362 361.843 362 362.61C362 363.378 361.374 364 360.602 364V364Z" fill="black"/>
<path fill-rule="evenodd" clip-rule="evenodd" d="M294.499 341.779C289.139 341.779 284.779 346.14 284.779 351.5C284.779 354.087 285.79 356.524 287.626 358.359C289.472 360.205 291.912 361.221 294.499 361.221H353.076C352.728 360.941 352.395 360.642 352.078 360.325C349.716 357.964 348.416 354.83 348.416 351.5C348.416 347.606 350.213 344.086 353.061 341.779H294.499ZM358.321 364H294.499C291.17 364 288.032 362.695 285.661 360.325C283.301 357.964 282 354.83 282 351.5C282 344.608 287.608 339 294.499 339H358.321C358.753 339 359.22 339.026 359.749 339.079C360.454 339.149 360.993 339.739 361 340.448C361.007 341.156 360.48 341.757 359.776 341.841C354.884 342.427 351.196 346.58 351.196 351.5C351.196 354.087 352.207 356.524 354.042 358.359C355.616 359.933 357.598 360.901 359.775 361.159C360.479 361.243 361.007 361.843 361 362.551C360.994 363.26 360.455 363.851 359.75 363.922C359.223 363.975 358.755 364 358.321 364V364Z" fill="black"/>
<path fill-rule="evenodd" clip-rule="evenodd" d="M179 266H150.424C147.77 266 145.337 264.448 144.26 262.037C144.093 261.653 144 261.269 144 260.886C144 259.37 145.263 258 146.952 258H177.329C175.899 260.374 176.624 263.662 179 266" fill="#D7E8F0"/>
<path fill-rule="evenodd" clip-rule="evenodd" d="M198 263.114C198 264.63 196.749 266 195.049 266H179.416C177.026 263.662 176.298 260.374 177.735 258H191.538C194.227 258 196.655 259.552 197.738 261.945C197.907 262.329 198 262.73 198 263.114" fill="#6D49D5"/>
<path fill-rule="evenodd" clip-rule="evenodd" d="M190.304 266.202C190.232 266.356 190.142 266.509 190.034 266.662C188.055 269.537 183.772 269.805 180.443 267.218C180.048 266.911 179.67 266.566 179.328 266.202C177.025 263.749 176.323 260.299 177.708 257.807C177.78 257.654 177.871 257.501 177.979 257.347C179.94 254.453 184.222 254.204 187.551 256.772C187.965 257.098 188.342 257.443 188.684 257.807C190.969 260.261 191.671 263.691 190.304 266.202" fill="white"/>
<path fill-rule="evenodd" clip-rule="evenodd" d="M205 281.114C205 282.63 203.722 284 202.013 284H171.672C173.137 281.607 172.404 278.338 170 276H198.5C201.205 276 203.647 277.552 204.737 279.963C204.906 280.347 205 280.731 205 281.114" fill="#6D49D5"/>
<path fill-rule="evenodd" clip-rule="evenodd" d="M171.265 284H157.339C154.701 284 152.319 282.448 151.256 280.055C151.091 279.671 151 279.269 151 278.886C151 277.351 152.228 276 153.895 276H169.635C171.98 278.338 172.694 281.607 171.265 284" fill="#D7E8F0"/>
<path fill-rule="evenodd" clip-rule="evenodd" d="M171.278 284.192C171.224 284.346 171.134 284.499 171.026 284.653C169.064 287.546 164.78 287.796 161.45 285.227C161.036 284.902 160.659 284.557 160.317 284.192C158.031 281.739 157.329 278.308 158.697 275.798C158.769 275.645 158.858 275.491 158.967 275.338C160.946 272.463 165.23 272.195 168.56 274.782C168.956 275.089 169.334 275.434 169.676 275.798C171.98 278.251 172.682 281.682 171.278 284.192" fill="white"/>
<path fill-rule="evenodd" clip-rule="evenodd" d="M182 302H164.324C161.711 302 159.316 300.448 158.256 298.055C158.092 297.671 158 297.288 158 296.904C158 295.37 159.243 294 160.906 294H180.355C178.966 296.393 179.679 299.662 182 302" fill="#6D49D5"/>
<path fill-rule="evenodd" clip-rule="evenodd" d="M211 299.132C211 300.649 209.736 302 208.018 302H181.429C179.032 299.662 178.296 296.392 179.73 294H204.471C207.188 294 209.642 295.552 210.736 297.964C210.906 298.347 211 298.749 211 299.132" fill="#D7E8F0"/>
<path fill-rule="evenodd" clip-rule="evenodd" d="M193.291 302.191C193.219 302.345 193.129 302.498 193.021 302.651C191.06 305.547 186.778 305.796 183.45 303.227C183.036 302.901 182.658 302.556 182.316 302.191C180.031 299.736 179.329 296.304 180.696 293.792C180.768 293.639 180.859 293.485 180.967 293.332C182.946 290.455 187.228 290.206 190.556 292.776C190.953 293.082 191.33 293.427 191.672 293.792C193.975 296.247 194.677 299.698 193.291 302.191" fill="white"/>
<path fill-rule="evenodd" clip-rule="evenodd" d="M57.0625 139L57.9375 139.167L57.6095 140C57.2085 139.357 57.0625 139 57.0625 139" fill="#353642"/>
<path fill-rule="evenodd" clip-rule="evenodd" d="M145.259 162.432C147.642 170.476 144.085 178.595 137.315 180.566C130.544 182.536 123.124 177.612 120.741 169.568C118.358 161.524 121.915 153.405 128.685 151.434C135.456 149.464 142.876 154.387 145.259 162.432" fill="#D7E8F0"/>
</svg>
