<svg width="396" height="330" viewBox="0 0 396 330" fill="none" xmlns="http://www.w3.org/2000/svg">
<path fill-rule="evenodd" clip-rule="evenodd" d="M348 155.008L347.186 162.739C345.08 167.775 342.973 172.811 340.866 177.847C340.129 179.608 339.392 181.37 338.654 183.134C338.323 183.927 337.828 184.747 337.244 185.377C337.172 185.454 337.083 185.536 336.977 185.53C336.798 185.521 336.735 185.292 336.72 185.114C336.565 183.207 336.447 181.289 336.04 179.42C334.066 170.357 323.538 167.034 315.282 167.241C311.996 167.324 308.698 168.015 305.731 169.451C301.42 171.537 299.742 177.339 299.511 177.552L299.331 178.297L296.371 190.606C295.751 193.334 295.275 194.802 292.738 195.532C292.655 195.56 290.128 196.914 290.045 196.928C289.066 197.203 291.752 196.614 290.69 196.435L287.339 195.884L285.905 195.553L265 190.605C265.813 190.743 266.641 190.895 267.482 191.074L272.322 192.246L271.04 186.099C267.702 166.956 273.232 149.592 282.65 140.165C285.133 137.684 286.362 137.05 289.258 135.396L290.878 139.246C290.878 139.246 307.506 144.201 311.423 129C313.008 129.138 316.049 129.112 317.621 129.443C325.523 131.111 332.955 135.259 338.651 141.846C339.133 142.398 339.602 142.963 340.071 143.541C340.154 143.638 340.236 143.748 340.319 143.845C340.609 144.203 340.912 144.575 341.202 144.947C341.271 145.044 341.34 145.14 341.408 145.237C343.78 148.31 345.973 151.59 348 155.008" fill="#353642"/>
<path fill-rule="evenodd" clip-rule="evenodd" d="M372 262H285.544L282.968 261.234C282.968 261.234 282.445 232.098 279 224.643L291.813 228.965L304.213 232.508C304.213 232.508 321.277 232.861 331.032 215.571C331.032 215.571 332.674 211.443 334.148 204.001C335.416 197.545 342.175 161.948 345.013 154C348.071 159.307 352.862 168.435 355.177 174.002C357.685 180.049 359.793 186.067 361.515 191.648C361.515 191.662 361.529 191.662 361.529 191.662C366.392 207.379 368.307 219.691 368.307 219.691C368.307 219.691 372.027 238.677 372 262" fill="#353642"/>
<path fill-rule="evenodd" clip-rule="evenodd" d="M376 183.719V183.733C375.451 190.142 371.088 191.169 371.088 191.169C367.396 193.347 361.729 191.005 360.59 186.924C360.576 186.883 360.562 186.842 360.562 186.787C359.629 183.295 357.873 178.802 355.485 173.886C350.888 162.78 344.905 151.577 337.234 142.716C331.567 136.17 324.171 132.047 316.308 130.391C316.28 130.377 316.267 130.363 316.239 130.363C305.439 127.118 300.184 120.489 297.906 114.134C297.892 114.134 297.892 114.121 297.906 114.107C296.931 110.095 295.935 106.18 296.47 103.811C297.39 99.6612 297.815 95.1609 296.704 94.2709C295.277 93.079 292.698 93.9618 286.139 95.2764C280.458 96.4406 277.432 95.7833 276.746 92.318C276.636 91.7703 276.581 91.2225 276.581 90.6884C276.554 91.0307 275.233 89.6597 275.151 89.9883C274.725 91.7548 273.866 92.4621 272 93.2426C269.228 94.3932 268.093 98.833 267.681 101.791C267.256 104.941 268.677 109.286 269.802 112.231C268.362 110.587 266.715 110.779 264.135 111.793C263.49 112.039 261.843 111.971 260.567 111.519C260.746 111.354 260.965 111.258 261.198 111.19C261.61 111.053 258.605 109.561 259.044 109.465C263.422 108.478 265.878 104.836 265.356 101.631C264.067 93.5645 265.782 84.0738 271.243 77.788C277.267 70.8716 287.093 69.4338 295.408 72.5972C301.94 75.076 308.115 80.1568 310.38 86.9358C310.393 86.9636 310.393 86.9908 310.407 87.0181C310.695 87.8673 310.915 88.7573 311.066 89.6615C311.903 94.7009 310.122 99.8085 309.134 104.793C308.777 106.588 309.68 108.547 309.872 109.971C310.969 118.517 320.85 120.927 328.671 124.557C345.111 132.198 358.531 145.263 367.561 161.15C373.557 171.681 375.698 178.857 376 183.719" fill="#6D49D5"/>
<path fill-rule="evenodd" clip-rule="evenodd" d="M269.283 192L267.985 185.926C264.79 168.038 269.518 149.869 280.023 139.606C282.546 137.145 285.372 135.033 288.424 133.328C288.622 133.203 288.817 133.099 289.007 133L290 134.799C289.848 134.879 289.694 134.957 289.554 135.049L289.493 135.086C286.59 136.704 283.903 138.71 281.505 141.049C271.466 150.857 266.966 168.322 270.041 185.542L271.333 191.583L269.283 192Z" fill="black"/>
<path fill-rule="evenodd" clip-rule="evenodd" d="M372 261L369.967 260.998C369.994 238.07 366.392 219.13 366.355 218.941C366.33 218.782 364.478 206.874 359.935 191.779H359.671L359.66 190.901C357.819 184.858 355.748 179.008 353.502 173.508C351.077 167.584 348.434 162.09 345.647 157.179C342.496 151.618 339.135 146.746 335.655 142.697C330.387 136.549 323.435 132.412 315.552 130.734C313.992 130.402 312.46 130.169 311 130.041L311.176 128C312.717 128.135 314.331 128.38 315.971 128.729C324.294 130.501 331.631 134.867 337.192 141.356C340.757 145.505 344.195 150.487 347.412 156.162C350.241 161.148 352.923 166.722 355.381 172.727C357.58 178.113 359.613 183.829 361.428 189.73H361.438L361.658 190.453C366.407 206.041 368.338 218.465 368.357 218.589C368.387 218.741 372.027 237.876 372 261" fill="black"/>
<path fill-rule="evenodd" clip-rule="evenodd" d="M171.674 164L170 162.797C170.129 162.608 170.265 162.45 170.386 162.311L187.689 142.969C191.829 138.345 197.829 136.213 203.741 137.263C203.84 137.28 203.927 137.295 204 137.31L203.597 139.366C203.543 139.355 203.48 139.344 203.415 139.333C198.169 138.401 192.861 140.292 189.194 144.386L171.903 163.716C171.831 163.8 171.747 163.894 171.674 164" fill="black"/>
<path fill-rule="evenodd" clip-rule="evenodd" d="M181.519 167L180 165.736L188.541 157L190 158.323L181.519 167Z" fill="black"/>
<path fill-rule="evenodd" clip-rule="evenodd" d="M305.049 232C301.731 232 298.403 231.446 295.202 230.324L255 216.24L255.684 214.31L295.886 228.394C303.444 231.043 311.768 230.293 318.725 226.339C325.682 222.385 330.555 215.633 332.095 207.814L341.608 159.53C342.54 154.755 341.504 149.929 338.689 145.943C338.268 145.349 337.858 144.836 337.438 144.376L338.961 143C339.439 143.523 339.9 144.101 340.372 144.766C343.512 149.213 344.668 154.594 343.627 159.921L334.115 208.207C332.46 216.61 327.222 223.866 319.746 228.115C315.217 230.69 310.147 232 305.049 232" fill="black"/>
<path fill-rule="evenodd" clip-rule="evenodd" d="M212.532 240C211.585 240 210.63 239.789 209.77 239.389C207.015 238.099 205.522 235.116 206.137 232.135C207.871 223.648 211.707 211.594 220.134 202.369C230.369 191.166 244.598 187.073 262.424 190.205C263.356 190.363 264.145 190.512 264.902 190.674L286.659 195.962C287.855 196.25 289.095 196.206 290.245 195.834L290.39 195.798C290.414 195.793 290.446 195.78 290.478 195.77C292.665 195.019 294.294 193.225 294.831 190.972L302.021 161L304 161.476L296.81 191.446C296.111 194.381 293.988 196.718 291.132 197.698C291.042 197.729 290.934 197.764 290.812 197.791C289.322 198.26 287.723 198.313 286.183 197.942L282.575 197.073L264.45 192.66C263.749 192.511 262.987 192.367 262.078 192.212C244.975 189.208 231.37 193.088 221.636 203.744C213.522 212.625 209.813 224.308 208.131 232.545C207.706 234.601 208.734 236.655 210.63 237.543C211.22 237.817 211.879 237.963 212.532 237.963C214.554 237.963 216.294 236.669 216.86 234.742C219.109 227.003 222.872 217.043 228.024 213.558L229.163 215.246C225.536 217.699 221.86 224.826 218.813 235.314C217.989 238.118 215.465 240 212.532 240" fill="black"/>
<path fill-rule="evenodd" clip-rule="evenodd" d="M209.129 162H195.085C191.178 162 188 158.86 188 155C188 151.14 191.178 148 195.085 148H215V150.076H195.085C192.336 150.076 190.101 152.285 190.101 155C190.101 157.715 192.336 159.924 195.085 159.924H209.129V162Z" fill="black"/>
<path fill-rule="evenodd" clip-rule="evenodd" d="M188.904 170C186.433 170 183.714 169.451 181 168.158L181.939 166.29C186.096 168.271 192.316 168.775 195.654 165.805C196.96 164.648 197.706 163.032 197.872 161L200 161.165C199.79 163.741 198.811 165.82 197.092 167.342C195.298 168.938 192.34 170 188.904 170" fill="black"/>
<path fill-rule="evenodd" clip-rule="evenodd" d="M259.848 171C257.923 171 256.074 170.298 254.634 168.992C250.739 165.46 246.469 161.859 241.944 158.287C232.396 150.748 223.678 144.142 213.67 139.645C206.518 136.425 198.565 134.753 191.845 135.062C183.444 135.446 177.28 138.701 173.523 144.736C170.959 148.855 169.61 154.912 173.515 159.559L171.929 160.851C168.915 157.264 167.29 150.869 171.768 143.677C175.844 137.128 182.754 133.449 191.749 133.038C198.784 132.717 207.085 134.453 214.525 137.802C224.749 142.395 233.574 149.081 243.232 156.706C247.793 160.307 252.098 163.939 256.028 167.501C257.318 168.671 259.056 169.179 260.798 168.896C262.564 168.61 264.069 167.558 264.925 166.013C268.918 158.805 269.861 156.8 270.067 156.246L272 156.943C271.598 158.021 269.826 161.399 266.732 166.983C265.57 169.08 263.529 170.506 261.133 170.896C260.703 170.965 260.273 171 259.848 171" fill="black"/>
<path fill-rule="evenodd" clip-rule="evenodd" d="M230.512 195C215.552 179.166 195.204 167.935 195 167.823L195.98 166C196.187 166.113 216.819 177.501 232 193.569L230.512 195Z" fill="black"/>
<path fill-rule="evenodd" clip-rule="evenodd" d="M240.731 234C236.411 234 232.059 233.32 227.736 231.965C225.432 231.243 223.567 229.432 222.622 226.997C221.643 224.472 221.828 221.673 223.119 219.511L224.915 220.553C223.943 222.182 223.814 224.316 224.568 226.262C225.285 228.11 226.67 229.474 228.367 230.006C233.979 231.764 239.64 232.331 245.191 231.687C250.27 231.103 254.478 227.329 257.699 220.469C257.987 219.854 257.993 219.168 257.716 218.537C257.434 217.895 256.886 217.401 256.213 217.182C254.985 216.783 253.674 217.376 253.163 218.563C251.8 221.727 250.238 223.87 248.521 224.933L247.413 223.191C248.744 222.368 250.069 220.489 251.245 217.759C252.184 215.58 254.6 214.493 256.866 215.23C258.103 215.633 259.109 216.54 259.628 217.719C260.137 218.878 260.123 220.195 259.589 221.332C256.044 228.886 251.281 233.057 245.433 233.729C243.873 233.909 242.304 234 240.731 234" fill="black"/>
<path fill-rule="evenodd" clip-rule="evenodd" d="M233.358 232C233.061 231.709 232.81 231.392 232.613 231.057C228.45 223.889 233.654 217.068 233.707 217L234.999 218.434L234.353 217.717L235 218.432C234.824 218.66 230.715 224.095 234.059 229.852C234.161 230.026 234.303 230.203 234.477 230.374L233.358 232Z" fill="black"/>
<path fill-rule="evenodd" clip-rule="evenodd" d="M242.77 234C241.365 233.794 240.291 233.014 239.665 231.743C238.836 230.063 238.782 227.549 239.503 224.273C240.017 221.943 240.738 220.078 240.769 220L242.417 220.835C241.674 222.748 240.013 228.256 241.238 230.735C241.588 231.445 242.148 231.834 243 231.959L242.77 234Z" fill="black"/>
<path fill-rule="evenodd" clip-rule="evenodd" d="M0 262H396V261H0V262Z" fill="black"/>
<path fill-rule="evenodd" clip-rule="evenodd" d="M79.1176 252.031C79.6357 257.036 83.9085 260.951 89.0854 260.951H230.901C233.572 260.951 236.089 259.913 237.989 258.028C239.89 256.154 240.935 253.662 240.935 251.007V243.633C240.935 242.208 239.768 241.049 238.332 241.049H199.574C198.451 247.371 192.926 252.031 186.359 252.031H79.1176ZM230.901 263H89.0854C82.4213 263 77 257.62 77 251.007V249.982H186.359C192.181 249.982 197.036 245.655 197.651 239.916L197.75 239H238.332C240.906 239 243 241.078 243 243.633V251.007C243 254.212 241.738 257.22 239.446 259.478C237.159 261.749 234.124 263 230.901 263V263Z" fill="black"/>
<path fill-rule="evenodd" clip-rule="evenodd" d="M61.3976 163.053C57.903 163.053 54.6584 164.622 52.4957 167.358C50.3334 170.094 49.5613 173.604 50.3771 176.99L65.5823 240.279C66.8081 245.383 71.3399 248.947 76.6028 248.947H186.607C192.411 248.947 197.252 244.612 197.866 238.863C198.019 237.59 197.938 236.298 197.628 235.011L182.409 171.722C182.07 170.297 181.456 168.962 180.586 167.751L180.053 167.088C177.923 164.529 174.761 163.053 171.388 163.053H61.3976ZM186.607 251H76.6028C70.3843 251 65.0293 246.788 63.5804 240.757L48.3756 177.469C47.4113 173.469 48.3241 169.32 50.8791 166.088C53.4345 162.855 57.2684 161 61.3976 161H171.388C175.375 161 179.115 162.746 181.649 165.791L182.241 166.531C183.278 167.966 184.008 169.552 184.411 171.245L199.629 234.531C199.997 236.057 200.092 237.591 199.911 239.094C199.187 245.876 193.466 251 186.607 251V251Z" fill="black"/>
<path fill-rule="evenodd" clip-rule="evenodd" d="M135.057 115.043C128.923 115.043 123.964 110.042 123.964 103.887C123.964 97.7187 128.923 92.7176 135.057 92.7176C141.19 92.7176 146.163 97.7187 146.163 103.887C146.163 110.042 141.19 115.043 135.057 115.043M100.561 115.043C94.4274 115.043 89.4684 110.042 89.4684 103.887C89.4684 97.7187 94.4274 92.7176 100.561 92.7176C106.695 92.7176 111.668 97.7187 111.668 103.887C111.668 110.042 106.695 115.043 100.561 115.043M64.3449 115.043C58.2109 115.043 53.2378 110.042 53.2378 103.887C53.2378 97.7187 58.2109 92.7176 64.3449 92.7176C70.4652 92.7176 75.4379 97.7187 75.4379 103.887C75.4379 110.042 70.4652 115.043 64.3449 115.043M163.718 88.0465C163.021 87.222 162.284 86.4254 161.519 85.656C153.117 77.2205 141.532 72 128.731 72H71.3531C45.7517 72 25 92.8689 25 118.615V118.945C25 123.451 26.1609 127.683 28.1964 131.365C32.8004 136.063 39.1942 138.976 46.2845 138.976H102.57C106.149 138.976 109.045 141.888 109.045 145.488C109.045 149.087 111.969 152 115.534 152H115.685L129.578 151.643C129.565 151.505 129.551 151.382 129.551 151.258C127.16 150.434 125.439 148.153 125.439 145.461V145.158C125.439 141.573 128.335 138.646 131.914 138.646H145.617C159.634 138.646 171 127.216 171 113.12C171 103.887 168.336 95.2868 163.718 88.0465" fill="#B2A7D4"/>
<path fill-rule="evenodd" clip-rule="evenodd" d="M67.6434 69.0481C42.5091 69.0481 22.0611 89.3675 22.0611 114.343V114.671C22.0611 121.107 24.5609 127.174 29.1009 131.753C33.7416 136.433 39.9409 139.011 46.5556 139.011H103.156C107.315 139.011 110.698 142.373 110.698 146.505C110.698 149.509 113.164 151.952 116.193 151.952H116.345L127.384 151.672C125.974 150.356 125.123 148.491 125.123 146.478V146.178C125.123 142.045 128.507 138.683 132.665 138.683H146.445C159.951 138.683 170.939 127.765 170.939 114.343C170.939 105.663 168.464 97.2387 163.78 89.9819C162.028 87.2392 159.945 84.6618 157.586 82.3174C148.961 73.7606 137.509 69.0481 125.343 69.0481H67.6434ZM116.193 154C112.027 154 108.637 150.638 108.637 146.505C108.637 143.502 106.179 141.059 103.156 141.059H46.5556C39.3846 141.059 32.664 138.264 27.6325 133.191C22.7105 128.225 20 121.648 20 114.671V114.343C20 88.2383 41.3727 67 67.6434 67H125.343C138.059 67 150.028 71.9259 159.042 80.8687C161.509 83.3201 163.688 86.0153 165.517 88.8808C170.412 96.4638 173 105.27 173 114.343C173 128.893 161.087 140.731 146.445 140.731H132.665C129.643 140.731 127.184 143.174 127.184 146.178V146.478C127.184 148.644 128.566 150.57 130.623 151.27C131.138 151.453 131.688 151.543 132.267 151.543L132.296 153.59L130.345 153.645L116.193 154Z" fill="black"/>
<path fill-rule="evenodd" clip-rule="evenodd" d="M315.438 130H315.288L315.143 129.956C303.312 126.389 298.365 118.953 296.299 113.281L295.99 112.531L296.032 112.488C294.399 107.549 294.475 102.807 295.117 99.948C295.577 97.8777 295.792 96.5148 295.816 95.5303C295.847 94.6219 295.716 94.0432 295.429 93.7996C294.563 93.0658 291.39 93.7116 287 94.606C286.279 94.7529 285.514 94.9089 284.703 95.0704C280.586 95.9062 277.154 94.6228 275.291 91.5502C275.15 91.3416 275.011 91.0844 274.887 90.8005C274.188 89.3443 273.882 87.6277 274.041 86L276.078 86.1995C275.955 87.4599 276.192 88.7905 276.747 89.9465C276.838 90.1538 276.919 90.3034 277.017 90.4499C278.449 92.8105 281.028 93.7248 284.3 93.0613C285.111 92.8994 285.874 92.7438 286.592 92.5978C292.274 91.44 295.126 90.859 296.751 92.235C297.818 93.1388 297.896 94.5824 297.862 95.5897C297.835 96.7171 297.611 98.1575 297.114 100.395C296.509 103.094 296.469 107.665 298.171 112.41L298.392 113.027L298.391 113.029C300.389 118.185 305.008 124.74 315.673 127.975C315.84 128.012 315.954 128.078 316 128.105L315.05 129.917C315.14 129.957 315.273 130 315.438 130V130Z" fill="black"/>
<path fill-rule="evenodd" clip-rule="evenodd" d="M367.811 192C366.708 192 365.568 191.78 364.469 191.336C362.016 190.346 360.177 188.421 359.545 186.182C359.527 186.127 359.501 186.038 359.485 185.925C358.547 182.432 356.827 178.051 354.505 173.249L356.355 172.351C358.751 177.306 360.528 181.846 361.494 185.478L361.529 185.641C361.993 187.261 363.377 188.674 365.237 189.425C367.085 190.171 369.049 190.106 370.489 189.253L370.624 189.173L370.776 189.137C370.915 189.101 374.405 188.141 374.89 182.63L374.894 182.58C375.371 176.818 372.552 168.541 366.516 157.978C357.174 141.64 343.767 129.091 327.743 121.689C326.386 121.061 324.928 120.455 323.519 119.869C317.439 117.342 311.153 114.729 308.922 109.053C308.002 106.769 307.836 104.084 308.432 101.081C309.421 96.0656 310.225 90.756 309.414 85.9203L309.399 85.8916L309.373 85.7447C307.905 77.4871 300.612 71.9837 294.276 69.5866C285.768 66.3658 276.427 68.3447 271.033 74.5094C266.134 80.1173 263.953 88.96 265.341 97.587L265.385 97.8497C265.915 101.017 266.901 106.911 261.659 108.087C261.469 108.129 261.281 108.159 261.094 108.188C260.857 108.226 260.633 108.261 260.458 108.32L260.412 108.334C260.214 108.39 260.097 108.487 260.077 108.538C260.042 108.635 260.058 108.669 260.065 108.685C260.116 108.794 260.367 109.037 260.983 109.256C262.122 109.661 263.496 109.67 263.835 109.54C266.152 108.625 268.595 107.924 270.636 110.264C270.85 110.513 271.031 110.745 271.196 110.98L269.516 112.168C269.387 111.984 269.249 111.808 269.082 111.612C268.219 110.623 267.361 110.363 264.58 111.461C263.636 111.824 261.718 111.705 260.296 111.198C259.241 110.824 258.537 110.272 258.204 109.559C257.95 109.015 257.933 108.411 258.155 107.809C258.424 107.112 259.031 106.589 259.831 106.357C260.159 106.25 260.485 106.198 260.774 106.153C260.921 106.129 261.068 106.106 261.215 106.074C264.3 105.383 264.011 102.095 263.357 98.1909L263.312 97.9209C261.829 88.6982 264.195 79.2088 269.487 73.1508C275.443 66.3435 285.697 64.1361 295.002 67.6583C301.839 70.2452 309.716 76.2279 311.378 85.2763L311.441 85.4013L311.449 85.6266C312.302 90.7756 311.473 96.2891 310.448 101.482C309.924 104.123 310.049 106.349 310.831 108.289C312.746 113.16 318.623 115.603 324.306 117.965C325.734 118.559 327.21 119.172 328.603 119.816C345.017 127.399 358.744 140.241 368.299 156.953C374.532 167.86 377.441 176.525 376.946 182.708L376.942 182.767C376.393 189.209 372.314 190.818 371.416 191.096C370.35 191.697 369.106 192 367.811 192" fill="black"/>
<path fill-rule="evenodd" clip-rule="evenodd" d="M280.377 120C276.052 120 272.112 117.347 268.984 112.327C266.552 108.425 265.557 103.883 266.182 99.5382C266.757 95.5417 268.49 92.8598 271.192 91.7829C273.067 91.0337 274.193 89.2458 274.202 87L276.271 87.008C276.259 90.0419 274.615 92.5804 271.982 93.6324C269.968 94.4352 268.707 96.5149 268.232 99.8141C267.672 103.707 268.568 107.784 270.757 111.295C272.662 114.353 275.879 117.999 280.377 117.999C288.735 117.999 292.421 114.176 292.457 114.137L294 115.47C293.83 115.655 289.728 120 280.377 120" fill="black"/>
<path fill-rule="evenodd" clip-rule="evenodd" d="M277.815 106C277.538 106 277.268 105.963 277.021 105.871C276.587 105.709 276.266 105.402 276.116 105.006C275.799 104.169 276.19 100.734 276.573 98L278.752 98.2471C278.453 100.382 278.187 102.899 278.182 103.972C278.442 103.91 278.766 103.804 279.034 103.687L280 105.462C279.577 105.649 278.667 106 277.815 106" fill="black"/>
<path fill-rule="evenodd" clip-rule="evenodd" d="M282.648 112C281.768 112 280.874 111.842 280 111.524L280.717 109.602C282.104 110.106 283.549 110.062 284.786 109.477C285.866 108.965 286.665 108.085 287.034 107L289 107.652C288.451 109.267 287.272 110.571 285.682 111.324C284.731 111.774 283.699 112 282.648 112" fill="black"/>
<path fill-rule="evenodd" clip-rule="evenodd" d="M285.847 92.0538C285.745 92.0538 285.644 92.056 285.542 92.0615C283.952 92.1419 282.506 92.8362 281.47 94.0177C280.442 95.1886 279.94 96.7013 280.055 98.2762C280.296 101.565 283.167 104.107 286.458 103.939C288.048 103.858 289.494 103.164 290.53 101.983C291.557 100.812 292.06 99.2991 291.944 97.7241C291.712 94.5375 289.007 92.0538 285.847 92.0538M286.154 106C281.939 106 278.333 102.683 278.022 98.4271C277.866 96.2955 278.548 94.2467 279.942 92.6581C281.344 91.0591 283.297 90.119 285.44 90.0104C289.823 89.7877 293.657 93.1816 293.978 97.5728C294.134 99.7044 293.452 101.753 292.059 103.342C290.656 104.941 288.703 105.881 286.56 105.99C286.425 105.997 286.289 106 286.154 106" fill="black"/>
<path fill-rule="evenodd" clip-rule="evenodd" d="M268.847 93.0539C268.745 93.0539 268.644 93.0561 268.542 93.0616C266.952 93.142 265.506 93.8363 264.47 95.0177C263.442 96.1887 262.94 97.7014 263.055 99.2763C263.296 102.565 266.168 105.107 269.458 104.939C271.048 104.858 272.494 104.164 273.53 102.983C274.557 101.812 275.06 100.299 274.944 98.7242C274.712 95.5376 272.007 93.0539 268.847 93.0539M269.154 107C264.939 107 261.333 103.683 261.022 99.4271C260.866 97.2956 261.548 95.2468 262.942 93.6582C264.344 92.0592 266.297 91.1191 268.44 91.0105C272.825 90.7865 276.657 94.1817 276.978 98.5729C277.134 100.704 276.452 102.753 275.059 104.342C273.656 105.941 271.703 106.881 269.56 106.99C269.425 106.997 269.289 107 269.154 107" fill="black"/>
<path fill-rule="evenodd" clip-rule="evenodd" d="M276.108 100L276 97.2504L279.892 97L280 99.7496L276.108 100Z" fill="black"/>
<path fill-rule="evenodd" clip-rule="evenodd" d="M291.982 97.2225C291.72 94.1887 288.606 91.8539 285.026 92.0071C281.446 92.16 278.756 94.7437 279.018 97.7771C279.28 100.811 282.394 103.146 285.974 102.993C289.554 102.84 292.244 100.256 291.982 97.2225" fill="#EBEFFF"/>
<path fill-rule="evenodd" clip-rule="evenodd" d="M274.982 98.2225C274.72 95.1887 271.606 92.8539 268.026 93.0071C264.446 93.16 261.756 95.7437 262.018 98.7771C262.28 101.811 265.394 104.146 268.974 103.993C272.554 103.84 275.244 101.256 274.982 98.2225" fill="#EBEFFF"/>
<path fill-rule="evenodd" clip-rule="evenodd" d="M286 99.5C286 100.329 285.329 101 284.5 101C283.671 101 283 100.329 283 99.5C283 98.6715 283.671 98 284.5 98C285.329 98 286 98.6715 286 99.5" fill="black"/>
<path fill-rule="evenodd" clip-rule="evenodd" d="M272 100.5C272 101.329 271.329 102 270.5 102C269.672 102 269 101.329 269 100.5C269 99.6715 269.672 99 270.5 99C271.329 99 272 99.6715 272 100.5" fill="black"/>
<path fill-rule="evenodd" clip-rule="evenodd" d="M296.146 141C293.245 141 291.099 140.43 290.933 140.384L290.449 140.252L282 119.809L283.889 119L291.94 138.478C293.605 138.826 299.331 139.73 303.984 136.959C306.954 135.19 308.983 132.221 310.015 128.135L312 128.654C310.825 133.306 308.472 136.709 305.005 138.768C302.04 140.529 298.781 141 296.146 141" fill="black"/>
<path fill-rule="evenodd" clip-rule="evenodd" d="M133.308 204.855C135.521 212.032 132.251 219.482 126.006 221.495C119.761 223.508 112.904 219.322 110.692 212.145C108.479 204.968 111.748 197.518 117.994 195.505C124.239 193.492 131.096 197.678 133.308 204.855" fill="#C0D5DF"/>
<path fill-rule="evenodd" clip-rule="evenodd" d="M280.054 262C279.885 246.178 277.163 230.434 276 224.399L277.908 224C279.081 230.09 281.829 245.983 282 261.978L280.054 262Z" fill="black"/>
</svg>
