<svg width="40" height="50" viewBox="0 0 40 50" fill="none" xmlns="http://www.w3.org/2000/svg">
<path fill-rule="evenodd" clip-rule="evenodd" d="M20 0.9375C9.29948 0.9375 0.625 9.61198 0.625 20.3125C0.625 24.671 2.06639 28.6982 4.49773 31.9362C5.70412 33.5428 7.09989 34.9517 8.43158 36.2595C8.61169 36.4364 8.79029 36.6112 8.96728 36.7843L8.9691 36.7861C10.1287 37.9206 11.2187 38.987 12.2057 40.1416L12.8861 40.9375H27.1139L27.7943 40.1416C28.7813 38.987 29.8713 37.9206 31.0309 36.7861L31.0309 36.7861L31.0331 36.784C31.2099 36.6109 31.3884 36.4363 31.5684 36.2595C32.9001 34.9517 34.2959 33.5428 35.5023 31.9362C37.9336 28.6982 39.375 24.671 39.375 20.3125C39.375 9.61198 30.7005 0.9375 20 0.9375ZM4.375 20.3125C4.375 11.6831 11.3706 4.6875 20 4.6875C28.6294 4.6875 35.625 11.6831 35.625 20.3125C35.625 23.8313 34.4641 27.0735 32.5036 29.6845C31.4822 31.0447 30.2664 32.2822 28.9408 33.584C28.7696 33.7522 28.596 33.9219 28.4208 34.0932L28.4206 34.0934C27.4249 35.067 26.3764 36.0921 25.3965 37.1875H14.6035C13.6236 36.0921 12.5751 35.0669 11.5793 34.0934C11.4041 33.922 11.2305 33.7523 11.0592 33.584C9.73358 32.2822 8.51783 31.0447 7.49645 29.6845C5.53594 27.0735 4.375 23.8313 4.375 20.3125Z" fill="black"/>
<path d="M26.875 49.0625V45.3125H13.125V49.0625H26.875Z" fill="black"/>
</svg>
