<svg width="404" height="410" viewBox="0 0 404 410" fill="none" xmlns="http://www.w3.org/2000/svg">
<path fill-rule="evenodd" clip-rule="evenodd" d="M390.533 252.919C391.913 244.022 392.348 234.965 391.716 225.809C387.405 163.4 365.092 82.5933 320.309 37.1367C306.586 23.2071 289.69 12.8781 270.757 7.78131C227.868 -3.76311 187.163 -6.63491 154.66 29.0124C133.603 52.1067 129.853 81.5971 114.002 107.083C83.9365 155.428 14.3228 167.334 2.60405 229.086C-5.98892 274.366 21.2981 318.756 52.1212 349.734C83.2178 380.987 124.737 402.867 168.649 408.505C179.296 409.872 190.062 410.317 200.786 409.776C281.31 405.711 377.577 336.377 390.533 252.919" fill="white"/>
<path fill-rule="evenodd" clip-rule="evenodd" d="M80.5026 49.2964C58.8889 49.2964 41.3047 66.8174 41.3047 88.3535V246.647C41.3047 268.183 58.8889 285.704 80.5026 285.704H249.498C271.112 285.704 288.696 268.183 288.696 246.647V88.3535C288.696 66.8174 271.112 49.2964 249.498 49.2964H80.5026ZM249.498 288H80.5026C57.6184 288 39 269.449 39 246.647V88.3535C39 65.551 57.6184 47 80.5026 47H249.498C272.382 47 291 65.551 291 88.3535V246.647C291 269.449 272.382 288 249.498 288V288Z" fill="black"/>
<path fill-rule="evenodd" clip-rule="evenodd" d="M263.232 209.227C263.232 215.252 258.679 220.123 253.049 220.123H210.95C205.321 220.123 200.768 215.252 200.768 209.227V84.7729C200.768 78.7484 205.321 73.8761 210.95 73.8761H253.049C258.679 73.8761 263.232 78.7484 263.232 84.7729V209.227ZM256.771 68H207.212C200.475 68 195 73.86 195 81.0694V212.914C195 220.14 200.475 226 207.212 226H256.771C263.524 226 269 220.14 269 212.914V81.0694C269 73.86 263.524 68 256.771 68V68Z" fill="#6D49D5"/>
<path fill-rule="evenodd" clip-rule="evenodd" d="M144.909 235L72.8773 233.927C71.2729 233.909 69.9785 232.557 70.0003 230.917C69.9998 230.643 70.0403 230.367 70.1143 230.115C70.4772 228.88 71.6345 227.981 72.9681 228L145 229.073C144.476 229.889 144.162 230.864 144.126 231.91C144.092 233.038 144.376 234.098 144.909 235" fill="#6D49D5"/>
<path fill-rule="evenodd" clip-rule="evenodd" d="M162.879 232.87C162.524 234.104 161.399 235.019 160.093 235L155 234.924C155.501 234.105 155.82 233.134 155.856 232.089C155.889 230.961 155.611 229.902 155.089 229L160.182 229.076C161.754 229.094 163.017 230.457 163 232.084C163 232.358 162.952 232.618 162.879 232.87" fill="#D7E8F0"/>
<path fill-rule="evenodd" clip-rule="evenodd" d="M162.885 244.872C162.52 246.112 161.368 247.019 160.026 247L88 245.933C88.7755 245.009 89.2495 243.816 89.2907 242.52C89.3239 241.62 89.1397 240.766 88.7939 240L160.104 241.044C161.728 241.079 163.03 242.436 162.999 244.067C163 244.342 162.959 244.619 162.885 244.872" fill="#D7E8F0"/>
<path fill-rule="evenodd" clip-rule="evenodd" d="M79 245L72.7781 244.903C71.2306 244.885 69.9709 243.533 70.0005 241.914C70.0035 241.628 70.0387 241.365 70.1139 241.101C70.4638 239.869 71.5677 238.969 72.8502 239.001L78.3955 239.091C78.0842 239.774 77.894 240.536 77.8592 241.346C77.8102 242.712 78.2413 243.997 79 245" fill="#6D49D5"/>
<path fill-rule="evenodd" clip-rule="evenodd" d="M140 258L72.8891 257.003C71.2812 256.972 69.9819 255.603 70.0002 253.955C69.9997 253.677 70.0489 253.414 70.1236 253.159C70.4876 251.908 71.6407 250.982 72.9803 251L139.993 252.009C139.495 252.831 139.204 253.784 139.162 254.813C139.133 255.985 139.44 257.079 140 258" fill="#6D49D5"/>
<path fill-rule="evenodd" clip-rule="evenodd" d="M162.884 255.956C162.512 257.161 161.336 258.03 159.984 257.999L149.337 257.843L139.85 257.716C139.283 256.837 138.973 255.793 139.002 254.675C139.044 253.693 139.339 252.784 139.843 252L149.505 252.138L160.073 252.284C161.703 252.302 163.018 253.608 163 255.18C163 255.446 162.959 255.712 162.884 255.956" fill="#D7E8F0"/>
<path fill-rule="evenodd" clip-rule="evenodd" d="M155.129 234.471C154.109 236.047 152.313 237.07 150.306 236.996C148.365 236.929 146.706 235.87 145.78 234.332C145.251 233.449 144.969 232.412 145.003 231.307C145.039 230.283 145.351 229.329 145.871 228.53C146.879 226.95 148.675 225.927 150.694 226.004C152.623 226.069 154.294 227.131 155.22 228.669C155.749 229.552 156.031 230.589 155.997 231.694C155.961 232.717 155.637 233.669 155.129 234.471" fill="white"/>
<path fill-rule="evenodd" clip-rule="evenodd" d="M152.992 231.765C152.918 232.442 152.515 233.106 152.112 233.608C151.897 233.879 151.645 234.11 151.393 234.327C151.254 234.436 150.511 235.074 150.371 234.993C149.397 234.468 148.169 233.144 148.014 231.845C147.989 231.643 148.001 231.439 148.025 231.236C148.15 230.505 148.73 229.976 149.425 230.001C149.88 230.027 150.272 230.27 150.513 230.648C150.79 230.295 151.194 230.078 151.649 230.09C152.457 230.128 153.078 230.912 152.992 231.765" fill="white"/>
<path fill-rule="evenodd" clip-rule="evenodd" d="M87.7227 245.022C86.676 246.281 85.0758 247.054 83.3064 246.997C81.6183 246.937 80.1424 246.121 79.1783 244.894C78.3973 243.909 77.9535 242.648 78.0039 241.306C78.0397 240.511 78.2355 239.763 78.556 239.093L78.5595 239.081C79.4842 237.193 81.4596 235.928 83.6936 236.003C85.8626 236.072 87.6851 237.394 88.5059 239.237C88.8476 239.984 89.0293 240.817 88.9961 241.694C88.9555 242.958 88.4878 244.121 87.7227 245.022" fill="white"/>
<path fill-rule="evenodd" clip-rule="evenodd" d="M85.992 241.765C85.9178 242.442 85.5147 243.106 85.1117 243.608C84.8973 243.879 84.6452 244.11 84.3932 244.327C84.2543 244.436 83.5107 245.074 83.371 244.993C82.397 244.468 81.1687 243.144 81.0142 241.845C80.9886 241.643 81.0008 241.439 81.0255 241.236C81.15 240.505 81.7301 239.976 82.4252 240.001C82.8798 240.027 83.2721 240.27 83.5133 240.648C83.7901 240.295 84.194 240.078 84.6487 240.09C85.4574 240.128 86.0783 240.912 85.992 241.765" fill="white"/>
<path fill-rule="evenodd" clip-rule="evenodd" d="M150.09 258.516C149.078 260.068 147.291 261.067 145.299 260.997C143.401 260.928 141.761 259.901 140.829 258.387C140.276 257.496 139.973 256.438 140.002 255.304C140.043 254.309 140.331 253.387 140.822 252.593C141.828 250.972 143.654 249.931 145.699 250.004C147.654 250.063 149.329 251.153 150.254 252.733C150.762 253.597 151.035 254.619 150.996 255.696C150.953 256.744 150.626 257.708 150.09 258.516" fill="white"/>
<path fill-rule="evenodd" clip-rule="evenodd" d="M147.992 254.765C147.918 255.442 147.515 256.106 147.112 256.608C146.897 256.879 146.645 257.11 146.393 257.327C146.254 257.436 145.511 258.074 145.371 257.993C144.397 257.468 143.169 256.144 143.014 254.845C142.989 254.643 143.001 254.439 143.025 254.236C143.15 253.505 143.73 252.976 144.425 253.001C144.88 253.027 145.272 253.27 145.513 253.648C145.79 253.295 146.194 253.078 146.649 253.09C147.457 253.128 148.078 253.912 147.992 254.765" fill="white"/>
<path fill-rule="evenodd" clip-rule="evenodd" d="M70.0003 82.0771L70.126 99.2364C70.1712 105.435 75.1745 110.594 81.2444 110.702L98.0465 110.998C104.116 111.105 109.045 106.121 109 99.9225L108.874 82.7631C108.829 76.5647 103.826 71.4054 97.7561 71.298L80.9539 71.0017C74.8841 70.8943 69.9551 75.8782 70.0003 82.0771" fill="white"/>
<path fill-rule="evenodd" clip-rule="evenodd" d="M72 86.5541L72.0911 98.8707C72.1307 104.209 76.4949 108.651 81.7893 108.743L96.4452 108.999C101.74 109.091 106.039 104.8 106 99.4617L105.994 98.629C103.933 94.4286 99.9242 88.1405 95.6449 91.8986C89.4769 97.306 86.655 93.1895 83.0626 87.8872C80.062 83.4442 75.4981 80.2029 72 86.5541" fill="#6D49D5"/>
<path fill-rule="evenodd" clip-rule="evenodd" d="M94.0001 80.9309C93.9835 78.7221 95.7611 76.9626 97.9703 77.0006C100.179 77.039 101.983 78.8603 102 81.069C102.016 83.2778 100.239 85.0378 98.0301 84.9994C95.8208 84.9614 94.0167 83.1397 94.0001 80.9309" fill="#6D49D5"/>
<path fill-rule="evenodd" clip-rule="evenodd" d="M164.109 105C156.99 105 151.218 110.731 151.218 117.8C151.218 121.801 153.07 125.371 155.966 127.719L126.651 179.935C126.442 179.912 126.238 179.872 126.023 179.872C125.468 179.872 124.942 179.974 124.433 180.119L102.477 153.032C103.468 151.662 104.059 149.986 104.059 148.169C104.059 143.557 100.293 139.819 95.648 139.819C91.0033 139.819 87.2379 143.557 87.2379 148.169C87.2379 151.006 88.6652 153.508 90.8417 155.017L75.4542 198.501C72.4148 198.686 70 201.168 70 204.233C70 207.418 72.6001 210 75.8082 210C79.0163 210 81.6168 207.418 81.6168 204.233C81.6168 202.539 80.8689 201.031 79.6978 199.976L95.0863 156.492C95.2729 156.505 95.4582 156.521 95.648 156.521C96.8317 156.521 97.9565 156.275 98.9782 155.838L120.931 182.919C120.489 183.733 120.215 184.65 120.215 185.64C120.215 188.825 122.815 191.407 126.023 191.407C129.231 191.407 131.832 188.825 131.832 185.64C131.832 184.3 131.353 183.084 130.582 182.105L159.898 129.887C161.219 130.341 162.632 130.599 164.109 130.599C171.229 130.599 177 124.869 177 117.8C177 110.731 171.229 105 164.109 105" fill="#2E2E2E"/>
<path fill-rule="evenodd" clip-rule="evenodd" d="M362.389 251.677C362.358 251.538 362.328 251.4 362.281 251.262C360.482 245.072 356.945 240.603 353.715 238.007C353.669 237.976 353.607 237.93 353.561 237.899C353.176 237.623 352.777 237.361 352.378 237.1C351.839 236.763 351.285 236.44 350.731 236.118C350.686 236.087 350.624 236.056 350.577 236.041C348.856 235.257 346.671 234.013 344.503 232.431C344.472 232.416 344.441 232.385 344.411 232.37C341.842 230.665 339.519 228.683 337.92 225.934C337.889 225.873 337.843 225.811 337.827 225.75C337.797 225.735 337.797 225.704 337.782 225.688C336.305 223.446 335.413 220.989 335.598 218.439V218.362C335.136 214.2 335.582 209.822 335.428 205.599C335.413 205.338 335.413 205.076 335.382 204.815C335.366 204.523 335.336 204.231 335.321 203.971C335.336 203.878 335.321 203.786 335.306 203.709C335.244 202.864 335.136 202.035 334.982 201.221C333.522 193.327 328.446 186.292 322.233 181.331C322.094 181.208 321.941 181.1 321.802 181.008C314.835 175.909 307.207 173.928 302.208 173.159C302.162 173.144 302.116 173.144 302.069 173.144C300.193 173.006 298.409 173.037 296.764 172.668C296.733 172.668 296.702 172.668 296.686 172.653C294.995 172.284 293.442 171.516 292.072 169.765C291.642 169.212 291.257 168.628 290.935 168.029C290.873 167.984 290.858 167.937 290.842 167.891C289.566 166.018 288.797 163.806 288.336 161.256C288.289 161.026 288.227 160.795 288.196 160.58C287.12 155.466 287.09 149.905 287.059 145.313C286.643 138.233 283.491 129.109 278.016 122.612C278 122.597 278 122.581 277.985 122.581C276.385 120.999 274.616 119.617 272.663 118.496C267.957 115.777 262.082 114.579 256.484 115.132C256.468 115.117 256.468 115.117 256.453 115.132C256.437 115.132 256.423 115.148 256.423 115.148C252.946 115.47 249.578 116.484 246.641 118.219C245.533 118.864 244.503 119.602 243.533 120.431C237.689 125.438 234.352 133.256 233.429 140.967C233.353 141.566 233.306 142.149 233.276 142.748C233.26 142.825 233.245 142.886 233.26 142.963V142.978C232.553 143.931 232.107 145.098 232.014 146.373C231.83 149.215 233.46 151.795 235.921 152.947V153.07C235.905 153.469 235.905 153.884 235.921 154.283C235.997 156.986 236.613 159.69 237.674 162.208C239.474 166.448 242.673 171.286 248.102 172.054C249.117 172.192 250.086 172.284 251.009 172.315L253.577 183.282L255.776 192.789C265.373 187.337 277.247 185.693 287.382 188.872H287.413C292.103 190.332 296.41 192.819 299.947 196.429C311.205 205.599 323.878 249.234 324.647 251.938C324.647 251.968 324.662 251.999 324.678 252.03C324.678 252.045 324.678 252.045 324.694 252.06C324.694 252.091 324.709 252.107 324.724 252.137C324.754 252.26 324.801 252.383 324.863 252.506C324.908 252.644 324.955 252.783 325.017 252.921C325.124 253.197 325.232 253.474 325.339 253.75C327.569 259.541 334.829 278.417 336.443 283.071C338.366 288.57 339.873 289 339.873 289C339.951 288.984 340.027 288.954 340.104 288.908C340.181 288.877 340.288 288.831 340.412 288.785C342.227 288.078 348.317 285.436 353.761 280.66H353.777C353.807 280.644 353.807 280.644 353.807 280.629C357.344 277.097 359.974 272.642 361.574 267.22C363.097 262.106 363.451 256.684 362.389 251.677" fill="white"/>
<path fill-rule="evenodd" clip-rule="evenodd" d="M239 139.739C239 139.739 240.175 120.211 258.509 115.635C276.842 111.06 287.78 132.243 288.602 145.836C289.423 159.429 288.609 168.812 298.239 173.091C298.239 173.091 326.074 172.753 336.33 198.206C336.33 198.206 337.719 210.668 337.153 218.693C336.587 226.719 346.653 233.748 352.132 236.227C357.613 238.706 367.154 248.78 364.563 265.23C361.972 281.68 341.433 289 341.433 289C341.433 289 339.92 288.566 337.997 283.083C336.074 277.599 326.237 252.193 326.237 252.193C326.237 252.193 313.125 206.189 301.492 196.767C295.084 191.579 288.219 189.226 283.696 186.49C278.933 183.608 276.642 180.431 275.049 178.394C271.946 174.425 266.445 168.424 270.425 154.279C274.406 140.134 270.395 147.263 266.65 145.267C266.65 145.267 262.006 138.138 254.999 143.178C247.991 148.218 249.701 135.926 249.701 135.926L246.621 140.042C246.621 140.042 241.8 141.003 239 139.739" fill="#6D49D5"/>
<path fill-rule="evenodd" clip-rule="evenodd" d="M193 166C193.206 165.71 193.443 165.403 193.68 165.097C193.918 164.806 194.171 164.5 194.424 164.21C195.215 163.339 196.101 162.5 197.098 161.694C197.399 161.452 197.699 161.226 198 161L193 166Z" fill="#6D49D5"/>
<path fill-rule="evenodd" clip-rule="evenodd" d="M55 364H40.7731C38.5901 364 36.3465 363.985 34.331 363.12C32.3311 362.24 30.7897 360.602 29.2938 358.997C19.0048 347.986 12.2882 339.986 2 328.975L5.44944 325.392C9.35741 322.057 15.1271 322.227 18.8368 325.794L33.4148 340.279L33.4304 340.295L55 364Z" fill="#6D49D5"/>
<path fill-rule="evenodd" clip-rule="evenodd" d="M257 305.371C249.872 306.897 242.713 308.347 235.524 309.735C227.044 311.368 218.563 312.97 210.068 314.527L202.157 304.913L189.144 318.311C165.809 322.462 142.428 326.353 119 330L119.108 329.893L180.357 268.504C188.898 259.944 201.542 256.861 213.094 260.508L237.213 268.153C241.161 281.673 247.997 294.567 257 305.371" fill="white"/>
<path fill-rule="evenodd" clip-rule="evenodd" d="M239.622 220.573C236.64 231.052 235.943 242.206 237.17 253.345C237.473 256.203 237.911 259.045 238.487 261.873C239.031 264.7 239.727 267.481 240.514 270.261C244.041 282.614 249.838 294.476 257.39 304.8C257.088 304.862 256.799 304.939 256.542 305C248.037 294.306 241.558 281.677 237.775 268.433C237.018 265.76 236.352 263.071 235.822 260.351C235.278 257.617 234.854 254.882 234.551 252.132C233.371 241.392 234.052 230.637 236.927 220.543C239.047 213.106 242.845 206.269 248.037 200.6C249.323 199.186 250.745 197.865 252.244 196.682L252.319 196.62L252.335 196.605L252.577 196.421L252.683 196.328C254.091 195.238 255.589 194.239 257.148 193.348C260.538 191.382 264.216 189.922 268 189C265.442 189.875 262.945 191.012 260.599 192.365C258.994 193.287 257.436 194.331 255.967 195.468L255.862 195.561L255.619 195.745L255.589 195.76L255.514 195.822C253.97 197.051 252.486 198.418 251.155 199.893C245.767 205.777 241.831 212.861 239.622 220.573" fill="#2E2E2E"/>
<path fill-rule="evenodd" clip-rule="evenodd" d="M288.019 271.286C288.019 271.286 300.49 287.109 310.873 306C298.463 300.986 273.306 302.872 263.215 303.915C261.741 303.976 260.404 304.145 259.222 304.344C259.145 304.344 259.053 304.359 258.976 304.374C258.915 304.39 258.884 304.39 258.884 304.39C258.239 304.513 257.64 304.62 257.102 304.743C249.439 294.439 243.556 282.601 239.978 270.274C239.179 267.498 238.473 264.723 237.92 261.902C237.337 259.08 236.891 256.244 236.584 253.392C235.34 242.276 236.046 231.143 239.072 220.686C241.314 212.989 245.308 205.92 250.775 200.048C252.127 198.576 253.632 197.211 255.198 195.985L255.275 195.923L255.306 195.908L255.552 195.724L255.659 195.632C257.149 194.497 258.731 193.454 260.358 192.535C262.74 191.185 265.274 190.051 267.869 189.177C274.719 187.521 281.922 187.567 288.418 189.606H288.449C292.273 191.492 296.727 193.7 300.966 197.15C306.941 203.252 310.105 211.487 313.115 219.475C317.277 230.515 321.439 241.539 325.632 252.564C325.632 252.595 325.648 252.625 325.662 252.656C325.662 252.671 325.662 252.671 325.678 252.687C325.678 252.717 325.693 252.733 325.709 252.763C325.739 252.886 325.785 253.008 325.847 253.131C325.893 253.269 325.939 253.407 326 253.545C298.309 247.826 288.019 271.286 288.019 271.286" fill="#2E2E2E"/>
<path fill-rule="evenodd" clip-rule="evenodd" d="M252 196.8C250.479 197.978 249.035 199.294 247.728 200.701C242.458 206.346 238.601 213.153 236.449 220.557C233.53 230.607 232.839 241.315 234.037 252.008C233.684 252.207 233.315 252.375 232.946 252.559C225.233 256.307 216.705 259.06 208.038 258.999C198.449 258.923 189.307 254.593 183.13 247.296C178.29 241.591 175.232 234.692 172.973 227.639C170.591 220.205 168.778 212.74 165.827 205.504C163.937 200.9 162.047 195.729 157.976 192.487C155.886 190.834 153.274 190.238 151.199 188.601C149.002 186.857 147.404 184.425 146.636 181.732C146.297 180.554 146.083 179.361 145.99 178.153V178.138C145.606 173.365 146.897 168.378 148.464 163.957V163.942L140.428 158.557C138.246 157.088 137.293 153.906 138.584 151.627C139.368 150.25 140.689 149.363 142.118 149.088C143.454 148.843 144.884 149.103 146.083 149.96L162.693 161.831C162.693 161.831 163.968 157.715 167.886 158.985C171.544 160.179 184.574 165.272 184.129 180.998C184.052 183.385 184.712 185.756 185.957 187.805L201.539 213.474C206.21 221.153 216.504 223.157 223.727 217.788L251.002 197.535L252 196.8Z" fill="white"/>
<path fill-rule="evenodd" clip-rule="evenodd" d="M257 203.555L238.811 249.106L234.128 251.322L226.326 255C232.576 229.131 224 217.066 224 217.066L246.598 200C246.932 200.123 247.267 200.231 247.616 200.354C252.255 201.908 257 203.555 257 203.555" fill="#2E2E2E"/>
<path fill-rule="evenodd" clip-rule="evenodd" d="M257.48 306L257 303.979C259.838 303.423 260.86 303.235 261.352 303.146C261.785 303.066 261.785 303.066 262.344 302.936C262.9 302.807 263.979 302.556 266.453 302L267 304.007C264.537 304.561 263.462 304.811 262.908 304.94C262.285 305.085 262.285 305.084 261.802 305.173C261.314 305.262 260.301 305.447 257.48 306" fill="black"/>
<path fill-rule="evenodd" clip-rule="evenodd" d="M306.183 365L86.0496 364.954C75.1886 364.939 64.3137 364.939 53.4544 364.939H40.6124C38.4319 364.939 35.9599 364.939 33.6807 363.976C31.4132 362.994 29.7187 361.204 28.2233 359.625C23.039 354.167 18.6855 349.379 14.4746 344.748C10.2727 340.126 5.92733 335.347 0.75958 329.906L0 329.106L4.32521 324.695C8.71634 321.007 15.1687 321.197 19.333 325.137L34.0161 339.491C35.2209 340.64 36.8612 341.18 38.5211 340.975L47.476 339.875C68.7864 337.033 91.1115 333.562 112.701 330.206L119.22 329.193C158.303 323.104 197.49 316.275 235.689 308.898C242.419 307.595 249.008 306.259 255.304 304.922C246.808 294.308 240.32 281.818 236.491 268.682C235.653 265.779 234.998 263.118 234.486 260.543C231.656 246.573 232.052 232.686 235.631 220.389C237.826 212.837 241.816 205.815 247.168 200.083C248.581 198.568 250.148 197.146 251.825 195.859L252.029 195.702C259.215 190.244 268.571 187.072 277.699 187.001C287.394 186.927 296.115 190.288 302.198 196.469C308.442 202.827 311.716 211.487 314.603 219.127L323.276 242.001C329.969 259.652 336.66 277.297 343.343 294.957L343.427 295.165C344.281 297.452 345.14 299.713 346 301.973L343.845 302.784C342.984 300.52 342.123 298.255 341.277 295.99L341.195 295.787C334.504 278.106 327.813 260.461 321.12 242.81L312.448 219.936C309.639 212.506 306.457 204.086 300.551 198.073C294.911 192.341 286.792 189.216 277.717 189.294C269.089 189.362 260.247 192.354 253.453 197.505L253.2 197.699C251.636 198.903 250.175 200.23 248.857 201.644C243.747 207.115 239.939 213.817 237.844 221.027C234.368 232.971 233.988 246.48 236.746 260.094C237.245 262.609 237.886 265.209 238.705 268.046C242.622 281.487 249.388 294.239 258.27 304.919L259.479 306.374L257.625 306.771C250.765 308.243 243.532 309.716 236.128 311.148C197.901 318.532 158.687 325.365 119.576 331.459L113.057 332.472C91.455 335.83 69.1173 339.302 47.7702 342.149L38.8032 343.251C36.4527 343.54 34.1291 342.774 32.4274 341.153L32.3943 341.12L17.7322 326.787C14.4468 323.679 9.34409 323.517 5.85289 326.412L3.19257 329.131C8.04689 334.26 12.1797 338.806 16.1835 343.209C20.3854 347.831 24.7307 352.61 29.8985 358.051C31.3087 359.541 32.766 361.079 34.59 361.869C36.4285 362.645 38.5556 362.645 40.6124 362.645H53.4544C64.3146 362.645 75.1908 362.645 86.0509 362.661L306.183 362.707C314.601 362.707 324.142 362.707 332.327 359.149C336.073 357.522 339.59 355.029 342.5 351.939L344.181 353.507C341.059 356.823 337.279 359.5 333.248 361.25C324.623 365 314.827 365 306.183 365" fill="black"/>
<path fill-rule="evenodd" clip-rule="evenodd" d="M389.921 365H356.482C352.199 365 348.214 362.88 345.822 359.328L269 245.288L270.913 244L347.734 358.04C349.698 360.954 352.968 362.694 356.482 362.694H389.921C392.001 362.694 393.694 361.001 393.694 358.921C393.694 356.841 392.001 355.149 389.921 355.149H374.149C368.44 355.149 363.366 351.729 361.226 346.436L339.826 293.534L341.964 292.67L363.364 345.571C365.151 349.988 369.384 352.842 374.149 352.842H389.921C393.273 352.842 396 355.57 396 358.921C396 362.273 393.273 365 389.921 365" fill="black"/>
<path fill-rule="evenodd" clip-rule="evenodd" d="M120.626 331L119 329.382L119.107 329.275L180.16 267.862C189.017 258.954 201.967 255.78 213.956 259.577L238 267.227L237.301 269.408L213.259 261.76C202.097 258.223 190.038 261.179 181.791 269.475L120.626 331Z" fill="black"/>
<path fill-rule="evenodd" clip-rule="evenodd" d="M344.217 303L344 302.932L344.783 301L345 301.068L344.217 303Z" fill="black"/>
<path fill-rule="evenodd" clip-rule="evenodd" d="M189.667 319L188 317.413L202.126 303L211 313.695L209.206 315.142L201.982 306.435L189.667 319Z" fill="black"/>
<path fill-rule="evenodd" clip-rule="evenodd" d="M301 198.002V197.998H303L301 198.002Z" fill="black"/>
<path fill-rule="evenodd" clip-rule="evenodd" d="M362.733 365H362.691H362.645V362.736H362.691H362.695C365.849 362.736 367.571 362.343 367.644 360.272C367.689 359.004 366.69 357.855 365.681 357.374C364.458 356.793 363.075 356.663 361.612 356.525L361.084 356.474C359.144 356.282 357.125 356.222 355.085 356.293L355 354.03C357.147 353.955 359.276 354.02 361.325 354.222L361.841 354.272C363.451 354.423 365.115 354.58 366.724 355.345C368.413 356.149 370.08 358.008 369.997 360.349C369.834 364.97 364.893 365 362.733 365" fill="black"/>
<path fill-rule="evenodd" clip-rule="evenodd" d="M356 365H383V363H356V365Z" fill="black"/>
<path fill-rule="evenodd" clip-rule="evenodd" d="M208.266 260C208.166 260 208.066 260 207.967 259.999C198.06 259.919 188.691 255.477 182.262 247.812C177.942 242.674 174.656 236.263 171.919 227.639C171.145 225.202 170.422 222.73 169.723 220.339C168.282 215.412 166.792 210.316 164.825 205.448L164.416 204.438C162.676 200.121 160.876 195.655 157.343 192.816C156.402 192.065 155.317 191.543 154.169 190.989C152.966 190.409 151.722 189.81 150.59 188.909C148.238 187.024 146.484 184.361 145.649 181.408C145.292 180.155 145.062 178.866 144.965 177.578L144.962 177.521C144.652 173.537 145.367 169.111 147.207 163.655L139.923 158.729C137.188 156.872 136.182 152.981 137.725 150.232C138.646 148.6 140.214 147.463 142.031 147.11C143.757 146.791 145.472 147.173 146.873 148.183L162.322 159.326C162.752 158.626 163.422 157.827 164.409 157.312C165.567 156.709 166.875 156.639 168.298 157.105C173.555 158.836 185.729 164.568 185.285 180.386C185.216 182.54 185.79 184.69 186.943 186.606L202.478 212.437C204.531 215.844 207.94 218.235 211.83 218.996C215.713 219.756 219.76 218.828 222.93 216.45L245.697 199.378L251.504 195.025L253 196.777L252.569 197.12L247.07 201.23L224.305 218.3C220.617 221.067 215.91 222.148 211.39 221.263C206.866 220.377 202.901 217.596 200.512 213.632L184.976 187.801C183.593 185.501 182.905 182.913 182.988 180.316C183.388 166.058 172.349 160.869 167.585 159.299C166.764 159.032 166.075 159.05 165.478 159.356C164.341 159.941 163.865 161.397 163.86 161.412L163.378 162.922L162.094 162.004L145.532 150.059C144.644 149.418 143.552 149.177 142.458 149.378C141.312 149.601 140.313 150.327 139.726 151.368C138.765 153.079 139.457 155.626 141.208 156.815L149.726 162.576V163.388L149.661 163.589C147.712 169.137 146.948 173.52 147.256 177.383L147.26 177.446C147.347 178.564 147.548 179.684 147.859 180.775C148.564 183.27 150.042 185.517 152.02 187.102C152.948 187.84 154.024 188.358 155.163 188.907C156.375 189.491 157.629 190.096 158.775 191.01C162.781 194.229 164.781 199.193 166.547 203.572L166.953 204.577C168.964 209.554 170.471 214.706 171.928 219.688C172.624 222.066 173.343 224.525 174.108 226.937C176.751 235.263 179.899 241.423 184.018 246.324C190.015 253.473 198.75 257.615 207.984 257.69C213.458 257.72 219.37 256.57 225.558 254.238C227.74 253.436 230.007 252.457 232.305 251.327C232.629 251.171 232.899 251.035 233.147 250.902L233.22 250.83L233.479 250.738C233.43 250.757 233.363 250.786 233.289 250.832L233.726 251.637L234.71 252.626L234.631 252.675L234.529 252.776L234.387 252.854C234.064 253.031 233.72 253.206 233.305 253.405C230.946 254.566 228.605 255.577 226.357 256.403C220.024 258.789 213.937 260 208.266 260" fill="black"/>
<path fill-rule="evenodd" clip-rule="evenodd" d="M168.055 173C158.611 168.382 161.367 161.073 161.396 161L163.453 161.869C163.37 162.087 161.523 167.255 169 170.911L168.055 173Z" fill="black"/>
<path fill-rule="evenodd" clip-rule="evenodd" d="M157.751 180C157.278 180 156.798 179.936 156.32 179.804C145.115 176.704 146.01 168.086 146.021 168L148.364 168.264C148.335 168.539 147.75 175.022 156.959 177.569C158.4 177.968 159.526 177.242 160.101 176.431C160.668 175.627 160.966 174.35 160.096 173.172L160.001 173.044L161.887 171.651L162.006 171.809C163.32 173.589 163.332 175.925 162.036 177.757C161.019 179.194 159.43 180 157.751 180" fill="black"/>
<path fill-rule="evenodd" clip-rule="evenodd" d="M154.348 185C148.513 185 145.148 178.398 145 178.101L147.106 177.002L146.053 177.551L147.105 177C147.136 177.062 150.274 183.179 155.097 182.532C156.192 182.385 156.934 181.992 157.303 181.366C157.885 180.379 157.547 178.861 157.383 178.407L159.6 177.568C159.705 177.859 160.592 180.471 159.328 182.615C158.568 183.902 157.249 184.68 155.406 184.929C155.045 184.977 154.692 185 154.348 185" fill="black"/>
<path fill-rule="evenodd" clip-rule="evenodd" d="M153.743 169L148 164.949L149.257 163L155 167.051L153.743 169Z" fill="black"/>
<path fill-rule="evenodd" clip-rule="evenodd" d="M339.978 291L339.293 288.808C350.761 285.249 358.17 278.082 361.313 267.507C365.618 253.021 359.314 242.987 352.608 238.797C351.551 238.144 350.418 237.5 349.322 236.878C344.972 234.407 340.473 231.852 337.793 227.272C334.914 222.355 335.029 216.834 335.14 211.494C335.208 208.26 335.271 205.206 334.723 202.268C333.333 194.811 328.393 187.496 321.169 182.197C316.349 178.661 310.631 176.316 304.634 175.412C303.522 175.245 302.409 175.19 301.333 175.137C298.085 174.977 294.725 174.811 292.089 171.411C286.934 164.76 286.88 154.132 286.841 146.373C286.811 140.381 285.329 134.791 282.557 130.179L282.49 130.07C280.043 126.035 276.774 122.766 273.04 120.617C265.497 116.278 255.282 116.16 248.198 120.33C247.166 120.938 246.178 121.644 245.263 122.428C238.943 127.827 235.13 137.233 235.31 146.975L233.006 147.017C232.814 136.608 236.935 126.518 243.762 120.686C244.778 119.815 245.877 119.03 247.026 118.353C254.793 113.782 265.964 113.895 274.191 118.629C278.262 120.971 281.814 124.517 284.463 128.883L284.532 128.997C287.518 133.964 289.112 139.959 289.145 146.335C289.182 153.793 289.234 163.972 293.912 170.007C295.9 172.57 298.348 172.691 301.447 172.844C302.58 172.9 303.752 172.957 304.978 173.142C311.344 174.101 317.415 176.593 322.535 180.348C330.224 185.989 335.492 193.825 336.989 201.848C337.58 205.018 337.511 208.334 337.444 211.542C337.335 216.795 337.231 221.757 339.783 226.116C342.152 230.162 346.377 232.562 350.463 234.883C351.577 235.516 352.729 236.17 353.827 236.848C363.563 242.933 367.367 255.222 363.522 268.159C360.147 279.514 352.226 287.199 339.978 291" fill="black"/>
<path fill-rule="evenodd" clip-rule="evenodd" d="M253.379 174C252.093 174 250.701 173.908 249.201 173.695C244.418 173.014 240.494 169.361 237.853 163.131C235.8 158.287 235.439 152.939 236.839 148.07C238.125 143.592 240.477 140.799 243.641 139.994C245.836 139.432 247.371 137.566 247.747 135L250.034 135.335C249.526 138.801 247.295 141.444 244.212 142.232C241.855 142.832 240.122 145.011 239.06 148.708C237.807 153.07 238.134 157.872 239.981 162.23C241.591 166.025 244.553 170.699 249.527 171.407C254.363 172.096 257.908 171.375 260.03 170.649C262.325 169.864 263.499 168.904 263.511 168.894L265 170.661C264.813 170.819 260.954 174 253.379 174" fill="black"/>
<path fill-rule="evenodd" clip-rule="evenodd" d="M258.985 149.711C258.868 150.531 258.109 151.101 257.289 150.985C256.469 150.868 255.898 150.108 256.015 149.288C256.132 148.468 256.891 147.898 257.711 148.015C258.531 148.132 259.102 148.891 258.985 149.711" fill="black"/>
<path fill-rule="evenodd" clip-rule="evenodd" d="M243.985 148.711C243.868 149.531 243.109 150.101 242.289 149.985C241.469 149.868 240.898 149.108 241.015 148.288C241.132 147.468 241.892 146.898 242.711 147.015C243.531 147.132 244.102 147.891 243.985 148.711" fill="black"/>
<path fill-rule="evenodd" clip-rule="evenodd" d="M289.237 191C278.161 187.168 269.598 176.62 267.939 168.964L267.664 168.303L267.788 168.177C266.71 162.385 267.56 157.047 268.749 153.92C269.59 151.698 270.05 150.21 270.239 149.098C270.416 148.094 270.362 147.429 270.078 147.112C269.22 146.154 265.557 146.371 260.487 146.67C259.649 146.719 258.76 146.772 257.816 146.823C253.059 147.094 249.419 145.125 247.82 141.423C247.681 141.14 247.565 140.841 247.467 140.511C246.917 138.754 246.85 136.791 247.281 135L249.541 135.54C249.205 136.932 249.258 138.459 249.691 139.841C249.759 140.072 249.829 140.252 249.915 140.423L249.945 140.487C251.148 143.299 253.896 144.729 257.686 144.516C258.628 144.465 259.515 144.412 260.35 144.363C266.911 143.976 270.206 143.781 271.812 145.574C272.867 146.752 272.726 148.373 272.528 149.491C272.315 150.747 271.819 152.368 270.923 154.736C269.807 157.67 269.028 162.776 270.182 168.314L270.274 168.752C271.776 174.944 279.274 185.106 290 188.817L289.237 191Z" fill="black"/>
<path fill-rule="evenodd" clip-rule="evenodd" d="M249.119 157C248.66 157 248.201 156.926 247.825 156.715C247.4 156.476 247.115 156.093 247.025 155.637C246.832 154.672 247.806 150.952 248.658 148L250.89 148.579C250.225 150.883 249.532 153.612 249.35 154.791C249.633 154.759 249.992 154.689 250.283 154.599L251 156.685C250.612 156.805 249.866 157 249.119 157" fill="black"/>
<path fill-rule="evenodd" clip-rule="evenodd" d="M254.138 164C252.734 164 251.319 163.652 250 162.967L251.144 160.924C252.657 161.709 254.327 161.887 255.848 161.425C257.176 161.022 258.241 160.16 258.846 159L261 160.042C260.1 161.768 258.528 163.046 256.572 163.64C255.78 163.881 254.961 164 254.138 164" fill="black"/>
<path fill-rule="evenodd" clip-rule="evenodd" d="M259.8 142.303C258.238 142.303 256.755 142.844 255.569 143.856C254.237 144.993 253.436 146.592 253.316 148.36C253.065 152.05 255.872 155.328 259.574 155.667C261.361 155.831 263.087 155.29 264.431 154.144C265.764 153.007 266.564 151.408 266.684 149.64V149.64C266.935 145.95 264.128 142.672 260.426 142.332C260.217 142.313 260.008 142.303 259.8 142.303M260.204 158C259.925 158 259.645 157.987 259.364 157.961C254.428 157.508 250.686 153.131 251.021 148.203C251.183 145.812 252.269 143.645 254.077 142.103C255.896 140.55 258.226 139.818 260.636 140.038C265.571 140.491 269.314 144.869 268.979 149.796C268.817 152.188 267.731 154.355 265.923 155.897C264.316 157.268 262.311 158 260.204 158" fill="black"/>
<path fill-rule="evenodd" clip-rule="evenodd" d="M239.8 140.304C238.238 140.304 236.755 140.844 235.569 141.856C234.237 142.993 233.436 144.592 233.316 146.36C233.065 150.05 235.872 153.328 239.574 153.667C241.361 153.831 243.087 153.29 244.431 152.144C245.764 151.007 246.564 149.408 246.684 147.64C246.935 143.95 244.127 140.672 240.426 140.332C240.217 140.313 240.008 140.304 239.8 140.304M240.204 156C239.925 156 239.645 155.987 239.364 155.961C234.428 155.508 230.686 151.131 231.021 146.204C231.183 143.812 232.269 141.645 234.077 140.103C235.896 138.551 238.227 137.817 240.636 138.039C245.571 138.491 249.314 142.869 248.979 147.796C248.817 150.188 247.731 152.355 245.923 153.897C244.316 155.268 242.311 156 240.204 156" fill="black"/>
<path fill-rule="evenodd" clip-rule="evenodd" d="M251.808 150L248 149.572L248.192 147L252 147.428L251.808 150Z" fill="black"/>
<path fill-rule="evenodd" clip-rule="evenodd" d="M255.781 194L251 173.514L253.218 173L258 193.49L255.781 194Z" fill="black"/>
<path fill-rule="evenodd" clip-rule="evenodd" d="M7 365H404V363H7V365Z" fill="black"/>
</svg>
