<svg width="50" height="45" viewBox="0 0 50 45" fill="none" xmlns="http://www.w3.org/2000/svg">
<path fill-rule="evenodd" clip-rule="evenodd" d="M6.81276 7.45782C5.23266 9.52082 4.375 12.3877 4.375 15.4167C4.375 18.5116 5.59123 21.6235 7.57936 24.6286C9.56401 27.6283 12.2447 30.4094 14.9837 32.8025C17.7155 35.1893 20.4562 37.1478 22.5184 38.5111C23.5477 39.1916 24.4033 39.7208 24.9983 40.078C24.9989 40.0784 24.9994 40.0787 25 40.079C25.0006 40.0787 25.0011 40.0784 25.0017 40.078C25.5967 39.7208 26.4523 39.1916 27.4816 38.5111C29.5438 37.1478 32.2845 35.1893 35.0163 32.8025C37.7553 30.4094 40.436 27.6283 42.4206 24.6286C44.4088 21.6235 45.625 18.5116 45.625 15.4167C45.625 12.3844 44.7734 9.51777 43.1978 7.45632C41.6628 5.44805 39.392 4.125 36.25 4.125C33.0564 4.125 30.654 5.44775 29.0128 6.81541C28.1911 7.50017 27.5745 8.18567 27.1673 8.69474C26.9644 8.94826 26.816 9.15501 26.7221 9.29181C26.6753 9.36011 26.6423 9.41067 26.6232 9.44053C26.6137 9.45546 26.6076 9.46518 26.605 9.46934C26.6037 9.47142 26.6033 9.4721 26.6038 9.47134L25.0067 12.1332L23.3997 9.47711C23.4002 9.47783 23.3997 9.47711 23.3984 9.47499C23.3969 9.47261 23.3943 9.46849 23.3906 9.46268C23.3878 9.45812 23.3842 9.45253 23.3799 9.44593C23.3606 9.41589 23.3272 9.36516 23.2799 9.29668C23.1852 9.15952 23.0355 8.95238 22.8313 8.69845C22.4213 8.18856 21.8013 7.50218 20.9769 6.81664C19.3295 5.44662 16.9266 4.125 13.75 4.125C10.6255 4.125 8.3532 5.44661 6.81276 7.45782ZM25 42.25L25.9097 43.8895L25 44.3943L24.0903 43.8895L25 42.25ZM3.83567 5.1776C6.05305 2.28256 9.40578 0.375 13.75 0.375C18.0421 0.375 21.2643 2.17837 23.3747 3.93336C24.0104 4.46202 24.5507 4.99039 24.9963 5.47172C25.4401 4.99061 25.9784 4.46273 26.6122 3.93458C28.721 2.17725 31.9436 0.375 36.25 0.375C40.608 0.375 43.9622 2.28111 46.1772 5.17909C48.3516 8.0239 49.375 11.7406 49.375 15.4167C49.375 19.4965 47.7787 23.3262 45.5481 26.6977C43.314 30.0745 40.3697 33.1049 37.4837 35.6264C34.5905 38.1542 31.7062 40.2135 29.5497 41.6393C28.4696 42.3534 27.5674 42.9116 26.9319 43.2931C26.6141 43.4839 26.3626 43.6307 26.1886 43.731C26.1016 43.7811 26.034 43.8196 25.987 43.8461C25.9636 43.8594 25.9453 43.8697 25.9323 43.8769C25.9258 43.8805 25.9207 43.8834 25.9169 43.8855L25.9107 43.889C25.9101 43.8893 25.9097 43.8895 25 42.25C24.0903 43.8895 24.0899 43.8893 24.0893 43.889L24.0831 43.8855C24.0793 43.8834 24.0742 43.8805 24.0677 43.8769C24.0547 43.8697 24.0364 43.8594 24.013 43.8461C23.966 43.8196 23.8984 43.7811 23.8114 43.731C23.6374 43.6307 23.3859 43.4839 23.0681 43.2931C22.4326 42.9116 21.5304 42.3534 20.4503 41.6393C18.2938 40.2135 15.4095 38.1542 12.5163 35.6264C9.63034 33.1049 6.68599 30.0745 4.45189 26.6977C2.22127 23.3262 0.625 19.4965 0.625 15.4167C0.625 11.7373 1.65796 8.02085 3.83567 5.1776Z" fill="black"/>
</svg>
