<svg width="34" height="34" viewBox="0 0 34 34" fill="none" xmlns="http://www.w3.org/2000/svg">
<path d="M18.25 7.41667L18.25 20.75H15.75V7.41667H18.25Z" fill="black"/>
<path d="M18.25 27V23.6667H15.75V27H18.25Z" fill="black"/>
<path fill-rule="evenodd" clip-rule="evenodd" d="M0.75 17C0.75 8.02537 8.02537 0.75 17 0.75C25.9746 0.75 33.25 8.02537 33.25 17C33.25 25.9746 25.9746 33.25 17 33.25C8.02537 33.25 0.75 25.9746 0.75 17ZM17 3.25C9.40608 3.25 3.25 9.40608 3.25 17C3.25 24.5939 9.40608 30.75 17 30.75C24.5939 30.75 30.75 24.5939 30.75 17C30.75 9.40608 24.5939 3.25 17 3.25Z" fill="#5B40C8"/>
</svg>
