<svg width="40" height="40" viewBox="0 0 40 40" fill="none" xmlns="http://www.w3.org/2000/svg">
<path fill-rule="evenodd" clip-rule="evenodd" d="M23.5174 0L25.7029 0.0237585L26.9659 0.059522L28.248 0.113669C30.3782 0.211692 31.8303 0.549771 33.1044 1.04389C34.4185 1.55401 35.5346 2.24017 36.6447 3.35043C37.7588 4.46469 38.4429 5.57895 38.9549 6.89526C39.3995 8.04032 39.7178 9.33285 39.847 11.1316L39.926 12.7438C39.9725 13.9041 39.993 14.9022 40 17.3484L39.9941 23.9555L39.9784 25.3951L39.9507 26.5684L39.883 28.2463C39.787 30.3767 39.449 31.8291 38.9549 33.1014C38.4429 34.4177 37.7588 35.534 36.6447 36.6462C35.5346 37.7585 34.4185 38.4426 33.1044 38.9528C31.9577 39.3975 30.6668 39.7158 28.8672 39.8464L27.2555 39.9259C26.0959 39.9725 25.0972 39.993 22.651 40L16.0448 39.9941L14.6053 39.9784L13.4322 39.9507L11.7546 39.883C9.62643 39.7849 8.17231 39.4469 6.8982 38.9528C5.58409 38.4426 4.46799 37.7585 3.3579 36.6462C2.2438 35.534 1.55975 34.4177 1.0497 33.1014C0.555661 31.8291 0.217633 30.3767 0.121625 28.2463L0.0358165 25.9645L0.00368605 22.9756L0 21.0921L0.0060131 16.482L0.0235278 14.6582L0.0517246 13.4566L0.121625 11.7504C0.217633 9.62189 0.555661 8.16755 1.0497 6.89526C1.55975 5.57895 2.2438 4.46469 3.3579 3.35043C4.46799 2.24017 5.58409 1.55401 6.8982 1.04389C8.17231 0.549771 9.62643 0.211692 11.7546 0.113669L14.036 0.0294246L16.4852 0H23.5174ZM23.4739 4.0007L15.7043 4.00611L14.1836 4.02764L11.9386 4.11037C10.3785 4.18223 9.32479 4.39401 8.34564 4.77374C7.4801 5.10973 6.8536 5.51238 6.18656 6.17952C5.5165 6.84969 5.11591 7.47342 4.7787 8.34368C4.39928 9.3208 4.18817 10.3728 4.11775 11.9339L4.04421 13.7637L4.02368 14.6966L4.00635 16.4872L4.00379 22.9325L4.03333 25.8141L4.11791 28.0661C4.18815 29.6249 4.39892 30.6749 4.77974 31.6556C5.11653 32.5248 5.51701 33.1487 6.18911 33.8197C6.85303 34.4849 7.47724 34.8858 8.34443 35.2224C9.21586 35.5604 10.1453 35.7653 11.4339 35.857L13.1236 35.9366L14.6488 35.9777L16.0484 35.9931L24.0259 35.9927L25.3019 35.9787L26.0005 35.9645L27.0584 35.9299L28.5775 35.856C29.8675 35.7623 30.7843 35.5613 31.657 35.2229C32.5254 34.8858 33.1496 34.4849 33.8186 33.8146C34.4858 33.1485 34.8873 32.5235 35.2259 31.653C35.5635 30.7836 35.7675 29.8574 35.858 28.5676L35.9372 26.8771L35.9783 25.3517L35.9937 23.9519L35.9933 15.9737L35.974 14.4043L35.9496 13.4639L35.9304 12.9395L35.857 11.4183C35.7645 10.1305 35.5638 9.21373 35.2268 8.34593C34.8879 7.4748 34.4863 6.84986 33.816 6.17952C33.149 5.51238 32.5225 5.10973 31.6582 4.7742C30.6769 4.39365 29.6252 4.18221 28.0681 4.11056L26.18 4.03669L25.6594 4.02446L23.4739 4.0007ZM20.0013 9.99598C25.5247 9.99598 30.0022 14.4741 30.0022 19.9983C30.0022 25.5225 25.5247 30.0007 20.0013 30.0007C14.478 30.0007 10.0005 25.5225 10.0005 19.9983C10.0005 14.4741 14.478 9.99598 20.0013 9.99598ZM20.0013 13.9969C16.6873 13.9969 14.0008 16.6838 14.0008 19.9983C14.0008 23.3128 16.6873 25.9997 20.0013 25.9997C23.3153 25.9997 26.0018 23.3128 26.0018 19.9983C26.0018 16.6838 23.3153 13.9969 20.0013 13.9969ZM30.0026 7.99591C31.1076 7.99591 32.0027 8.89112 32.0027 9.99638C32.0027 11.1016 31.1076 11.9968 30.0026 11.9968C28.8991 11.9968 28.0024 11.1016 28.0024 9.99638C28.0024 8.89112 28.8991 7.99591 30.0026 7.99591Z" fill="white"/>
</svg>
