<svg width="310" height="301" viewBox="0 0 310 301" fill="none" xmlns="http://www.w3.org/2000/svg">
<path fill-rule="evenodd" clip-rule="evenodd" d="M287.388 187.505C266.517 208.721 237.805 219.351 211.419 232.391C194.045 240.976 179.909 253.169 164.456 264.709C125.167 294.048 75.5171 317.511 35.6507 285.976C2.42736 259.695 -12.65 199.073 12.7605 155.244C21.5501 140.085 34.1969 130.194 48.3342 123.232C56.8206 119.051 67.7816 116.633 74.0973 107.89C80.7572 98.668 80.8942 84.6664 82.2843 73.7647C84.348 57.5371 86.5818 40.483 94.0109 25.7012C111.053 -8.21284 138.23 -2.83092 164.014 17.9598C176.55 28.0673 187.532 39.913 199.419 50.7392C216.278 66.0933 235.241 72.9958 256.434 80.5332C275.308 87.246 295.013 96.5913 304.481 114.259C315.224 134.306 309.247 160.1 295.469 178.194C292.938 181.516 290.236 184.61 287.388 187.505" fill="#EBEFFF"/>
<path fill-rule="evenodd" clip-rule="evenodd" d="M228.048 257.181C227.721 257.21 227.393 257.224 227.066 257.224H228.618C227.393 257.224 227.721 257.21 228.048 257.181V257.181ZM205.756 216.034C205.871 205.212 203.919 197.028 201.284 190.94C201.284 190.94 213.961 165.861 241.409 171.493C246.48 183.997 249.357 198.397 249.799 212.726C249.899 199.68 248.033 185.266 242.136 171.65C240.284 167.415 238.062 163.252 235.37 159.246C235.356 159.217 235.341 159.188 235.313 159.174C227.222 147.084 214.987 136.32 196.911 128.649L181.813 124.229C181.813 124.229 184.206 129.59 180.872 136.533C177.539 143.477 169.335 152.06 160.617 150.035C151.9 148.025 142.314 143.363 143.767 133.938C145.22 124.514 145.832 121.164 145.832 121.164L94.2835 121.662C99.8101 129.105 107.459 146.214 92.0046 173.86L101.605 173.475C101.605 173.475 95.1949 233.842 109.724 257.238C109.824 257.424 109.938 257.595 110.051 257.765L192.054 257.424L197.752 257.409C197.78 257.352 197.794 257.281 197.808 257.224L202.738 240.129L205.756 216.034ZM242.406 257.224C242.406 257.224 243.161 255.128 244.201 251.464C243.503 253.431 242.72 255.356 241.865 257.224H242.406Z" fill="#353642"/>
<path fill-rule="evenodd" clip-rule="evenodd" d="M148.354 106.82C148.354 106.82 147.115 114.348 145.833 121.163C142.157 121.206 138.497 121.235 134.879 121.263C133.027 110.941 135.035 102.857 137.4 97.4673C140.363 104.268 144.864 106.336 148.354 106.82" fill="#6D49D5"/>
<path fill-rule="evenodd" clip-rule="evenodd" d="M208.577 133.981C201.227 129.946 193.222 126.995 184.947 124.956L182.251 124.493C182.251 124.493 180.244 119.92 180.23 119.906C179.29 117.511 177.728 114.331 177.244 111.807C176.689 108.87 176.479 105.701 176.82 102.75C177.347 98.2585 179.435 88.7632 183.21 85.7691C186.358 83.2885 187.657 83.8098 189.452 79.9319C190.734 77.1659 191.256 72.5166 188.764 70.4777C186.001 68.2392 184.818 69.394 181.514 69.722C168.95 70.9689 161.771 61.9186 157.154 51.4618C156.403 49.7626 155.656 47.9694 154.461 46.5248C153.084 44.8597 151.184 44.4848 149.627 43.1359C148.961 42.5593 148.508 41.6106 148.829 40.79C148.986 40.3861 149.306 40.0703 149.624 39.7757C152.571 37.0446 156.098 35.0919 159.948 33.9642C165.888 32.2246 172.469 31.9822 178.651 33.3795C185.103 35.5181 190.9 39.5673 194.803 45.7552C200.187 54.3095 201.483 63.1779 198.464 72.0177C195.373 81.0713 191.926 91.7075 197.723 100.419C205.443 112.01 210.101 120.151 208.577 133.981" fill="#6D49D5"/>
<path fill-rule="evenodd" clip-rule="evenodd" d="M53.2968 126.991L52.9402 125.004C78.2653 120.455 102.193 120.372 127.526 120.284C129.967 120.275 132.416 120.267 134.873 120.254L134.992 120.253C138.569 120.225 142.188 120.196 145.821 120.154L145.844 122.173C142.209 122.216 138.588 122.244 135.007 122.272L134.886 122.273C132.424 122.286 129.975 122.294 127.533 122.303C102.291 122.391 78.4482 122.473 53.2968 126.991" fill="black"/>
<path fill-rule="evenodd" clip-rule="evenodd" d="M242.617 258.012L240.743 257.263C240.78 257.172 240.82 257.085 240.861 256.998C240.884 256.949 240.908 256.901 240.929 256.849L240.948 256.803C241.8 254.941 242.575 253.03 243.25 251.126C247.285 239.899 249.2 226.632 248.791 212.755C248.347 198.33 245.471 184.192 240.475 171.872C238.77 167.641 236.801 163.634 234.618 159.955L234.599 159.945L234.447 159.692C231.381 154.557 227.915 150.124 224.147 146.516C219.66 142.221 214.487 138.424 208.764 135.222L208.755 135.231L208.091 134.866C204.504 132.892 200.623 131.119 196.557 129.594C192.784 128.169 188.798 126.939 184.706 125.936C183.629 125.671 182.613 125.435 181.599 125.215L182.026 123.242C183.059 123.466 184.093 123.706 185.188 123.976C189.356 124.997 193.421 126.251 197.268 127.704C201.333 129.228 205.22 130.998 208.826 132.967L209.019 132.968L209.216 133.165C215.3 136.511 220.792 140.512 225.541 145.057C229.414 148.765 232.97 153.303 236.114 158.548C236.181 158.629 236.226 158.705 236.252 158.756C238.527 162.568 240.577 166.726 242.345 171.115C247.429 183.652 250.355 198.031 250.807 212.694C251.224 226.823 249.267 240.347 245.15 251.805C244.458 253.755 243.664 255.714 242.791 257.624C242.758 257.706 242.721 257.784 242.684 257.862C242.661 257.912 242.637 257.96 242.617 258.012" fill="black"/>
<path fill-rule="evenodd" clip-rule="evenodd" d="M198.655 257.865C198.665 257.844 198.676 257.82 198.685 257.793C198.676 257.815 198.666 257.837 198.655 257.859L197.838 257.452H196.729L196.743 257.393V257.172L196.83 256.978L196.839 256.979L196.848 256.96C196.845 256.966 196.842 256.973 196.839 256.98L196.842 256.981L196.843 256.978L196.854 256.983L198.544 257.409H198.76V257.464L198.787 257.47C198.779 257.502 198.77 257.537 198.76 257.575V257.648L198.655 257.865Z" fill="black"/>
<path fill-rule="evenodd" clip-rule="evenodd" d="M203.663 240.355L199.805 256.78L197.809 257.224L201.671 240.158V240.043L201.697 239.903C203.643 231.428 204.668 223.481 204.746 216.28L204.748 216.023C204.847 206.603 203.37 198.3 200.359 191.342C195.347 179.768 187.7 175.902 187.623 175.865L188.507 174.049C188.846 174.215 196.881 178.232 202.21 190.539C205.303 197.686 206.836 206.166 206.768 215.75L206.778 216.465L206.761 216.481C206.665 223.795 205.623 231.818 203.663 240.355" fill="black"/>
<path fill-rule="evenodd" clip-rule="evenodd" d="M108.106 258.108C95.321 221.735 99.5155 181.879 100.446 174.519L25.5675 176.895C18.7174 177.116 12.1217 174.354 7.46106 169.329C2.80115 164.304 0.544305 157.512 1.26959 150.693L1.29964 150.534L19.9312 82.5044L23.9762 67.9904C25.1812 63.6664 24.8902 59.0046 23.1563 54.8637L21.2678 50.3534C21.0303 49.86 19.5633 46.5966 21.1025 44.3442C22.0627 42.9396 23.8959 42.3431 26.546 42.5691C31.4397 42.9873 35.8823 45.2485 38.7475 47.0713C43.7648 50.2628 45.9047 53.8259 44.7741 57.1033C44.022 59.2834 42.3054 60.9049 39.9416 61.6694C37.3069 62.5212 34.35 62.1209 32.2262 60.6246L33.3873 58.9734C34.9786 60.0949 37.308 60.399 39.3215 59.7478C41.0678 59.1833 42.3274 58.0101 42.8672 56.4444C43.9407 53.3336 40.0691 50.3043 37.6653 48.7753C34.9907 47.0735 30.8607 44.9645 26.3741 44.5808C25.0903 44.4704 23.4176 44.5375 22.769 45.4814C21.9891 46.6179 22.7385 48.7639 23.0933 49.4946L23.1175 49.5475L25.0166 54.0835C26.9249 58.6414 27.2456 63.7732 25.9189 68.5329L21.8755 83.0422L3.26732 150.988C2.62926 157.198 4.69443 163.378 8.93948 167.956C13.2029 172.553 19.2393 175.077 25.5037 174.877L102.785 172.425L102.602 173.624C102.535 174.062 96.0987 217.865 110.009 257.437L108.106 258.108Z" fill="black"/>
<path fill-rule="evenodd" clip-rule="evenodd" d="M45.8093 54.9951C45.1203 54.9951 44.3903 54.9338 43.6225 54.8095L43.9446 52.8164C47.7957 53.4404 50.1988 52.2731 50.7111 49.5299C51.6317 44.6065 45.9849 35.9685 35.0404 33.6398C29.8531 32.536 26.2948 32.9575 24.7519 34.8588C22.4676 37.674 24.8065 43.0684 24.8304 43.1223L22.9869 43.9414C22.8682 43.6747 20.1235 37.3688 23.1822 33.591C25.2624 31.022 29.3928 30.3738 35.46 31.6647C47.7605 34.2825 53.7878 44.0508 52.6934 49.9015C52.081 53.177 49.5647 54.9951 45.8093 54.9951" fill="black"/>
<path fill-rule="evenodd" clip-rule="evenodd" d="M58.8696 33.0776C58.1806 33.0776 57.4506 33.0163 56.6828 32.892L57.0049 30.8989C60.856 31.5229 63.2591 30.3556 63.7714 27.6124C64.692 22.689 59.0452 14.051 48.1007 11.7223C42.9134 10.6185 39.3551 11.04 37.8122 12.9413C35.5279 15.7565 37.8668 21.1509 37.8907 21.2048L36.0472 22.024C35.9285 21.7573 33.1838 15.4513 36.2425 11.6735C38.3227 9.10456 42.4531 8.45636 48.5203 9.74727C60.8208 12.365 66.8481 22.1333 65.7537 27.984C65.1413 31.2595 62.625 33.0776 58.8696 33.0776" fill="black"/>
<path fill-rule="evenodd" clip-rule="evenodd" d="M52.9236 50.143L51.6881 48.5469C57.7334 43.8576 59.347 38.9129 56.4844 33.8505C54.4449 30.2445 50.2093 26.8182 44.8634 24.4502C40.1294 22.3534 35.361 21.5621 32.9979 22.4821C30.7718 23.3486 29.4477 24.5291 29.0625 25.991C28.408 28.4737 30.5604 31.1542 30.5824 31.1814L29.0233 32.4624C28.9079 32.3215 26.1984 28.9734 27.1088 25.4884C27.6644 23.3611 29.3997 21.7165 32.2671 20.6002C38.4271 18.2029 53.4333 24.357 58.2395 32.8556C62.7418 40.8172 56.8413 47.1041 52.9236 50.143" fill="black"/>
<path fill-rule="evenodd" clip-rule="evenodd" d="M209.608 134.09L208.667 133.988L207.597 133.995L207.602 133.872C209.061 120.392 204.526 112.452 196.884 100.978C190.688 91.6688 194.631 80.1221 197.509 71.691C200.41 63.1997 199.213 54.6549 193.95 46.2931C190.413 40.686 185.013 36.5517 178.333 34.3378C171.584 32.1177 164.021 32.0098 157.038 34.0352C148.814 36.4277 142.821 42.4626 139.226 51.9718L139.131 52.1938C137.96 55.3277 137.047 58.8475 136.415 62.6586C136.075 64.6854 135.815 66.7915 135.642 68.9202C134.844 78.7769 135.26 86.8503 136.879 92.9153C137.287 94.4549 137.771 95.8452 138.318 97.0496C140.584 102.251 144.005 105.197 148.492 105.821C151.108 106.167 153.124 105.538 153.144 105.531L153.764 107.452C153.666 107.485 151.318 108.232 148.221 107.821C144.619 107.321 139.664 105.189 136.475 97.8709C135.889 96.5786 135.366 95.0815 134.929 93.4347C133.251 87.1478 132.815 78.8444 133.631 68.7566C133.81 66.5706 134.076 64.4074 134.425 62.3263C135.088 58.3332 136.053 54.6395 137.293 51.3489C137.314 51.2825 137.343 51.2132 137.383 51.1431C141.22 41.0741 147.643 34.6658 156.476 32.0964C163.846 29.9588 171.832 30.0737 178.966 32.4203C186.096 34.7835 191.867 39.2084 195.656 45.2161C201.26 54.1204 202.526 63.2471 199.418 72.344C196.523 80.8246 192.919 91.379 198.562 99.8588C206.456 111.711 211.139 119.93 209.608 134.09" fill="black"/>
<path fill-rule="evenodd" clip-rule="evenodd" d="M130.957 121.897C128.172 108.525 131.634 98.6254 135.029 92.6753L136.78 93.6764C133.559 99.3235 130.276 108.732 132.932 121.485L130.957 121.897Z" fill="black"/>
<path fill-rule="evenodd" clip-rule="evenodd" d="M147.013 65.6164C144.681 62.2907 142.267 60.5107 139.838 60.3266C137.134 60.1223 135.319 61.9876 135.301 62.0064L133.843 60.6105C133.944 60.5056 136.349 58.0349 139.99 58.3134C143.051 58.5456 145.969 60.6124 148.664 64.4568L147.013 65.6164Z" fill="black"/>
<path fill-rule="evenodd" clip-rule="evenodd" d="M151.618 97.2156C153.669 98.5454 156.599 97.7966 158.288 95.5098C159.757 93.52 160.55 90.9771 161.016 88.6942C157.75 91.5145 153.269 92.5072 148.984 92.9918C149.25 94.0439 149.757 95.1569 150.384 96.023C150.74 96.5142 151.155 96.9155 151.618 97.2156M153.883 99.888C152.704 99.888 151.541 99.5718 150.521 98.91C149.849 98.4742 149.253 97.9016 148.751 97.2079C147.71 95.7709 146.962 93.852 146.799 92.1994C146.773 91.9327 146.854 91.666 147.024 91.4591C147.194 91.2518 147.44 91.1209 147.706 91.0952C152.984 90.5871 158.773 89.4485 161.695 84.8541C161.945 84.4613 162.431 84.2907 162.871 84.4407C163.311 84.5907 163.592 85.0233 163.55 85.4873C163.526 85.7459 163.493 86.0038 163.459 86.261C163.07 89.21 162.279 93.5017 159.91 96.7101C158.394 98.7636 156.107 99.888 153.883 99.888" fill="black"/>
<path fill-rule="evenodd" clip-rule="evenodd" d="M178.583 118.032L178.569 118.018L179.986 116.582L178.583 118.032Z" fill="black"/>
<path fill-rule="evenodd" clip-rule="evenodd" d="M170.561 66.2118C170.553 66.0885 170.294 62.7712 164.01 60.5738C157.838 58.4164 156.036 60.9509 155.962 61.0595L154.257 59.9814C154.36 59.8152 156.866 55.9373 164.674 58.6677C172.383 61.3629 172.573 65.9723 172.577 66.167L170.561 66.2118Z" fill="black"/>
<path fill-rule="evenodd" clip-rule="evenodd" d="M137.073 69.8316L136.165 68.0289C136.321 67.95 140.01 66.1206 143.049 68.081L141.956 69.778C139.896 68.4493 137.102 69.8176 137.073 69.8316" fill="black"/>
<path fill-rule="evenodd" clip-rule="evenodd" d="M157.116 71.3684L156.208 69.5657C156.363 69.4868 160.053 67.657 163.092 69.6178L161.999 71.3148C159.939 69.9865 157.144 71.354 157.116 71.3684" fill="black"/>
<path fill-rule="evenodd" clip-rule="evenodd" d="M162.528 150.617C156.696 150.617 151.041 148.41 147.36 144.687C144.35 141.644 142.807 137.772 142.897 133.488C142.93 131.999 143.76 127.19 144.451 123.418L144.55 122.87C144.689 122.104 144.829 121.329 144.979 120.545C146.243 113.822 147.484 106.302 147.496 106.227L149.486 106.555C149.474 106.631 148.23 114.173 146.961 120.921C146.812 121.702 146.673 122.47 146.535 123.23L146.435 123.781C145.492 128.936 144.937 132.49 144.913 133.532C144.836 137.255 146.177 140.622 148.793 143.267C152.15 146.661 157.358 148.662 162.753 148.596C167.986 148.54 172.57 146.475 176.009 142.625C179.992 138.166 181.993 131.652 181.372 125.18C180.981 124.104 180.587 123.028 180.194 121.952C179.783 120.829 179.373 119.706 178.965 118.584C178.675 117.783 178.351 116.966 178.037 116.177C177.224 114.125 176.382 112.004 175.946 109.748C175.413 106.998 175.351 103.861 175.764 100.425C176.269 96.1298 177.117 88.9364 181.309 85.6107C182.033 85.041 182.758 84.5186 183.46 84.0131C185.881 82.2699 187.971 80.7647 189.254 77.9932C190.317 75.7001 190.422 72.5963 188.263 70.8303C185.963 68.9675 182.24 69.0482 178.56 69.4136C177.509 69.521 176.498 69.5724 175.527 69.5724C162.012 69.5728 156.034 59.6336 151.986 52.9039C150.277 50.0631 148.801 47.6097 147.352 46.8466C143.509 44.8195 140.477 49.4684 139.338 51.5932C139.31 51.6691 139.273 51.748 139.22 51.8261C139.072 52.1163 138.994 52.2905 138.988 52.3048L137.141 51.493C137.141 51.493 137.25 51.2428 137.468 50.821L137.534 50.6893C140.486 45.157 144.503 43.0623 148.292 45.0601C150.239 46.0851 151.772 48.6346 153.714 51.8624C158.033 59.0437 163.954 68.8776 178.357 67.4044C182.47 66.9968 186.666 66.9392 189.536 69.2639C192.536 71.7177 192.475 75.8421 191.084 78.8425C189.579 82.0941 187.067 83.903 184.638 85.6521C183.953 86.1448 183.246 86.6547 182.56 87.1951C179.023 90.001 178.236 96.6757 177.767 100.664C177.379 103.893 177.433 106.82 177.926 109.364C178.326 111.434 179.133 113.466 179.912 115.431C180.231 116.235 180.56 117.065 180.861 117.894C181.268 119.016 181.678 120.137 182.088 121.257C182.497 122.375 182.906 123.492 183.311 124.61L183.354 124.728L183.367 124.853C184.081 131.921 181.893 139.067 177.512 143.971C173.686 148.255 168.589 150.552 162.775 150.616C162.692 150.616 162.61 150.617 162.528 150.617" fill="black"/>
<path fill-rule="evenodd" clip-rule="evenodd" d="M146.893 81.4146C146.382 81.4146 145.87 81.3284 145.471 81.0753C145.073 80.8237 144.814 80.4319 144.742 79.9722C144.559 78.8222 145.972 73.9366 146.83 71.127L148.759 71.7168C147.851 74.689 146.9 78.2261 146.755 79.3933C147.11 79.4062 147.731 79.32 148.225 79.1751L148.793 81.1124C148.394 81.2294 147.643 81.4146 146.893 81.4146" fill="black"/>
<path fill-rule="evenodd" clip-rule="evenodd" d="M158.704 64.9364C156.961 64.9364 155.294 65.5156 153.931 66.6102C152.331 67.8949 151.338 69.7398 151.137 71.8047C150.715 76.1074 153.881 80.0348 158.193 80.5597C160.278 80.8139 162.318 80.2406 163.932 78.9453C165.532 77.6602 166.525 75.8154 166.727 73.7501C167.148 69.4478 163.982 65.5204 159.669 64.9954C159.346 64.9558 159.023 64.9364 158.704 64.9364M159.164 82.6382C158.762 82.6382 158.357 82.6137 157.95 82.5641C152.559 81.9079 148.602 76.9929 149.129 71.6081C149.384 68.9973 150.641 66.6634 152.669 65.0354C154.71 63.3967 157.283 62.6707 159.913 62.991C165.304 63.6473 169.261 68.5622 168.734 73.9471C168.478 76.5579 167.221 78.8921 165.194 80.5197C163.469 81.9053 161.363 82.6382 159.164 82.6382" fill="black"/>
<path fill-rule="evenodd" clip-rule="evenodd" d="M136.43 62.2243C134.687 62.2243 133.02 62.8036 131.657 63.8982C130.057 65.1829 129.064 67.0277 128.863 69.0927C128.441 73.3953 131.607 77.3231 135.919 77.8477C138.007 78.1019 140.044 77.5285 141.658 76.2332C143.258 74.9482 144.25 73.1033 144.452 71.038C144.873 66.7357 141.707 62.8083 137.395 62.2834C137.072 62.2438 136.749 62.2243 136.43 62.2243M136.89 79.9262C136.487 79.9262 136.082 79.9016 135.676 79.8521C130.285 79.1958 126.328 74.2809 126.855 68.896C127.11 66.2852 128.367 63.9514 130.395 62.3234C132.435 60.6847 135.01 59.9591 137.639 60.279C143.03 60.9352 146.987 65.8502 146.46 71.235V71.235C146.204 73.8458 144.947 76.18 142.92 77.8077C141.195 79.1933 139.089 79.9262 136.89 79.9262" fill="black"/>
<path fill-rule="evenodd" clip-rule="evenodd" d="M150.011 72.7085L145.334 72.1392L145.578 70.1348L150.254 70.7041L150.011 72.7085Z" fill="black"/>
<path fill-rule="evenodd" clip-rule="evenodd" d="M269.816 258.782C188.168 258.366 32.5985 257.822 28.2182 258.737C28.2204 258.736 28.2787 258.724 28.3593 258.686L27.5017 256.859C28.0943 256.58 29.3243 256 149.851 256.306C209.312 256.456 269.228 256.76 269.826 256.763L269.816 258.782Z" fill="black"/>
<mask id="mask0_0_1839" style="mask-type:luminance" maskUnits="userSpaceOnUse" x="52" y="0" width="35" height="133">
<path fill-rule="evenodd" clip-rule="evenodd" d="M52.115 0H86.0486V132.527H52.115V0Z" fill="white"/>
</mask>
<g mask="url(#mask0_0_1839)">
<path fill-rule="evenodd" clip-rule="evenodd" d="M79.2737 0.0225018C73.9684 -0.346907 70.1701 3.90881 67.7707 7.14434C65.9665 9.59741 63.6931 15.1389 62.2426 20.6199L64.1926 21.1367C65.5633 15.9577 67.7513 10.5765 69.3928 8.34428C72.7531 3.8127 75.8466 1.80608 79.1392 2.03682C81.3271 2.17806 83.9204 3.30206 84.0293 5.9998C84.0945 7.83987 82.7949 9.99103 81.5382 12.0714C80.7019 13.4551 79.9125 14.7625 79.4437 16.0652C78.459 18.833 78.0155 21.7123 78.1401 24.3781L77.6476 33.1449C77.1019 43.7114 74.2491 52.6168 68.9929 60.2218C68.5627 60.8443 68.1313 61.4599 67.7025 62.0714C64.3939 66.7882 61.2692 71.2439 59.9143 77.2006C56.6375 91.6035 55.4376 102.692 54.0482 115.531C53.4783 120.795 52.8894 126.238 52.115 132.27L54.1157 132.528C54.8926 126.476 55.4827 121.022 56.0537 115.748C57.4361 102.972 58.6304 91.9377 61.8812 77.6489C63.1482 72.0792 66.1622 67.7813 69.3536 63.2313C69.7849 62.6161 70.2192 61.9969 70.6524 61.3703C76.0728 53.5266 79.0388 44.3867 79.6457 33.5847C79.6457 33.5847 80.1994 19.9614 81.3429 16.7457C81.7424 15.6352 82.4816 14.4118 83.2644 13.1161C84.6739 10.7827 86.1318 8.36923 86.0449 5.92313C85.8925 2.13917 82.5318 0.232701 79.2737 0.0225018" fill="black"/>
</g>
</svg>
