<svg width="50" height="50" viewBox="0 0 50 50" fill="none" xmlns="http://www.w3.org/2000/svg">
<path d="M25 21.875C23.2741 21.875 21.875 23.2741 21.875 25C21.875 26.7259 23.2741 28.125 25 28.125C26.7259 28.125 28.125 26.7259 28.125 25C28.125 23.2741 26.7259 21.875 25 21.875Z" fill="black"/>
<path fill-rule="evenodd" clip-rule="evenodd" d="M26.875 0.625V5.71456C36.0787 6.59838 43.4016 13.9213 44.2854 23.125H49.375V26.875H44.2854C43.4016 36.0787 36.0787 43.4016 26.875 44.2854V49.375H23.125V44.2854C13.9213 43.4016 6.59838 36.0787 5.71456 26.875H0.625V23.125H5.71456C6.59838 13.9213 13.9213 6.59838 23.125 5.71456V0.625L26.875 0.625ZM9.48634 26.875H14.375V23.125H9.48634C10.3391 15.9943 15.9943 10.3391 23.125 9.48634V14.375H26.875V9.48634C34.0057 10.3391 39.6609 15.9943 40.5137 23.125H35.625V26.875H40.5137C39.6609 34.0057 34.0057 39.6609 26.875 40.5137V35.625H23.125V40.5137C15.9943 39.6609 10.3391 34.0057 9.48634 26.875Z" fill="black"/>
</svg>
