<svg width="376" height="394" viewBox="0 0 376 394" fill="none" xmlns="http://www.w3.org/2000/svg">
<path fill-rule="evenodd" clip-rule="evenodd" d="M374.589 243.049C375.917 234.5 376.335 225.796 375.727 216.997C371.581 157.024 350.125 79.3701 307.06 35.6874C293.863 22.3015 277.615 12.3755 259.408 7.47765C218.165 -3.61626 179.021 -6.37598 147.766 27.8803C127.516 50.0732 123.909 78.4128 108.667 102.904C79.7548 149.362 12.8117 160.805 1.54251 220.146C-6.7208 263.659 19.5194 306.317 49.1601 336.086C79.0637 366.119 118.99 387.145 161.218 392.563C171.456 393.877 181.809 394.305 192.121 393.785C269.557 389.878 362.13 323.251 374.589 243.049" fill="#EBEFFF"/>
<path fill-rule="evenodd" clip-rule="evenodd" d="M34.881 221C34.5349 217.593 34.2465 214.021 34 210.08L36.1232 210C36.3686 213.924 36.6555 217.479 37 220.87L34.881 221Z" fill="black"/>
<path fill-rule="evenodd" clip-rule="evenodd" d="M151.604 283.829C150.506 291.505 148.875 300.308 147.067 309.134L144.946 309.721C138.128 311.608 130.887 311.403 124.191 309.134V309.134L126.984 299.821L110 251.242C110 251.242 122.982 247.116 133.641 244.052C134.057 244.034 134.45 244.018 134.866 244C140.691 245.208 152.694 249.744 153.07 266.723C153.093 267.536 153.081 268.395 153.058 269.336C154.759 274.817 154.086 279.648 151.604 283.829" fill="#6D49D5"/>
<path fill-rule="evenodd" clip-rule="evenodd" d="M111 98.8083C110.661 97.9295 109.751 97.4959 108.795 97.8124C108.538 97.8943 108.328 98.0114 108.153 98.1757C107.488 98.7146 107.336 99.6636 107.313 100.566C107.254 102.628 107.138 104.69 106.986 106.74C106.974 106.881 106.963 107.033 106.963 107.186C106.869 108.838 106.94 110.841 106.239 112.282C106.181 112.387 106.123 112.493 106.017 112.552C105.784 112.657 105.539 112.423 105.388 112.212C104.956 111.579 104.524 110.958 104.104 110.314C103.766 109.798 103.381 109.236 102.786 109.072C101.899 108.826 101.047 109.611 100.569 110.407C98.9935 113.009 98.8536 117.274 101.281 119.453C103.742 121.667 98.2582 125.92 94.3495 127.725C94.3495 127.725 94.3611 127.725 94.3495 127.725C93.5909 128.134 93.1474 128.345 92.296 128.65C92.261 128.662 93.7079 128.978 93.6729 128.99C90.8375 129.986 87.5004 130.724 84.2449 130.935C80.4294 131.193 76.7072 130.712 74 129.048C74.1166 128.626 75.0384 125.569 75.0967 125.135C75.2953 123.624 75.4352 122.124 75.5168 120.601C75.6804 117.742 75.6688 114.883 75.5638 112.036C75.1671 101.784 76.9869 93.1726 81.1992 91.8602C81.5377 91.7549 81.8529 91.6261 82.1444 91.4505C84.0463 90.3957 85.0618 88.1699 84.1866 86.0723C84.1279 85.9319 84.0579 85.7914 83.9997 85.6622C83.9297 85.51 83.8481 85.3579 83.7665 85.2291C91.9925 82.6629 97.57 84.4439 103.229 87.5486C104.337 88.4391 105.341 89.3881 106.239 90.3606C107.394 91.6144 108.316 92.9033 109.028 94.1684C109.985 95.809 110.603 97.414 111 98.8083" fill="#6D49D5"/>
<path fill-rule="evenodd" clip-rule="evenodd" d="M308.319 195.996H280.272V129.523C280.272 129.523 275.115 187.278 260.905 220H174C184.243 213.548 192.456 203.801 197.928 193.313C200.098 189.163 203.54 183 209.28 184.619C210.645 185 212.652 185.243 213.667 184.006C214.04 183.555 214.192 182.953 214.238 182.375C214.728 176.316 208.393 171.217 203.167 169.61C197.917 168.015 191.838 168.754 187.685 172.512C184.687 175.23 182.808 178.837 180.615 182.179C179.367 184.075 177.78 185.925 175.972 187.567C178.223 174.004 180.23 161.019 180.521 156.267C186.017 151.966 190.041 144.936 191.488 138.75C193.063 131.974 194.451 125.349 196.902 119.001L216.934 119.07C218.508 119.07 219.78 117.81 219.78 116.249V83.2725C219.78 81.7347 218.532 80.4743 216.968 80.4627L203.33 80.3472C208.289 79.2947 213.328 78.682 218.369 78.3581C218.473 78.3581 218.567 78.3466 218.66 78.3466C221.985 78.1271 227.819 78.0347 231.155 78C227.153 80.1504 224.703 84.6831 225.123 88.6951C225.205 89.5508 225.415 90.3834 225.777 91.1698C229.195 98.6158 238.202 100.813 245.634 98.6504C253.906 96.257 259.984 88.7182 259.622 80.0464C264.79 80.7982 269.924 81.7579 275.011 82.9139C282.722 84.6715 290.247 87.0419 296.349 92.2104C301.669 96.6964 306.172 102.49 308.261 109.011C317.221 136.958 314.467 168.13 308.319 195.996" fill="#2E2E2E"/>
<path fill-rule="evenodd" clip-rule="evenodd" d="M177.5 187L176 186.704C177.387 177.432 178.914 166.647 179.481 156L181 156.106C180.428 166.842 178.894 177.682 177.5 187" fill="black"/>
<path fill-rule="evenodd" clip-rule="evenodd" d="M197 119.729C194.585 126.068 193.217 132.684 191.665 139.45C190.239 145.628 186.272 152.648 180.856 156.943C176.314 160.546 170.749 162.243 164.792 159.968C156.801 156.908 153.995 148.064 153.018 140.27C151.788 130.594 151.626 120.711 152.788 111C153.915 113.517 158.526 121.172 172.818 119.164H172.83C173.198 119.44 173.658 119.614 174.152 119.637L197 119.729Z" fill="#2E2E2E"/>
<path fill-rule="evenodd" clip-rule="evenodd" d="M183.365 108C180.296 108 173.748 107.33 171 107.033L171.205 105.356C174.023 105.66 180.88 106.359 183.667 106.309C187.184 106.242 192.449 104.705 193.141 101.498C193.365 100.46 192.925 99.2037 192.072 98.4432C191.532 97.9618 190.59 97.4599 189.179 97.8006L188.731 96.1654C190.455 95.7498 192.081 96.1234 193.31 97.2187C194.629 98.3945 195.255 100.205 194.904 101.833C193.958 106.217 187.687 107.921 183.703 107.997C183.596 107.999 183.483 108 183.365 108" fill="black"/>
<path fill-rule="evenodd" clip-rule="evenodd" d="M177.228 101C174.884 101 172.551 100.652 170.301 99.9566L170.787 98.2059C174.728 99.4243 178.948 99.4972 182.988 98.4161C187.563 97.1778 190.568 95.2369 191.919 92.6471C192.357 91.8133 192.388 90.6237 192 89.6141C191.81 89.1187 191.35 88.2427 190.407 87.9403C189.097 87.521 187.729 88.33 186.284 89.1884C185.413 89.7063 184.511 90.2417 183.581 90.5126C182.118 90.9396 180.567 91.2392 178.84 91.4282C178.424 91.4768 178.001 91.5141 177.578 91.5515C175.037 91.7368 172.862 91.7216 170.919 91.5051C170.078 91.4835 169.369 90.9306 169.103 90.0843C168.833 89.2217 169.105 88.3138 169.798 87.7707L170.193 87.4643L171.218 88.9333L170.826 89.2375C170.738 89.3063 170.71 89.3995 170.745 89.5115C170.78 89.6249 170.857 89.682 170.97 89.682L171.063 89.6874C172.915 89.8962 175.003 89.9115 177.447 89.7329C177.842 89.6982 178.249 89.6622 178.656 89.6145C180.293 89.4355 181.751 89.1547 183.12 88.7547C183.848 88.5428 184.619 88.0843 185.436 87.5993C187.054 86.6378 188.889 85.5476 190.91 86.1955C192.101 86.5771 193.082 87.5737 193.603 88.9293C194.188 90.4519 194.123 92.2138 193.433 93.5285C191.844 96.5749 188.473 98.8147 183.416 100.183C181.379 100.728 179.299 101 177.228 101" fill="black"/>
<path fill-rule="evenodd" clip-rule="evenodd" d="M170.219 162C168.282 162 166.345 161.64 164.444 160.915C157.59 158.301 153.414 151.415 152.035 140.45C150.406 127.642 150.701 115.246 152.911 103.608C153.655 99.7098 154.942 93.9462 157.519 88.9142C160.149 83.7803 163.652 80.1599 168.23 77.8456L172.749 75.5849C175.385 74.2462 178.668 75.2836 180.065 77.8988C180.481 78.7076 180.699 79.5907 180.699 80.463C180.699 80.6014 180.699 80.7583 180.658 80.9593L179.835 80.7926L178.939 80.7986L178.956 80.6147C178.962 80.5864 178.962 80.5547 178.962 80.463C178.962 79.8667 178.812 79.2593 178.527 78.7068C177.578 76.93 175.335 76.2206 173.531 77.1366L169.01 79.3982C159.539 84.1862 156.42 94.4875 154.618 103.933C152.442 115.391 152.152 127.604 153.758 140.231C155.052 150.511 158.855 156.923 165.063 159.291C169.168 160.856 173.297 160.556 177.335 158.403C184.559 154.552 189.467 145.813 190.97 139.322C191.155 138.516 191.339 137.71 191.522 136.906C192.906 130.826 194.213 125.082 196.378 119.422L198 120.043C195.88 125.588 194.585 131.273 193.215 137.293C193.032 138.097 192.849 138.904 192.662 139.714C191.019 146.806 185.896 155.808 178.152 159.937C175.576 161.31 172.898 162 170.219 162" fill="black"/>
<path fill-rule="evenodd" clip-rule="evenodd" d="M298.473 222H298.425H298.373V220.257H298.425H298.427C303.763 220.257 304.263 218.953 304.313 217.729C304.364 216.485 303.173 215.335 301.97 214.842C300.533 214.254 298.89 214.121 297.302 213.992L296.722 213.945C294.562 213.761 292.317 213.702 290.049 213.771L290 212.028C292.333 211.958 294.638 212.019 296.86 212.208L297.433 212.255C299.146 212.394 300.918 212.537 302.59 213.222C304.35 213.943 306.085 215.639 305.997 217.803C305.825 221.972 300.893 222 298.473 222" fill="black"/>
<path fill-rule="evenodd" clip-rule="evenodd" d="M247.619 208.949L267.794 157.406C268.865 153.136 265.626 149 261.212 149H181.07C177.367 149 174.146 151.531 173.28 155.122L151.191 206.654C150.165 210.908 153.399 215 157.788 215H239.846C243.523 215 246.727 212.505 247.619 208.949" fill="white"/>
<path fill-rule="evenodd" clip-rule="evenodd" d="M247.619 208.949L267.794 157.406C268.865 153.136 265.626 149 261.212 149H181.07C177.367 149 174.146 151.531 173.28 155.122L151.191 206.654C150.165 210.908 153.399 215 157.788 215H239.846C243.523 215 246.727 212.505 247.619 208.949" fill="#6D49D5"/>
<path fill-rule="evenodd" clip-rule="evenodd" d="M151.893 207.023C151.492 208.777 151.901 210.588 153.017 212.004C154.149 213.438 155.845 214.26 157.673 214.26H239.914C243.204 214.26 246.06 212.033 246.858 208.844C246.867 208.808 246.878 208.773 246.892 208.739L267.091 157.046C267.516 155.28 267.119 153.45 265.999 152.017C264.868 150.569 263.164 149.739 261.326 149.739H181.007C177.685 149.739 174.823 151.993 174.047 155.219C174.035 155.266 174.02 155.313 174.001 155.358L151.893 207.023ZM239.914 216H157.673C155.309 216 153.113 214.936 151.649 213.081C150.185 211.226 149.663 208.845 150.215 206.548C150.227 206.501 150.242 206.454 150.261 206.409L172.371 154.74C173.362 150.767 176.902 148 181.007 148H261.326C263.705 148 265.908 149.074 267.372 150.946C268.836 152.819 269.344 155.215 268.768 157.52C268.758 157.556 268.747 157.591 268.734 157.625L248.534 209.321C247.523 213.256 243.986 216 239.914 216V216Z" fill="black"/>
<path fill-rule="evenodd" clip-rule="evenodd" d="M243.187 207.316L261.81 158.897C262.798 154.885 259.808 151 255.734 151H181.757C178.338 151 175.365 153.378 174.566 156.751L154.176 205.16C153.23 209.156 156.215 213 160.266 213H236.012C239.405 213 242.364 210.656 243.187 207.316" fill="#6D49D5"/>
<path fill-rule="evenodd" clip-rule="evenodd" d="M187.734 159.73C188.725 158.251 190.348 157.594 191.359 158.26C192.37 158.927 192.385 160.666 191.393 162.144C191.235 162.38 191.057 162.586 190.872 162.778L198.225 178.174C199.397 177.398 200.687 177.206 201.613 177.816C202.211 178.211 202.545 178.88 202.646 179.669L207.669 177.986L212.062 176.531C212.539 176.372 213.017 176.219 213.496 176.064C213.667 175.555 213.912 175.042 214.242 174.549C215.635 172.474 217.914 171.55 219.333 172.486C220.739 173.414 220.769 175.819 219.414 177.882L227.777 189.223C229.602 187.741 231.75 187.28 233.239 188.262C235.265 189.6 235.296 193.087 233.307 196.051C233.229 196.169 233.136 196.267 233.054 196.379L238.625 203.935C238.641 203.957 238.661 203.985 238.676 204.008C239.269 204.895 239.025 206.091 238.13 206.679C237.235 207.267 236.029 207.025 235.436 206.137L230.487 198.73C228.921 199.631 227.257 199.803 226.036 198.998C224.1 197.721 224.007 194.487 225.733 191.616L217.716 179.618C216.533 180.415 215.227 180.619 214.291 180.002C213.771 179.659 213.443 179.112 213.299 178.457C213.1 178.511 212.901 178.568 212.701 178.622L208.234 179.832L202.516 181.361C202.352 181.997 202.078 182.649 201.661 183.269C200.269 185.345 197.99 186.269 196.571 185.332C195.152 184.396 195.13 181.955 196.523 179.879C196.732 179.566 196.967 179.29 197.21 179.032L190.211 163.337C189.368 163.906 188.436 164.053 187.768 163.613C186.757 162.946 186.742 161.207 187.734 159.73" fill="#D7E8F0"/>
<path fill-rule="evenodd" clip-rule="evenodd" d="M241 161H251.614C252.6 161 253.504 160.224 253.904 159.018C253.966 158.827 254 158.635 254 158.443C254 157.685 253.531 157 252.904 157H241.621C242.152 158.187 241.883 159.831 241 161" fill="#D7E8F0"/>
<path fill-rule="evenodd" clip-rule="evenodd" d="M233 159.557C233 160.315 233.477 161 234.124 161H240.079C240.99 159.831 241.268 158.187 240.72 157H235.462C234.437 157 233.512 157.776 233.099 158.973C233.035 159.164 233 159.365 233 159.557" fill="#6D49D5"/>
<path fill-rule="evenodd" clip-rule="evenodd" d="M236.249 161.001C236.274 161.056 236.306 161.11 236.345 161.165C237.052 162.192 238.581 162.288 239.77 161.364C239.912 161.254 240.046 161.131 240.169 161.001C240.991 160.124 241.242 158.893 240.747 158.003C240.721 157.948 240.689 157.893 240.651 157.838C239.95 156.805 238.421 156.716 237.232 157.633C237.084 157.749 236.949 157.873 236.827 158.003C236.011 158.879 235.76 160.104 236.249 161.001" fill="white"/>
<path fill-rule="evenodd" clip-rule="evenodd" d="M231 166.557C231 167.315 231.474 168 232.109 168H243.379C242.835 166.803 243.107 165.169 244 164H233.414C232.41 164 231.502 164.776 231.098 165.982C231.035 166.173 231 166.365 231 166.557" fill="#6D49D5"/>
<path fill-rule="evenodd" clip-rule="evenodd" d="M243.28 168H248.585C249.59 168 250.498 167.224 250.902 166.027C250.965 165.836 251 165.635 251 165.443C251 164.676 250.532 164 249.897 164H243.901C243.008 165.169 242.735 166.804 243.28 168" fill="#D7E8F0"/>
<path fill-rule="evenodd" clip-rule="evenodd" d="M244.258 167.997C244.277 168.052 244.309 168.107 244.348 168.162C245.049 169.195 246.579 169.284 247.768 168.367C247.916 168.251 248.051 168.128 248.173 167.997C248.989 167.121 249.24 165.896 248.751 164.999C248.725 164.944 248.693 164.89 248.655 164.835C247.948 163.808 246.418 163.712 245.228 164.636C245.087 164.746 244.952 164.869 244.83 164.999C244.007 165.876 243.756 167.101 244.258 167.997" fill="white"/>
<path fill-rule="evenodd" clip-rule="evenodd" d="M240 174H246.628C247.608 174 248.507 173.224 248.904 172.027C248.966 171.836 249 171.644 249 171.452C249 170.685 248.534 170 247.91 170H240.617C241.138 171.196 240.871 172.831 240 174" fill="#6D49D5"/>
<path fill-rule="evenodd" clip-rule="evenodd" d="M229 172.566C229 173.324 229.474 174 230.118 174H240.089C240.988 172.831 241.264 171.197 240.726 170H231.448C230.43 170 229.509 170.776 229.099 171.982C229.035 172.174 229 172.374 229 172.566" fill="#D7E8F0"/>
<path fill-rule="evenodd" clip-rule="evenodd" d="M235.253 173.997C235.279 174.052 235.311 174.106 235.35 174.161C236.05 175.195 237.579 175.284 238.768 174.367C238.916 174.25 239.051 174.127 239.173 173.997C239.989 173.12 240.24 171.894 239.751 170.997C239.725 170.942 239.693 170.887 239.655 170.833C238.948 169.805 237.419 169.716 236.23 170.634C236.088 170.744 235.953 170.867 235.832 170.997C235.009 171.873 234.758 173.107 235.253 173.997" fill="white"/>
<path fill-rule="evenodd" clip-rule="evenodd" d="M196 206H202.628C203.608 206 204.507 205.224 204.904 204.027C204.966 203.836 205 203.644 205 203.452C205 202.685 204.534 202 203.91 202H196.617C197.138 203.196 196.871 204.831 196 206" fill="#6D49D5"/>
<path fill-rule="evenodd" clip-rule="evenodd" d="M169 204.566C169 205.324 169.456 206 170.075 206H195.124C195.988 204.831 196.254 203.196 195.736 202H171.355C170.375 202 169.49 202.776 169.095 203.982C169.034 204.173 169 204.374 169 204.566" fill="#D7E8F0"/>
<path fill-rule="evenodd" clip-rule="evenodd" d="M192.253 205.997C192.279 206.052 192.311 206.106 192.35 206.161C193.05 207.195 194.579 207.284 195.768 206.367C195.916 206.25 196.051 206.127 196.173 205.997C196.989 205.12 197.24 203.894 196.751 202.997C196.725 202.942 196.693 202.887 196.655 202.833C195.948 201.805 194.419 201.716 193.23 202.634C193.088 202.744 192.953 202.867 192.832 202.997C192.009 203.873 191.758 205.107 192.253 205.997" fill="white"/>
<path fill-rule="evenodd" clip-rule="evenodd" d="M25.719 223.041C25.719 223.041 11.5136 286.689 48.042 299.983C84.5705 313.277 183.198 300.789 142.205 254.865C101.211 208.941 25.719 223.041 25.719 223.041" fill="#2E2E2E"/>
<path fill-rule="evenodd" clip-rule="evenodd" d="M204.364 81L204 79.3344C208.678 78.3602 213.785 77.6936 219.18 77.3537L219.236 77.3516C219.272 77.3516 219.305 77.3495 219.338 77.3474C219.391 77.3445 219.442 77.3419 219.493 77.3407C222.902 77.121 228.778 77.0328 231.982 77L232 78.703C228.806 78.7353 222.947 78.8231 219.585 79.0416L219.527 79.0433C219.499 79.0433 219.471 79.0458 219.442 79.0475C219.386 79.0504 219.328 79.0538 219.268 79.0546C213.966 79.3898 208.952 80.0443 204.364 81" fill="black"/>
<path fill-rule="evenodd" clip-rule="evenodd" d="M178.895 92L178 90.0917C178.018 90.0691 178.049 90.0351 178.086 90L178.533 90.9541L179 91.8879C178.963 91.9309 178.932 91.9649 178.895 92" fill="black"/>
<path fill-rule="evenodd" clip-rule="evenodd" d="M233.036 66C232.415 66 231.798 65.8997 231.202 65.6969C229.781 65.2127 228.643 64.1924 228 62.8234L229.614 62C230.042 62.9102 230.805 63.5909 231.761 63.9161C232.855 64.2881 234.063 64.1624 235.163 63.5599L236 65.2177C235.052 65.7366 234.04 66 233.036 66" fill="black"/>
<path fill-rule="evenodd" clip-rule="evenodd" d="M220.012 31.2485L220.009 31.2592C219.816 35.88 222.67 39.2607 225.973 40.5397C226.365 39.8403 226.923 39.2218 227.61 38.7797C230.495 36.9439 229.981 41.8508 237.823 40.5577C248.693 38.757 251.462 42.4774 251.462 42.4774C251.702 42.8017 251.009 44.9292 250.933 45.3181C250.505 47.6006 250.079 49.8729 249.662 52.1584C249.405 53.5518 249.152 54.9344 248.887 56.3136C249.085 56.1226 249.301 55.9483 249.515 55.7846C251.301 53.0468 253.918 49.968 256.772 52.4814C257.351 52.9937 257.779 53.6627 258.052 54.3712C259.373 57.8654 256.859 60.109 253.936 61.4535C253.238 61.8926 252.384 62.2536 251.495 62.5693C251.635 63.4517 252.235 66.9686 252.232 66.9793C252.296 67.337 259.55 62.9402 260.156 62.4057C261.246 60.9738 262.107 59.3851 262.653 57.6855C264.912 50.6854 264.527 41.6401 259.984 35.8812C258.856 34.4558 259.61 33.6313 259.937 32.2456C260.022 31.906 259.637 31.6704 259.333 31.8554C256.887 33.3678 252.457 31.8229 252.457 31.8229C238.057 23.3309 230.714 28.5813 227.205 28.8503C225.534 28.9844 224.17 28.3834 223.191 27.7251C222.78 28.5368 221.926 29.0615 220.994 29.0722L220.855 29.8067C220.745 30.3974 220.438 30.8861 220.012 31.2485" fill="#6D49D5"/>
<path fill-rule="evenodd" clip-rule="evenodd" d="M223.488 43.4965L223.512 43.5035Z" fill="#6D49D5"/>
<path fill-rule="evenodd" clip-rule="evenodd" d="M253.415 63.5162C253.518 64.1671 253.668 65.102 253.796 65.8998C253.824 66.072 253.849 66.2276 253.872 66.3679C255.696 65.3547 259.798 62.7543 260.331 62.2783C262.595 60.1805 264.219 57.668 265.027 55.0138C267.002 48.5904 267.008 39.4704 262.572 33.5706C261.612 32.2977 261.202 31.1306 261.279 29.8184C258.722 30.8666 255.772 29.7694 255.634 29.717L255.49 29.6457C244.562 22.8814 238.004 24.8938 234.087 26.0968C233.078 26.4067 232.206 26.6742 231.446 26.7354C229.212 26.919 227.479 25.8983 226.404 24.9909L226.049 26.9889C225.979 27.3644 225.869 27.6857 225.712 27.9777C225.196 29.0469 224.082 29.7742 222.88 29.8066C222.802 30.273 222.75 30.7355 222.728 31.1892L222.722 31.2867C222.59 35.5433 224.997 38.2871 227.343 39.5053C227.747 38.9415 228.237 38.4593 228.787 38.0869C230.496 36.9469 231.536 37.7508 232.455 38.4598C233.549 39.3038 235.047 40.4609 239.046 39.7685C243.573 38.9817 247.28 39.0923 250.066 40.0968C252.249 40.8845 253.057 41.9589 253.142 42.0787C253.504 42.5905 253.398 43.3061 252.898 45.1979C252.841 45.4139 252.794 45.5843 252.779 45.6674C252.363 47.9898 251.95 50.3069 251.545 52.6381L251.463 53.1036C251.441 53.2308 251.418 53.3576 251.396 53.4843C252.405 52.2617 253.632 51.2043 255.03 51.0081C256.139 50.8538 257.197 51.2376 258.186 52.1511C258.82 52.7395 259.33 53.5254 259.66 54.4255C260.888 57.8332 259.31 60.7947 255.219 62.7705C254.63 63.0507 254.025 63.3002 253.415 63.5162M236.632 74C229.551 74.0009 224.612 66.778 223.854 59.4287C223.354 54.5378 224.042 49.0992 225.96 42.8025C226.134 42.2504 226.306 41.7071 226.499 41.166C226.508 41.1384 226.518 41.1043 226.532 41.0663C223.529 39.4774 220.817 35.9511 221.01 31.1171L221.019 31.0008C221.063 30.2306 221.178 29.4412 221.358 28.6535L221.547 27.8321L222.472 28.0096C222.591 28.0358 222.68 28.0437 222.767 28.0376L222.814 28.0358C223.396 28.0288 223.937 27.6818 224.193 27.1515C224.279 26.9916 224.327 26.8429 224.361 26.662L225.37 21L226.547 22.6418C226.564 22.6654 228.45 25.1998 231.311 24.969C231.891 24.9223 232.682 24.6792 233.597 24.3981C237.776 23.1152 244.765 20.9707 256.296 28.0778C256.748 28.2321 259.398 29.0526 261.217 27.8732C261.662 27.5874 262.216 27.6061 262.632 27.9174C263.032 28.2181 263.213 28.7348 263.094 29.234C262.86 30.2752 262.92 31.1472 263.928 32.4835C268.745 38.8921 268.774 48.6848 266.664 55.5475C265.765 58.502 263.971 61.2869 261.477 63.5984C261.057 63.9874 258.826 65.4216 257.429 66.291C253.572 68.6908 253.346 68.6086 252.934 68.4622L252.457 68.2921L252.317 67.5503L252.319 67.542C252.278 67.2789 252.196 66.771 252.103 66.1896C251.927 65.0972 251.71 63.7483 251.634 63.2434L251.452 62.2625L252.422 61.988C253.106 61.7686 253.814 61.488 254.496 61.1632C257.75 59.5917 258.948 57.5338 258.053 55.0484C257.821 54.4172 257.469 53.8695 257.039 53.4704C256.435 52.9126 255.855 52.6809 255.261 52.764C253.553 53.0035 251.842 55.7565 251.28 56.6609C250.946 57.2103 250.697 57.7213 250.545 58.172L248.891 57.7152L249.112 56.5066C249.337 55.2713 249.555 54.0334 249.774 52.7876L249.855 52.3238C250.261 49.9909 250.674 47.6711 251.091 45.34C251.112 45.2281 251.168 45.0087 251.242 44.7315C251.341 44.353 251.586 43.4267 251.633 42.9935C251.017 42.3982 247.944 40.019 239.331 41.5161C234.606 42.3339 232.694 40.8565 231.427 39.8791C230.575 39.2225 230.423 39.1054 229.724 39.5722C229.197 39.9285 228.744 40.4412 228.419 41.0514C228.332 41.2154 228.246 41.4151 228.156 41.6599L228.114 41.7666C227.93 42.2806 227.763 42.8113 227.6 43.3249C225.752 49.3942 225.086 54.5977 225.562 59.2421C226.548 68.8119 233.089 72.5789 237.422 72.193C239.88 71.9696 242.284 71.0158 243.877 70.3177L244.548 71.949C242.847 72.6939 240.273 73.7128 237.571 73.9585C237.254 73.9864 236.941 74 236.632 74" fill="black"/>
<path fill-rule="evenodd" clip-rule="evenodd" d="M225.02 54.3006C225.153 55.3924 225.924 56.1427 226.741 55.9771C227.559 55.8109 228.113 54.7911 227.98 53.6994C227.847 52.6076 227.076 51.8573 226.259 52.0229C225.441 52.1891 224.887 53.2089 225.02 54.3006" fill="black"/>
<path fill-rule="evenodd" clip-rule="evenodd" d="M236.02 55.3006C236.153 56.3924 236.924 57.1427 237.741 56.9771C238.559 56.8109 239.113 55.7911 238.98 54.6994C238.847 53.6076 238.076 52.8573 237.259 53.0229C236.441 53.1891 235.887 54.2089 236.02 55.3006" fill="black"/>
<path fill-rule="evenodd" clip-rule="evenodd" d="M232.006 59C231.138 59 230.212 58.8478 229.632 58.3136C229.163 57.8823 228.982 57.2696 229.121 56.5884C229.217 56.1214 229.87 52.2672 230.245 50.0388C229.764 49.3345 228.009 47.2548 224.329 47.8814L224 46.1415C228.578 45.3635 231.268 47.98 232.053 49.4727L232.186 49.7261L232.139 50.0056C232.096 50.2616 231.083 56.284 230.952 56.9255C230.932 57.0263 230.942 57.0655 230.942 57.0659C231.14 57.26 232.374 57.3119 233.591 57.0542L234 58.7789C233.638 58.8561 232.849 59 232.006 59" fill="black"/>
<path fill-rule="evenodd" clip-rule="evenodd" d="M242.346 54C241.449 52.3097 239.854 51.2479 237.605 50.8441C235.842 50.5274 234.321 50.7484 234.306 50.7508L234 49.1154C236.491 48.732 241.786 49.1105 244 53.2823L242.346 54Z" fill="black"/>
<path fill-rule="evenodd" clip-rule="evenodd" d="M240.729 100C238.63 100 236.56 99.6604 234.628 98.9824C230.523 97.5412 227.458 94.7392 225.766 90.8801C223.57 85.8729 226.279 78.9196 231.564 76L232.38 77.5886C227.862 80.0847 225.508 85.9475 227.345 90.1351C229.833 95.8079 237.039 100.131 246.004 97.4147C254.138 94.9501 259.585 87.3771 259.25 78.9982L260.984 78.9236C261.352 88.131 255.392 96.4455 246.49 99.1422C244.602 99.7145 242.653 100 240.729 100" fill="black"/>
<path fill-rule="evenodd" clip-rule="evenodd" d="M322.236 221H290.507C284.478 221 279.574 216.161 279.574 210.214V144.78C277.008 164.302 271.457 198.272 261.771 220.474L260.153 219.788C274.237 187.503 279.526 129.978 279.577 129.4L281.335 129.477V210.214C281.335 215.203 285.45 219.262 290.507 219.262H322.236C324.285 219.262 326.036 217.775 326.221 215.877C326.326 214.808 325.984 213.786 325.259 212.998C324.539 212.215 323.51 211.766 322.436 211.766H309.436C308.107 211.766 306.876 211.171 306.06 210.133C305.242 209.092 304.963 207.763 305.295 206.487C315.396 167.178 316.211 135.35 307.786 109.188C305.38 101.716 300.084 96.1267 296.065 92.7529C289.874 87.5327 282.264 85.2803 274.961 83.6234C269.86 82.4694 264.684 81.5087 259.578 80.7688C259.534 80.7649 259.492 80.7581 259.452 80.7495H259.325L259.23 80.7139L259.23 80.7109L259.193 80.6963C259.206 80.7002 259.219 80.7041 259.231 80.7079L259.237 80.674C259.128 80.6205 259.05 80.5553 259 80.5064L259.319 80.1918L259.447 79.4454V79C259.472 79 259.498 79.0009 259.522 79.003L259.523 79.0004L259.554 79.0056C259.582 79.0086 259.61 79.0129 259.638 79.0184C259.651 79.0197 259.665 79.0214 259.678 79.0231H259.988L260.045 79.0802C265.129 79.8227 270.279 80.7812 275.356 81.9301C282.878 83.6363 290.73 85.9684 297.208 91.4308C301.401 94.9504 306.933 100.798 309.465 108.662C317.993 135.142 317.187 167.282 307.002 206.917C306.805 207.672 306.97 208.454 307.453 209.068C307.932 209.679 308.655 210.029 309.436 210.029H322.436C324.006 210.029 325.51 210.685 326.563 211.829C327.611 212.968 328.125 214.505 327.974 216.044C327.703 218.823 325.183 221 322.236 221" fill="black"/>
<path fill-rule="evenodd" clip-rule="evenodd" d="M259.187 80.8968C259.209 80.9076 259.231 80.9168 259.253 80.9251L259.187 80.8968ZM259.677 81L259.605 80.9888H259.402L259.235 80.9534C256.681 80.5299 254.864 78.3741 255.008 75.9383L255.593 66L257.382 66.0936L256.797 76.0323C256.704 77.6044 257.868 78.9973 259.511 79.2864L259.569 79.2914C259.614 79.2931 259.678 79.2972 259.752 79.3122C259.843 79.3239 259.903 79.3426 259.929 79.3505L259.925 79.3617C259.95 79.3713 259.974 79.3817 260 79.3942L259.755 79.8468L259.677 80.0689V81Z" fill="black"/>
<path fill-rule="evenodd" clip-rule="evenodd" d="M259.487 81L259.433 80.9933C259.374 80.9904 259.313 80.9825 259.25 80.968L259.076 80.9488C256.617 80.5255 254.869 78.3702 255.008 75.9351L255.571 66L257.292 66.0932L256.729 76.0291C256.64 77.6008 257.76 78.9933 259.341 79.2827L259.493 79.2981H259.773L260 79.4982C259.913 79.4275 259.808 79.3738 259.698 79.3422L259.501 80.9954H259.487L259.487 81Z" fill="black"/>
<path fill-rule="evenodd" clip-rule="evenodd" d="M225.997 89L225 87.5927C230.233 83.6733 230.989 75.3692 231.238 72.6405C231.33 71.6267 231.358 71.3205 231.762 71.0666L232.527 71L231.899 72.6173L232.213 71.8085L232.604 72.577C232.865 72.4331 232.977 72.1861 233 72.0757C232.982 72.1616 232.952 72.5022 232.924 72.8025C232.658 75.7249 231.848 84.6179 225.997 89" fill="black"/>
<path fill-rule="evenodd" clip-rule="evenodd" d="M117 222H139V220H117V222Z" fill="black"/>
<path fill-rule="evenodd" clip-rule="evenodd" d="M174 222H356V220H174V222Z" fill="black"/>
<path fill-rule="evenodd" clip-rule="evenodd" d="M76.1366 110.794C76.2985 115.117 76.2407 119.464 75.6738 123.753C75.0029 128.807 70.3401 135.23 69.3336 140.226C67.8869 147.413 70.0738 154.843 73.0703 161.52C76.6919 169.588 82.3959 177.703 81.8406 186.941C81.3547 194.998 76.8888 202.637 70.2125 207.111C65.6773 210.16 60.3899 212.142 54.9633 212.815C54.1995 212.907 53.4246 212.977 52.6492 213C52.2211 212.988 51.8045 212.954 51.3764 212.919C36.8678 211.679 21.9654 200.585 22.0001 185.144C22.0232 175.268 29.486 167.559 30.7472 157.985C31.5222 152.131 29.8101 146.045 31.395 140.365C33.9403 131.288 43.8909 126.338 48.2412 117.981C51.4462 111.814 51.9668 104.615 54.5005 98.1466C58.0296 89.1512 63.6638 78.8575 71.3698 78C73.3597 78.1853 75.4773 78.8575 77.7216 80.0748C82.5 82.6712 83.7381 82.8106 84.6869 85.1059C85.6818 87.5054 84.2009 90.067 81.725 90.8323C77.5482 92.1307 75.7432 100.651 76.1366 110.794" fill="#6D49D5"/>
<path fill-rule="evenodd" clip-rule="evenodd" d="M112.995 104L111.25 103.919C111.252 103.852 111.459 96.9716 106.005 90.9119C101.275 85.6534 93.4819 79.1109 80.4859 82.9903L80 81.2611C93.9256 77.106 102.243 84.0802 107.287 89.6882C113.257 96.3213 113.009 103.69 112.995 104" fill="black"/>
<path fill-rule="evenodd" clip-rule="evenodd" d="M116.558 232L115 231.596C118.387 216.601 118.397 203.139 118.397 203.004L120 203C120 203.136 119.993 216.795 116.558 232" fill="black"/>
<path fill-rule="evenodd" clip-rule="evenodd" d="M26.3297 223.666C25.7224 226.654 23.0302 241.008 23.9285 256.474C24.516 266.584 26.4995 275.18 29.824 282.024C33.9398 290.496 40.1469 296.291 48.2716 299.25C65.7025 305.604 97.4407 305.872 120.527 299.862C135.01 296.09 144.859 290.348 149.009 283.256L149.01 283.255C151.438 279.119 151.893 274.493 150.361 269.505C149.006 265.106 146.077 260.36 141.655 255.398C138.32 251.656 134.6 248.16 130.596 245.009C108.976 227.982 81.6468 223.109 62.5281 222.019C43.977 220.961 29.3512 223.163 26.3297 223.666M83.6192 306C69.9795 306 57.0114 304.284 47.6704 300.879C39.0991 297.759 32.5631 291.663 28.243 282.763C24.819 275.708 22.7798 266.885 22.1824 256.539C21.1691 239 24.7061 222.885 24.7423 222.724L24.8668 222.165L25.4336 222.059C25.5935 222.029 41.6089 219.094 62.5824 220.284C81.9671 221.383 109.69 226.33 131.681 243.649C135.765 246.863 139.561 250.429 142.964 254.248C147.552 259.397 150.603 264.359 152.032 268.998C153.712 274.467 153.203 279.557 150.52 284.128C146.131 291.628 135.913 297.649 120.97 301.54C109.525 304.52 96.2825 306 83.6192 306" fill="black"/>
<path fill-rule="evenodd" clip-rule="evenodd" d="M88.1293 391C76.1878 391 64.7759 390.478 56.0216 389.509C37.108 387.418 36.325 384.011 36.0673 382.892C35.5993 380.854 37.5678 378.846 42.0853 376.752C50.644 372.786 56.8084 366.552 60.408 358.222C63.306 351.517 64.5691 343.435 64.1627 334.202C63.4663 318.381 58.0336 304.516 57.9788 304.378L59.6026 303.734C59.6586 303.875 65.1883 317.977 65.9058 334.083C66.8638 355.591 58.8812 370.894 42.82 378.337C37.7829 380.671 37.6816 382.114 37.7704 382.501C37.9492 383.279 39.8078 385.96 56.2137 387.774C66.6345 388.926 80.8651 389.444 95.256 389.192C108.474 388.961 120.733 388.119 129.775 386.819C143.979 384.778 145.149 382.341 145.239 381.874C145.304 381.541 145.153 380.303 140.519 378.349C131.795 374.67 125.554 368.216 121.968 359.166C119.125 351.99 117.948 343.181 118.469 332.983C119.353 315.706 124.897 300.155 124.953 300L126.597 300.592C126.542 300.745 121.077 316.084 120.213 333.108C119.708 343.047 120.847 351.603 123.599 358.54C127.006 367.129 132.928 373.252 141.198 376.74C143.902 377.88 147.441 379.687 146.955 382.205C146.258 385.809 136.958 387.551 130.024 388.547C120.911 389.857 108.575 390.705 95.2866 390.938C92.892 390.979 90.4994 391 88.1293 391" fill="black"/>
<path fill-rule="evenodd" clip-rule="evenodd" d="M217.298 120H217.284L174.189 119.841C172.385 119.767 170.997 118.32 170.997 116.545V112.643L172.238 113.223C174.989 114.506 180.224 114.967 180.754 115.011C183.824 114.925 186.185 114.493 187.404 113.794C189.039 112.857 190.739 111.685 190.954 110.107C191.113 108.934 190.333 107.917 189.099 107.689C188.754 107.625 188.414 107.646 188.143 107.748L187.533 106.112C188.105 105.899 188.756 105.85 189.417 105.972C191.563 106.369 192.967 108.248 192.683 110.342C192.366 112.671 190.276 114.16 188.271 115.309C186.386 116.39 183.142 116.694 180.754 116.757L180.709 116.759L180.664 116.755C180.45 116.739 175.976 116.388 172.742 115.295V116.545C172.742 117.38 173.395 118.062 174.228 118.097L217.29 118.254C217.813 118.238 218.308 118.053 218.679 117.683C219.05 117.313 219.255 116.82 219.255 116.296V83.0923C219.255 82.0232 218.385 81.1445 217.317 81.1346L173.096 80.7469C172.477 80.7392 171.951 81.2052 171.916 81.8225C171.665 86.3861 171.695 89.6571 171.996 90.572L170.337 91.1169C169.951 89.9401 169.896 86.7807 170.174 81.7268C170.26 80.1637 171.573 78.9667 173.123 79.0007L217.333 79.3884C219.355 79.4073 221 81.0691 221 83.0923V116.296C221 117.288 220.613 118.22 219.91 118.92C219.211 119.617 218.285 120 217.298 120" fill="black"/>
<path fill-rule="evenodd" clip-rule="evenodd" d="M212.974 182.513C212.928 183.089 212.778 183.688 212.409 184.138C211.407 185.371 209.426 185.129 208.079 184.748C202.412 183.135 199.015 189.278 196.873 193.415C191.471 203.868 183.364 213.583 173.251 220.014C172.595 220.44 171.927 220.843 171.248 221.235C161.366 226.94 148.559 225.879 139 219.956L151.231 189.911C151.623 190.222 152.026 190.545 152.44 190.88C159.823 196.711 168.91 193.438 175.198 187.687C176.983 186.051 178.55 184.207 179.782 182.317C181.947 178.986 183.801 175.391 186.761 172.682C190.861 168.937 196.861 168.199 202.044 169.79C207.204 171.391 213.457 176.474 212.974 182.513" fill="white"/>
<path fill-rule="evenodd" clip-rule="evenodd" d="M213.317 181C213.304 180.931 212.965 179.312 211.246 178.405C209.675 177.576 206.573 177.174 200.713 179.97L200 178.347C205.233 175.85 209.293 175.343 212.067 176.837C214.521 178.159 214.982 180.56 215 180.662L213.317 181Z" fill="black"/>
<path fill-rule="evenodd" clip-rule="evenodd" d="M195.384 176L194 175.048C198.616 169.056 206.916 171.481 207 171.506L206.48 173.047C206.461 173.041 204.62 172.498 202.318 172.615C199.333 172.764 197 173.903 195.384 176" fill="black"/>
<path fill-rule="evenodd" clip-rule="evenodd" d="M47.5735 213.144C49.6781 213.322 51.7489 213.288 53.73 213.042C59.0633 212.378 64.2494 210.448 68.7271 207.46C75.2502 203.106 79.5944 195.613 80.0633 187.906C80.482 181.016 77.2274 174.646 74.0794 168.485C73.1305 166.627 72.1488 164.706 71.2953 162.817C67.4056 154.207 66.1895 147.254 67.4682 140.937C67.9686 138.466 69.3159 135.681 70.6193 132.987C72.0387 130.052 73.5069 127.016 73.8463 124.472C74.3552 120.656 74.5033 116.571 74.3121 111.618C73.8596 99.8909 76.1965 92.0862 80.5632 90.7398C81.6308 90.4103 82.4976 89.6785 82.9427 88.7321C83.3287 87.9101 83.3494 86.9985 83.0006 86.1644C82.369 84.6528 81.6627 84.2901 79.0354 82.9419C78.2756 82.5522 77.4143 82.11 76.3661 81.543C72.8175 79.6214 69.3807 79.2416 66.152 80.4138C60.6766 82.4016 55.459 89.081 51.4606 99.222C50.3873 101.944 49.6616 104.869 48.9601 107.698C48.0009 111.564 47.0092 115.561 45.1093 119.193C43.1243 122.988 40.0277 126.096 37.0334 129.101C33.1964 132.952 29.5722 136.589 28.1938 141.484C27.3183 144.595 27.4802 147.817 27.6515 151.229C27.7793 153.785 27.9123 156.427 27.5682 159.024C26.9707 163.533 25.0328 167.646 23.1583 171.624C20.8971 176.423 18.7614 180.956 18.7493 186.154C18.7157 201.308 33.6851 211.963 47.5735 213.144M50.2026 215C49.2852 215 48.3575 214.96 47.425 214.881C32.7647 213.635 16.9638 202.296 17.0001 186.151C17.0122 180.566 19.3313 175.643 21.574 170.884C23.3919 167.026 25.2716 163.037 25.8332 158.796C26.1565 156.356 26.0279 153.794 25.9036 151.317C25.7326 147.915 25.556 144.397 26.5093 141.013C28.0103 135.682 31.966 131.712 35.7914 127.872C38.6942 124.96 41.6954 121.947 43.5578 118.387C45.3606 114.94 46.3267 111.046 47.2609 107.279C47.9767 104.395 48.7158 101.413 49.8313 98.5845C52.792 91.0766 57.9228 81.5452 65.5527 78.7752C69.2741 77.4245 73.1927 77.8405 77.2019 80.0107C78.2328 80.5686 79.0846 81.0061 79.8362 81.3916C82.5961 82.8077 83.7384 83.3941 84.6165 85.4938C85.157 86.7869 85.125 88.1996 84.5275 89.4716C83.8744 90.8619 82.6181 91.9314 81.0808 92.4054C77.6233 93.4714 75.6529 100.987 76.0605 111.55C76.2556 116.606 76.1036 120.785 75.5808 124.702C75.2048 127.522 73.6749 130.685 72.1954 133.744C70.9396 136.341 69.6406 139.026 69.1843 141.282C67.9807 147.224 69.1592 153.84 72.8913 162.101C73.7275 163.952 74.6993 165.854 75.6391 167.694C78.8933 174.063 82.2581 180.648 81.8104 188.012C81.3087 196.251 76.6683 204.258 69.701 208.909C64.9976 212.048 59.5499 214.076 53.9468 214.772C52.7259 214.924 51.4735 215 50.2026 215" fill="black"/>
<path fill-rule="evenodd" clip-rule="evenodd" d="M135.73 359L134 358.57C134.066 358.318 140.597 333.09 145.673 308.338C147.7 298.478 149.234 289.953 150.233 283L152 283.243C150.997 290.231 149.457 298.79 147.423 308.682C142.338 333.478 135.795 358.748 135.73 359" fill="black"/>
<path fill-rule="evenodd" clip-rule="evenodd" d="M152.975 269L151.224 268.957C151.244 268.192 151.261 267.297 151.236 266.455C150.865 249.918 138.603 245.935 133.349 244.989C131.923 244.735 131.009 244.698 131 244.697L131.065 243C131.107 243.001 132.104 243.039 133.668 243.319C139.344 244.34 152.588 248.634 152.987 266.412C153.013 267.288 152.996 268.212 152.975 269" fill="black"/>
<path fill-rule="evenodd" clip-rule="evenodd" d="M132.999 371L132 369.546L137.907 365.187C141.164 362.784 143.171 358.919 143.275 354.849C143.277 354.769 143.278 354.702 143.278 354.648C143.278 353.22 142.525 351.916 141.312 351.247C140.141 350.597 138.766 350.639 137.634 351.362L136.732 349.841C138.391 348.783 140.407 348.719 142.123 349.672C143.897 350.652 145 352.559 145 354.648C145 354.716 144.999 354.8 144.996 354.899C144.878 359.524 142.601 363.915 138.905 366.642L132.999 371Z" fill="black"/>
<path fill-rule="evenodd" clip-rule="evenodd" d="M157.3 226C149.367 226 141.235 223.206 134.986 217.853L111.363 197.73L112.491 196.399L136.116 216.523C146.044 225.028 160.96 226.737 171.586 220.59C172.319 220.166 172.967 219.771 173.568 219.379C183.014 213.36 191.365 203.933 197.09 192.831C199.09 188.96 202.811 181.753 209.404 183.635C210.181 183.855 212.079 184.264 212.857 183.307C213.066 183.051 213.192 182.661 213.233 182.146C213.507 178.717 210.388 172.546 202.821 170.193C197.475 168.548 191.892 169.596 188.254 172.926C186.025 174.97 184.458 177.509 182.799 180.197C182.333 180.953 181.851 181.735 181.358 182.494C180.069 184.476 178.421 186.41 176.594 188.089C170.274 193.88 160.63 197.78 152.515 191.356C146.441 186.551 143.706 183.691 131.614 169.494C127.479 164.644 123.297 160.29 119.182 156.554C112.56 150.57 104.495 148.545 96.1203 146.84L95.4228 146.698L95.4223 140.758C95.4198 137.748 95.4163 134.001 98.7257 132.849C101.397 131.928 103.806 130.188 105.695 127.819C108.958 123.707 109.962 118.16 110.516 113.277C111.123 107.973 110.997 103.015 110.142 98.5392C110.086 98.229 109.934 97.9898 109.715 97.8596C109.498 97.7308 109.233 97.7127 108.948 97.8071C108.518 97.948 108.116 98.2794 108.071 99.7416C108.016 101.664 107.909 103.685 107.743 105.917C107.714 106.313 107.699 106.738 107.684 107.175C107.631 108.68 107.571 110.385 106.916 111.742L106.892 111.786C106.809 111.937 106.654 112.213 106.334 112.392L106.268 112.425C105.813 112.63 105.131 112.573 104.577 111.802L104.277 111.364C103.94 110.873 103.605 110.385 103.277 109.882C103.059 109.551 102.758 109.093 102.463 109.012C102.094 108.909 101.552 109.417 101.233 109.948C99.8564 112.217 99.7421 116.013 101.776 117.837C102.483 118.472 102.783 119.294 102.644 120.214C102.221 123.031 97.5485 126.167 94.6848 127.492C93.9486 127.887 93.0246 128.29 92.0791 128.628L91.9226 128.678C84.4727 131.259 78.7411 131.451 74.448 129.256L73.111 132.273C73.3035 135.376 73.4969 142.43 71.6351 145.876L71.4692 146.183L71.1378 146.291C70.2392 146.584 69.4256 146.878 68.6511 147.19L68 145.57C68.7113 145.283 69.4518 145.012 70.2542 144.743C71.8203 141.385 71.4993 134.312 71.3588 132.171L71.3446 131.956L73.6478 126.76L74.4957 127.282C78.4257 129.701 83.9841 129.603 91.489 126.98L91.6351 126.932C92.4603 126.63 93.2536 126.28 93.8829 125.941L93.9323 125.916C97.0284 124.489 100.661 121.689 100.922 119.954C100.972 119.621 100.88 119.377 100.614 119.139C97.8158 116.629 97.9826 111.945 99.7425 109.043C100.388 107.968 101.565 106.952 102.925 107.328C103.852 107.583 104.382 108.389 104.733 108.923C105.024 109.369 105.32 109.802 105.616 110.234C105.866 109.295 105.906 108.15 105.943 107.113C105.959 106.652 105.975 106.204 106.006 105.787C106.17 103.582 106.275 101.587 106.329 99.6894C106.351 98.9728 106.418 96.7982 108.404 96.1475C109.169 95.8945 109.95 95.9686 110.604 96.3569C111.262 96.7487 111.707 97.4093 111.855 98.2173C112.741 102.861 112.874 107.996 112.247 113.475C111.666 118.604 110.595 124.449 107.057 128.908C104.961 131.538 102.277 133.472 99.2947 134.5C97.313 135.19 97.1617 137.528 97.1647 140.756L97.1651 145.271C105.535 146.999 113.588 149.147 120.35 155.258C124.52 159.045 128.755 163.452 132.938 168.36C144.934 182.443 147.637 185.272 153.594 189.985C160.853 195.731 169.627 192.107 175.418 186.8C177.138 185.22 178.688 183.401 179.898 181.54C180.379 180.799 180.857 180.025 181.318 179.278C182.966 176.607 184.671 173.845 187.078 171.637C191.171 167.89 197.399 166.698 203.335 168.523C208.496 170.129 215.515 175.459 214.97 182.285C214.9 183.163 214.643 183.879 214.205 184.412C213.187 185.667 211.313 185.99 208.929 185.315C204.109 183.941 201.09 188.889 198.638 193.634C192.773 205.006 184.204 214.671 174.509 220.849C173.89 221.253 173.216 221.664 172.456 222.103C167.925 224.725 162.658 226 157.3 226" fill="black"/>
<path fill-rule="evenodd" clip-rule="evenodd" d="M96.5228 148C82.7862 143.74 71.6264 147.384 71.5156 147.422L71 145.599C71.4729 145.439 82.7401 141.742 97 146.165L96.5228 148Z" fill="black"/>
<path fill-rule="evenodd" clip-rule="evenodd" d="M174.573 135C171.126 129.161 171.003 114.626 171 114.01L172.68 114C172.681 114.146 172.803 128.652 176 134.068L174.573 135Z" fill="black"/>
<path fill-rule="evenodd" clip-rule="evenodd" d="M183.671 47.0738C180.996 51.6872 181.118 54.9623 181.813 60.2782C182.091 62.3037 179.937 63.6737 178.188 62.6551C162.744 53.679 148.327 60.7782 129.912 56.3791C123.15 54.7752 114.719 51.4498 108.941 46.0985C107.1 43.2653 106 40.0335 106 36.3568C106 21.8028 125.662 10 149.911 10C165.451 10 179.103 14.8474 186.908 22.1537C186.92 22.1537 186.92 22.1654 186.931 22.1771C188.911 25.1749 190 28.4535 190 31.8724C190 37.0947 186.161 42.7532 183.671 47.0738" fill="#D7E8F0"/>
<path fill-rule="evenodd" clip-rule="evenodd" d="M159.306 56.0363C160.047 56.0363 160.787 56.0492 161.526 56.0789C168.321 56.3516 173.823 58.083 177.877 61.2252L178.002 61.3226C178.609 61.7935 179.231 62.2781 179.808 62.2522C180.09 62.238 180.343 62.0976 180.56 61.8348C180.96 61.3502 181.162 60.5497 181.064 59.8428C180.969 59.1707 180.721 58.5069 180.459 57.8038C180.195 57.0973 179.923 56.3667 179.788 55.5727C179.184 52.0143 181.48 48.9139 183.505 46.1787L183.785 45.8001C187.392 40.9114 189.181 36.5418 189.252 32.4419C189.254 32.3268 189.254 32.2118 189.254 32.0968V32.0964C189.225 27.7681 187.204 23.1952 183.708 19.5502C180.754 16.4717 176.725 13.8999 171.388 11.689C156.082 5.34679 138.235 5.09521 122.421 10.9989C115.506 13.5806 110.52 16.8345 107.179 20.9464C103.159 25.8942 100.895 34.1857 104.618 39.8068C108.315 45.3869 114.177 50.0473 121.124 52.9298C127.847 55.7188 135.746 57.0056 144.604 56.7544C146.7 56.6945 148.839 56.5506 150.906 56.4115C153.657 56.2262 156.482 56.0363 159.306 56.0363M179.755 64C178.6 64 177.678 63.2819 176.93 62.7003L176.808 62.6055C173.046 59.6903 167.881 58.0817 161.456 57.8241C157.993 57.6858 154.45 57.9236 151.023 58.1541C148.939 58.2941 146.784 58.4393 144.654 58.4996C135.543 58.7572 127.407 57.4269 120.455 54.5427C113.19 51.5288 107.049 46.638 103.163 40.7709C98.979 34.4554 101.411 25.276 105.823 19.8453C109.366 15.4852 114.595 12.0565 121.81 9.36269C138.033 3.30653 156.347 3.5663 172.056 10.0752C177.621 12.3813 181.844 15.085 184.968 18.3414C188.77 22.3052 190.968 27.3145 190.999 32.0847C191.001 32.214 191 32.3428 190.998 32.472C190.921 36.9471 189.021 41.6463 185.19 46.837L184.909 47.2178C183.002 49.7927 181.03 52.4555 181.509 55.2806C181.616 55.9113 181.849 56.5338 182.095 57.193C182.379 57.9529 182.672 58.7391 182.793 59.6007C182.961 60.7992 182.621 62.0812 181.906 62.9471C181.372 63.5938 180.677 63.9565 179.897 63.9966C179.849 63.9987 179.802 64 179.755 64" fill="black"/>
<path fill-rule="evenodd" clip-rule="evenodd" d="M130 32C130 35.3139 127.314 38 124 38C120.686 38 118 35.3139 118 32C118 28.6861 120.686 26 124 26C127.314 26 130 28.6861 130 32" fill="white"/>
<path fill-rule="evenodd" clip-rule="evenodd" d="M150 32C150 35.3139 147.314 38 144 38C140.686 38 138 35.3139 138 32C138 28.6861 140.686 26 144 26C147.314 26 150 28.6861 150 32" fill="white"/>
<path fill-rule="evenodd" clip-rule="evenodd" d="M170 32C170 35.3139 167.314 38 164 38C160.686 38 158 35.3139 158 32C158 28.6861 160.686 26 164 26C167.314 26 170 28.6861 170 32" fill="white"/>
<path fill-rule="evenodd" clip-rule="evenodd" d="M280.81 286.531L278.338 322.109V322.125C276.996 324.54 275.49 326.678 274.148 328C273.968 327.935 273.788 327.869 273.608 327.788C273.28 327.674 272.954 327.543 272.642 327.413C267.634 325.226 263.853 321.146 262.724 316.543C261.725 312.496 262.625 308.122 260.694 304.32C258.337 299.636 251.921 296.698 251.135 291.411C250.398 286.465 254.867 281.929 254.147 277.082C253.312 271.598 246.568 268.35 245.308 262.997C244.522 259.668 245.226 255.849 244.932 252.422C244.604 248.619 243.966 244.817 243 241.063C252.952 240.345 263.084 245.812 266.308 253.646C268.943 260.06 267.355 267.551 271.48 273.393C273.722 276.56 277.455 278.926 279.386 282.239C280.008 283.299 280.401 284.409 280.663 285.552C280.679 285.633 280.679 285.715 280.695 285.78C280.712 285.911 280.728 286.009 280.744 286.106C280.777 286.384 280.81 286.531 280.81 286.531" fill="#6D49D5"/>
<path fill-rule="evenodd" clip-rule="evenodd" d="M280.826 286.515L280.81 286.531C280.81 286.531 280.777 286.384 280.744 286.106C280.777 286.221 280.794 286.335 280.81 286.449C280.826 286.466 280.826 286.498 280.826 286.515" fill="#6D49D5"/>
<path fill-rule="evenodd" clip-rule="evenodd" d="M313.595 271.966C312.277 276.58 305.195 279.384 304.338 284.112C303.58 288.302 308.259 292.215 307.484 296.47C306.661 301.034 299.94 303.562 297.469 307.605C295.46 310.882 296.399 314.648 295.361 318.137C294.159 322.098 290.189 325.636 284.918 327.511C284.589 327.625 284.276 327.739 283.947 327.837H283.93C283.749 327.886 283.551 327.951 283.37 328C281.624 326.582 279.631 324.087 278 321.397V321.381L280.487 285.84L280.504 285.824C282.431 284.21 284.638 282.726 286.17 280.933C287.833 278.993 288.608 276.873 289.102 274.656H289.151V274.412C289.876 270.906 289.942 267.238 291.606 263.912C294.982 257.147 305.573 252.435 316 253.055C315.012 256.282 314.337 259.56 313.99 262.853C313.677 265.82 314.419 269.113 313.595 271.966" fill="#6D49D5"/>
<path fill-rule="evenodd" clip-rule="evenodd" d="M290.557 274.214V274.786H290.443C290.481 274.595 290.519 274.404 290.557 274.214" fill="#6D49D5"/>
<path fill-rule="evenodd" clip-rule="evenodd" d="M290 275.729C289.984 275.809 289.967 275.89 289.951 275.971C289.458 278.16 288.686 280.254 287.027 282.17C285.5 283.941 283.299 285.406 281.378 287C281.378 286.984 281.378 286.952 281.361 286.936C281.345 286.823 281.328 286.71 281.296 286.597C281.279 286.501 281.263 286.404 281.247 286.275C281.23 286.211 281.23 286.13 281.214 286.05C280.951 284.923 280.557 283.828 279.933 282.781C277.995 279.513 274.25 277.179 272 274.055C272 274.055 273.018 257.599 281.608 252.592C289.738 247.858 290 272.992 290 275.729" fill="#6D49D5"/>
<path fill-rule="evenodd" clip-rule="evenodd" d="M290.557 274.214V274.786H290.443C290.481 274.595 290.519 274.404 290.557 274.214" fill="#6D49D5"/>
<path fill-rule="evenodd" clip-rule="evenodd" d="M281.576 286.805V286.995C281.576 286.995 281.501 286.652 281.424 286.005C281.501 286.271 281.538 286.538 281.576 286.805" fill="#6D49D5"/>
<path fill-rule="evenodd" clip-rule="evenodd" d="M282.936 330L282.584 329.714C280.794 328.26 278.758 325.765 277 322.868L278.505 321.973C280.022 324.473 281.805 326.714 283.345 328.072C283.374 328.063 283.402 328.053 283.431 328.044C288.956 326.361 293.117 322.861 294.307 318.903C294.7 317.589 294.792 316.231 294.89 314.792C295.041 312.578 295.197 310.288 296.519 308.138C297.64 306.303 299.527 304.796 301.35 303.339C303.752 301.42 306.019 299.608 306.44 297.276C306.78 295.408 305.879 293.54 304.926 291.561C303.907 289.446 302.853 287.259 303.284 284.895C303.784 282.149 306.054 280.077 308.248 278.072C310.185 276.304 312.014 274.634 312.587 272.645C313.035 271.062 312.972 269.317 312.904 267.469C312.858 266.21 312.81 264.909 312.94 263.655C313.251 260.686 313.834 257.694 314.676 254.747C305.012 254.534 295.261 258.998 292.175 265.185C291.058 267.417 290.702 269.792 290.325 272.306C289.808 275.756 289.273 279.323 286.621 282.423C285.491 283.741 284.025 284.894 282.608 286.011C282.012 286.479 281.397 286.964 280.825 287.447L279.685 286.125C280.28 285.622 280.908 285.128 281.516 284.65C282.866 283.586 284.263 282.486 285.282 281.298C287.61 278.578 288.085 275.408 288.588 272.051C288.969 269.514 289.362 266.891 290.601 264.414C294.152 257.295 305.028 252.417 315.888 253.056L317 253.123L316.675 254.178C315.692 257.365 315.024 260.614 314.687 263.834C314.569 264.966 314.613 266.151 314.658 267.406C314.727 269.306 314.8 271.27 314.276 273.118C313.567 275.581 311.468 277.497 309.438 279.35C307.365 281.243 305.407 283.031 305.012 285.204C304.681 287.017 305.57 288.86 306.51 290.813C307.542 292.953 308.608 295.166 308.168 297.583C307.632 300.553 304.999 302.657 302.453 304.691C300.747 306.054 298.983 307.464 298.019 309.039C296.92 310.829 296.785 312.811 296.642 314.909C296.542 316.379 296.438 317.898 295.99 319.397C294.635 323.907 290.027 327.854 283.965 329.7C283.785 329.759 283.574 329.824 283.375 329.879L282.936 330Z" fill="black"/>
<path fill-rule="evenodd" clip-rule="evenodd" d="M284.683 333L283 332.757C283.173 331.49 283.378 330.082 283.605 328.546L283.73 327.802C290.528 283.68 302.313 265.137 308.754 258L310 259.191C303.654 266.222 292.007 284.615 285.296 328.812L285.176 329.552C284.993 330.794 284.827 331.946 284.683 333" fill="black"/>
<path fill-rule="evenodd" clip-rule="evenodd" d="M252.024 343.71L258.384 383.829C258.702 385.834 260.333 387.29 262.262 387.29H299.187C301.09 387.29 302.716 385.857 303.055 383.883L309.95 343.71H252.024ZM299.187 389H262.262C259.474 389 257.124 386.936 256.673 384.093L250 342H312L304.763 384.169C304.282 386.968 301.937 389 299.187 389V389Z" fill="black"/>
<path fill-rule="evenodd" clip-rule="evenodd" d="M248.736 333.753C247.653 333.753 246.641 334.208 245.885 335.035C245.065 335.933 244.659 337.164 244.773 338.411C244.972 340.598 246.676 342.247 248.736 342.247H313.264C315.321 342.247 317.064 340.535 317.233 338.347C317.328 337.112 316.913 335.896 316.095 335.014C315.341 334.201 314.336 333.753 313.264 333.753H248.736ZM313.264 344H248.736C245.763 344 243.308 341.665 243.026 338.57C242.867 336.833 243.438 335.114 244.59 333.854C245.682 332.658 247.155 332 248.736 332H313.264C314.83 332 316.292 332.647 317.382 333.823C318.531 335.063 319.114 336.761 318.981 338.482C318.743 341.576 316.231 344 313.264 344V344Z" fill="black"/>
<path fill-rule="evenodd" clip-rule="evenodd" d="M244.192 241.751C245.014 245.201 245.583 248.725 245.885 252.24C246.007 253.67 245.962 255.166 245.918 256.612C245.856 258.682 245.791 260.823 246.232 262.705C246.788 265.072 248.54 267.023 250.394 269.088C252.462 271.392 254.6 273.773 255.066 276.879C255.464 279.529 254.478 282.026 253.524 284.441C252.603 286.773 251.734 288.976 252.068 291.227C252.481 294.01 254.652 296.125 256.95 298.365C258.678 300.05 260.465 301.792 261.525 303.9C262.754 306.343 262.9 308.964 263.041 311.498C263.136 313.182 263.225 314.772 263.606 316.322C264.735 320.913 268.761 325.053 273.935 326.995C276.501 324.204 279.567 318.535 280.928 313.995C281.68 311.488 281.032 308.886 280.346 306.13C280 304.738 279.642 303.299 279.471 301.855C279.168 299.278 279.459 296.646 279.741 294.1C280.198 289.968 280.629 286.064 278.634 282.605C277.65 280.9 276.154 279.458 274.57 277.931C273.239 276.649 271.863 275.323 270.798 273.809C268.301 270.258 267.797 266.155 267.309 262.187C266.965 259.384 266.609 256.486 265.537 253.87C262.591 246.68 253.36 241.498 244.192 241.751V241.751ZM274.402 329L273.891 328.826C267.831 326.754 263.244 322.123 261.919 316.738C261.499 315.031 261.402 313.284 261.307 311.595C261.169 309.13 261.039 306.802 259.973 304.682C259.045 302.834 257.438 301.269 255.738 299.611C253.334 297.269 250.849 294.846 250.349 291.483C249.947 288.771 250.944 286.245 251.908 283.802C252.818 281.5 253.676 279.325 253.348 277.138C252.959 274.548 251.086 272.46 249.102 270.251C247.183 268.113 245.199 265.903 244.541 263.103C244.047 260.999 244.116 258.742 244.182 256.559C244.226 255.098 244.268 253.718 244.154 252.389C243.83 248.617 243.191 244.836 242.255 241.15L242 240.144L243.034 240.068C253.398 239.309 263.764 244.96 267.144 253.21C268.305 256.042 268.675 259.058 269.034 261.975C269.517 265.903 269.972 269.613 272.219 272.808C273.188 274.185 274.503 275.453 275.774 276.679C277.376 278.222 279.032 279.818 280.138 281.735C282.419 285.689 281.935 290.062 281.468 294.292C281.197 296.74 280.916 299.272 281.197 301.651C281.354 302.985 281.699 304.371 282.032 305.71C282.744 308.572 283.48 311.531 282.592 314.494C281.069 319.576 277.639 325.781 274.784 328.62L274.402 329Z" fill="black"/>
<path fill-rule="evenodd" clip-rule="evenodd" d="M272.314 332C272.148 330.476 271.932 328.726 271.724 327.064C265.255 276.259 254.084 255.13 248 247.057L249.344 246C263.76 265.13 270.608 304.861 273.406 326.842C273.615 328.513 273.833 330.272 274 331.809L272.314 332Z" fill="black"/>
<path fill-rule="evenodd" clip-rule="evenodd" d="M289.999 275L288.318 274.989C288.318 274.937 288.343 269.776 287.755 264.326C286.752 255.04 284.855 252.612 283.812 251.991C283.394 251.742 282.699 251.496 281.51 252.231C273.733 257.037 272.687 273.261 272.678 273.425L271 273.318C271.01 273.143 271.266 268.975 272.553 264.108C274.308 257.466 277.033 252.965 280.651 250.729C282.446 249.621 283.816 249.98 284.648 250.476C289.979 253.651 290.013 272.824 289.999 275" fill="black"/>
<path fill-rule="evenodd" clip-rule="evenodd" d="M279.591 287C279.508 286.608 277.599 277.31 281.119 268L283 268.528C279.634 277.431 281.518 286.602 281.537 286.693L279.591 287Z" fill="black"/>
</svg>
