<svg width="208" height="55" viewBox="0 0 208 55" fill="none" xmlns="http://www.w3.org/2000/svg">
<path d="M168.026 21.2212H171.521C171.88 21.2212 172.148 21.4925 172.148 21.8544V46.186C172.148 46.5478 171.88 46.8192 171.521 46.8192H158.525C158.166 46.8192 157.897 46.5478 157.897 46.186V21.9448C157.897 21.583 158.166 21.3116 158.525 21.3116H162.02C162.379 21.3116 162.648 21.583 162.648 21.9448V42.6584C162.648 43.0202 162.917 43.2915 163.275 43.2915H166.681C167.04 43.2915 167.308 43.0202 167.308 42.6584V21.9448C167.398 21.583 167.667 21.2212 168.026 21.2212Z" fill="white"/>
<path d="M184.786 21.2212H189.268C189.805 21.2212 190.253 21.6735 190.253 22.2162V46.0051C190.253 46.5478 189.805 47.0001 189.268 47.0001H186.31C185.772 47.0001 185.324 46.5478 185.324 46.0051V27.5528C185.324 27.191 184.876 27.0101 184.607 27.2815L179.588 34.0654C179.408 34.2463 179.319 34.5177 179.319 34.6986V46.0051C179.319 46.5478 178.871 47.0001 178.333 47.0001H175.375C174.837 47.0001 174.389 46.5478 174.389 46.0051V22.2162C174.389 21.6735 174.837 21.2212 175.375 21.2212H178.333C178.871 21.2212 179.319 21.6735 179.319 22.2162V26.9197C179.319 27.2815 179.767 27.4624 180.036 27.191L183.979 21.4925C184.248 21.4021 184.517 21.2212 184.786 21.2212Z" fill="white"/>
<path fill-rule="evenodd" clip-rule="evenodd" d="M207.283 21.2212H193.122C192.763 21.2212 192.405 21.583 192.405 21.9448V46.186C192.405 46.6383 192.763 46.9096 193.122 46.9096H196.527C196.976 46.9096 197.244 46.5478 197.244 46.186V40.1257C197.244 39.7639 197.424 39.4925 197.782 39.4021L202.353 38.1358C202.712 38.0453 203.16 38.4071 203.16 38.8594V46.186C203.16 46.6383 203.518 46.9096 203.877 46.9096H207.283C207.731 46.9096 208 46.5478 208 46.186V21.9448C208 21.4925 207.641 21.2212 207.283 21.2212ZM202.712 34.5177L198.141 35.784C197.693 35.8745 197.244 35.5126 197.244 35.0604V25.6534C197.244 25.2011 197.603 24.9297 197.962 24.9297H202.533C202.981 24.9297 203.25 25.2915 203.25 25.6534V33.7941C203.25 34.1559 203.07 34.4272 202.712 34.5177Z" fill="white"/>
<path fill-rule="evenodd" clip-rule="evenodd" d="M154.94 11H138.986C138.448 11 138.09 11.3618 138 11.9045V46.0955C138 46.6382 138.448 47 138.896 47H142.213C142.75 47 143.109 46.5477 143.109 46.0955V37.5025C143.109 37.0503 143.378 36.6884 143.736 36.598L145.618 36.0553C146.067 35.9648 146.515 36.1457 146.694 36.598L150.279 46.4573C150.369 46.7286 150.727 47 151.086 47H154.581C155.209 47 155.567 46.3668 155.388 45.8241L151.624 35.4221C151.444 34.8794 151.713 34.3367 152.251 34.2462L155.209 33.4322C155.567 33.2513 155.836 32.8894 155.836 32.5276V11.9045C155.836 11.3618 155.388 11 154.94 11ZM150.1 29.4523L144.274 31.1709C143.736 31.3518 143.109 30.99 143.109 30.3568V17.0603C143.109 16.5176 143.557 16.1558 144.005 16.1558H149.831C150.369 16.1558 150.727 16.608 150.727 17.0603V28.6382C150.727 29 150.458 29.3618 150.1 29.4523Z" fill="white"/>
<path d="M83.8243 46.6382L80.6135 42.0251C80.3459 41.6633 79.8108 41.6633 79.5432 42.0251L76.3324 46.6382C76.2432 46.8191 75.9757 46.9095 75.7973 46.9095H70.6243C70.2676 46.9095 70 46.6382 70 46.2764V11.6332C70 11.2714 70.2676 11 70.6243 11H74.3703C74.727 11 74.9946 11.2714 74.9946 11.6332V37.5025C74.9946 38.1357 75.7973 38.407 76.1541 37.8643L77.4027 36.0553C77.4919 35.9648 77.4919 35.7839 77.4919 35.6935V11.6332C77.4919 11.2714 77.7595 11 78.1162 11H81.9514C82.3081 11 82.5757 11.2714 82.5757 11.6332V35.6935C82.5757 35.8744 82.5757 35.9648 82.6649 36.0553L83.9135 37.8643C84.2703 38.407 85.073 38.1357 85.073 37.5025V11.6332C85.073 11.2714 85.3405 11 85.6973 11H89.4432C89.8 11 90.0676 11.2714 90.0676 11.6332V46.2764C90.0676 46.6382 89.8 46.9095 89.4432 46.9095H84.1811C84.0919 46.9095 83.9135 46.8191 83.8243 46.6382Z" fill="white"/>
<path fill-rule="evenodd" clip-rule="evenodd" d="M108.084 46.2766V21.8545C108.084 21.4927 107.816 21.2213 107.459 21.1309H93.8135C93.4568 21.1309 93.1892 21.4022 93.1892 21.764V46.1861C93.1892 46.5479 93.4568 46.8193 93.8135 46.8193H97.3811C97.7379 46.8193 98.0054 46.5479 98.0054 46.1861V38.6786C98.0054 38.2263 98.3622 37.955 98.7189 38.0454L102.822 39.4022C103.089 39.4927 103.268 39.764 103.268 40.0354V46.2766C103.268 46.6384 103.535 46.9098 103.892 46.9098H107.459C107.816 46.9098 108.084 46.6384 108.084 46.2766ZM103.268 25.563V35.151C103.268 35.6032 102.911 35.8746 102.465 35.7841L98.3622 34.4273C98.0946 34.3369 97.9162 34.0655 97.9162 33.7942V25.563C97.9162 25.2012 98.1838 24.9299 98.5406 24.9299H102.643C103 24.9299 103.268 25.2012 103.268 25.563Z" fill="white"/>
<path d="M115.754 21.7639V30.99C115.754 31.8946 116.914 32.2564 117.359 31.4423L123.603 21.6735C123.781 21.4021 124.049 21.2212 124.405 21.2212H127.527C128.241 21.2212 128.686 22.0353 128.33 22.6684L122.532 31.7137C122.354 31.985 122.354 32.3468 122.443 32.6182L128.597 45.4624C128.865 46.0956 128.419 46.8192 127.795 46.8192H124.762C124.405 46.8192 124.049 46.6383 123.959 46.2765L119.768 37.4121C119.589 37.0503 119.143 37.0503 118.965 37.3217L115.932 39.7639C115.843 39.8544 115.843 39.9448 115.843 40.0353V46.3669C115.843 46.6383 115.665 46.8192 115.397 46.8192H111.562C111.295 46.8192 111.116 46.6383 111.116 46.3669V39.0403V21.7639C111.116 21.4925 111.295 21.3116 111.562 21.3116H115.397C115.576 21.2212 115.754 21.4925 115.754 21.7639Z" fill="white"/>
<path d="M136 22.2162V46.0051C136 46.5478 135.554 47.0001 135.019 47.0001H132.076C131.54 47.0001 131.094 46.5478 131.094 46.0051V22.2162C131.094 21.6735 131.54 21.2212 132.076 21.2212H135.019C135.554 21.2212 136 21.6735 136 22.2162Z" fill="white"/>
<path fill-rule="evenodd" clip-rule="evenodd" d="M30.5057 20.4921L53.7439 11.8404C54.372 11.662 54.9103 12.0187 55 12.6431V27.5384C55 27.8951 54.7309 28.2519 54.372 28.3411L42.08 32.9792C41.3622 33.2467 41.2725 34.2279 41.9902 34.5846L54.5514 40.8282C54.8206 41.0066 55 41.2741 55 41.6309V45.5554C55 45.9122 54.7309 46.269 54.372 46.3582L50.4242 47.7853C50.2447 47.8745 49.9756 47.7853 49.7064 47.6961L38.4013 41.185C37.7733 40.9174 37.0555 41.2741 37.0555 41.9877V52.0665C37.0555 52.4233 36.7863 52.7801 36.4274 52.8693L31.0441 54.9207C30.5057 55.1883 29.8777 54.7423 29.8777 54.118V21.2948C29.8777 20.9381 30.1469 20.5813 30.5057 20.4921ZM38.2219 27.806L47.1044 24.595C47.4633 24.5058 47.6428 24.149 47.6428 23.7923V22.8111C47.6428 22.1868 47.0147 21.83 46.4764 22.0084L37.5938 25.2193C37.3247 25.3085 37.0555 25.6653 37.0555 26.0221V27.0032C37.0555 27.6276 37.6836 27.9843 38.2219 27.806Z" fill="white"/>
<path d="M53.0261 8.89703L29.3393 0.066895C29.1599 -0.0222983 28.8907 -0.0222983 28.7113 0.066895L5.29364 8.62945C4.48613 8.89703 4.66558 9.52139 5.11419 9.69977L19.6493 15.1406C19.8287 15.2298 20.0082 15.2298 20.2773 15.1406L26.2887 12.9107C26.5579 12.8215 26.6476 12.4648 26.3785 12.3756L18.124 9.16461C17.7651 9.07542 17.3165 8.62945 18.2137 8.27268L28.4421 4.52656C29.0701 4.25898 29.429 4.43737 29.6085 4.52656L40.2855 8.45107C41.2724 8.80784 41.8108 8.98623 39.9266 9.69977L20.6362 16.9244C20.5465 16.9244 20.4568 17.0136 20.367 17.1028C20.2773 17.192 20.0979 17.3704 20.0979 17.5488V42.8797C20.0979 43.2365 19.739 43.504 19.3801 43.3256L17.9445 42.7905C17.5856 42.7013 17.4062 42.3445 17.4062 41.9878V17.1028C17.4062 16.746 17.137 16.3893 16.7781 16.3001L11.2153 14.2486C10.677 14.0702 10.0489 14.5162 10.0489 15.0514V39.2228C10.0489 39.5795 9.69005 39.8471 9.33116 39.7579L7.98532 39.312C7.62643 39.2228 7.35726 38.866 7.35726 38.5092V13.2675C7.35726 12.9107 7.08809 12.554 6.7292 12.4648L1.16639 10.5025C0.628059 10.3241 0 10.7701 0 11.3053V44.4852C0 44.8419 0.269168 45.1987 0.628059 45.2879L26.3785 54.8316C26.9168 55.01 27.5449 54.564 27.5449 54.0288V20.3138C27.5449 19.957 27.814 19.6002 28.0832 19.511L53.1158 10.1457C53.9233 9.78897 53.7439 9.16461 53.0261 8.89703Z" fill="white"/>
<path d="M29.5187 6.04296L36.1582 8.54037C36.4274 8.62957 36.4274 8.98634 36.1582 9.07553L29.5187 11.5729C29.1598 11.7513 28.7112 11.7513 28.3523 11.5729L21.7129 9.07553C21.4437 8.98634 21.4437 8.62957 21.7129 8.54037L28.3523 6.13216C28.801 5.95377 29.2496 5.95377 29.5187 6.04296Z" fill="white"/>
</svg>
