<svg width="108" height="108" viewBox="0 0 108 108" fill="none" xmlns="http://www.w3.org/2000/svg">
<path d="M54 48.375C50.8934 48.375 48.375 50.8934 48.375 54C48.375 57.1066 50.8934 59.625 54 59.625C57.1066 59.625 59.625 57.1066 59.625 54C59.625 50.8934 57.1066 48.375 54 48.375Z" fill="black"/>
<path fill-rule="evenodd" clip-rule="evenodd" d="M57.375 10.125V19.2862C73.9417 20.8771 87.1229 34.0583 88.7138 50.625H97.875V57.375H88.7138C87.1229 73.9417 73.9417 87.1229 57.375 88.7138V97.875H50.625V88.7138C34.0583 87.1229 20.8771 73.9417 19.2862 57.375H10.125V50.625H19.2862C20.8771 34.0583 34.0583 20.8771 50.625 19.2862V10.125L57.375 10.125ZM26.0754 57.375H34.875V50.625H26.0754C27.6104 37.7898 37.7898 27.6104 50.625 26.0754V34.875H57.375V26.0754C70.2102 27.6104 80.3896 37.7898 81.9246 50.625H73.125V57.375H81.9246C80.3896 70.2102 70.2102 80.3896 57.375 81.9246V73.125H50.625V81.9246C37.7898 80.3896 27.6104 70.2102 26.0754 57.375Z" fill="#5B40C8"/>
</svg>
