<svg width="80" height="80" viewBox="0 0 80 80" fill="none" xmlns="http://www.w3.org/2000/svg">
<path d="M53.3333 33.3332H40V19.9998H33.3333V33.3332H20V39.9998H33.3333V53.3332H40V39.9998H53.3333V33.3332Z" fill="black"/>
<path fill-rule="evenodd" clip-rule="evenodd" d="M36.6666 6.6665C20.0981 6.6665 6.66663 20.098 6.66663 36.6665C6.66663 53.235 20.0981 66.6665 36.6666 66.6665C43.75 66.6665 50.26 64.2116 55.3923 60.1062L70 74.7139L74.714 69.9999L60.1063 55.3921C64.2117 50.2599 66.6666 43.7499 66.6666 36.6665C66.6666 20.098 53.2352 6.6665 36.6666 6.6665ZM13.3333 36.6665C13.3333 23.7799 23.78 13.3332 36.6666 13.3332C49.5533 13.3332 60 23.7799 60 36.6665C60 49.5531 49.5533 59.9998 36.6666 59.9998C23.78 59.9998 13.3333 49.5531 13.3333 36.6665Z" fill="black"/>
</svg>
