<svg width="427" height="386" viewBox="0 0 427 386" fill="none" xmlns="http://www.w3.org/2000/svg">
<path fill-rule="evenodd" clip-rule="evenodd" d="M397.619 238.114C398.919 229.738 399.328 221.211 398.732 212.591C394.675 153.835 373.675 77.7584 331.526 34.9628C318.611 21.8489 302.708 12.1239 284.889 7.32604C244.523 -3.54289 206.213 -6.24658 175.622 27.314C155.803 49.0565 152.273 76.8204 137.356 100.815C109.058 146.33 43.5388 157.539 32.5098 215.676C24.4219 258.306 50.1041 300.097 79.1142 329.262C108.381 358.685 147.458 379.285 188.788 384.593C198.808 385.879 208.94 386.299 219.033 385.789C294.821 381.962 385.425 316.687 397.619 238.114" fill="white"/>
<path fill-rule="evenodd" clip-rule="evenodd" d="M184.007 33.0168C184.003 33.0101 183.997 32.9999 183.993 32.9899C183.997 32.9865 183.997 32.9865 184 32.9831C184.003 32.9932 184.003 33.0033 184.007 33.0168" fill="#6D49D5"/>
<path fill-rule="evenodd" clip-rule="evenodd" d="M184.009 33.05C183.999 33.0132 183.992 32.98 183.989 32.95C184.009 32.9999 184.015 33.0366 184.009 33.05" fill="#6D49D5"/>
<path fill-rule="evenodd" clip-rule="evenodd" d="M192.002 275.002L191.998 275.005V274.995C191.998 274.998 192.002 274.998 192.002 275.002" fill="#6D49D5"/>
<path fill-rule="evenodd" clip-rule="evenodd" d="M205 196.817C204.883 197.083 204.781 197.35 204.664 197.631C195.922 218.939 189.825 244.467 188.407 275C164.139 215.445 123.876 186.614 88 172.77C88.6431 152.869 91.4063 118.264 102.692 97C102.692 97 121.786 101.472 145.82 120.337C164.781 135.218 186.843 159.088 205 196.817" fill="#6D49D5"/>
<path fill-rule="evenodd" clip-rule="evenodd" d="M209 196L208 195.821C208.143 195.537 208.268 195.269 208.411 195C208.607 195.329 208.804 195.672 209 196" fill="#6D49D5"/>
<path fill-rule="evenodd" clip-rule="evenodd" d="M192.002 275.002L191.998 275.005V274.995C191.998 274.998 192.002 274.998 192.002 275.002" fill="#6D49D5"/>
<path fill-rule="evenodd" clip-rule="evenodd" d="M209 196L208 195.821C208.143 195.537 208.268 195.269 208.411 195C208.607 195.329 208.804 195.672 209 196" fill="#6D49D5"/>
<path fill-rule="evenodd" clip-rule="evenodd" d="M193 332.986C192.766 333 192.533 333 192.301 333C101.622 333 26.5051 264.3 13.0414 174.547C12.1366 166.887 12 162.313 12 162.313C12 162.313 44.7118 159 82.6617 173.924C116.306 187.162 154.064 214.73 176.822 271.677V271.72L176.836 271.705C176.973 272.045 177.11 272.385 177.234 272.739C184.034 289.971 189.449 309.878 192.986 332.858C192.986 332.901 193 332.943 193 332.986" fill="#6D49D5"/>
<path fill-rule="evenodd" clip-rule="evenodd" d="M192.002 275.002L191.998 275.005V274.995C191.998 274.998 192.002 274.998 192.002 275.002" fill="#6D49D5"/>
<path fill-rule="evenodd" clip-rule="evenodd" d="M404 165C395.323 266.729 312.726 346.593 212 347C212.058 342.38 213.508 290.164 245.054 242.826C257.857 223.588 275.664 205.151 300.362 191.047C300.992 190.685 301.606 190.338 302.25 189.99C303.026 189.553 303.815 189.13 304.605 188.707C304.81 188.586 305.03 188.48 305.25 188.36C306.025 187.952 306.8 187.545 307.59 187.152C308 186.94 308.41 186.729 308.834 186.533C309.683 186.095 310.546 185.672 311.41 185.264C312.214 184.871 313.034 184.494 313.853 184.117C313.955 184.071 314.043 184.026 314.146 183.981C314.761 183.694 315.375 183.422 316.004 183.15C316.78 182.788 317.555 182.455 318.345 182.123C320.642 181.127 323.012 180.175 325.427 179.27L326.261 178.952C327.285 178.56 328.309 178.182 329.348 177.82C350.271 170.406 374.941 165.725 404 165" fill="#6D49D5"/>
<path fill-rule="evenodd" clip-rule="evenodd" d="M267 117.54C246.474 133.095 223.35 157.613 208.095 195C189.963 156.557 167.934 132.236 149 117.072C160.183 96.2066 185.526 53.8253 208.577 34C208.577 34 243.453 68.4904 267 117.54" fill="#6D49D5"/>
<path fill-rule="evenodd" clip-rule="evenodd" d="M328 174.177C326.982 174.532 325.978 174.903 324.974 175.287L324.157 175.598C321.79 176.486 319.466 177.419 317.215 178.396C316.441 178.721 315.681 179.047 314.92 179.402C314.304 179.668 313.702 179.935 313.1 180.216C312.999 180.26 312.913 180.305 312.813 180.349C312.009 180.719 311.206 181.089 310.417 181.474C309.571 181.873 308.725 182.288 307.893 182.717C307.477 182.91 307.076 183.117 306.674 183.324C305.899 183.709 305.14 184.108 304.38 184.508C304.164 184.626 303.949 184.73 303.748 184.848C302.974 185.263 302.2 185.677 301.44 186.106C300.809 186.447 300.206 186.787 299.589 187.143C275.381 200.966 257.927 219.037 245.378 237.893C214.458 284.292 213.038 335.471 212.98 340L212.909 339.867C209.209 315.846 203.544 295.037 196.431 277.025L196.99 275.19L196.015 275.944C196.015 275.929 196 275.929 196 275.915C197.392 245.396 203.372 219.881 211.948 198.583L212.751 198.761C212.594 198.435 212.435 198.095 212.278 197.769C227.265 161.094 249.982 137.044 270.146 121.784C293.91 103.817 314.175 98 314.175 98C325.017 111.35 327.484 152.184 328 174.177" fill="#6D49D5"/>
<path fill-rule="evenodd" clip-rule="evenodd" d="M190 282V279.647H190.941L190.285 279.032L190.992 279.647L191.706 279L191.992 279.276L192 280.066L190 282Z" fill="#CCDDE2"/>
<path fill-rule="evenodd" clip-rule="evenodd" d="M84.9271 168.985C106.511 177.529 125.857 189.81 142.435 205.491C162.073 224.068 177.948 247.568 189.658 275.386C191.377 246.5 197.117 219.818 206.735 196.016L206.872 195.676C206.893 195.622 206.915 195.569 206.936 195.516C190.688 161.361 169.734 133.91 144.655 113.927C131.572 103.501 119.919 97.2706 112.447 93.8802C106.126 91.0122 101.679 89.647 100.027 89.1847C88.505 111.834 85.6135 148.546 84.9271 168.985V168.985ZM191.123 284L189.504 279.967C177.758 250.699 161.484 226.1 141.136 206.852C124.576 191.188 105.225 178.953 83.618 170.488L83 170.246L83.0209 169.585C83.6788 148.926 86.5903 110.812 98.699 87.6497L99.0388 87L99.7542 87.1699C99.9648 87.22 104.997 88.4371 113.229 92.172C120.798 95.6069 132.599 101.915 145.833 112.461C171.231 132.699 192.422 160.499 208.819 195.089L209 195.472L208.832 195.861C208.76 196.029 208.693 196.196 208.625 196.368L208.482 196.722C198.482 221.469 192.707 249.375 191.321 279.662L191.123 284Z" fill="#CCDDE2"/>
<path fill-rule="evenodd" clip-rule="evenodd" d="M211 198L207 197.088L207.579 195.622C207.657 195.421 207.733 195.223 207.815 195.026L208.661 193L209.592 194.985C209.681 195.174 209.77 195.367 209.858 195.561C209.946 195.752 210.034 195.943 210.122 196.13L211 198Z" fill="#CCDDE2"/>
<path fill-rule="evenodd" clip-rule="evenodd" d="M190 282V279.647H190.941L190.285 279.032L190.992 279.647L191.706 279L191.992 279.276L192 280.066L190 282Z" fill="#CCDDE2"/>
<path fill-rule="evenodd" clip-rule="evenodd" d="M211 198L207 197.088L207.579 195.622C207.657 195.421 207.733 195.223 207.815 195.026L208.661 193L209.592 194.985C209.681 195.174 209.77 195.367 209.858 195.561C209.946 195.752 210.034 195.943 210.122 196.13L211 198Z" fill="#CCDDE2"/>
<path fill-rule="evenodd" clip-rule="evenodd" d="M208.261 350C157.064 349.923 107.977 330.044 70.0402 294.025C66.1965 290.386 62.4718 286.586 58.9719 282.733L60.3639 281.465C63.8321 285.284 67.5226 289.049 71.3337 292.657C108.85 328.277 157.362 347.965 207.97 348.115C204.161 323.748 198.271 301.344 190.459 281.508L189.88 282.079L189.865 279.98C178.149 250.679 161.933 226.044 141.669 206.761C125.147 191.04 105.841 178.761 84.2855 170.264C45.7056 155.07 11.6016 156.73 5.88386 157.143C5.89145 158.928 6.02758 163.488 7.04638 169.943C12.5882 204.868 26.676 238.168 47.7863 266.244C49.2903 268.268 50.9305 270.365 52.6646 272.482L51.2103 273.677C49.4573 271.537 47.7982 269.416 46.2799 267.373C24.9889 239.056 10.7782 205.466 5.18806 170.238C3.83155 161.642 4.00324 156.455 4.01083 156.238L4.04166 155.419L4.85605 155.336C5.22695 155.298 42.4504 151.764 84.9742 168.51C106.756 177.096 126.267 189.507 142.965 205.396C163.449 224.887 179.828 249.775 191.648 279.371L191.689 279.466C191.842 279.832 192.014 280.246 192.154 280.678C200.144 300.929 206.14 323.834 209.973 348.755L209.984 348.847C209.994 348.916 210 348.979 210 349.042V349.93L209.114 349.982C208.824 350 208.551 350 208.261 350" fill="#CCDDE2"/>
<path fill-rule="evenodd" clip-rule="evenodd" d="M190 282V279.647H190.941L190.285 279.032L190.992 279.647L191.706 279L191.992 279.276L192 280.066L190 282Z" fill="#CCDDE2"/>
<path fill-rule="evenodd" clip-rule="evenodd" d="M410.943 157.931C382.415 158.734 356.315 163.258 333.351 171.38C332.302 171.746 331.243 172.133 330.109 172.567L329.225 172.903C326.624 173.877 324.119 174.884 321.777 175.899C320.987 176.23 320.152 176.586 319.324 176.972C318.643 177.266 318.002 177.549 317.36 177.848L317.208 177.919C317.151 177.946 317.095 177.972 317.034 177.999C316.202 178.382 315.331 178.783 314.482 179.196C313.522 179.648 312.616 180.094 311.776 180.525C311.313 180.741 310.9 180.954 310.486 181.166C309.623 181.595 308.794 182.03 307.993 182.45C307.911 182.495 307.815 182.546 307.719 182.596C307.594 182.661 307.471 182.725 307.352 182.794C306.395 183.306 305.627 183.718 304.846 184.158C304.157 184.529 303.515 184.892 302.856 185.27C279.387 198.647 259.817 216.934 244.688 239.625C230.793 260.438 220.758 284.516 214.862 311.191C210.717 329.946 210.029 344.153 209.916 348.112C260.639 347.663 309.042 327.912 346.313 292.434C383.364 257.166 406.29 209.435 410.943 157.931V157.931ZM208 350L208.012 349.045C208.033 347.353 208.356 331.906 213.024 310.787C218.97 283.884 229.096 259.592 243.12 238.585C258.413 215.649 278.196 197.164 301.92 183.642C302.59 183.256 303.247 182.886 303.935 182.515C304.782 182.038 305.695 181.551 306.43 181.159C306.54 181.092 306.692 181.012 306.847 180.932C306.931 180.888 307.017 180.843 307.102 180.797C307.927 180.363 308.765 179.923 309.611 179.504C310.06 179.273 310.496 179.049 310.949 178.839C311.771 178.415 312.698 177.96 313.667 177.504C314.523 177.086 315.405 176.681 316.258 176.289L316.397 176.224C316.457 176.196 316.517 176.167 316.582 176.139C317.221 175.841 317.879 175.55 318.552 175.26C319.384 174.871 320.239 174.507 321.036 174.172C323.398 173.149 325.932 172.13 328.559 171.147L329.436 170.814C330.586 170.373 331.663 169.979 332.726 169.609C356.155 161.322 382.812 156.752 411.949 156.026L413 156L412.911 157.044C408.437 209.405 385.246 257.969 347.613 293.792C309.756 329.827 260.514 349.787 208.957 349.996L208 350Z" fill="#CCDDE2"/>
<mask id="mask0_0_1675" style="mask-type:luminance" maskUnits="userSpaceOnUse" x="145" y="24" width="127" height="174">
<path fill-rule="evenodd" clip-rule="evenodd" d="M145 24H272V198H145V24Z" fill="white"/>
</mask>
<g mask="url(#mask0_0_1675)">
<path fill-rule="evenodd" clip-rule="evenodd" d="M147.391 112.95C171.928 132.812 192.495 159.849 208.549 193.35C222.114 160.95 242.658 134.066 269.644 113.405C246.888 66.2358 213.948 31.5651 209.07 26.5666C187.708 45.3328 162.653 84.5355 147.391 112.95V112.95ZM208.671 198L207.761 196.065C191.568 161.663 170.657 134.028 145.609 113.928L145 113.439L145.369 112.749C160.826 83.8489 186.636 43.4124 208.507 24.565L209.163 23.9998L209.778 24.6096C210.148 24.9756 247.013 61.8201 271.668 113.281L272 113.974L271.389 114.438C243.83 135.366 223 162.814 209.478 196.02L208.671 198Z" fill="#CCDDE2"/>
</g>
<path fill-rule="evenodd" clip-rule="evenodd" d="M66.0084 231.039V231.042L66.0051 231.045V231.042C66.0051 231.042 66.0051 231.039 66.0017 231.039C66.0017 231.035 66.0017 231.029 65.9984 231.019C65.9984 231.012 65.9949 231.005 65.9949 230.992V230.988C65.9916 230.978 65.9916 230.968 65.9916 230.955C65.9949 230.978 65.9984 231.002 66.0051 231.025C66.0084 231.029 66.0084 231.035 66.0084 231.039" fill="white"/>
<path fill-rule="evenodd" clip-rule="evenodd" d="M65.598 262.046C64.948 264.237 63.9634 266.636 62.8204 268.907C62.5037 269.531 62.186 270.139 61.8372 270.747V270.762C60.4402 273.274 58.9163 275.529 57.4882 277C57.1865 276.904 56.8853 276.776 56.6157 276.664C56.5521 276.649 56.504 276.616 56.4569 276.601C50.9653 274.185 46.8387 269.659 45.601 264.573C44.5051 260.095 45.4898 255.248 43.3786 251.042C40.7919 245.86 33.777 242.613 32.9041 236.759C32.1108 231.289 36.9991 226.267 36.2058 220.909C35.3004 214.847 27.9041 211.249 26.5396 205.331C25.6671 201.652 26.4444 197.413 26.1272 193.623C25.7623 189.416 25.0633 185.21 24 181.068C24.5086 181.036 25.0162 181.02 25.5238 181.004C35.9197 180.828 46.1562 186.714 49.5206 194.982C52.2346 201.668 50.8536 209.393 54.4575 215.663C54.6634 216.063 54.917 216.446 55.1871 216.83C55.6476 217.486 56.1708 218.11 56.7109 218.718L57.853 219.917C58.0439 220.109 58.2498 220.285 58.4407 220.493C58.6312 220.669 58.8371 220.877 59.028 221.085C60.821 222.812 62.646 224.556 63.8366 226.619C63.9474 226.811 64.0426 226.987 64.1227 227.179C64.2335 227.371 64.3287 227.563 64.4079 227.77C64.5191 227.994 64.5983 228.202 64.6775 228.41C64.7736 228.65 64.8524 228.906 64.9315 229.146C65.0433 229.53 65.154 229.898 65.2332 230.282C65.2492 230.378 65.2492 230.457 65.2648 230.538C65.2648 230.569 65.2813 230.601 65.2813 230.634C65.2964 230.665 65.2964 230.697 65.2964 230.729C65.3129 230.794 65.3129 230.841 65.3284 230.89V230.921C65.3284 230.985 65.3444 231.049 65.36 231.097V231.113C65.36 231.177 65.3765 231.209 65.3765 231.241C65.392 231.289 65.392 231.321 65.392 231.337V231.369L64.1699 249.219C64.8844 253.537 66.8362 257.839 65.598 262.046" fill="white"/>
<path fill-rule="evenodd" clip-rule="evenodd" d="M75.3227 218.709V218.693C76.1293 214.826 76.1935 210.767 78.0324 207.075C81.4515 200.267 91.4515 195.328 101.92 195.009H102.113C103.064 194.993 104.032 194.993 105 195.057C103.919 198.637 103.161 202.264 102.79 205.908C102.435 209.184 103.258 212.844 102.355 215.993C100.887 221.107 93.0643 224.207 92.113 229.433C91.2743 234.067 96.4518 238.398 95.5968 243.113C94.6776 248.163 87.2579 250.96 84.5161 255.434C82.3065 259.062 83.3387 263.233 82.1935 267.085C80.8551 271.48 76.468 275.395 70.6453 277.457C70.2745 277.585 69.9354 277.712 69.5647 277.824H69.5484C69.3549 277.872 69.1293 277.952 68.9357 278C68.8711 277.952 68.8064 277.888 68.7259 277.824L68.7097 277.808C66.8387 276.226 64.7421 273.557 63 270.697V270.681L63.1293 268.858C64.2904 266.589 65.2906 264.192 65.9516 262.003C67.2099 257.799 65.2259 253.5 64.5002 249.186L65.7423 231.351H65.7581V231.335H65.7744V231.318C65.9032 231.207 66.0325 231.111 66.1614 230.999C66.3065 230.903 66.4359 230.775 66.5647 230.663C68.4841 229.129 70.5485 227.659 72.0325 225.917C73.8709 223.775 74.7259 221.426 75.2743 218.965" fill="white"/>
<path fill-rule="evenodd" clip-rule="evenodd" d="M74.995 219.029C74.9984 219.012 75.0017 218.995 75.0051 218.975V218.971" fill="white"/>
<path fill-rule="evenodd" clip-rule="evenodd" d="M76 218.432V218.448C75.9842 218.543 75.9678 218.623 75.952 218.702C75.4022 221.149 74.5451 223.485 72.7016 225.614C71.214 227.345 69.1449 228.807 67.2209 230.332C67.0912 230.444 66.962 230.571 66.8165 230.666C66.6874 230.777 66.5577 230.889 66.4281 231V230.984C66.4281 230.968 66.4281 230.936 66.4122 230.92C66.3959 230.857 66.3801 230.809 66.3633 230.761V230.746C66.3479 230.698 66.3479 230.65 66.3479 230.587C66.3479 230.587 66.3479 230.571 66.3311 230.571V230.539C66.3152 230.491 66.3152 230.444 66.2989 230.38C66.2989 230.348 66.2989 230.317 66.2831 230.285C66.2989 230.253 66.2989 230.221 66.2831 230.189C66.2663 230.11 66.2663 230.031 66.2341 229.935C66.1534 229.554 66.0406 229.189 65.9268 228.807C65.8466 228.569 65.7659 228.315 65.668 228.076C65.5873 227.87 65.5071 227.663 65.3933 227.441C65.3285 227.25 65.232 227.043 65.1028 226.853C65.0212 226.662 64.9242 226.488 64.8113 226.297C63.5989 224.247 61.7396 222.515 59.9125 220.799C59.7185 220.593 59.5082 220.386 59.3142 220.211C59.1197 220.005 58.9099 219.83 58.7159 219.639L57.5519 218.448C57.0017 217.844 56.4687 217.224 56 216.573C56 216.573 57.1313 198.237 66.6874 192.661C75.7095 187.385 76 215.334 76 218.432" fill="white"/>
<path fill-rule="evenodd" clip-rule="evenodd" d="M74.995 219.029C74.9984 219.012 75.0017 218.995 75.0051 218.975V218.971" fill="white"/>
<path fill-rule="evenodd" clip-rule="evenodd" d="M66.0068 231.027V231.044C66.0068 231.044 66.0068 231.04 66.0033 231.04C66.0033 231.037 66.0033 231.03 66.0001 231.02C66.0001 231.013 65.9966 231.007 65.9966 230.993V230.99C65.9933 230.98 65.9933 230.97 65.9933 230.956C65.9966 230.98 66.0001 231.003 66.0068 231.027" fill="white"/>
<path fill-rule="evenodd" clip-rule="evenodd" d="M98 201C80.8817 219.211 72.8299 257.612 69.6978 277.419H69.6854C69.4286 279.09 69.1962 280.622 69 282" fill="white"/>
<path fill-rule="evenodd" clip-rule="evenodd" d="M99 293L91.2227 339.362C90.7725 342.046 88.5826 344 86.025 344H45.382C42.798 344 40.5935 342.006 40.1721 339.288L33 293H99Z" fill="white"/>
<path fill-rule="evenodd" clip-rule="evenodd" d="M106.982 287.945V287.945C106.758 290.801 104.46 293 101.698 293H31.302C28.5706 293 26.2864 290.847 26.0248 288.026V288.026C25.7257 284.796 28.1736 282 31.302 282H101.698C104.796 282 107.233 284.743 106.982 287.945" fill="white"/>
<path fill-rule="evenodd" clip-rule="evenodd" d="M66.0051 231.032C66.0051 231.012 66.0016 230.988 65.9949 230.968C66.0016 231.008 66.0051 231.032 66.0051 231.032" fill="white"/>
<path fill-rule="evenodd" clip-rule="evenodd" d="M31 188C47.515 209.1 55.2868 253.586 58.3241 276.55C58.5822 278.541 58.8158 280.366 59 282" fill="white"/>
<path fill-rule="evenodd" clip-rule="evenodd" d="M67 210C64.9485 216.429 64.8524 222.923 65.0928 227.035C65.2051 228.977 65.3974 230.38 65.5092 231" fill="white"/>
<path fill-rule="evenodd" clip-rule="evenodd" d="M65.0813 233L65.0324 230.852C65.0276 230.824 65.0232 230.793 65.0198 230.759C65 230.653 65 230.565 65 230.5L65.5407 230.466L65.341 230.288L65.5504 230.466L66.0075 230.438V230H66.9666L66.9797 230.671C66.9923 230.731 67 230.797 67 230.868V231.239L65.0813 233Z" fill="#CCDDE2"/>
<path fill-rule="evenodd" clip-rule="evenodd" d="M56.9847 275.69L57.1224 275.745C57.1882 275.772 57.255 275.8 57.3217 275.828C58.4662 274.539 59.7217 272.695 60.9846 270.444V270.438L61.1101 270.203C61.4025 269.692 61.6887 269.155 62.0676 268.407C63.2201 266.111 64.1564 263.793 64.774 261.705C65.5881 258.93 64.8821 256.059 64.1347 253.019C63.8377 251.809 63.5298 250.557 63.3235 249.305L63.3051 249.196L63.3127 249.085L64.5239 231.352L64.5141 231.253C64.5103 231.232 64.507 231.208 64.5046 231.183C64.4854 231.098 64.4727 231.015 64.468 230.934C64.4661 230.92 64.4633 230.905 64.4609 230.89L64.4191 230.781V230.658C64.4153 230.636 64.4116 230.614 64.4088 230.589C64.4017 230.54 64.3961 230.49 64.3914 230.438C64.3895 230.419 64.3886 230.399 64.3848 230.377C64.327 230.096 64.2353 229.783 64.1385 229.451L64.075 229.245C64.0163 229.064 63.9561 228.875 63.8847 228.697C63.8029 228.483 63.7362 228.306 63.6473 228.129L63.6088 228.041C63.5547 227.897 63.4852 227.752 63.3897 227.586L63.3366 227.479C63.276 227.332 63.1999 227.193 63.1049 227.028C62.0018 225.11 60.2481 223.417 58.5522 221.779L58.4319 221.66C58.2542 221.467 58.0658 221.277 57.9008 221.124L57.8449 221.068C57.7452 220.959 57.6404 220.861 57.537 220.763C57.4519 220.683 57.3673 220.603 57.2851 220.52L56.1321 219.306C55.4346 218.519 54.9453 217.911 54.5246 217.311C54.2872 216.973 53.9813 216.521 53.7307 216.034C51.6786 212.456 51.1851 208.393 50.7071 204.463C50.331 201.368 49.9423 198.169 48.772 195.279C45.6049 187.475 35.678 181.714 25.72 181.887C25.603 181.891 25.485 181.895 25.3666 181.899C26.2667 185.656 26.8946 189.546 27.2354 193.48C27.3661 195.047 27.3167 196.685 27.2697 198.269C27.2006 200.575 27.1296 202.959 27.6246 205.05C28.2281 207.674 30.1472 209.835 32.1791 212.122C34.4362 214.662 36.7699 217.289 37.2784 220.704C37.7099 223.624 36.6317 226.379 35.5892 229.044C34.5795 231.623 33.6259 234.06 33.9873 236.556C34.4437 239.627 36.8216 241.966 39.3395 244.442C41.2304 246.303 43.1857 248.227 44.3424 250.55C45.6891 253.24 45.8522 256.139 46.0096 258.943C46.1144 260.804 46.2131 262.564 46.631 264.277C47.7952 269.073 51.6339 273.325 56.9029 275.655C56.9292 275.665 56.9565 275.677 56.9847 275.69V275.69ZM57.8458 278L57.2992 277.826C56.981 277.724 56.6773 277.597 56.4099 277.485L56.3962 277.479C56.3342 277.459 56.2778 277.435 56.2242 277.411L56.1786 277.391C50.3696 274.829 46.1234 270.095 44.8209 264.726C44.3612 262.845 44.2531 260.915 44.1483 259.05C43.9951 256.319 43.8499 253.74 42.6781 251.398C41.6609 249.356 39.9016 247.625 38.0389 245.793C35.4105 243.207 32.6933 240.534 32.1429 236.832C31.7091 233.835 32.8 231.047 33.8552 228.351C34.8512 225.806 35.7922 223.402 35.4345 220.984C35.0096 218.127 32.9608 215.821 30.7916 213.38C28.692 211.017 26.5205 208.573 25.8098 205.482C25.2589 203.153 25.3337 200.641 25.4061 198.212C25.454 196.61 25.4991 195.098 25.3774 193.641C25.0122 189.42 24.3071 185.248 23.2825 181.245L23 180.14L24.1267 180.069C24.6441 180.036 25.1602 180.02 25.6754 180.004C36.5447 179.818 46.9981 185.943 50.4974 194.565C51.7623 197.689 52.167 201.016 52.558 204.233C53.0332 208.148 53.4826 211.845 55.3641 215.127C55.5826 215.55 55.8421 215.931 56.0456 216.221C56.4244 216.762 56.8724 217.318 57.4994 218.025L58.6166 219.201C58.6702 219.255 58.7407 219.321 58.8112 219.388C58.9377 219.508 59.0641 219.628 59.1868 219.76C59.3771 219.937 59.5811 220.143 59.78 220.359L59.8401 220.417C61.63 222.146 63.4809 223.933 64.7166 226.08C64.8214 226.262 64.9319 226.462 65.0315 226.691C65.1552 226.912 65.252 227.115 65.3338 227.324C65.4532 227.569 65.5387 227.795 65.6148 227.995C65.7004 228.209 65.7751 228.438 65.847 228.659L65.9269 228.919C66.0304 229.273 66.137 229.638 66.216 230.025C66.2343 230.128 66.2414 230.195 66.2475 230.259L66.2644 230.363C66.2818 230.432 66.2903 230.495 66.2945 230.547C66.2969 230.559 66.2987 230.57 66.3006 230.582L66.3302 230.677V230.787L66.358 230.878L66.3608 230.981C66.3617 230.985 66.3622 230.99 66.3631 230.994C66.3838 231.085 66.3937 231.177 66.3937 231.271L66.3913 231.368L65.1805 249.103C65.3751 250.248 65.6642 251.425 65.9443 252.565C66.7189 255.717 67.5208 258.976 66.561 262.244L66.5605 262.245C65.9114 264.439 64.9324 266.865 63.7286 269.262C63.4875 269.737 63.174 270.349 62.822 270.973L62.7298 271.152C61.6601 273.079 60.0136 275.761 58.2463 277.586L57.8458 278Z" fill="#CCDDE2"/>
<path fill-rule="evenodd" clip-rule="evenodd" d="M68.6473 279L68.2883 278.733C68.2344 278.693 68.1801 278.647 68.1219 278.595L67.9817 278.473C66.1431 276.912 63.9998 274.235 62.1359 271.158L62 270.934L62.0019 270.59L62.144 268.577L62.2308 268.407C63.3995 266.111 64.3498 263.794 64.9777 261.704C65.8031 258.932 65.0874 256.061 64.3297 253.022C64.0279 251.811 63.7156 250.559 63.5063 249.306L63.4877 249.197L63.4953 249.087L64.7451 231.047V230.367L65.3396 230.357C65.3826 230.321 65.426 230.286 65.4698 230.248L65.5685 230.173C65.6367 230.128 65.6968 230.068 65.7573 230.014L65.8718 229.912C66.2785 229.584 66.6633 229.282 67.0481 228.98C68.5429 227.806 70.0893 226.592 71.2141 225.265C73.098 223.06 73.8213 220.606 74.2404 218.714L76.0876 219.12C75.6204 221.225 74.8088 223.964 72.6569 226.483C71.4115 227.953 69.7884 229.227 68.2192 230.459C67.8401 230.756 67.461 231.054 67.0877 231.354L67.0281 231.409C66.9308 231.496 66.813 231.603 66.6714 231.703C66.6657 231.708 66.659 231.714 66.6528 231.718L66.6366 232.234L66.5589 232.235L65.3902 249.105C65.5876 250.251 65.8808 251.428 66.1655 252.568C66.9503 255.718 67.7633 258.976 66.7901 262.242C66.1455 264.387 65.1837 266.75 64.0041 269.088L63.9087 270.437C65.5785 273.15 67.4453 275.493 69.0813 276.931C69.1342 276.916 69.1852 276.902 69.2343 276.889L69.293 276.875C69.5051 276.808 69.7078 276.736 69.9147 276.662L70.2461 276.546C75.7343 274.592 79.9141 270.852 81.1467 266.786C81.5725 265.345 81.6745 263.845 81.7823 262.256C81.9478 259.811 82.1189 257.284 83.5542 254.916C84.7901 252.889 86.8604 251.225 88.8626 249.615C91.5028 247.493 93.9961 245.489 94.4633 242.909C94.8367 240.839 93.8463 238.769 92.7978 236.578C91.6811 234.244 90.5258 231.83 90.9949 229.224C91.5423 226.204 94.028 223.919 96.4321 221.71C98.5654 219.749 100.58 217.897 101.211 215.686C101.706 213.955 101.638 212.035 101.565 210.002C101.516 208.599 101.464 207.149 101.615 205.755C101.94 202.538 102.577 199.223 103.511 195.89C102.939 195.879 102.391 195.884 101.896 195.892H101.688C91.6019 196.203 81.9459 201.059 78.7559 207.442C77.5353 209.905 77.1448 212.529 76.7318 215.307C76.5597 216.466 76.3818 217.663 76.1382 218.836L75.2494 218.653L74.2662 218.662L74.2857 218.455C74.5184 217.335 74.6925 216.164 74.8608 215.031C75.2771 212.232 75.7081 209.337 77.0613 206.605C80.6003 199.524 90.7146 194.345 101.658 194.009L101.88 194.009C102.733 193.995 103.762 193.989 104.817 194.059L106 194.137L105.661 195.269C104.576 198.879 103.848 202.472 103.496 205.949C103.359 207.217 103.406 208.537 103.456 209.935C103.53 212.025 103.606 214.185 103.031 216.201C102.254 218.922 99.9468 221.043 97.7153 223.094C95.4399 225.185 93.2913 227.16 92.8565 229.557C92.495 231.566 93.4716 233.607 94.5053 235.768C95.6363 238.132 96.806 240.576 96.3248 243.242C95.7326 246.513 92.8441 248.835 90.0508 251.081C88.175 252.588 86.2358 254.148 85.172 255.892C83.9752 257.867 83.8264 260.06 83.6696 262.383C83.5594 264.003 83.4459 265.678 82.9591 267.325C81.5334 272.027 77.017 276.136 70.8741 278.322L70.5503 278.436C70.2867 278.529 70.0292 278.621 69.756 278.704L69.5905 278.745C69.5409 278.759 69.4899 278.774 69.4389 278.79C69.3168 278.828 69.1947 278.864 69.0822 278.892L68.6473 279Z" fill="#CCDDE2"/>
<path fill-rule="evenodd" clip-rule="evenodd" d="M75.9365 219L74 218.398L74.0045 218.354C74.0179 218.244 74.0308 218.132 74.0437 218L74.967 218.256L76 218.241L75.9871 218.538C75.9702 218.711 75.9528 218.857 75.9365 219" fill="#CCDDE2"/>
<path fill-rule="evenodd" clip-rule="evenodd" d="M66.2833 227.016C66.4014 227.253 66.4872 227.471 66.5633 227.666C66.651 227.879 66.7276 228.106 66.8013 228.326L66.8833 228.584C66.9445 228.786 67.0066 228.993 67.064 229.205C67.3107 229.013 67.5516 228.826 67.7925 228.64C69.3046 227.473 70.8673 226.266 72.004 224.947C73.9088 222.754 74.6393 220.316 75.0629 218.437C75.0716 218.392 75.0803 218.349 75.0884 218.304C75.0827 210.567 73.9806 195.44 69.8409 193.135C69.3576 192.866 68.5563 192.6 67.1873 193.398C58.8212 198.264 57.165 213.78 56.954 216.237C57.299 216.692 57.7076 217.174 58.2434 217.759L59.3888 218.928C59.4442 218.982 59.516 219.047 59.5883 219.114C59.7179 219.232 59.848 219.353 59.9728 219.483C60.169 219.659 60.3776 219.864 60.5814 220.078L60.6431 220.136C62.4785 221.854 64.3756 223.63 65.6425 225.763C65.7465 225.938 65.8554 226.13 65.9542 226.347C66.0858 226.553 66.198 226.782 66.2833 227.016V227.016ZM65.4834 233V231.445H65.3856V230.573C65.3837 230.563 65.3822 230.553 65.3803 230.543L65.3692 230.499L65.2338 230.222L65.309 230.069L65.308 230.062C65.243 229.754 65.149 229.442 65.0498 229.113L64.9847 228.908C64.9245 228.728 64.8628 228.541 64.7896 228.364C64.7062 228.151 64.6373 227.975 64.5467 227.799L64.4932 227.674C64.4484 227.542 64.3862 227.416 64.3135 227.309L64.2277 227.153C64.1655 227.008 64.0875 226.869 63.9901 226.705C62.8597 224.8 61.0614 223.117 59.3228 221.489L59.1994 221.372C59.0173 221.179 58.8246 220.99 58.6549 220.839L58.5976 220.783C58.4954 220.675 58.388 220.577 58.2825 220.48C58.1948 220.4 58.108 220.32 58.0237 220.238L56.8417 219.032C56.1266 218.25 55.625 217.646 55.1937 217.05L55 216.781L55.0202 216.452C55.0318 216.261 55.3272 211.709 56.8186 206.395C58.854 199.144 62.014 194.23 66.2111 191.789C68.2619 190.593 69.8308 190.976 70.7859 191.508C76.7003 194.802 77 214.461 77 218.368L76.9875 218.536C76.9716 218.632 76.9547 218.715 76.9383 218.796C76.4579 220.931 75.6378 223.653 73.4622 226.157C72.203 227.618 70.5628 228.885 68.976 230.11C68.5939 230.406 68.2113 230.701 67.8345 230.999L67.7766 231.051C67.6788 231.138 67.5588 231.244 67.4176 231.343L65.4834 233Z" fill="#CCDDE2"/>
<path fill-rule="evenodd" clip-rule="evenodd" d="M75.9365 219L74 218.398L74.0045 218.354C74.0179 218.244 74.0308 218.132 74.0437 218L74.967 218.256L76 218.241L75.9871 218.538C75.9702 218.711 75.9528 218.857 75.9365 219" fill="#CCDDE2"/>
<path fill-rule="evenodd" clip-rule="evenodd" d="M66.0156 232H65.0488L65.0327 230.981C65.0278 230.949 65.0234 230.913 65.02 230.874C65 230.753 65 230.651 65 230.576L66.0156 230.504V230H66.9824L67 231.017H66.0327L66.0156 232Z" fill="#CCDDE2"/>
<path fill-rule="evenodd" clip-rule="evenodd" d="M69.8363 282L68 281.739C68.1921 280.354 68.4207 278.815 68.6727 277.134L68.8092 276.337C76.3707 228.08 89.4769 207.804 96.6415 200L98 201.277C90.9406 208.967 77.983 229.085 70.5178 277.42L70.3865 278.213C70.1827 279.578 69.9971 280.843 69.8363 282" fill="#CCDDE2"/>
<path fill-rule="evenodd" clip-rule="evenodd" d="M34.2113 293.893L41.2969 339.185C41.6526 341.458 43.4762 343.107 45.6332 343.107H86.7531C88.8814 343.107 90.7002 341.484 91.0794 339.247L98.7605 293.893H34.2113ZM86.7531 345H45.6332C42.5382 345 39.9282 342.678 39.4275 339.478L32 292H101L92.944 339.564C92.4108 342.714 89.807 345 86.7531 345V345Z" fill="#CCDDE2"/>
<path fill-rule="evenodd" clip-rule="evenodd" d="M31.2493 282.868C30.0607 282.868 28.9498 283.364 28.1205 284.266C27.2205 285.246 26.776 286.588 26.9006 287.948C27.1191 290.333 28.9882 292.132 31.2493 292.132H101.751C104.008 292.132 105.921 290.264 106.105 287.879C106.21 286.532 105.755 285.206 104.858 284.243C104.031 283.356 102.927 282.868 101.751 282.868H31.2493ZM101.751 294H31.2493C28.0101 294 25.3353 291.471 25.0282 288.117C24.8562 286.236 25.477 284.373 26.7329 283.008C27.9219 281.713 29.5261 281 31.2493 281H101.751C103.457 281 105.051 281.701 106.237 282.975C107.489 284.318 108.124 286.158 107.98 288.023C107.72 291.374 104.984 294 101.751 294V294Z" fill="#CCDDE2"/>
<path fill-rule="evenodd" clip-rule="evenodd" d="M65.047 231.89C65.046 231.884 65.0302 231.758 65 231.547L66.8995 231C66.9644 231.225 67 231.484 67 231.727L65.047 231.89Z" fill="#CCDDE2"/>
<path fill-rule="evenodd" clip-rule="evenodd" d="M58.1532 282C57.971 280.337 57.7377 278.471 57.4951 276.546C50.2703 220.412 37.7939 197.066 31 188.145L32.4721 187C48.5663 208.131 56.2122 252.023 59.3377 276.306C59.5822 278.242 59.8164 280.116 60 281.793L58.1532 282Z" fill="#CCDDE2"/>
<path fill-rule="evenodd" clip-rule="evenodd" d="M64.5473 231C64.4031 230.25 64.2094 228.808 64.0994 227.007C63.8343 222.757 63.9716 216.357 66.1302 210L68 210.581C65.936 216.658 65.8062 222.807 66.0608 226.896C66.1966 229.111 66.4339 230.42 66.4795 230.66L64.5473 231Z" fill="#CCDDE2"/>
<path fill-rule="evenodd" clip-rule="evenodd" d="M192.398 281.318C199.448 299.289 204.93 319.302 208.731 340.92C209.287 334.052 210.525 323.511 213.282 310.978C219.215 284.005 229.321 259.649 243.316 238.588C258.577 215.592 278.319 197.057 301.993 183.501C302.662 183.114 303.318 182.743 304.004 182.371C304.849 181.893 305.761 181.404 306.493 181.011C306.604 180.944 306.756 180.865 306.911 180.784C306.994 180.74 307.079 180.695 307.165 180.648C307.987 180.214 308.824 179.773 309.668 179.352C310.116 179.121 310.552 178.896 311.003 178.686C311.825 178.261 312.749 177.804 313.715 177.347C314.57 176.928 315.45 176.522 316.302 176.129L316.44 176.064C316.5 176.036 316.56 176.007 316.625 175.978C317.263 175.68 317.919 175.388 318.59 175.097C319.421 174.707 320.275 174.342 321.069 174.007C323.427 172.981 325.956 171.959 328.577 170.973L329.453 170.639C330.368 170.287 331.237 169.964 332.089 169.66C331.491 145.388 328.823 103.629 317.817 89.1601C309.919 91.5661 290.918 99.6518 271.329 114.505C243.839 135.368 223.036 162.703 209.491 195.761C209.516 195.813 209.54 195.866 209.566 195.919C209.65 196.098 209.735 196.276 209.819 196.452L210.664 198.2L208.685 197.761C199.117 221.853 193.498 248.905 191.975 278.209L193.762 276.821L192.398 281.318ZM210.114 353L208.239 349.507L208.215 349.347C204.415 324.617 198.467 301.86 190.532 281.71L190.016 282.111L190 280.16C191.392 249.532 197.191 221.337 207.237 196.318L207.534 195.578L207.535 195.578L207.594 195.435C221.264 161.888 242.325 134.154 270.195 113.004C295.624 93.7233 317.682 87.2354 317.902 87.1718L318.5 87L318.891 87.4836C330.678 102.039 333.407 145.617 333.984 170.298L334 170.983L333.354 171.209C332.312 171.573 331.256 171.962 330.124 172.397L329.242 172.734C326.646 173.71 324.146 174.72 321.808 175.738C321.021 176.069 320.188 176.426 319.361 176.813C318.682 177.109 318.042 177.392 317.401 177.692L317.249 177.763C317.193 177.79 317.137 177.817 317.076 177.844C316.246 178.227 315.376 178.629 314.529 179.044C313.571 179.497 312.667 179.944 311.829 180.376C311.367 180.592 310.954 180.805 310.542 181.019C309.68 181.448 308.853 181.884 308.054 182.306C307.972 182.351 307.876 182.402 307.781 182.452C307.656 182.517 307.532 182.582 307.414 182.651C306.459 183.165 305.693 183.578 304.913 184.018C304.226 184.391 303.585 184.754 302.928 185.133C279.507 198.545 259.978 216.88 244.88 239.631C231.014 260.498 221 284.639 215.117 311.383C210.499 332.374 210.18 347.684 210.16 349.36L210.114 353Z" fill="#CCDDE2"/>
<path fill-rule="evenodd" clip-rule="evenodd" d="M334.623 340.811C331.23 340.128 327.894 339.31 324.643 338.355C311.287 334.432 295.755 327.733 290.447 313.653C287.723 306.428 288.906 297.847 293.482 291.639C295.906 288.349 299.264 285.698 303.14 284.439C311.59 281.695 320.939 285.975 327.204 292.298C333.47 298.622 337.506 306.77 342.412 314.208C337.975 304.215 333.469 293.943 332.855 283.017C332.376 274.502 334.684 265.271 340.525 258.873C345.901 252.986 358.473 248.374 365.88 252.702C370.766 255.557 372.712 261.625 373.552 267.241C375.85 282.601 372.899 298.208 369.957 313.457C371.934 305.304 374.055 297.077 378.077 289.722C382.097 282.367 388.27 275.867 396.169 273.146C401.702 271.239 408.272 271.444 412.906 275.032C417.231 278.382 419.162 284.036 419.757 289.491C420.752 298.629 418.609 307.904 414.928 316.319C401.185 347.733 363.076 346.545 334.623 340.811" fill="white"/>
<path fill-rule="evenodd" clip-rule="evenodd" d="M365 324.521C365 324.521 386.431 330.394 394 301Z" fill="white"/>
<path fill-rule="evenodd" clip-rule="evenodd" d="M356 275C349.25 288.25 356 328 356 328Z" fill="white"/>
<path fill-rule="evenodd" clip-rule="evenodd" d="M336 324C335.118 323.846 326.654 322.641 319.434 319.265C313.844 316.651 309 312.736 309 307" fill="white"/>
<path fill-rule="evenodd" clip-rule="evenodd" d="M321 307C321 307 313.191 316.582 319.395 319Z" fill="white"/>
<path fill-rule="evenodd" clip-rule="evenodd" d="M316 328C317.146 326.384 323.108 329.624 327 322Z" fill="white"/>
<path fill-rule="evenodd" clip-rule="evenodd" d="M353 293C351 291.375 345.75 293 345 280Z" fill="white"/>
<path fill-rule="evenodd" clip-rule="evenodd" d="M354 304C354 304 363 300.534 363 293Z" fill="white"/>
<path fill-rule="evenodd" clip-rule="evenodd" d="M374 325C374 325 378.962 312.547 381 307Z" fill="white"/>
<path fill-rule="evenodd" clip-rule="evenodd" d="M389 313.648C389 313.648 394.464 318.037 401 311Z" fill="white"/>
<path fill-rule="evenodd" clip-rule="evenodd" d="M389 307C389 307 385.965 305.526 387.372 297Z" fill="white"/>
<path fill-rule="evenodd" clip-rule="evenodd" d="M308.49 284.539C306.786 284.539 305.068 284.786 303.369 285.338C299.861 286.478 296.594 288.919 294.168 292.212C289.794 298.15 288.65 306.452 291.253 313.363C296.68 327.765 313.036 334.054 324.867 337.531L325.838 337.818C328.719 338.671 331.698 339.552 334.718 339.962C347.843 341.74 364.833 343.42 379.856 340.612C396.793 337.445 408.001 329.386 414.12 315.974C418.147 307.147 419.79 298.027 418.873 289.6C418.396 285.215 416.882 279.256 412.377 275.766C408.401 272.685 402.318 272.016 396.502 274.021C389.543 276.42 383.296 282.16 378.912 290.184C375.035 297.279 372.979 305.043 370.874 313.725L369.039 313.321C371.936 298.291 374.932 282.748 372.63 267.354C371.565 260.229 369.202 255.687 365.407 253.469C359.874 250.233 347.839 252.19 341.194 259.471C335.955 265.213 333.246 273.774 333.762 282.961C334.374 293.87 338.885 304.037 343.248 313.868L341.606 314.776C340.219 312.672 338.884 310.483 337.593 308.367C334.32 303.002 330.936 297.455 326.502 292.976C322.287 288.72 315.507 284.539 308.49 284.539M361.938 344C352.2 344 342.598 342.936 334.468 341.835C331.305 341.406 328.256 340.503 325.308 339.631L324.34 339.345C312.123 335.754 295.219 329.223 289.496 314.032C286.672 306.536 287.913 297.529 292.658 291.087C295.315 287.48 298.913 284.8 302.791 283.539C306.931 282.194 311.59 282.38 316.263 284.08C320.434 285.596 324.435 288.211 327.833 291.643C331.351 295.195 334.194 299.338 336.829 303.537C334.32 297.03 332.282 290.14 331.885 283.068C331.341 273.375 334.229 264.309 339.809 258.194C342.649 255.081 347.271 252.391 352.172 250.996C357.701 249.423 362.737 249.721 366.352 251.835C370.672 254.36 373.333 259.345 374.489 267.073C375.968 276.967 375.316 286.857 373.9 296.616C374.865 294.098 375.964 291.654 377.264 289.274C381.874 280.837 388.49 274.785 395.892 272.234C402.298 270.025 409.054 270.805 413.524 274.269C418.552 278.165 420.225 284.645 420.742 289.395C421.696 298.161 419.997 307.624 415.828 316.762C409.524 330.579 397.537 339.228 380.2 342.47C374.285 343.576 368.084 344 361.938 344" fill="#CCDDE2"/>
<path fill-rule="evenodd" clip-rule="evenodd" d="M369.66 326C366.956 326 365.152 325.523 365 325.482L365.503 323.687C365.575 323.707 372.708 325.563 379.908 321.431C386.134 317.859 390.596 310.985 393.17 301L395 301.458C392.292 311.963 387.523 319.231 380.826 323.059C376.689 325.423 372.631 326 369.66 326" fill="#CCDDE2"/>
<path fill-rule="evenodd" clip-rule="evenodd" d="M355.346 328C355.332 327.899 354.021 317.799 353.371 306.195C352.492 290.516 353.177 279.684 355.408 274L356.938 274.759C351.848 287.732 356.948 327.328 357 327.726L355.346 328Z" fill="#CCDDE2"/>
<path fill-rule="evenodd" clip-rule="evenodd" d="M335.686 325L335.424 324.957C329.113 323.933 323.413 322.28 318.943 320.175C311.681 316.757 308 312.324 308 307H309.865C309.865 311.511 313.181 315.359 319.721 318.439C324.039 320.472 329.57 322.073 335.716 323.069L336 323.116L335.686 325Z" fill="#CCDDE2"/>
<path fill-rule="evenodd" clip-rule="evenodd" d="M319.21 320C317.157 319.231 316.416 317.856 316.155 316.839C315.68 314.984 316.296 312.574 317.985 309.677C319.185 307.617 320.494 306.065 320.549 306L322 307.26C320.65 308.856 317.3 313.602 318.006 316.355C318.222 317.196 318.833 317.795 319.874 318.185L319.21 320Z" fill="#CCDDE2"/>
<path fill-rule="evenodd" clip-rule="evenodd" d="M316.529 329L315 327.907C315.645 327.026 316.789 326.989 318.115 326.946C320.519 326.869 323.812 326.762 326.32 322L328 322.855C324.982 328.585 320.722 328.723 318.177 328.805C317.589 328.824 316.699 328.852 316.529 329" fill="#CCDDE2"/>
<path fill-rule="evenodd" clip-rule="evenodd" d="M352.859 293C352.536 292.767 352.008 292.605 351.397 292.417C348.716 291.594 344.666 290.349 344 280.114L345.897 280C346.483 288.991 349.658 289.966 351.976 290.679C352.719 290.907 353.421 291.123 354 291.54L352.859 293Z" fill="#CCDDE2"/>
<path fill-rule="evenodd" clip-rule="evenodd" d="M354.612 305L354 303.291C354.082 303.262 362.198 300.22 362.198 294H364C364 297.138 362.355 300.044 359.244 302.404C356.964 304.134 354.707 304.966 354.612 305" fill="#CCDDE2"/>
<path fill-rule="evenodd" clip-rule="evenodd" d="M374.853 326L373 325.303C373.051 325.177 378.078 312.571 380.128 307L382 307.649C379.941 313.244 374.904 325.873 374.853 326" fill="#CCDDE2"/>
<path fill-rule="evenodd" clip-rule="evenodd" d="M392.821 315C389.939 315 388.034 313.655 388 313.63L389.181 312.255C389.372 312.391 393.944 315.533 399.611 310L401 311.201C397.961 314.167 395.089 315 392.821 315" fill="#CCDDE2"/>
<path fill-rule="evenodd" clip-rule="evenodd" d="M389.134 308C388.668 307.819 384.628 305.974 386.485 297L388.553 297.342C387.004 304.822 389.97 306.274 390 306.288L389.134 308Z" fill="#CCDDE2"/>
<path fill-rule="evenodd" clip-rule="evenodd" d="M411.08 274C410.731 264.131 407.372 254.648 401.364 246.575C396.854 240.519 393.089 237.03 390 234.416L391.259 233C394.429 235.684 398.294 239.265 402.918 245.473C409.152 253.849 412.638 263.692 413 273.935L411.08 274Z" fill="#CCDDE2"/>
<path fill-rule="evenodd" clip-rule="evenodd" d="M364.694 162L362.81 161.988C362.833 158.45 362.898 154.871 362.961 151.409C363.123 142.442 363.277 133.972 362.764 125.958C362.755 125.773 362.743 125.605 362.731 125.438C362.719 125.274 362.707 125.113 362.699 124.955C360.936 100.4 351.991 79.3336 337.514 65.654C328.722 57.3429 317.954 52.2506 305.51 50.519C294.204 48.9454 281.834 50.2998 269.741 54.4359C261.277 57.3159 252.771 61.4021 242.971 67.295L242 65.682C251.918 59.718 260.539 55.5786 269.132 52.6544C281.501 48.4239 294.17 47.0411 305.77 48.6545C318.61 50.4412 329.726 55.7005 338.809 64.2869C353.629 78.2901 362.782 99.7953 364.58 124.84C364.588 125.004 364.599 125.152 364.61 125.302C364.623 125.484 364.636 125.669 364.645 125.854C365.162 133.929 365.008 142.436 364.844 151.443C364.782 154.899 364.717 158.473 364.694 162" fill="#CCDDE2"/>
<path fill-rule="evenodd" clip-rule="evenodd" d="M57.4079 161L55.5514 160.709C57.1985 150.202 55.9803 140.187 54.6915 129.584C54.3299 126.613 53.9566 123.541 53.6462 120.437C51.605 99.9887 54.4365 80.4266 61.6183 65.3542C70.3206 47.0924 85.1745 36.1078 104.574 33.5884C115.808 32.1247 126.484 33.395 136.309 37.3649C145.521 41.0869 154.278 47.3046 162.337 55.8456C164.518 58.1566 166.653 60.6622 168.912 63.3148C170.24 64.8737 171.613 66.4862 173 68.0589L171.59 69.3018C170.193 67.7173 168.814 66.0986 167.481 64.534C165.237 61.8999 163.118 59.4118 160.97 57.1359C144.573 39.7578 126.205 32.6644 104.817 35.452C86.0805 37.8856 71.7297 48.5054 63.3151 66.1631C56.2783 80.9298 53.5088 100.138 55.5164 120.251C55.8244 123.334 56.1968 126.396 56.5569 129.357C57.8623 140.094 59.0957 150.235 57.4079 161" fill="#CCDDE2"/>
<path fill-rule="evenodd" clip-rule="evenodd" d="M39.2483 283C38.9199 282.854 31.1154 279.354 23.5773 272.53C13.5097 263.417 8.89243 252.738 10.2243 241.645C11.0254 234.921 13.864 228.361 19.1583 221L20.6678 222.1C15.567 229.192 12.836 235.474 12.0745 241.869C10.8022 252.465 15.0794 262.3 24.7866 271.102C32.1039 277.737 39.922 281.249 40 281.283L39.2483 283Z" fill="#CCDDE2"/>
<path fill-rule="evenodd" clip-rule="evenodd" d="M328.376 299.953C327.159 299.077 325.891 298.251 324.573 297.462C311.443 289.713 293.556 286.709 278.556 285.807C277.64 285.744 276.736 285.695 275.844 285.657C274.627 285.594 273.485 285.294 272.456 284.755C271.364 284.205 270.422 283.416 269.694 282.44C268.853 279.197 267.962 276.368 267.046 273.915L264.937 264.426C264.171 261.709 263.518 258.905 263.091 256.088C260.907 241.855 259.288 224.167 258.723 217.544C258.798 217.569 258.861 217.595 258.937 217.607L265.451 219.685C265.476 219.698 265.501 219.698 265.527 219.71C266.292 219.935 267.071 220.161 267.836 220.386C276.799 222.927 286.2 224.83 295.539 225.03C304.339 225.218 313.992 223.778 321.51 218.921C322.138 218.521 322.753 218.095 323.355 217.644C329.155 213.288 333.184 206.603 335.468 199.818C339.673 187.388 340.565 173.743 338.092 160.849C337.402 157.231 336.373 153.738 335.142 150.333C331.841 141.22 327.021 132.682 322.903 123.844C321.95 121.779 320.594 119.613 320.43 117.322C320.23 114.593 321.636 111.964 322.075 109.31C322.602 106.118 322.816 102.888 322.79 99.6585C322.753 95.8284 322.075 92.0101 320.619 88.4673C319.389 85.4756 317.205 80.4554 313.326 80.6433C312.083 76.675 310.025 72.0808 306.347 71.5677C305.305 71.4171 304.389 71.6926 303.648 72.2185C303.385 71.8304 303.083 71.4673 302.782 71.117C301.251 69.4019 298.364 67.862 296.041 68.7761C291.435 70.5911 293.543 76.9131 295.828 81.7075C294.636 81.457 293.43 81.3695 292.25 81.4693C289.564 81.7075 286.464 82.7839 285.422 85.3629C284.857 86.7651 285.058 89.3436 286.502 90.145C288.334 91.1462 290.581 90.483 292.414 91.4217C294.459 92.4731 295.238 95.2897 294.962 97.418C294.862 98.244 294.585 99.0829 293.995 99.6713C290.757 102.901 288.535 94.0002 287.305 92.5232C285.635 90.5204 283.188 90.8835 281.443 92.5734C278.004 95.8909 279.498 102.563 280.94 106.569C282.51 110.951 284.543 115.57 287.794 118.975C293.204 124.633 293.794 133.646 295.226 140.944C295.816 143.961 296.38 147.003 296.832 150.045C297.736 155.942 298.251 161.888 297.799 167.834C297.271 174.756 290.995 179.789 284.116 178.737C280.251 178.149 275.719 177.448 270.899 176.697C270.924 176.684 270.936 176.659 270.962 176.647C264.384 174.419 258.573 174.143 252.786 173.842C236.468 171.264 221.806 168.91 221.806 168.91C221.103 168.785 220.601 168.184 220.601 167.471L220.4 149.394C221.518 150.759 223.941 150.946 225.422 150.158C226.589 149.545 227.392 148.205 227.192 146.916V146.903C228.221 146.878 229.162 146.64 229.94 146.202C230.191 146.052 230.43 145.889 230.656 145.701C231.535 144.95 232.087 143.849 232.187 142.409C232.213 142.071 232.187 141.721 232.137 141.37C232.124 141.244 232.1 141.12 232.074 140.982C232.024 140.719 231.961 140.456 231.886 140.181C231.849 140.018 231.798 139.855 231.748 139.692C231.622 139.217 231.484 138.754 231.384 138.291V138.278C231.434 138.278 231.497 138.278 231.547 138.266C232.036 138.24 232.488 138.165 232.94 138.065C233.38 137.965 233.807 137.815 234.208 137.64C234.435 137.539 234.66 137.427 234.874 137.302C234.911 137.289 234.949 137.264 234.974 137.239C235.338 137.014 235.69 136.763 236.016 136.475C236.129 136.388 236.229 136.288 236.329 136.187C236.518 136.012 236.693 135.824 236.857 135.636C237.07 135.386 237.271 135.123 237.447 134.86C237.535 134.748 237.623 134.622 237.685 134.497C238.338 133.471 238.802 132.294 239.091 131.08C239.116 130.967 239.141 130.855 239.166 130.742C240.12 126.235 238.715 121.09 234.723 119.413C233.932 119.075 231.12 118.749 231.12 117.56C231.12 117.472 231.133 117.397 231.158 117.31C231.158 117.297 231.158 117.272 231.171 117.26C231.233 117.085 231.346 116.934 231.484 116.784C231.547 116.709 231.635 116.634 231.71 116.559C231.874 116.409 232.062 116.271 232.238 116.133C232.426 116.008 232.602 115.87 232.752 115.745C232.828 115.682 232.89 115.619 232.953 115.557C233.078 115.42 233.204 115.281 233.317 115.144C233.43 115.006 233.543 114.869 233.631 114.718C233.731 114.568 233.832 114.418 233.919 114.255C234.02 114.105 234.107 113.955 234.171 113.792C234.321 113.504 234.434 113.216 234.522 112.916C234.685 112.415 234.785 111.902 234.823 111.388C234.836 111.2 234.848 111.013 234.848 110.825C234.861 106.669 231.446 102.363 227.154 101.912C226.388 101.824 225.722 101.937 225.095 102.15C224.769 102.263 224.455 102.388 224.129 102.538C223.965 102.613 223.815 102.688 223.651 102.763C223.325 102.913 222.999 103.076 222.66 103.226C222.309 103.376 222.007 103.452 221.756 103.452C221.681 103.452 221.618 103.439 221.543 103.427C221.493 103.414 221.442 103.402 221.405 103.389C221.305 103.364 221.216 103.314 221.141 103.239C221.066 103.189 220.99 103.101 220.941 103.014C220.941 103.001 220.941 103.001 220.927 103.001C220.89 102.913 220.852 102.826 220.84 102.726C220.827 102.713 220.827 102.701 220.827 102.688C220.802 102.588 220.79 102.475 220.79 102.35C220.79 102.15 220.815 101.912 220.89 101.662C221.028 101.161 221.091 100.66 221.091 100.159C221.091 99.9719 221.078 99.7967 221.053 99.6088C221.028 99.3584 220.99 99.108 220.941 98.8575C220.526 97.0672 219.346 95.4151 217.827 94.3259C213.471 91.2588 205.312 91.2465 203.066 96.9299C203.015 97.0175 202.991 97.1051 202.953 97.1927C202.664 96.8547 202.375 96.5039 202.087 96.1536C201.886 96.0286 201.685 95.916 201.459 95.8156C198.446 94.5015 194.128 95.0644 191.932 97.631C190.111 99.7589 189.509 103.051 191.128 105.467C190.237 104.291 188.969 103.414 187.589 102.939C187.751 103.402 187.977 103.84 188.254 104.265C188.128 104.09 187.977 103.927 187.84 103.765C187.727 103.64 187.614 103.527 187.501 103.414C187.363 103.277 187.225 103.152 187.086 103.039C186.948 102.913 186.798 102.801 186.647 102.688C183.823 100.623 179.668 100.41 177.032 102.989C174.973 105.004 174.547 107.795 175.274 110.5C176.002 113.204 177.76 115.081 179.091 117.41C174.634 118.524 171.07 123.456 172.475 128.076C173.053 129.966 174.571 131.606 176.467 132.231C176.643 132.294 177.019 132.344 177.496 132.407C177.986 132.469 178.35 132.92 178.25 133.396C178.174 133.709 178.137 134.034 178.137 134.36C178.137 135.974 179.003 137.389 180.295 138.165C180.697 138.416 180.848 138.929 180.584 139.317C179.317 141.22 179.015 143.485 180.17 145.789C181.639 148.718 185.229 151.259 188.618 150.258C189.722 149.932 190.651 149.219 191.292 148.293C191.367 148.217 191.417 148.143 191.468 148.055C191.479 148.03 191.492 148.005 191.517 147.98C192.007 147.254 192.346 146.402 192.472 145.564C193.325 146.903 194.254 148.155 195.271 149.319C195.484 149.557 195.685 149.782 195.886 150.008L194.015 161.562L193.739 163.64C193.539 165.13 192.258 166.219 190.752 166.231C190.337 166.231 189.911 166.231 189.497 166.244V166.231C188.655 166.244 187.827 166.256 186.999 166.282C184.488 166.344 181.99 166.457 179.492 166.607C177.61 166.732 175.739 166.87 173.869 167.033C172.94 167.108 172.011 167.196 171.07 167.296C170.14 167.383 169.199 167.483 168.271 167.583C166.45 167.784 164.618 167.997 162.798 168.234C160.601 168.523 158.417 168.823 156.22 169.136C152.781 169.636 149.354 170.187 145.915 170.776V170.788C142.563 171.364 139.224 171.965 135.873 172.578C131.165 173.442 126.408 174.168 121.651 174.932C116.328 175.796 111.483 171.79 111.308 166.419C110.768 150.784 119.642 122.305 119.642 122.305C119.843 120.089 122.467 118.499 124.035 117.26C128.466 113.767 131.078 107.52 132.609 102.263C133.688 98.5072 134.718 93.1491 131.529 90.0697C129.785 88.3797 127.337 88.0167 125.667 90.0195C124.437 91.4965 122.216 100.397 118.977 97.1676C118.387 96.5792 118.111 95.7408 118.01 94.9143C117.734 92.786 118.513 89.9694 120.559 88.918C122.391 87.9793 124.638 88.6425 126.47 87.6413C127.914 86.8398 128.115 84.2613 127.55 82.8592C126.508 80.2802 123.408 79.2037 120.722 78.9656C119.542 78.8658 118.337 78.9533 117.144 79.2037C119.429 74.4094 121.538 68.0874 116.931 66.2724C114.609 65.3583 111.722 66.8982 110.19 68.6133C109.889 68.9636 109.588 69.3267 109.324 69.7148C108.584 69.1889 107.667 68.9139 106.626 69.0639C102.948 69.5771 100.889 74.1712 99.6461 78.1396C95.8051 77.9517 93.6335 82.8592 92.3908 85.8633C90.9725 89.2934 90.2444 92.9739 90.1817 96.6918C90.1319 100.635 90.3075 104.603 91.048 108.497C91.3617 110.174 91.9266 111.777 92.3286 113.416C92.7677 115.207 92.2907 116.984 91.6375 118.662C89.09 125.096 85.4996 131.117 82.8011 137.502C79.9265 144.275 77.4915 151.235 75.7969 158.407C72.4453 172.528 71.7547 187.5 75.6716 201.583C83.0774 228.197 120.596 219.46 142.086 211.986C151.073 208.869 157.262 205.965 157.262 205.965C157.262 205.965 157.312 208.03 157.312 211.523H157.325V212.011C157.3 216.718 156.885 254.511 150.509 282.239C150.383 282.452 150.32 282.565 150.295 282.602C150.345 282.565 150.446 282.565 150.509 282.903C149.806 284.43 148.262 285.431 146.529 285.431C131.253 285.369 66.9344 287.535 79.1234 328.958C81.4075 336.744 87.3698 341.752 95.7173 344.693C102.357 347.047 110.529 348.086 119.58 348.161H119.642C101.956 351.503 97.839 377.742 117.571 381.71C125.153 383.237 131.178 378.33 138.006 376.24C141.923 375.038 145.965 374.625 150.032 374.712C152.68 374.775 155.341 375.05 157.952 375.476C186.496 380.133 215.819 381.76 244.74 380.183C264.359 379.107 284.355 376.653 302.97 370.106C317.004 365.161 332.418 356.511 339.309 343.141C341.644 338.61 343.013 333.54 343 327.881C342.988 315.25 337.138 306.275 328.376 299.953" fill="white"/>
<path fill-rule="evenodd" clip-rule="evenodd" d="M32.7114 344L32 343.411L32.6387 342.823L32.6321 342H33.0054L34 342.813L32.7114 344Z" fill="#CCDDE2"/>
<path fill-rule="evenodd" clip-rule="evenodd" d="M267.093 272.841L264.989 263.338C264.226 260.617 263.575 257.81 263.149 254.989C260.97 240.734 259.355 223.02 258.791 216.388L265.578 218.557L263.199 213.279C263.199 213.279 255.398 187.002 271 175.431C259.718 171.582 250.677 173.563 240.121 171.13C236.052 170.19 231.757 169.35 227.011 168.573L223.58 167.971C223.443 177.311 216.944 179.43 211.61 180.445C198.462 182.965 189.333 173.362 189.734 165C175.134 165.163 160.709 167.094 146.259 169.551C148.125 175.03 152.057 191.452 141 210.872L142.44 210.822C151.406 207.7 157.579 204.791 157.579 204.791C157.579 204.791 157.629 206.86 157.629 210.358H157.641V210.847C157.616 215.56 157.203 253.409 150.842 281.178C150.354 282.081 150.736 280.968 150.848 281.971C150.823 282.096 150.469 282.497 150.066 284.425L150.37 283.198C148.657 285.654 152.946 288.637 159.144 290.142C175.347 294.103 264.664 301.024 269.71 284.425C269.998 283.484 270.023 282.469 269.735 281.379C268.896 278.132 268.007 275.298 267.093 272.841" fill="#353642"/>
<path fill-rule="evenodd" clip-rule="evenodd" d="M150 373.696C145.982 373.608 141.99 374.022 138.121 375.226C131.375 377.322 125.422 382.24 117.933 380.71C98.44 376.732 102.507 350.433 119.979 347.083H120.004C121.678 347.045 123.352 347.033 125.013 347.033H125.125C133.173 347.033 141.01 347.246 147.445 345C146.825 345.552 131.151 359.63 150 373.696" fill="#6D49D5"/>
<path fill-rule="evenodd" clip-rule="evenodd" d="M207.713 182C202.822 182 198.329 180.38 194.755 177.268C190.951 173.956 188.805 169.37 189.014 165L190.905 165.056L190.904 165.091C190.723 168.885 192.626 172.901 195.995 175.835C200.185 179.483 205.803 180.856 211.817 179.702C217.609 178.597 222.985 176.419 223.108 168.03L225 168.019V168.044C224.855 177.89 218.068 180.442 212.172 181.566C210.66 181.856 209.168 182 207.713 182" fill="black"/>
<path fill-rule="evenodd" clip-rule="evenodd" d="M120.903 382C119.903 382 118.878 381.905 117.824 381.691C107.574 379.62 103.962 371.935 104 365.434C104.048 357.361 109.525 348.157 119.902 346.187L120.077 346.17L120.091 347.183L120.252 348.038C110.873 349.818 105.923 358.143 105.88 365.445C105.837 372.895 110.44 378.278 118.195 379.844C123.139 380.845 127.384 378.925 131.881 376.894C133.895 375.984 135.978 375.043 138.135 374.38C141.887 373.223 145.914 372.709 150.436 372.806C152.987 372.867 155.691 373.129 158.475 373.585C187.136 378.283 216.218 379.868 244.913 378.295C276.153 376.573 292.903 371.731 302.785 368.238C326.296 359.914 335.278 348.004 338.54 341.646C340.927 336.99 342.131 331.985 342.12 326.77C342.109 315.512 337.328 306.342 327.91 299.514C326.756 298.679 325.501 297.853 324.18 297.059C310.509 288.952 291.884 286.298 278.667 285.5C277.754 285.437 276.852 285.387 275.977 285.35C274.608 285.28 273.34 284.94 272.197 284.339C270.98 283.722 269.942 282.847 269.122 281.744C268.34 280.717 267.794 279.537 267.506 278.248L262.356 254.889C260.096 240.088 258.441 221.503 257.988 216.16L259.861 216C260.313 221.325 261.961 239.835 264.209 254.574L269.341 277.84C269.569 278.859 270 279.791 270.623 280.61C271.274 281.486 272.091 282.174 273.058 282.664C273.971 283.144 274.978 283.412 276.066 283.468C276.947 283.506 277.866 283.557 278.788 283.62C292.204 284.43 311.144 287.139 325.142 295.441C326.513 296.265 327.813 297.121 329.01 297.987C338.945 305.19 343.988 314.873 344 326.767C344.012 332.285 342.738 337.58 340.211 342.507C336.822 349.114 327.536 361.473 303.411 370.015C293.42 373.546 276.497 378.44 245.016 380.176C216.183 381.757 186.965 380.164 158.171 375.444C155.473 375.002 152.856 374.748 150.393 374.69C146.078 374.593 142.244 375.084 138.687 376.18C136.642 376.81 134.615 377.726 132.654 378.611C128.954 380.282 125.152 382 120.903 382" fill="black"/>
<path fill-rule="evenodd" clip-rule="evenodd" d="M284.714 334.646C278.84 348.064 264.309 343.47 248.341 333.815C238.435 327.823 229.978 326.968 225 327.169C232.032 326.54 238.183 324.374 239.909 316.432C241.309 309.975 237.666 304.045 231.365 302.157C246.514 301.49 262.054 302.61 274.379 312.139C274.379 312.139 290.599 321.215 284.714 334.646" fill="#6D49D5"/>
<path fill-rule="evenodd" clip-rule="evenodd" d="M232.127 136.714C232.077 136.726 232.014 136.726 231.964 136.726C232.114 137.461 232.389 138.245 232.576 139.03C232.714 139.64 232.801 140.25 232.764 140.835C232.564 143.687 230.54 145.23 227.791 145.305C227.991 146.6 227.191 147.933 226.029 148.542C224.555 149.315 222.143 149.14 221.031 147.783C219.719 146.202 220.369 144.247 221.169 142.516V142.504C221.456 141.894 221.744 141.321 221.981 140.798C222.268 140.15 222.518 139.503 222.743 138.843C223.58 136.427 224.08 133.887 224.555 131.385C225.03 128.869 225.467 126.267 225.592 123.652C225.417 123.017 225.529 122.108 225.279 121.448C224.917 120.44 224.243 119.531 223.368 118.896C221.568 117.576 219.182 117.663 217.271 116.493C215.546 115.446 214.159 113.803 213.36 111.997C213.197 111.612 213.047 111.114 212.822 110.678C212.71 110.441 212.56 110.217 212.372 110.067C211.51 109.346 211.011 110.615 210.486 111.114C209.398 112.134 207.887 112.608 206.425 112.458H206.412C205.863 112.383 205.325 112.234 204.813 111.985C204.426 111.798 204.101 111.525 203.776 111.263C203.376 110.914 202.976 110.578 202.489 110.391C201.589 110.055 201.54 111.537 201.414 112.047C201.164 112.969 200.727 113.716 199.853 114.139C199.378 114.376 198.841 114.5 198.291 114.513C197.666 114.538 197.029 114.451 196.429 114.264C195.829 114.089 195.267 113.815 194.792 113.504C194.38 113.23 193.855 113.541 193.88 114.027C194.055 118.896 189.482 120.589 187.608 121.075C186.895 128.794 189.007 137.349 193.23 143.973C193.093 144.919 192.668 145.891 192.056 146.687C188.97 147.459 185.407 146.625 184.07 143.973C182.658 141.159 182.847 137.235 185.046 135.218C183.524 134.985 183.094 132.737 183.969 131.417C184.044 131.293 184.081 131.218 184.031 131.094C183.844 130.583 181.598 130.164 180.985 129.965C179.236 129.368 177.824 127.873 177.287 126.118C175.987 121.847 179.286 117.289 183.409 116.256C182.185 114.102 180.561 112.359 179.886 109.868C179.211 107.366 179.599 104.775 181.51 102.92C183.122 101.339 185.346 100.891 187.433 101.326C188.033 101.763 188.583 102.298 189.032 102.895C188.745 102.485 188.532 102.037 188.37 101.576C189.744 102.049 191.006 102.92 191.893 104.091C190.282 101.688 190.881 98.4129 192.693 96.2964C194.88 93.7435 199.178 93.1831 202.176 94.4907C202.402 94.5905 202.602 94.7026 202.801 94.8269C203.089 95.1758 203.376 95.5242 203.663 95.8604C203.701 95.7733 203.726 95.6862 203.776 95.5991C204.4 96.1966 204.938 96.8939 205.5 97.5536C207.449 92.038 215.184 92.0253 219.27 94.9017C220.219 95.5741 221.031 96.4956 221.568 97.5291C221.769 98.4505 221.769 99.3842 221.519 100.306C221.269 101.177 221.469 101.837 222.031 102.024C222.331 102.136 222.756 102.086 223.281 101.862C224.78 101.189 226.017 100.368 227.753 100.555C233.439 101.152 237.562 108.498 234.201 113.293C234.013 113.579 233.776 113.865 233.526 114.127C233.051 114.612 231.989 115.148 231.752 115.82C231.74 115.832 231.74 115.857 231.74 115.87C231.314 117.264 234.451 117.6 235.288 117.962C242.71 121.062 241.148 136.241 232.127 136.714" fill="#6D49D5"/>
<path fill-rule="evenodd" clip-rule="evenodd" d="M121.214 348C120.688 348 120.156 347.996 119.622 347.988H119.549C95.9164 347.785 81.9998 341.095 78.1782 328.105C75.283 318.264 76.4191 309.819 81.5559 303.007C95.4411 284.59 134.762 283.317 146.51 283.364C148.034 283.364 149.386 282.362 149.793 280.929C155.798 260.164 156.387 225.014 156.362 210.865C156.362 210.725 156.363 210.586 156.353 210.447L156.35 210.375C156.35 208.616 156.337 207.214 156.324 206.261C154.028 207.277 148.912 209.457 142.371 211.726C125.028 217.757 101.259 223.331 86.5184 215.634C80.5897 212.539 76.6209 207.509 74.7217 200.684C71.054 187.496 71.0934 172.808 74.8385 157.03C76.4291 150.296 78.7366 143.406 81.8939 135.969C83.1521 132.991 84.6211 130.056 86.0412 127.217C87.6769 123.948 89.3686 120.568 90.7241 117.145C91.2692 115.745 91.7743 114.089 91.3755 112.466C91.2236 111.844 91.0413 111.208 90.8651 110.592C90.5798 109.594 90.2835 108.561 90.0841 107.494C89.4222 104.016 89.1416 100.204 89.2019 95.5021C89.2679 91.5848 90.0352 87.8251 91.4828 84.3245C92.6798 81.4229 95.17 75.3815 100.138 76.0515C101.959 76.3001 103.458 77.3754 104.362 79.0795C105.464 81.1592 105.513 83.9415 104.484 86.0031C102.669 89.6226 101.313 94.7246 102.949 98.1949L101.244 98.9942C98.8259 93.8618 101.822 87.1111 102.798 85.1645C103.557 83.6446 103.516 81.5029 102.697 79.9574C102.264 79.1406 101.424 78.1226 99.8842 77.9123C96.7895 77.4966 94.7745 81.2804 93.2243 85.04C91.8664 88.3233 91.1471 91.8523 91.0854 95.53C91.0265 100.1 91.2967 103.792 91.9348 107.147C92.119 108.13 92.3897 109.076 92.6764 110.077C92.8569 110.709 93.0444 111.363 93.2053 112.02C93.7309 114.161 93.0923 116.25 92.478 117.829C91.0902 121.334 89.38 124.751 87.7267 128.056C86.3195 130.868 84.8642 133.776 83.6283 136.699C80.5128 144.04 78.2371 150.831 76.6717 157.461C73.0002 172.929 72.9546 187.303 76.5364 200.182C78.2912 206.487 81.9433 211.126 87.392 213.97C93.7836 217.307 109.344 221.222 141.751 209.952C150.585 206.888 156.779 203.995 156.84 203.966L158.148 203.353L158.182 204.793C158.183 204.814 158.233 206.897 158.233 210.341C158.245 210.515 158.245 210.69 158.245 210.863C158.271 225.091 157.674 260.452 151.604 281.445C150.969 283.679 148.872 285.242 146.506 285.242C140.309 285.213 128.033 285.548 115.411 288.05C99.6345 291.178 88.7504 296.59 83.0614 304.135C78.3012 310.448 77.2662 318.335 79.9858 327.576C83.5462 339.679 96.8598 345.915 119.557 346.11H119.612C121.368 346.135 123.06 346.119 124.675 346.061L124.823 346.06C131.539 345.873 139.115 345.189 147.316 344.028C173.555 340.341 201.454 332.533 220.238 326.632C220.298 326.614 221.52 326.248 223.65 326.054C224.09 326.005 224.617 325.965 225.199 325.938L225.293 325.938C230.649 325.72 239.148 326.714 249.034 332.685C261.573 340.255 270.6 343.008 276.631 341.1C279.872 340.075 282.256 337.732 283.918 333.938C289.377 321.501 274.18 312.831 274.026 312.745L273.909 312.669C261.391 303.005 245.534 302.324 231.675 302.934L231.621 302.935C227.573 303.11 223.48 303.433 219.523 303.745L217.921 303.871C201.233 305.201 184.533 306.52 167.842 307.838L164.158 308.129C160.217 308.444 156.275 308.757 152.333 309.069C148.453 309.376 144.572 309.684 140.692 309.994L140.542 308.122C144.423 307.811 148.303 307.504 152.184 307.197C156.125 306.884 160.067 306.572 164.009 306.256L167.694 305.966C184.384 304.647 201.083 303.329 217.772 301.999L219.374 301.873C223.348 301.559 227.458 301.235 231.581 301.058L231.633 301.057C245.774 300.435 262.021 301.146 275.013 311.145C276.165 311.819 291.581 321.163 285.644 334.691C283.778 338.95 280.937 341.709 277.201 342.89C270.532 345.002 261.271 342.268 248.058 334.292C238.573 328.563 230.464 327.606 225.331 327.815L225.242 327.816C224.746 327.84 224.259 327.876 223.84 327.923C221.903 328.1 220.805 328.423 220.793 328.427C201.953 334.346 173.945 342.183 147.579 345.888C139.31 347.058 131.662 347.748 124.849 347.938L124.709 347.938C123.588 347.979 122.413 348 121.214 348" fill="black"/>
<path fill-rule="evenodd" clip-rule="evenodd" d="M108.148 97C108.033 96.7711 105.377 91.3019 108.736 82.8356C109.92 79.8592 111.542 75.7849 110.934 72.2379C110.737 71.0584 110.121 70.0109 109.286 69.4323C108.662 68.9937 107.965 68.8281 107.213 68.9351C104.631 69.2917 102.549 72.0853 100.842 77.4768L99 76.9091C100.953 70.7437 103.55 67.5191 106.941 67.0508C108.178 66.8742 109.376 67.1597 110.4 67.8781C111.664 68.7538 112.554 70.2298 112.838 71.9245C113.48 75.6774 112.114 79.5559 110.532 83.5299C107.482 91.2203 109.853 96.1075 109.877 96.156L108.148 97Z" fill="black"/>
<path fill-rule="evenodd" clip-rule="evenodd" d="M113.48 94C113.371 93.812 110.842 89.3226 114.339 82.544C114.474 82.2823 114.632 81.9833 114.807 81.6522C115.355 80.6169 116.036 79.3281 116.706 77.8857C118.888 73.2327 119.603 69.8694 118.831 67.8855C118.506 67.0506 117.906 66.4674 116.997 66.1034C115.236 65.3991 112.736 66.6253 111.336 68.2179C111.075 68.526 110.791 68.8734 110.551 69.2322L109 68.1687C109.292 67.7309 109.618 67.3334 109.926 66.9693C111.784 64.8542 115.039 63.2803 117.684 64.3385C119.084 64.8983 120.055 65.8579 120.573 67.1894C121.556 69.7173 120.845 73.4809 118.399 78.6975C117.71 80.1806 116.986 81.5494 116.458 82.5488C116.286 82.8736 116.131 83.1673 115.998 83.4238C113.011 89.2149 115.009 92.8877 115.096 93.0413L113.48 94Z" fill="black"/>
<path fill-rule="evenodd" clip-rule="evenodd" d="M125.87 88.0516C125.283 88.1695 124.694 88.2135 124.115 88.2575C123.19 88.3271 122.316 88.3934 121.59 88.7669C120.016 89.5807 119.319 91.969 119.557 93.8076C119.621 94.3378 119.792 95.0574 120.252 95.518C120.57 95.8375 120.844 95.9791 121.076 95.9346C122.173 95.7253 123.502 92.653 124.217 91.0018C124.719 89.8411 125.116 88.9246 125.523 88.4337C125.635 88.2983 125.75 88.1709 125.87 88.0516M120.825 175C118.573 175 116.372 174.221 114.61 172.768C112.427 170.969 111.12 168.306 111.024 165.463C110.503 150.13 118.69 123.208 119.33 121.13C119.589 118.881 121.641 117.341 123.294 116.101C123.559 115.902 123.813 115.712 124.043 115.529C127.494 112.794 130.252 107.909 132.239 101.009C133.823 95.509 133.555 91.8288 131.421 89.7587C130.626 88.9833 129.685 88.5709 128.827 88.6116C128.121 88.6495 127.493 88.9932 126.962 89.6337C126.727 89.9177 126.306 90.891 125.935 91.7498C124.848 94.2602 123.496 97.3846 121.426 97.7794C120.825 97.894 119.904 97.8249 118.928 96.8459C118.255 96.1718 117.842 95.2283 117.699 94.041C117.376 91.541 118.314 88.3475 120.734 87.0973C121.797 86.5491 122.904 86.4658 123.975 86.3848C124.935 86.3124 125.841 86.2442 126.591 85.8319C127.457 85.349 127.7 83.3555 127.246 82.2227C126.174 79.5537 122.379 79.0159 121.241 78.9146C120.188 78.8242 119.082 78.8995 117.959 79.1362L117.574 77.2985C118.876 77.0239 120.165 76.9377 121.404 77.0443C123.208 77.2047 127.553 77.9622 128.984 81.5221C129.567 82.9797 129.507 85.3822 128.337 86.7758C128.465 86.7569 128.596 86.7436 128.728 86.7365C130.119 86.6613 131.54 87.2568 132.725 88.41C136.705 92.271 134.697 99.2403 134.038 101.531C131.94 108.814 128.968 114.02 125.204 117.002C124.962 117.194 124.695 117.395 124.416 117.604C123.035 118.641 121.316 119.931 121.183 121.404L121.145 121.598C121.057 121.881 112.376 150.102 112.895 165.4C112.973 167.704 114.032 169.861 115.799 171.318C117.553 172.764 119.847 173.385 122.093 173.02C123.172 172.845 124.252 172.671 125.33 172.499C128.913 171.924 132.619 171.33 136.22 170.663C140.134 169.942 143.31 169.373 146.217 168.871C159.237 166.649 174.734 164.369 190.961 164.3C192.008 164.292 192.87 163.544 193.007 162.523L193.282 160.446L195.152 148.866L197 149.166L195.134 160.72L194.863 162.771C194.604 164.698 192.932 166.162 190.972 166.178C174.877 166.246 159.476 168.513 146.533 170.722C143.635 171.222 140.465 171.791 136.559 172.51C132.937 173.181 129.22 173.776 125.626 174.353C124.549 174.526 123.47 174.698 122.393 174.874C121.871 174.958 121.347 175 120.825 175" fill="black"/>
<path fill-rule="evenodd" clip-rule="evenodd" d="M296.848 225C296.345 225 295.856 224.994 295.378 224.984C287.103 224.806 278.019 223.278 267.606 220.313C265.915 219.826 264.385 219.366 262.928 218.907C261.171 218.352 259.581 217.831 258.065 217.313C256.402 216.733 254.688 216.136 253 215.505L253.654 213.749C255.323 214.373 257.027 214.967 258.675 215.541C260.171 216.052 261.748 216.569 263.49 217.119C264.932 217.574 266.447 218.029 268.12 218.512C278.375 221.431 287.304 222.936 295.418 223.11C302.532 223.262 312.699 222.355 320.703 217.164C321.308 216.776 321.905 216.36 322.483 215.927C327.575 212.086 331.736 205.927 334.198 198.587C338.337 186.301 339.227 173.017 336.773 160.167C336.146 156.869 335.2 153.482 333.88 149.814C331.669 143.686 328.704 137.694 325.838 131.899C324.475 129.143 323.064 126.294 321.747 123.455C321.543 123.009 321.32 122.563 321.096 122.111C320.235 120.379 319.345 118.589 319.205 116.617C319.067 114.739 319.602 112.962 320.12 111.245C320.416 110.26 320.696 109.33 320.849 108.402C321.338 105.429 321.574 102.241 321.548 98.9286C321.51 95.0422 320.807 91.4011 319.459 88.1071C318.477 85.7094 316.448 80.7184 313.121 80.8796C312.978 80.8805 312.869 80.8918 312.761 80.9018C311.267 81.1077 310.431 82.1292 310 82.9489C309.176 84.5151 309.139 86.5976 309.908 88.1312C310.878 90.0754 313.856 96.8111 311.453 101.932L309.759 101.134C311.384 97.6724 310.037 92.5808 308.235 88.9708C307.208 86.9236 307.252 84.1522 308.344 82.0758C309.242 80.3669 310.737 79.2888 312.55 79.0403C312.759 79.02 312.925 79.0063 313.076 79.0063C317.652 78.7823 320.046 84.6006 321.191 87.3966C322.629 90.9111 323.379 94.7852 323.419 98.9126C323.446 102.334 323.202 105.628 322.696 108.707C322.523 109.755 322.212 110.788 321.911 111.786C321.422 113.412 320.959 114.948 321.072 116.482C321.185 118.086 321.992 119.708 322.771 121.276C323.004 121.745 323.235 122.209 323.446 122.667C324.753 125.483 326.157 128.322 327.514 131.067C330.405 136.909 333.393 142.95 335.641 149.178C336.994 152.941 337.966 156.42 338.612 159.816C341.126 172.981 340.213 186.594 335.971 199.184C333.391 206.879 329 213.357 323.608 217.424C322.992 217.887 322.355 218.329 321.716 218.74C313.861 223.834 304.114 225 296.848 225" fill="black"/>
<path fill-rule="evenodd" clip-rule="evenodd" d="M305.848 99L304.119 98.1556C304.141 98.1105 306.495 93.1573 303.467 85.5265C301.886 81.5525 300.52 77.674 301.163 73.9198C301.446 72.2286 302.337 70.7528 303.606 69.8739C304.623 69.1595 305.822 68.874 307.064 69.0511C310.45 69.5184 313.048 72.7429 315 78.9075L313.158 79.4751C311.451 74.0844 309.368 71.2911 306.792 70.9351C306.033 70.8262 305.338 70.9932 304.72 71.4279C303.88 72.0098 303.264 73.0572 303.066 74.2336C302.458 77.7815 304.08 81.8567 305.264 84.8323C308.623 93.2984 305.963 98.7711 305.848 99" fill="black"/>
<path fill-rule="evenodd" clip-rule="evenodd" d="M300.511 96L298.899 95.0338C298.983 94.886 300.989 91.2101 298.002 85.4201C297.871 85.1666 297.717 84.8758 297.547 84.5539C297.017 83.5532 296.292 82.1819 295.599 80.6919C293.155 75.4797 292.444 71.7158 293.427 69.1893C293.945 67.8577 294.917 66.8987 296.315 66.339C298.96 65.28 302.215 66.8542 304.062 68.9554C304.383 69.3338 304.709 69.7317 305 70.1675L303.45 71.2317C303.211 70.874 302.925 70.5262 302.652 70.2038C301.265 68.6254 298.763 67.3995 297.003 68.1035C296.094 68.4675 295.494 69.0506 295.169 69.8853C294.398 71.8684 295.112 75.2314 297.292 79.8807C297.965 81.3295 298.649 82.6205 299.197 83.658C299.371 83.9851 299.527 84.2812 299.661 84.5405C303.158 91.3187 300.621 95.812 300.511 96" fill="black"/>
<path fill-rule="evenodd" clip-rule="evenodd" d="M287.836 90.0154C287.955 90.1343 288.071 90.2612 288.183 90.3952C288.589 90.8844 288.986 91.7984 289.488 92.9548C290.202 94.6 291.531 97.6626 292.629 97.8716C292.854 97.916 293.134 97.7754 293.453 97.4564C293.912 96.9978 294.084 96.2802 294.147 95.7593C294.385 93.9192 293.689 91.5389 292.114 90.7273C291.389 90.3555 290.515 90.2895 289.59 90.2201C289.011 90.1762 288.422 90.1324 287.836 90.0154M286.127 178C285.472 178 284.813 177.95 284.15 177.849C263.282 174.653 222.594 168.119 222.186 168.053C221.028 167.846 220.2 166.856 220.2 165.694L220 147.687L221.872 147.667L222.072 165.684C222.072 165.952 222.248 166.163 222.499 166.208C222.891 166.271 263.573 172.804 284.434 175.999C287.463 176.463 290.449 175.67 292.846 173.765C295.232 171.871 296.732 169.035 296.964 165.985C297.354 160.839 297.051 155.273 296.01 148.467C295.535 145.258 294.94 142.101 294.42 139.434C294.171 138.16 293.952 136.866 293.721 135.497C292.639 129.086 291.52 122.457 287.272 118.003C283.75 114.306 281.671 109.276 280.253 105.308C279.112 102.134 276.897 94.3207 280.982 90.3706C282.166 89.2217 283.593 88.6296 284.978 88.7042C285.11 88.7112 285.241 88.7245 285.37 88.7433C284.199 87.3519 284.139 84.9589 284.722 83.5075C286.152 79.959 290.496 79.2041 292.297 79.0441C293.543 78.9379 294.83 79.0238 296.13 79.2975L295.744 81.1291C294.622 80.8927 293.515 80.8186 292.46 80.9087C291.326 81.0092 287.531 81.5457 286.459 84.2063C286.005 85.3344 286.248 87.3208 287.119 87.8053C287.864 88.2135 288.77 88.2814 289.731 88.3536C290.801 88.4343 291.907 88.5173 292.97 89.0632C295.391 90.3098 296.329 93.4927 296.005 95.9924C295.862 97.1686 295.448 98.109 294.777 98.7799C293.801 99.7556 292.881 99.8245 292.279 99.7103C290.208 99.3164 288.857 96.2023 287.77 93.6998C287.399 92.8444 286.978 91.8748 286.743 91.5912C286.212 90.9533 285.585 90.6108 284.878 90.573C284.021 90.5268 283.08 90.9439 282.286 91.7149C278.984 94.9072 280.997 101.842 282.015 104.676C283.372 108.473 285.348 113.27 288.628 116.712C293.271 121.581 294.491 128.808 295.567 135.185C295.796 136.543 296.013 137.825 296.257 139.075C296.781 141.763 297.382 144.948 297.862 148.189C298.924 155.135 299.232 160.836 298.831 166.127C298.56 169.695 296.803 173.012 294.011 175.23C291.725 177.046 288.982 178 286.127 178" fill="black"/>
<path fill-rule="evenodd" clip-rule="evenodd" d="M205.865 155C202.012 155 198.282 152.933 194.77 148.85C188.636 141.715 185.249 130.783 186.141 121L188.006 121.176C187.158 130.465 190.367 140.836 196.179 147.598C199.435 151.382 202.832 153.229 206.232 153.09C211.635 152.868 215.455 147.711 215.493 147.659L217 148.788C216.824 149.031 212.628 154.723 206.323 154.99C206.17 154.997 206.017 155 205.865 155" fill="black"/>
<path fill-rule="evenodd" clip-rule="evenodd" d="M224.339 125C224.071 124.482 224.035 123.884 224.001 123.307C223.978 122.932 223.955 122.544 223.866 122.295C223.553 121.415 222.988 120.635 222.275 120.099C221.454 119.483 220.439 119.199 219.364 118.899C218.316 118.605 217.232 118.302 216.22 117.667C214.356 116.495 212.827 114.686 211.915 112.571C211.837 112.39 211.763 112.184 211.687 111.969C211.579 111.663 211.437 111.263 211.288 111.043C211.202 111.146 211.105 111.277 211.035 111.371C210.883 111.578 210.725 111.792 210.537 111.974C208.752 113.705 205.979 114.145 203.793 113.044C203.296 112.793 202.891 112.443 202.535 112.134C202.306 111.936 202.086 111.746 201.866 111.603C201.831 111.758 201.803 111.928 201.784 112.036C201.754 112.211 201.726 112.366 201.697 112.483C201.351 113.832 200.68 114.745 199.643 115.273C197.904 116.157 195.706 115.721 194.166 114.876C193.971 120.119 188.988 122.292 186.28 122.71L186 120.799C186.263 120.758 192.47 119.711 192.286 114.322C192.265 113.716 192.569 113.158 193.076 112.866C193.577 112.579 194.187 112.607 194.668 112.937C195.796 113.71 197.579 114.165 198.808 113.541C199.35 113.265 199.67 112.802 199.877 111.992C199.896 111.917 199.911 111.817 199.93 111.704C200.038 111.075 200.199 110.124 200.925 109.697C201.302 109.476 201.753 109.449 202.197 109.62C202.831 109.865 203.317 110.285 203.746 110.656C204.047 110.916 204.332 111.162 204.622 111.308C206.118 112.063 208.019 111.759 209.245 110.569C209.32 110.496 209.431 110.347 209.537 110.203C209.881 109.737 210.352 109.099 211.117 109.009C211.427 108.974 211.899 109.02 212.397 109.447C212.971 109.938 213.24 110.699 213.456 111.309C213.516 111.48 213.573 111.645 213.635 111.788C214.393 113.547 215.66 115.049 217.202 116.018C217.985 116.51 218.895 116.764 219.858 117.034C221.051 117.367 222.283 117.712 223.386 118.54C224.395 119.298 225.193 120.396 225.633 121.631C225.816 122.145 225.849 122.7 225.878 123.189C225.897 123.508 225.923 123.944 226 124.093L224.339 125Z" fill="black"/>
<path fill-rule="evenodd" clip-rule="evenodd" d="M197.5 122.868C194.395 122.868 191.868 125.395 191.868 128.5C191.868 131.606 194.395 134.132 197.5 134.132C200.605 134.132 203.132 131.606 203.132 128.5C203.132 125.395 200.605 122.868 197.5 122.868M197.5 136C193.365 136 190 132.636 190 128.5C190 124.365 193.365 121 197.5 121C201.635 121 205 124.365 205 128.5C205 132.636 201.635 136 197.5 136" fill="black"/>
<path fill-rule="evenodd" clip-rule="evenodd" d="M214.5 121.868C211.395 121.868 208.868 124.395 208.868 127.5C208.868 130.606 211.395 133.132 214.5 133.132C217.605 133.132 220.132 130.606 220.132 127.5C220.132 124.395 217.605 121.868 214.5 121.868M214.5 135C210.365 135 207 131.636 207 127.5C207 123.365 210.365 120 214.5 120C218.635 120 222 123.365 222 127.5C222 131.636 218.635 135 214.5 135" fill="black"/>
<path fill-rule="evenodd" clip-rule="evenodd" d="M197.59 131H197.562C195.515 130.985 194.061 129.347 194 129.277L195.453 128.007C195.462 128.017 196.415 129.07 197.586 129.072H197.589C198.259 129.072 198.923 128.711 199.563 128L201 129.288C199.978 130.424 198.831 131 197.59 131" fill="black"/>
<path fill-rule="evenodd" clip-rule="evenodd" d="M214.59 131H214.562C212.515 130.985 211.061 129.347 211 129.277L212.453 128.007C212.462 128.017 213.415 129.07 214.586 129.072H214.589C215.259 129.072 215.923 128.711 216.563 128L218 129.288C216.978 130.424 215.831 131 214.59 131" fill="black"/>
<path fill-rule="evenodd" clip-rule="evenodd" d="M206.5 140.015C205.681 140.015 205.015 140.681 205.015 141.5C205.015 142.319 205.681 142.986 206.5 142.986C207.318 142.986 207.985 142.319 207.985 141.5C207.985 140.681 207.318 140.015 206.5 140.015M206.5 145C204.57 145 203 143.43 203 141.5C203 139.57 204.57 138 206.5 138C208.43 138 210 139.57 210 141.5C210 143.43 208.43 145 206.5 145" fill="black"/>
<path fill-rule="evenodd" clip-rule="evenodd" d="M204.511 129L203 127.907C203.083 127.749 203.853 126.359 205.257 126.057C206.172 125.86 207.095 126.172 208 126.982L206.916 128.626C206.431 128.192 205.984 128.013 205.589 128.094C204.943 128.226 204.516 128.992 204.511 129" fill="black"/>
<path fill-rule="evenodd" clip-rule="evenodd" d="M200.842 119C200.826 118.988 199.174 117.794 196.894 117.181C193.967 116.394 191.392 116.897 189.244 118.675L188 117.282C194.352 112.027 201.924 117.485 202 117.541L200.842 119Z" fill="black"/>
<path fill-rule="evenodd" clip-rule="evenodd" d="M209.585 120L208 118.967C212.215 111.488 220.913 114.665 221 114.698L220.389 116.579C220.369 116.571 218.462 115.873 216.176 115.981C213.228 116.118 211.011 117.47 209.585 120" fill="black"/>
<path fill-rule="evenodd" clip-rule="evenodd" d="M224.03 150C222.643 150 221.217 149.512 220.327 148.428C218.429 146.139 219.753 143.385 220.719 141.375C220.871 141.059 221.019 140.754 221.146 140.465C222.406 137.624 223.031 134.608 223.662 131.243C224.117 128.862 224.597 126.062 224.711 123.321L224.71 123.248H226.588V123.36C226.469 126.26 225.975 129.146 225.507 131.59C224.879 134.94 224.203 138.2 222.865 141.219C222.73 141.524 222.575 141.847 222.414 142.183C221.376 144.342 220.723 145.967 221.778 147.241C222.607 148.252 224.523 148.354 225.62 147.772C226.483 147.319 227.031 146.348 226.9 145.511L226.737 144.466L227.798 144.433C230.233 144.355 231.719 143.036 231.874 140.813C231.932 140.043 231.676 139.144 231.43 138.275C231.308 137.847 231.183 137.404 231.091 136.968L230.862 135.88L231.978 135.842C236.159 135.7 238.305 132.088 238.92 128.755C239.624 124.939 238.496 120.306 234.977 118.836C234.84 118.777 234.519 118.695 234.209 118.616C233.021 118.311 231.543 117.931 231.001 116.915C230.77 116.482 230.74 115.998 230.913 115.514C231.161 114.813 231.796 114.34 232.357 113.923C232.566 113.768 232.782 113.606 232.895 113.489C234.554 111.759 234.975 109.327 234.05 106.818C232.979 103.908 230.424 101.76 227.691 101.472C226.552 101.35 225.671 101.77 224.557 102.303C224.273 102.438 223.985 102.576 223.687 102.707C222.327 103.307 221.518 102.873 221.157 102.561C220.528 102.018 220.338 101.099 220.639 100.039C221.305 97.6384 219.787 95.056 217.942 93.7481C215.424 91.9743 211.617 91.3816 208.687 92.3091C207.254 92.7617 205.372 93.7967 204.535 96.1537L203.99 97.687L202.933 96.4465C202.777 96.2635 202.622 96.0768 202.467 95.8892C201.611 94.8556 200.801 93.8792 199.692 93.3935C197.004 92.2317 192.746 92.5481 190.565 95.09C188.983 96.9383 188.201 100.032 189.768 102.367L188.237 103.449C187.046 101.87 185.118 100.837 183.081 100.684C181.289 100.547 179.645 101.117 178.451 102.282C176.196 104.487 176.541 107.346 176.947 108.854C177.404 110.549 178.321 111.915 179.291 113.36C179.752 114.046 180.228 114.755 180.663 115.515L181.276 116.586L180.075 116.886C177.958 117.414 176.012 118.929 174.87 120.937C173.876 122.684 173.62 124.599 174.146 126.33C174.645 127.958 175.971 129.341 177.525 129.854C177.578 129.87 177.748 129.91 178.362 129.983C178.874 130.044 179.338 130.319 179.637 130.738C179.921 131.138 180.024 131.636 179.918 132.107C179.863 132.354 179.834 132.608 179.834 132.861C179.834 134.097 180.468 135.215 181.53 135.853C181.954 136.107 182.257 136.524 182.364 136.996C182.468 137.456 182.381 137.923 182.12 138.314C181.306 139.536 180.582 141.484 181.763 143.825C183.053 146.396 186.218 148.644 189.084 147.8C190.785 147.301 192.034 145.619 192.055 143.798L193.933 143.819C193.903 146.441 192.087 148.87 189.615 149.594C185.768 150.728 181.748 147.978 180.084 144.664C178.869 142.256 179.009 139.683 180.476 137.402C178.896 136.415 177.956 134.725 177.956 132.861C177.956 132.511 177.992 132.159 178.061 131.815C177.463 131.759 177.144 131.702 176.922 131.625C174.787 130.921 173.03 129.099 172.35 126.874C171.672 124.648 171.986 122.213 173.236 120.015C174.411 117.948 176.298 116.308 178.429 115.456C178.199 115.098 177.962 114.745 177.73 114.399C176.718 112.891 175.671 111.332 175.133 109.339C174.261 106.102 174.991 103.044 177.136 100.947C178.722 99.3986 180.888 98.6418 183.221 98.8186C184.577 98.9205 185.896 99.3335 187.061 99.9955C186.912 97.7304 187.794 95.4446 189.137 93.8759C191.912 90.6414 197.064 90.2194 200.443 91.6796C201.701 92.2294 202.626 93.1776 203.424 94.1121C204.428 92.4147 206.026 91.1883 208.119 90.5263C211.628 89.4169 216.013 90.0982 219.029 92.2228C221.849 94.221 223.253 97.6417 222.447 100.542C222.357 100.862 222.371 101.054 222.392 101.134C222.458 101.137 222.627 101.129 222.927 100.996C223.208 100.873 223.478 100.744 223.744 100.616C224.961 100.035 226.219 99.4334 227.891 99.6126C231.317 99.9733 234.502 102.61 235.814 106.174C236.977 109.332 236.394 112.549 234.255 114.779C234.034 115.01 233.753 115.219 233.48 115.422C233.246 115.596 232.827 115.908 232.709 116.091C233.026 116.381 234.213 116.685 234.677 116.804C235.09 116.91 235.446 117.002 235.709 117.113C240.344 119.05 241.581 124.681 240.768 129.093C239.913 133.725 236.997 136.944 233.189 137.595C233.205 137.651 233.221 137.708 233.237 137.766C233.529 138.791 233.829 139.852 233.747 140.948C233.545 143.846 231.666 145.806 228.771 146.223C228.61 147.528 227.764 148.761 226.5 149.424C225.796 149.798 224.921 150 224.03 150" fill="black"/>
<mask id="mask1_0_1675" style="mask-type:luminance" maskUnits="userSpaceOnUse" x="0" y="24" width="427" height="358">
<path fill-rule="evenodd" clip-rule="evenodd" d="M0 382H427V24H0V382Z" fill="white"/>
</mask>
<g mask="url(#mask1_0_1675)">
<path fill-rule="evenodd" clip-rule="evenodd" d="M0 345H96V343H0V345Z" fill="black"/>
<path fill-rule="evenodd" clip-rule="evenodd" d="M339 345H427V343H339V345Z" fill="black"/>
</g>
</svg>
