<svg width="200" height="58" viewBox="0 0 200 58" fill="none" xmlns="http://www.w3.org/2000/svg">
<path d="M161.739 21.7889H165.084C165.428 21.7889 165.685 22.0754 165.685 22.4573V48.1407C165.685 48.5226 165.428 48.809 165.084 48.809H152.645C152.302 48.809 152.045 48.5226 152.045 48.1407V22.5528C152.045 22.1708 152.302 21.8844 152.645 21.8844H155.991C156.334 21.8844 156.592 22.1708 156.592 22.5528V44.4171C156.592 44.799 156.849 45.0854 157.192 45.0854H160.452C160.795 45.0854 161.052 44.799 161.052 44.4171V22.5528C161.138 22.1708 161.396 21.7889 161.739 21.7889Z" fill="#6D49D5"/>
<path d="M177.781 21.7889H182.07C182.585 21.7889 183.014 22.2663 183.014 22.8392V47.9497C183.014 48.5226 182.585 49 182.07 49H179.239C178.725 49 178.296 48.5226 178.296 47.9497V28.4724C178.296 28.0904 177.867 27.8995 177.609 28.1859L172.805 35.3467C172.634 35.5377 172.548 35.8241 172.548 36.0151V47.9497C172.548 48.5226 172.119 49 171.604 49H168.773C168.259 49 167.83 48.5226 167.83 47.9497V22.8392C167.83 22.2663 168.259 21.7889 168.773 21.7889H171.604C172.119 21.7889 172.548 22.2663 172.548 22.8392V27.804C172.548 28.1859 172.977 28.3769 173.234 28.0904L177.009 22.0754C177.266 21.9799 177.524 21.7889 177.781 21.7889Z" fill="#6D49D5"/>
<path fill-rule="evenodd" clip-rule="evenodd" d="M199.314 21.7889H185.759C185.416 21.7889 185.073 22.1708 185.073 22.5528V48.1407C185.073 48.6181 185.416 48.9045 185.759 48.9045H189.019C189.448 48.9045 189.706 48.5226 189.706 48.1407V41.7437C189.706 41.3618 189.877 41.0754 190.22 40.9799L194.595 39.6432C194.939 39.5477 195.367 39.9296 195.367 40.407V48.1407C195.367 48.6181 195.711 48.9045 196.054 48.9045H199.314C199.743 48.9045 200 48.5226 200 48.1407V22.5528C200 22.0754 199.657 21.7889 199.314 21.7889ZM194.939 35.8241L190.563 37.1608C190.134 37.2563 189.706 36.8744 189.706 36.397V26.4673C189.706 25.9899 190.049 25.7035 190.392 25.7035H194.767C195.196 25.7035 195.453 26.0854 195.453 26.4673V35.0603C195.453 35.4422 195.282 35.7286 194.939 35.8241Z" fill="#6D49D5"/>
<path fill-rule="evenodd" clip-rule="evenodd" d="M149.214 11H133.944C133.429 11 133.086 11.3819 133 11.9548V48.0452C133 48.6181 133.429 49 133.858 49H137.032C137.547 49 137.89 48.5226 137.89 48.0452V38.9749C137.89 38.4975 138.147 38.1156 138.49 38.0201L140.292 37.4472C140.721 37.3518 141.15 37.5427 141.321 38.0201L144.753 48.4271C144.839 48.7136 145.182 49 145.525 49H148.871C149.471 49 149.814 48.3317 149.643 47.7588L146.04 36.7789C145.868 36.206 146.125 35.6332 146.64 35.5377L149.471 34.6784C149.814 34.4874 150.072 34.1055 150.072 33.7236V11.9548C150.072 11.3819 149.643 11 149.214 11ZM144.581 30.4774L139.005 32.2915C138.49 32.4824 137.89 32.1005 137.89 31.4322V17.397C137.89 16.8241 138.319 16.4422 138.748 16.4422H144.324C144.839 16.4422 145.182 16.9196 145.182 17.397V29.6181C145.182 30 144.924 30.3819 144.581 30.4774Z" fill="#6D49D5"/>
<path d="M78.4054 48.6181L75.2919 43.7487C75.0324 43.3668 74.5135 43.3668 74.2541 43.7487L71.1405 48.6181C71.0541 48.809 70.7946 48.9045 70.6216 48.9045H65.6054C65.2595 48.9045 65 48.6181 65 48.2362V11.6683C65 11.2864 65.2595 11 65.6054 11H69.2378C69.5838 11 69.8432 11.2864 69.8432 11.6683V38.9749C69.8432 39.6432 70.6216 39.9296 70.9676 39.3568L72.1784 37.4472C72.2649 37.3518 72.2649 37.1608 72.2649 37.0653V11.6683C72.2649 11.2864 72.5243 11 72.8703 11H76.5892C76.9351 11 77.1946 11.2864 77.1946 11.6683V37.0653C77.1946 37.2563 77.1946 37.3518 77.2811 37.4472L78.4919 39.3568C78.8378 39.9296 79.6162 39.6432 79.6162 38.9749V11.6683C79.6162 11.2864 79.8757 11 80.2216 11H83.8541C84.2 11 84.4595 11.2864 84.4595 11.6683V48.2362C84.4595 48.6181 84.2 48.9045 83.8541 48.9045H78.7514C78.6649 48.9045 78.4919 48.809 78.4054 48.6181Z" fill="#6D49D5"/>
<path fill-rule="evenodd" clip-rule="evenodd" d="M101.93 48.2362V22.4573C101.93 22.0754 101.67 21.789 101.324 21.6935H88.0919C87.7459 21.6935 87.4865 21.9799 87.4865 22.3618V48.1407C87.4865 48.5226 87.7459 48.8091 88.0919 48.8091H91.5513C91.8973 48.8091 92.1567 48.5226 92.1567 48.1407V40.2161C92.1567 39.7387 92.5027 39.4523 92.8486 39.5478L96.827 40.9799C97.0865 41.0754 97.2594 41.3618 97.2594 41.6483V48.2362C97.2594 48.6181 97.5189 48.9045 97.8648 48.9045H101.324C101.67 48.9045 101.93 48.6181 101.93 48.2362ZM97.2594 26.3719V36.4925C97.2594 36.9699 96.9135 37.2563 96.481 37.1608L92.5027 35.7287C92.2432 35.6332 92.0702 35.3467 92.0702 35.0603V26.3719C92.0702 25.99 92.3297 25.7035 92.6756 25.7035H96.654C97 25.7035 97.2594 25.99 97.2594 26.3719Z" fill="#6D49D5"/>
<path d="M109.368 22.3618V32.1005C109.368 33.0553 110.492 33.4372 110.924 32.5779L116.978 22.2663C117.151 21.9799 117.411 21.7889 117.757 21.7889H120.784C121.476 21.7889 121.908 22.6482 121.562 23.3166L115.941 32.8643C115.768 33.1507 115.768 33.5327 115.854 33.8191L121.822 47.3769C122.081 48.0452 121.649 48.809 121.043 48.809H118.103C117.757 48.809 117.411 48.6181 117.324 48.2362L113.259 38.8794C113.086 38.4975 112.654 38.4975 112.481 38.7839L109.541 41.3618C109.454 41.4573 109.454 41.5528 109.454 41.6482V48.3317C109.454 48.6181 109.281 48.809 109.022 48.809H105.303C105.043 48.809 104.87 48.6181 104.87 48.3317V40.598V22.3618C104.87 22.0754 105.043 21.8844 105.303 21.8844H109.022C109.195 21.7889 109.368 22.0754 109.368 22.3618Z" fill="#6D49D5"/>
<path d="M129 22.8392V47.9497C129 48.5226 128.568 49 128.049 49H125.195C124.676 49 124.243 48.5226 124.243 47.9497V22.8392C124.243 22.2663 124.676 21.7889 125.195 21.7889H128.049C128.568 21.7889 129 22.2663 129 22.8392Z" fill="#6D49D5"/>
<path fill-rule="evenodd" clip-rule="evenodd" d="M29.9511 21.6099L52.7668 12.4863C53.3834 12.2981 53.912 12.6744 54.0001 13.3328V29.0405C54.0001 29.4168 53.7358 29.793 53.3834 29.8871L41.3149 34.7781C40.6102 35.0603 40.5221 36.0949 41.2268 36.4712L53.5596 43.0552C53.8239 43.2434 54.0001 43.5255 54.0001 43.9018V48.0403C54.0001 48.4166 53.7358 48.7928 53.3834 48.8869L49.5074 50.3918C49.3312 50.4859 49.0669 50.3918 48.8027 50.2977L37.7032 43.4315C37.0865 43.1493 36.3818 43.5255 36.3818 44.278V54.9066C36.3818 55.2828 36.1175 55.6591 35.7651 55.7531L30.4797 57.9165C29.9511 58.1986 29.3345 57.7284 29.3345 57.0699V22.4565C29.3345 22.0802 29.5987 21.704 29.9511 21.6099ZM37.527 29.3227L46.248 25.9366C46.6004 25.8426 46.7766 25.4663 46.7766 25.0901V24.0554C46.7766 23.397 46.1599 23.0208 45.6314 23.2089L36.9103 26.595C36.6461 26.6891 36.3818 27.0653 36.3818 27.4415V28.4762C36.3818 29.1346 36.9984 29.5108 37.527 29.3227Z" fill="#6D49D5"/>
<path d="M52.062 9.38233L28.8059 0.0705438C28.6297 -0.0235146 28.3654 -0.0235146 28.1892 0.0705438L5.19739 9.10015C4.40457 9.38233 4.58075 10.0407 5.02121 10.2289L19.292 15.9664C19.4682 16.0605 19.6444 16.0605 19.9086 15.9664L25.8108 13.615C26.075 13.5209 26.1631 13.1447 25.8989 13.0506L17.7945 9.6645C17.4421 9.57044 17.0016 9.10015 17.8825 8.72392L27.925 4.77346C28.5416 4.49129 28.894 4.67941 29.0701 4.77346L39.553 8.91203C40.522 9.28827 41.0506 9.47638 39.2007 10.2289L20.261 17.8476C20.1729 17.8476 20.0848 17.9416 19.9967 18.0357C19.9086 18.1298 19.7325 18.3179 19.7325 18.506V45.2186C19.7325 45.5948 19.3801 45.877 19.0277 45.6889L17.6183 45.1245C17.2659 45.0305 17.0897 44.6542 17.0897 44.278V18.0357C17.0897 17.6595 16.8254 17.2832 16.4731 17.1892L11.0114 15.0258C10.4829 14.8377 9.86623 15.308 9.86623 15.8724V41.3622C9.86623 41.7384 9.51387 42.0206 9.1615 41.9265L7.84013 41.4562C7.48776 41.3622 7.22349 40.9859 7.22349 40.6097V13.9912C7.22349 13.615 6.95922 13.2387 6.60685 13.1447L1.14519 11.0754C0.616639 10.8873 0 11.3576 0 11.9219V46.9116C0 47.2879 0.264274 47.6641 0.616639 47.7582L25.8989 57.8224C26.4274 58.0105 27.044 57.5402 27.044 56.9759V21.4218C27.044 21.0456 27.3083 20.6693 27.5726 20.5753L52.1501 10.6991C52.9429 10.3229 52.7667 9.6645 52.062 9.38233Z" fill="#6D49D5"/>
<path d="M28.982 6.37245L35.5008 9.00609C35.7651 9.10015 35.7651 9.47638 35.5008 9.57044L28.982 12.2041C28.6297 12.3922 28.1892 12.3922 27.8368 12.2041L21.3181 9.57044C21.0538 9.47638 21.0538 9.10015 21.3181 9.00609L27.8368 6.46651C28.2773 6.27839 28.7178 6.27839 28.982 6.37245Z" fill="#6D49D5"/>
</svg>
