<svg width="86" height="88" viewBox="0 0 86 88" fill="none" xmlns="http://www.w3.org/2000/svg">
<path fill-rule="evenodd" clip-rule="evenodd" d="M43 18.125C36.1655 18.125 30.625 23.6655 30.625 30.5C30.625 37.3345 36.1655 42.875 43 42.875C49.8345 42.875 55.375 37.3345 55.375 30.5C55.375 23.6655 49.8345 18.125 43 18.125ZM37.375 30.5C37.375 27.3934 39.8934 24.875 43 24.875C46.1066 24.875 48.625 27.3934 48.625 30.5C48.625 33.6066 46.1066 36.125 43 36.125C39.8934 36.125 37.375 33.6066 37.375 30.5Z" fill="#5B40C8"/>
<path fill-rule="evenodd" clip-rule="evenodd" d="M43 0.125C26.2243 0.125 12.625 13.7244 12.625 30.5C12.625 35.3199 13.7476 39.8776 15.7456 43.9258L0.55835 70.2309L19.0007 72.0379L29.7867 87.1059L42.9913 64.2349L56.1958 87.1059L66.9819 72.0379L85.4242 70.2309L70.2463 43.942C72.2493 39.8897 73.375 35.3263 73.375 30.5C73.375 13.7244 59.7756 0.125 43 0.125ZM11.6414 64.5345L19.9018 50.227C24.3268 55.4032 30.4613 59.0742 37.431 60.3656L29.1784 74.6595L22.7068 65.6187L11.6414 64.5345ZM66.0877 50.2391C61.6602 55.4128 55.524 59.0807 48.5532 60.3685L56.8041 74.6595L63.2758 65.6187L74.3411 64.5345L66.0877 50.2391ZM19.375 30.5C19.375 17.4523 29.9522 6.875 43 6.875C56.0477 6.875 66.625 17.4523 66.625 30.5C66.625 43.5477 56.0477 54.125 43 54.125C29.9522 54.125 19.375 43.5477 19.375 30.5Z" fill="#5B40C8"/>
</svg>
