<svg width="376" height="346" viewBox="0 0 376 346" fill="none" xmlns="http://www.w3.org/2000/svg">
<path fill-rule="evenodd" clip-rule="evenodd" d="M345.852 204.634C346.932 197.647 347.273 190.534 346.777 183.343C343.404 134.329 325.942 70.866 290.894 35.1661C280.154 24.2264 266.931 16.1138 252.114 12.1114C218.549 3.04434 186.693 0.789333 161.256 28.7855C144.776 46.923 141.841 70.0838 129.437 90.0993C105.907 128.068 51.4262 137.419 42.2554 185.916C35.5304 221.478 56.8853 256.34 81.008 280.67C105.344 305.214 137.837 322.398 172.204 326.826C180.536 327.899 188.961 328.249 197.354 327.824C260.373 324.631 335.712 270.179 345.852 204.634" fill="#EBEFFF"/>
<path fill-rule="evenodd" clip-rule="evenodd" d="M88.0027 113.999C88.001 114 87.9993 114 87.9976 114.001C88.0003 114 88.002 113.999 88.0027 113.999" fill="#CCDDE2"/>
<path fill-rule="evenodd" clip-rule="evenodd" d="M43.1763 176L41 175.8C41.7877 168.108 43.8293 160.757 47.0676 153.952C47.3791 153.291 47.7114 152.634 48.0537 152L50 152.943C49.6755 153.545 49.3601 154.169 49.0628 154.799C45.9211 161.402 43.9411 168.534 43.1763 176" fill="#CCDDE2"/>
<path fill-rule="evenodd" clip-rule="evenodd" d="M76.5513 256C73.2 252.947 69.9866 249.738 67 246.458L68.59 245C71.5318 248.23 74.6974 251.392 78 254.399L76.5513 256Z" fill="#CCDDE2"/>
<path fill-rule="evenodd" clip-rule="evenodd" d="M354.992 165.124C355.017 167.208 354.98 169.317 354.892 171.439C354.301 184.57 351.487 198.14 344.451 209.2C343.183 211.221 341.75 213.167 340.18 215C325.204 213.029 322.98 197.776 305.692 189.152C284.962 178.795 251.014 182.498 251.014 182.498L267.737 167.083C266.845 120.659 232.734 123.509 232.734 123.509L231 127.752C232.319 123.91 233.651 120.333 234.995 117.006C235.02 116.943 235.045 116.893 235.071 116.83C250.851 77.6252 267.234 72.7669 279.948 67.1052C282.914 66.4024 286.017 66.0132 289.233 66.0007C321.786 65.825 340.896 98.9538 349.251 125.618C351.337 132.271 354.528 146.482 354.955 162.463C354.98 163.342 354.992 164.233 354.992 165.124" fill="#2E2E2E"/>
<path fill-rule="evenodd" clip-rule="evenodd" d="M373.521 339.614C371.013 343.1 366.871 345 362.605 345H313.561C309.743 345 306.025 343.502 303.493 340.671C303.467 340.671 303.48 340.659 303.48 340.659C303.306 340.482 303.143 340.294 302.993 340.092C301.421 338.117 300.486 335.802 300.224 333.398C299.974 331.146 301.634 329.145 303.879 329.245C305.701 329.321 307.086 330.743 307.248 332.454C307.26 332.631 307.285 332.807 307.31 332.983C307.485 333.977 307.922 334.921 308.595 335.739C308.895 336.091 309.232 336.405 309.594 336.682C310.667 337.462 312.014 337.865 313.361 337.865H362.816C364.588 337.865 366.347 337.173 367.508 335.802C368.867 334.178 369.279 332.064 368.631 330.089L346.548 263.849C346.361 263.333 346.161 262.843 345.911 262.364C343.279 256.765 337.64 253.153 331.402 253.229C322.107 253.342 310.304 253.367 309.194 253.367C284.466 253.291 273.201 253.279 267 253.443C267.424 251.882 268.21 250.486 269.246 249.303C269.258 249.29 269.27 249.278 269.27 249.265C270.743 247.616 272.864 246.698 275.059 246.522C284.229 245.767 293.312 244.382 302.133 241.967C317.703 237.713 332.55 230.415 342.867 218.675C347.708 213.176 351.538 206.682 353.996 199.082C355.842 193.356 356.903 187.379 357.39 181.377C357.552 179.477 357.652 177.564 357.689 175.639V175.551C357.701 175.111 357.714 174.658 357.714 174.217C357.739 171.461 357.676 168.731 357.34 166C359.984 165.988 362.642 167.12 364.538 169.008C364.713 169.448 364.825 169.914 364.912 170.392C364.987 170.832 365.025 171.298 365.025 171.751V225.608C365.025 233.347 361.893 240.343 356.853 245.389C352.561 249.68 351.338 256.186 353.372 261.912L375.318 327.773C376.665 331.901 375.991 336.192 373.521 339.614" fill="#6D49D5"/>
<path fill-rule="evenodd" clip-rule="evenodd" d="M68 337.938V187H77V338L68 337.938Z" fill="#2E2E2E"/>
<path fill-rule="evenodd" clip-rule="evenodd" d="M251.215 184L251 182.202L251.314 182.173C257.709 181.566 264.957 180.88 272 181.018L271.955 182.825C265.042 182.689 257.863 183.369 251.529 183.97L251.215 184Z" fill="black"/>
<path fill-rule="evenodd" clip-rule="evenodd" d="M237.255 346H172.676V344.951C172.676 341.285 173.969 337.725 176.05 335.66C178.372 333.326 181.477 332.038 184.789 332.038H190.231C186.716 321.915 165.275 260.156 164.501 257.937L164.478 257.87C161.199 248.429 161.173 237.767 164.406 227.848C167.606 218.032 173.839 209.372 181.957 203.465C190.685 197.104 201.232 192.508 215.147 189L215.66 191.034C202.015 194.474 191.699 198.963 183.195 205.16C167.098 216.873 160.061 238.752 166.462 257.182L166.457 257.184C166.776 258.077 169.372 265.553 192.699 332.744L193.183 334.136H184.789C182.041 334.136 179.464 335.204 177.535 337.143C176.023 338.643 175.022 341.167 174.816 343.902H234.417L211.23 268.159C210.824 266.852 210.618 265.493 210.618 264.121C210.618 256.547 216.805 250.384 224.41 250.384C226.153 250.433 227.852 250.483 229.54 250.533C241.128 250.876 252.072 251.2 263.909 250.687L264 252.782C252.088 253.299 241.104 252.974 229.478 252.63C227.791 252.58 226.094 252.53 224.38 252.482C217.963 252.482 212.718 257.703 212.718 264.121C212.718 265.282 212.893 266.432 213.237 267.541L237.255 346Z" fill="black"/>
<path fill-rule="evenodd" clip-rule="evenodd" d="M356 173H353.906V172.912C353.272 155.875 352.397 140.624 348.111 126.914C343.265 111.432 335.918 97.4166 327.422 87.4494C316.475 74.6054 303.708 68.0938 289.475 68.0938C289.39 68.0938 289.307 68.0942 289.222 68.0946C286.186 68.1066 283.149 68.4685 280.192 69.1701C255.698 74.9934 242.081 102.383 236.145 118.191C236.119 118.255 236.102 118.294 236.085 118.332L236.063 118.383C235.273 120.486 234.52 122.655 233.83 124.813C233.339 126.336 232.754 127.771 232.038 129.201L231.962 129.354C226.31 140.522 214.684 147.007 202.295 145.877C184.016 144.216 160.433 142.636 140.148 145.179C117.454 148.024 102.949 155.289 95.8026 167.388L94 166.323C101.498 153.629 116.508 146.033 139.888 143.101C160.37 140.533 184.1 142.121 202.485 143.792C213.973 144.838 224.762 138.844 230.043 128.508V128.324L230.236 128.123C230.872 126.835 231.395 125.541 231.836 124.173C232.536 121.984 233.301 119.782 234.109 117.63C234.134 117.567 234.153 117.525 234.171 117.483L234.193 117.433C238.854 105.021 244.983 94.0535 251.911 85.7382C260.179 75.812 269.532 69.5523 279.708 67.1324C282.821 66.3942 286.018 66.0133 289.212 66.0004C289.301 66 289.39 66 289.478 66C304.351 66 317.652 72.7585 329.015 86.0909C337.689 96.2681 345.181 110.544 350.11 126.288C354.473 140.247 355.358 155.644 355.999 172.873L356 173Z" fill="black"/>
<path fill-rule="evenodd" clip-rule="evenodd" d="M225.664 193C213.876 193 202.472 189.452 191.415 186.012C188.374 185.066 185.229 184.088 182.151 183.21C173.056 180.613 166.628 178.356 159.822 175.965C154.748 174.183 149.501 172.341 143.023 170.336C138.809 169.032 134.442 168.333 130.043 168.257L115.016 168.374L115 166.24L130.052 166.124C134.673 166.203 139.235 166.934 143.636 168.295C150.152 170.311 155.417 172.161 160.509 173.949C167.285 176.329 173.685 178.576 182.72 181.155C185.821 182.041 188.978 183.023 192.031 183.972C203.779 187.627 215.936 191.405 228.332 190.802C245.679 189.958 256.189 178.66 267.317 166.699C268.639 165.278 270.006 163.808 271.376 162.366C277.866 155.537 283.924 148.685 289.381 142L291 143.361C285.509 150.088 279.415 156.98 272.889 163.847C271.527 165.281 270.163 166.746 268.845 168.164C257.418 180.447 246.625 192.048 228.432 192.933C227.508 192.978 226.584 193 225.664 193" fill="black"/>
<path fill-rule="evenodd" clip-rule="evenodd" d="M232.077 335L231.204 333.057C232.787 332.343 234.485 331.981 236.252 331.981H241.51C238.291 325.774 226.011 302.309 216 286.122L217.809 285C229.421 303.777 244.058 332.274 244.204 332.559L245 334.112H236.252C234.788 334.112 233.384 334.411 232.077 335" fill="black"/>
<path fill-rule="evenodd" clip-rule="evenodd" d="M291 346H224V343.906H287.52L239.481 251.959L241.365 251L291 346Z" fill="black"/>
<path fill-rule="evenodd" clip-rule="evenodd" d="M302.49 330.291C301.81 330.291 301.189 330.561 300.725 331.058C300.185 331.637 299.929 332.443 300.021 333.271C300.265 335.503 301.148 337.623 302.574 339.405C304.812 342.224 308.468 343.905 312.355 343.905H361.528C365.616 343.905 369.391 342.06 371.628 338.969L371.629 338.967C373.913 335.821 374.516 331.863 373.282 328.107L351.281 262.456C349.07 256.266 350.537 249.37 355.026 244.908C360.11 239.847 362.91 233.108 362.91 225.932V172.242C362.91 171.846 362.877 171.438 362.812 171.065C362.209 167.561 358.911 164.664 355.183 164.169C355.431 166.781 355.447 169.286 355.429 171.249C355.429 171.688 355.417 172.149 355.404 172.598L355.405 172.657C355.367 174.608 355.265 176.556 355.1 178.466C354.577 184.888 353.416 190.907 351.65 196.35C349.242 203.756 345.417 210.452 340.28 216.253C330.783 226.998 316.871 234.916 298.93 239.789C290.677 242.036 281.736 243.532 271.598 244.363C269.572 244.524 267.782 245.348 266.546 246.687C266.518 246.726 266.486 246.765 266.45 246.803C265.009 248.43 264.181 250.5 264.096 252.669C269.828 252.474 280.345 252.47 307.98 252.557C309.333 252.557 321.12 252.53 330.23 252.42C337.473 252.337 343.96 256.873 346.411 263.699L368.56 329.754C369.324 332.068 368.83 334.573 367.241 336.459C365.928 338.004 363.924 338.887 361.74 338.887H312.155C309.922 338.887 307.887 337.977 306.573 336.389C305.657 335.299 305.106 333.964 304.985 332.535C304.868 331.313 303.844 330.345 302.605 330.294C302.566 330.292 302.528 330.291 302.49 330.291M361.528 346H312.355C307.77 346 303.61 344.073 300.943 340.713C299.27 338.623 298.232 336.128 297.945 333.501C297.785 332.067 298.242 330.654 299.199 329.627C300.113 328.648 301.36 328.143 302.694 328.201C304.968 328.295 306.848 330.077 307.065 332.347C307.151 333.352 307.534 334.282 308.175 335.045C309.096 336.158 310.545 336.793 312.155 336.793H361.74C363.311 336.793 364.736 336.177 365.649 335.103C366.779 333.762 367.119 332.053 366.578 330.417L344.439 264.388C342.315 258.473 336.691 254.513 330.419 254.513C330.364 254.513 330.309 254.514 330.254 254.514C321.136 254.625 309.335 254.652 307.977 254.652C279.754 254.563 269.409 254.568 263.758 254.777H263.757C262.771 254.777 262 253.998 262 253.041C262 250.338 262.943 247.736 264.664 245.672V245.651L264.933 245.352C266.53 243.574 268.837 242.481 271.43 242.275C281.437 241.455 290.254 239.981 298.384 237.767C315.925 233.003 329.495 225.297 338.717 214.863C343.663 209.278 347.346 202.831 349.664 195.702C351.38 190.414 352.508 184.556 353.019 178.291C353.179 176.423 353.279 174.521 353.316 172.636L353.316 172.569C353.329 172.11 353.34 171.668 353.34 171.239C353.361 169.02 353.337 166.108 352.974 163.177L352.828 162.007L354.004 162H354.064C359.289 162 364.029 165.815 364.871 170.709C364.955 171.199 364.999 171.728 364.999 172.242V225.932C364.999 233.671 361.98 240.938 356.496 246.395C352.581 250.288 351.308 256.323 353.254 261.77L375.264 327.446C376.712 331.855 376.002 336.501 373.318 340.199C370.69 343.831 366.282 346 361.528 346" fill="black"/>
<mask id="mask0_0_12266" style="mask-type:luminance" maskUnits="userSpaceOnUse" x="0" y="174" width="143" height="14">
<path fill-rule="evenodd" clip-rule="evenodd" d="M0 174H143V188H0V174Z" fill="white"/>
</mask>
<g mask="url(#mask0_0_12266)">
<path fill-rule="evenodd" clip-rule="evenodd" d="M6.7975 176.173C4.2128 176.173 2.11016 178.338 2.11016 181C2.11016 183.662 4.2128 185.827 6.7975 185.827H136.203C138.787 185.827 140.89 183.662 140.89 181C140.89 178.338 138.787 176.173 136.203 176.173H6.7975ZM136.203 188H6.7975C3.04922 188 0 184.86 0 181C0 177.14 3.04922 174 6.7975 174H136.203C139.951 174 143 177.14 143 181C143 184.86 139.951 188 136.203 188V188Z" fill="black"/>
</g>
<path fill-rule="evenodd" clip-rule="evenodd" d="M48.2794 339.977C47.0857 339.977 46.1148 340.884 46.1148 342C46.1148 343.116 47.0857 344.024 48.2794 344.024H100.721C101.914 344.024 102.885 343.116 102.885 342C102.885 340.884 101.914 339.977 100.721 339.977H48.2794ZM100.721 346H48.2794C45.9199 346 44 344.206 44 342C44 339.795 45.9199 338 48.2794 338H100.721C103.08 338 105 339.795 105 342C105 344.205 103.08 346 100.721 346V346Z" fill="black"/>
<path fill-rule="evenodd" clip-rule="evenodd" d="M63.1623 172.11C63.3337 173.608 64.3606 175.01 69.0836 175.013L130.993 174.974H130.996C133.148 174.974 134.898 173.453 134.901 171.581L134.899 171.503C134.86 169.673 133.128 168.183 131.039 168.181C131.036 168.181 96.9912 168.067 70.2673 167.991C69.6368 169.148 68.4964 170.179 66.866 171.063C65.6923 171.7 64.3202 172.009 63.1623 172.11V172.11ZM69.0836 177C63.8195 176.997 61.1119 175.219 61.0358 171.716L61 170.122L62.1084 170.158C63.0696 170.191 64.6168 169.993 65.8229 169.339C67.3077 168.534 68.2372 167.637 68.5862 166.674L68.8299 166L69.5823 166.002C96.406 166.078 131.044 166.194 131.044 166.194C134.262 166.197 136.934 168.56 136.998 171.46L137 171.56C136.995 174.55 134.303 176.961 130.998 176.961H130.993L69.0836 177Z" fill="black"/>
<path fill-rule="evenodd" clip-rule="evenodd" d="M32.1013 112.101C31.4685 112.101 30.8281 112.225 30.235 112.487C28.9179 113.07 28.0825 114.24 28.108 115.466V115.466C28.118 115.936 28.2546 116.399 28.5027 116.805L57.3144 165.082C57.8403 165.954 58.8089 166.586 59.9702 166.812C60.9246 166.994 61.9184 166.888 62.7617 166.513C64.0817 165.929 64.9171 164.759 64.8916 163.533C64.8891 163.409 64.8733 163.27 64.8424 163.097C64.7814 162.783 64.6632 162.472 64.4919 162.186L35.6849 113.917C34.9965 112.768 33.57 112.101 32.1013 112.101M60.8875 169C60.448 169 60.0065 168.959 59.5708 168.876C57.8202 168.536 56.3398 167.546 55.5053 166.16L26.697 117.889C26.2613 117.176 26.0182 116.35 26.0011 115.51C25.9572 113.434 27.2838 111.494 29.3799 110.566C32.3248 109.264 35.9651 110.285 37.4952 112.841L66.3023 161.11C66.5993 161.605 66.8056 162.145 66.915 162.713C66.9685 163.01 66.994 163.253 66.999 163.49C67.0416 165.565 65.7154 167.505 63.6189 168.433C62.7768 168.808 61.8378 169 60.8875 169" fill="black"/>
<path fill-rule="evenodd" clip-rule="evenodd" d="M105.589 167L104 165.499C104.158 165.365 107.981 162.15 116.73 157L118 158.727C109.42 163.778 105.627 166.968 105.589 167" fill="black"/>
<path fill-rule="evenodd" clip-rule="evenodd" d="M117.072 128C115.724 128 114.37 127.558 113.246 126.656C111.898 125.574 111.082 123.969 111.006 122.253C110.93 120.538 111.602 118.869 112.85 117.675L115.056 115.564C115.156 115.434 115.255 115.322 115.346 115.221L131.078 98.264C134.865 94.187 140.353 92.3054 145.763 93.2322C145.843 93.2452 145.928 93.2598 146 93.274L145.594 95.2792C145.542 95.2691 145.479 95.259 145.416 95.2484C140.698 94.4411 135.91 96.0853 132.601 99.6472L116.886 116.586C116.822 116.657 116.75 116.735 116.688 116.822L116.559 116.972L114.288 119.145C113.465 119.932 113.022 121.033 113.072 122.165C113.121 123.296 113.66 124.354 114.549 125.068C116.206 126.397 118.621 126.212 120.049 124.645L132.484 111.006L133.97 112.429L133.958 112.441L121.585 126.015C120.389 127.326 118.735 128 117.072 128" fill="black"/>
<path fill-rule="evenodd" clip-rule="evenodd" d="M150.804 118H138.375C134.86 118 132 114.86 132 111C132 107.14 134.86 104 138.375 104H156V106.273H138.375C136.001 106.273 134.07 108.393 134.07 111C134.07 113.607 136.001 115.727 138.375 115.727H150.804V118Z" fill="black"/>
<path fill-rule="evenodd" clip-rule="evenodd" d="M133.232 125C130.714 125 128.127 124.386 126 123.384L126.925 121.559C130.58 123.282 136.042 123.725 138.966 121.149C140.104 120.152 140.754 118.757 140.899 117L143 117.161C142.811 119.45 141.931 121.297 140.386 122.651C138.506 124.306 135.908 125 133.232 125" fill="black"/>
<path fill-rule="evenodd" clip-rule="evenodd" d="M221.274 136C218.39 136 215.37 135.43 212.421 134.29C205.941 131.78 200.589 127.373 195.413 123.111C193.834 121.811 192.201 120.466 190.575 119.21C182.663 113.073 174.406 107.594 166.032 102.924C158.419 98.6825 149.594 94.0332 141.209 92.5497C131.356 90.8063 124.199 93.7935 119.327 101.682C117.003 105.437 115.776 110.951 119.303 115.164L117.696 116.487C114.922 113.172 113.426 107.258 117.547 100.599C129.982 80.4651 154.099 93.9011 167.055 101.118C175.521 105.84 183.866 111.377 191.859 117.577C193.51 118.852 195.155 120.207 196.747 121.517C201.795 125.674 207.015 129.972 213.18 132.361C218.431 134.389 223.883 134.456 228.139 132.544L229 134.43C226.67 135.477 224.034 136 221.274 136" fill="black"/>
<path fill-rule="evenodd" clip-rule="evenodd" d="M162.588 143C149.693 130.985 138.116 122.742 138 122.661L139.2 121C139.317 121.083 151 129.399 164 141.512L162.588 143Z" fill="black"/>
<path fill-rule="evenodd" clip-rule="evenodd" d="M245.736 19.3279C247.861 21.2408 251.121 21.3415 253.821 21.0876C257.271 20.7742 260.686 19.9502 264.066 19.2559L266.116 19.1507C266.13 19.1466 266.144 19.1424 266.144 19.1424C267.795 19.1122 269.099 20.5105 269.111 22.1298C269.131 24.9532 268.965 30.0804 267.795 35.1338L271.728 37.2343C272.235 35.8327 271.663 33.8176 272.869 33.6664C273.642 32.2454 274.793 31.3217 276.595 32.3779C280.128 34.4519 281.521 40.5289 278.117 43.315L280.301 47.34C281.871 50.252 285.305 51.656 288.499 50.7041C287.179 47.8215 286.272 45.8436 286.272 45.8436C291.502 46.7566 295.161 40.3206 293.564 36.3888C292.481 33.6888 292.533 31.5892 293.993 28.9649C294.09 28.7873 293.105 28.5409 293.188 28.3674C293.238 26.4442 292.696 24.3818 291.76 23.3951C290.106 21.6396 286.777 21.3174 287.457 18.658C287.737 17.5024 287.891 16.2801 287.788 15.1046C287.501 12.0485 285.615 8.99203 283.04 7.2878C280.29 5.5016 277.209 7.1197 274.266 7.07333C270.693 7.03606 268.133 4.04663 264.391 4.00067C262.527 3.975 261.025 4.69089 259.441 5.57985C258.103 6.33591 256.791 7.12881 255.514 7.98589C254.298 8.79494 253.106 9.58246 251.583 9.58909C249.599 9.61476 247.678 8.37013 245.683 8.95021C244.6 9.25826 243.773 9.86195 243.184 10.6478C242.53 13.6869 243.677 17.4846 245.736 19.3279" fill="#6D49D5"/>
<path fill-rule="evenodd" clip-rule="evenodd" d="M286.91 52C283.974 52 281.174 50.4414 279.74 47.8217L277.544 43.8304C277.305 43.3961 277.413 42.858 277.803 42.5433C279.347 41.2978 279.442 39.4327 279.362 38.4316C279.194 36.3361 278.006 34.3063 276.407 33.3803C275.947 33.1154 275.562 33.0217 275.262 33.103C274.792 33.23 274.392 33.8014 274.14 34.2582C273.687 35.0811 273.37 36.1249 273.096 37.1302C272.946 37.6839 272.362 38.0138 271.793 37.8663C271.224 37.7197 270.885 37.1519 271.036 36.5986C271.343 35.4717 271.704 34.2894 272.262 33.2789C272.913 32.0962 273.731 31.3654 274.69 31.1057C275.573 30.867 276.517 31.033 277.496 31.5983C279.698 32.8726 281.265 35.4915 281.487 38.2701C281.653 40.327 281.044 42.2019 279.803 43.5424L281.621 46.8457C282.958 49.2883 285.904 50.4792 288.626 49.6802C289.19 49.5146 289.784 49.8252 289.954 50.3728C290.124 50.9208 289.805 51.4992 289.242 51.6648C288.471 51.8911 287.685 52 286.91 52" fill="black"/>
<path fill-rule="evenodd" clip-rule="evenodd" d="M294.988 69C294.599 69 294.228 68.7555 294.061 68.3447C293.65 67.3343 293.164 66.1503 292.645 64.8836C292.076 63.4964 291.468 62.0109 290.871 60.5467L289.751 57.8097C288.608 55.0152 287.621 52.6024 287.22 51.6834L285.089 46.5484C284.86 45.9953 285.088 45.3453 285.598 45.0968C286.106 44.8483 286.707 45.0946 286.937 45.6477L289.059 50.7631C289.462 51.6873 290.454 54.1119 291.602 56.9189L292.723 59.6572C293.319 61.1223 293.927 62.6061 294.495 63.9916C295.016 65.2605 295.502 66.4466 295.914 67.4588C296.139 68.0136 295.907 68.6619 295.396 68.9064C295.263 68.97 295.124 69 294.988 69" fill="black"/>
<path fill-rule="evenodd" clip-rule="evenodd" d="M258.265 32C257.321 30.3272 255.76 29.3533 253.623 29.1056C251.927 28.9102 250.496 29.2597 250.482 29.2633L250 27.2771C250.07 27.2597 251.741 26.8429 253.78 27.0651C256.577 27.3703 258.728 28.7237 260 30.9783L258.265 32Z" fill="black"/>
<path fill-rule="evenodd" clip-rule="evenodd" d="M250.001 44C248.761 44 247.433 43.6854 246.461 42.5946L246 42.078L249.249 35.3015C249.856 34.034 250.008 32.5603 249.676 31.1528C249.578 30.7393 249.458 30.2926 249.331 29.8199C248.6 27.1035 247.599 23.3833 249.221 20L251.126 20.8962C249.836 23.5865 250.686 26.7442 251.369 29.2817C251.502 29.7768 251.628 30.2446 251.73 30.6776C252.17 32.5437 251.965 34.5042 251.154 36.1977L248.556 41.6168C249.355 42.0469 250.595 42.0064 252.444 41.5059L253 43.5211C252.374 43.6908 251.23 44 250.001 44" fill="black"/>
<path fill-rule="evenodd" clip-rule="evenodd" d="M255.912 31.3687C256.895 32.0077 257.283 33.2559 256.78 34.1566C256.276 35.0577 255.071 35.2703 254.088 34.6313C253.105 33.9923 252.717 32.7441 253.22 31.8434C253.724 30.9423 254.929 30.7297 255.912 31.3687" fill="black"/>
<path fill-rule="evenodd" clip-rule="evenodd" d="M264.697 73L263 56.1859L265.303 56L267 72.8145L264.697 73Z" fill="black"/>
<path fill-rule="evenodd" clip-rule="evenodd" d="M270.985 39C270.441 39 270 38.5356 270 37.9631C270 37.8752 270.003 37.7864 270.007 37.6976C270.009 37.6376 270.012 37.5776 270.012 37.5184C270.012 37.4983 270.012 37.4782 270.014 37.458L270.02 37.3487C270.025 37.2534 270.032 37.1617 270.03 37.0656C270.015 36.4931 270.443 36.0163 270.987 36.0007C271.519 35.9793 271.984 36.4364 271.999 37.0088C272.003 37.1679 271.995 37.3191 271.986 37.4769L271.982 37.548C271.981 37.6274 271.978 37.7075 271.975 37.7876C271.972 37.8464 271.97 37.9052 271.97 37.9631C271.97 38.5356 271.529 39 270.985 39" fill="black"/>
<path fill-rule="evenodd" clip-rule="evenodd" d="M271.949 39C271.782 39 271.612 38.9617 271.454 38.8815L267.548 36.8722C267.039 36.6088 266.851 36.0034 267.128 35.52C267.405 35.0366 268.044 34.8581 268.552 35.1219L272.446 37.1249C272.957 37.3848 273.149 37.989 272.875 38.474C272.686 38.8093 272.323 39 271.949 39" fill="black"/>
<path fill-rule="evenodd" clip-rule="evenodd" d="M256.659 51L256 49.0615C259.866 47.5843 260.051 44.1458 260.057 44L262 44.0682C261.995 44.2703 261.803 49.0349 256.659 51" fill="black"/>
<path fill-rule="evenodd" clip-rule="evenodd" d="M286.343 46C285.953 46 285.56 45.9665 285.165 45.8988L285.534 43.8706C287.931 44.2828 289.556 42.8242 290.314 41.9183C291.815 40.1223 292.369 37.6676 291.661 35.9491C290.428 32.9183 290.568 30.5448 292.145 27.7535C292.228 27.6041 292.301 27.4507 292.376 27.2972C293.263 25.3927 292.97 23.495 291.524 21.8194C291.118 21.3485 290.625 20.9441 290.149 20.5531C288.889 19.5178 287.321 18.2298 287.976 15.6781C288.271 14.5203 288.377 13.4185 288.291 12.4039C288.035 9.64199 286.295 6.82453 283.858 5.23379C282.312 4.23805 280.589 4.52453 278.597 4.8559C277.55 5.02975 276.478 5.20849 275.367 5.1938C273.318 5.16483 271.611 4.34252 269.961 3.54756C268.392 2.7926 266.911 2.07925 265.202 2.05967C263.618 2.04946 262.328 2.58529 260.621 3.53002C259.109 4.37721 257.81 5.16401 256.656 5.93326C255.362 6.7825 253.901 7.7411 251.994 7.74804H251.95C250.995 7.74804 250.103 7.52522 249.24 7.30934C248.117 7.02898 247.147 6.78699 246.214 7.05347C244.258 7.61378 243.54 9.18411 243.283 10.4027C242.714 13.0038 243.714 16.4036 245.51 17.9878C246.984 19.2958 249.364 19.7765 252.785 19.4602C255.519 19.2154 258.293 18.6351 260.975 18.074C261.624 17.9381 262.272 17.8022 262.919 17.6716L263.08 17.6512L265.194 17.5385C266.211 17.5202 267.222 17.9046 267.981 18.6232C268.773 19.3733 269.233 20.4237 269.242 21.5044C269.26 24.1659 269.11 29.4001 267.898 34.5584L265.833 34.1001C266.997 29.1442 267.141 24.0904 267.123 21.5191C267.119 20.9861 266.893 20.4678 266.503 20.0985C266.171 19.7851 265.751 19.6092 265.311 19.5978L265.241 19.6043L263.272 19.7035C262.656 19.8287 262.039 19.9577 261.421 20.0871C258.677 20.6613 255.841 21.2546 252.983 21.5105C248.936 21.8851 246.023 21.2314 244.084 19.5113C241.715 17.4214 240.479 13.3238 241.209 9.98152C241.736 7.48482 243.302 5.74105 245.614 5.0779C247.107 4.65022 248.52 5.00363 249.767 5.3146C250.536 5.50681 251.263 5.68841 251.954 5.68841C251.963 5.68841 251.973 5.68841 251.982 5.68841C253.249 5.68392 254.325 4.97792 255.464 4.2303C256.659 3.43452 258.003 2.61957 259.568 1.7434C261.188 0.846005 262.965 -0.0224118 265.227 0.000441316C267.419 0.0253348 269.189 0.877836 270.901 1.70218C272.407 2.42736 273.828 3.11213 275.399 3.13458C276.3 3.14519 277.244 2.99175 278.239 2.82606C280.37 2.47184 282.783 2.07068 285.034 3.52104C287.985 5.44763 290.09 8.86376 290.402 12.2268C290.508 13.4723 290.383 14.7982 290.032 16.1751C289.709 17.4341 290.221 17.916 291.516 18.9799C292.036 19.4064 292.624 19.89 293.147 20.496C295.125 22.7874 295.535 25.5085 294.301 28.1566C294.202 28.3603 294.112 28.546 294.007 28.7365C292.733 30.9908 292.632 32.7371 293.63 35.1872C294.625 37.6019 293.953 40.8307 291.958 43.2172C290.448 45.0222 288.45 46 286.343 46" fill="black"/>
<path fill-rule="evenodd" clip-rule="evenodd" d="M259.396 60C258.587 60 257.773 59.882 256.963 59.6189C249.46 57.1765 249.016 44.5863 249 44.0512C248.985 43.4869 249.442 43.0166 250.024 43.0008C250.615 42.9781 251.09 43.4301 251.107 43.994C251.11 44.1107 251.522 55.69 257.633 57.6788C260.738 58.6898 264.19 56.6799 266.54 54.8164C269.211 52.6979 271.086 50.2948 271.105 50.2705C271.454 49.8193 272.115 49.7285 272.58 50.0682C273.045 50.4083 273.138 51.0496 272.788 51.5008C272.489 51.8867 266.113 60 259.396 60" fill="black"/>
<path fill-rule="evenodd" clip-rule="evenodd" d="M78 338H75.9611V188.1H69.0385V337.938H67V186H78V338Z" fill="black"/>
<path fill-rule="evenodd" clip-rule="evenodd" d="M66.5566 95.7674C72.5032 101.535 81.9994 101.39 87.7672 95.4433C93.535 89.4966 93.3901 80.0004 87.4435 74.2326C81.4968 68.4648 72.0003 68.6101 66.2324 74.5567C60.4651 80.5034 60.61 89.9996 66.5566 95.7674" fill="#6D49D5"/>
<path fill-rule="evenodd" clip-rule="evenodd" d="M70.1257 89.4585C69.6546 89.1329 69.2373 88.7498 68.8902 88.3038C67.6328 86.6867 67.7009 84.456 69.1361 82.982C70.08 82.0129 71.3826 81.6053 72.6324 81.7565C72.4425 80.5176 72.8115 79.2082 73.7554 78.2387C75.4293 76.5199 78.2647 76.606 79.8471 78.3965C81.0956 79.8089 81.6835 81.9055 81.9034 83.746C82.0185 84.7079 82.0279 85.6815 81.9468 86.6466C81.9061 87.1358 81.735 89.9405 81.2774 90.1158C78.2593 91.2731 73.1129 91.5224 70.1257 89.4585" fill="white"/>
<path fill-rule="evenodd" clip-rule="evenodd" d="M78.1721 123.519C74.0403 125.081 71.9569 129.696 73.5189 133.828C75.0808 137.96 79.6961 140.043 83.8279 138.481C87.9597 136.919 90.0431 132.304 88.4811 128.172C86.9192 124.04 82.3039 121.957 78.1721 123.519" fill="#6D49D5"/>
<path fill-rule="evenodd" clip-rule="evenodd" d="M80.6222 127.352C80.8659 127.213 81.1238 127.11 81.3954 127.051C82.3797 126.835 83.3608 127.324 83.7188 128.255C83.9543 128.866 83.864 129.519 83.5355 130.034C84.1282 130.206 84.6351 130.637 84.8705 131.249C85.288 132.334 84.6576 133.555 83.5281 133.877C82.6373 134.131 81.5791 133.956 80.7116 133.673C80.2584 133.525 79.822 133.328 79.4086 133.094C79.1986 132.976 77.983 132.323 78.0002 132.087C78.1138 130.53 79.0776 128.232 80.6222 127.352" fill="white"/>
<path fill-rule="evenodd" clip-rule="evenodd" d="M121.425 79.2992C122.288 80.0136 123.265 80.6153 124.34 81.0711C128.192 82.7057 132.917 82.1554 136.249 79.6376C137.558 78.6489 138.696 77.2858 140.058 76.2915C141.032 75.5791 142.115 75.0815 143.335 74.9802C143.73 74.9478 144.15 74.9486 144.486 74.7408C145.392 74.1804 144.322 73.2541 144.226 72.5977C144.073 71.558 144.39 70.4826 144.973 69.6187C147.023 66.5882 147.561 62.6056 146.39 59.1476C145.219 55.6901 142.364 52.8347 138.885 51.641C135.405 50.4477 131.378 50.9424 128.299 52.9421C125.996 54.4373 124.287 56.6525 122.552 58.77C121.022 60.6375 119.424 62.4804 118.302 64.6129C115.662 69.628 117.203 75.8081 121.425 79.2992" fill="#6D49D5"/>
<path fill-rule="evenodd" clip-rule="evenodd" d="M133.917 61.4351C134.986 62.3092 136.561 62.1515 137.435 61.0827C138.309 60.0139 138.152 58.439 137.083 57.5649C136.014 56.6908 134.439 56.8485 133.565 57.9173C132.691 58.9861 132.848 60.561 133.917 61.4351" fill="white"/>
<path fill-rule="evenodd" clip-rule="evenodd" d="M128.917 66.4351C129.986 67.3092 131.561 67.1515 132.435 66.0827C133.309 65.0139 133.152 63.439 132.083 62.5649C131.014 61.6908 129.439 61.8485 128.565 62.9173C127.691 63.9861 127.848 65.561 128.917 66.4351" fill="white"/>
<path fill-rule="evenodd" clip-rule="evenodd" d="M123.917 73.4351C124.986 74.3092 126.561 74.1515 127.435 73.0827C128.309 72.0139 128.152 70.439 127.083 69.5649C126.014 68.6908 124.439 68.8485 123.565 69.9173C122.691 70.9861 122.848 72.561 123.917 73.4351" fill="white"/>
<path fill-rule="evenodd" clip-rule="evenodd" d="M202.841 47.2858C202.434 49.3341 201.129 51.1901 199.119 52.2477L176.647 64.1444C173.075 66.0369 168.647 64.6844 166.762 61.1278L148.852 27.5211C146.963 23.9779 148.321 19.5655 151.876 17.6835C151.876 17.6835 174.352 5.79521 174.361 5.79018C177.746 3.99952 182.413 5.35707 184.232 8.80352L202.146 42.3968C202.983 43.9529 203.183 45.6719 202.841 47.2858" fill="#6D49D5"/>
<path fill-rule="evenodd" clip-rule="evenodd" d="M196.327 43.9147L174.793 35.62C174.224 35.4009 173.899 34.794 174.028 34.1925L179.018 10.9805C179.262 9.84773 180.77 9.63736 181.308 10.6612L197.852 42.1684C198.385 43.183 197.389 44.3237 196.327 43.9147" fill="white"/>
<path fill-rule="evenodd" clip-rule="evenodd" d="M229.555 69.7336C230.465 70.3674 231.082 71.3845 231.154 72.5629L231.992 85.7497C232.126 87.8461 230.487 89.6475 228.335 89.772L207.973 90.9927C205.826 91.1213 203.973 89.5285 203.84 87.4425C203.84 87.4425 203.007 74.2553 203.007 74.2499C202.881 72.2635 204.575 70.35 206.66 70.2335L227.015 69.0081C227.96 68.948 228.843 69.2238 229.555 69.7336" fill="#6D49D5"/>
<path fill-rule="evenodd" clip-rule="evenodd" d="M226.805 72.1274L218.111 80.8096C217.881 81.0386 217.52 81.0642 217.261 80.8692L207.264 73.3489C206.776 72.9821 207.007 72.2006 207.614 72.1627L226.305 71.0014C226.907 70.964 227.233 71.6993 226.805 72.1274" fill="white"/>
</svg>
