<svg width="48" height="49" viewBox="0 0 48 49" fill="none" xmlns="http://www.w3.org/2000/svg">
<path fill-rule="evenodd" clip-rule="evenodd" d="M24 10.625C20.203 10.625 17.125 13.703 17.125 17.5C17.125 21.297 20.203 24.375 24 24.375C27.797 24.375 30.875 21.297 30.875 17.5C30.875 13.703 27.797 10.625 24 10.625ZM20.875 17.5C20.875 15.7741 22.2741 14.375 24 14.375C25.7259 14.375 27.125 15.7741 27.125 17.5C27.125 19.2259 25.7259 20.625 24 20.625C22.2741 20.625 20.875 19.2259 20.875 17.5Z" fill="black"/>
<path fill-rule="evenodd" clip-rule="evenodd" d="M24 0.625C14.6802 0.625 7.12499 8.1802 7.12499 17.5C7.12499 20.1777 7.74867 22.7098 8.85868 24.9588L0.421326 39.5727L10.6671 40.5766L16.6593 48.9477L23.9952 36.2416L31.331 48.9477L37.3233 40.5766L47.569 39.5727L39.1369 24.9678C40.2497 22.7165 40.875 20.1813 40.875 17.5C40.875 8.1802 33.3198 0.625 24 0.625ZM6.57857 36.408L11.1677 28.4594C13.626 31.3351 17.0341 33.3745 20.9061 34.092L16.3214 42.033L12.726 37.0104L6.57857 36.408ZM36.8265 28.4662C34.3668 31.3404 30.9578 33.3782 27.0852 34.0936L31.669 42.033L35.2643 37.0104L41.4118 36.408L36.8265 28.4662ZM10.875 17.5C10.875 10.2513 16.7513 4.375 24 4.375C31.2487 4.375 37.125 10.2513 37.125 17.5C37.125 24.7487 31.2487 30.625 24 30.625C16.7513 30.625 10.875 24.7487 10.875 17.5Z" fill="black"/>
</svg>
