<svg width="487" height="503" viewBox="0 0 487 503" fill="none" xmlns="http://www.w3.org/2000/svg">
<mask id="mask0_0_851" style="mask-type:luminance" maskUnits="userSpaceOnUse" x="0" y="0" width="480" height="503">
<path fill-rule="evenodd" clip-rule="evenodd" d="M0 0.000244141H479.421V503H0V0.000244141Z" fill="white"/>
</mask>
<g mask="url(#mask0_0_851)">
<path fill-rule="evenodd" clip-rule="evenodd" d="M477.621 310.289C479.315 299.374 479.847 288.262 479.072 277.029C473.786 200.464 446.428 101.328 391.518 45.5606C374.691 28.4714 353.975 15.7994 330.76 9.54658C278.172 -4.61645 228.262 -8.13964 188.409 35.5935C162.59 63.9262 157.991 100.106 138.557 131.373C101.692 190.683 16.3357 205.291 1.96679 281.049C-8.56939 336.601 24.8883 391.059 62.6818 429.064C100.811 467.406 151.719 494.249 205.562 501.166C218.616 502.843 231.816 503.389 244.965 502.725C343.7 497.738 461.736 412.678 477.621 310.289" fill="#EBEFFF"/>
</g>
<path fill-rule="evenodd" clip-rule="evenodd" d="M329.35 90.4378C332.74 88.2926 336.679 87.0287 340.682 87.0287C341.375 87.0287 342.056 87.0655 342.727 87.1291C342.442 85.9311 342.083 84.5241 341.648 82.9995C338.758 81.6007 336.705 78.8156 336.087 75.552C335.571 75.6425 335.049 75.6925 334.523 75.6925C332.549 75.6925 330.762 75.1146 329.257 74.1405C328.867 74.0598 328.491 73.949 328.122 73.8244C327.63 73.9051 327.133 73.96 326.632 73.96C323.939 73.96 321.589 72.8937 319.841 71.1919L315.085 72.8273C315.085 72.8273 327.269 79.0225 329.35 90.4378" fill="#6D49D5"/>
<path fill-rule="evenodd" clip-rule="evenodd" d="M330.773 447.845C330.773 466.059 315.995 480.854 297.769 480.854H140.676C122.449 480.854 107.672 466.059 107.672 447.845V104.99C107.672 86.7302 122.449 71.9508 140.676 71.9508H161.67C165.603 71.9508 169.157 73.5544 171.744 76.126C174.119 78.4858 175.661 81.7082 175.873 85.2633C175.903 85.5503 175.918 85.8378 175.918 86.1254C175.918 86.3674 175.918 86.6094 175.934 86.8514V86.8668C176.054 89.0301 176.599 91.0721 177.522 92.8722C177.552 92.9177 177.567 92.9781 177.597 93.0236C179.911 97.4562 184.403 100.466 189.803 100.466H248.264C252.196 100.466 255.766 98.8781 258.352 96.2911C259.365 95.2775 260.213 94.113 260.863 92.842C260.893 92.8118 260.908 92.7816 260.923 92.7514C261.861 90.9662 262.421 88.9692 262.496 86.8361L262.512 86.8213C262.527 86.6396 262.527 86.4733 262.527 86.2917C262.572 78.4402 268.577 71.9508 276.427 71.9508H294.139L312.786 71.7236C313.165 68.1538 314.681 64.4018 316.254 61.0888C316.783 59.9544 317.388 58.8497 318.099 57.8213H142.022C118.109 57.8213 98.7329 77.2 98.7329 101.117V455.469C98.7329 474.001 110.364 489.81 126.745 495.982C131.495 497.782 136.637 498.765 142.022 498.765H301.203C325.116 498.765 344.492 479.387 344.492 455.469V431.068L330.773 438.89V447.845Z" fill="#6D49D5"/>
<path fill-rule="evenodd" clip-rule="evenodd" d="M335.552 176.17C333.889 174.476 332.316 177.112 330.773 175.312V305.72C331.741 302.165 332.921 298.67 334.343 295.251C334.66 294.51 334.977 293.753 335.31 293.013C336.006 291.484 336.732 289.972 337.518 288.474C337.73 288.051 337.942 287.642 338.169 287.233C338.411 286.765 338.668 286.311 338.925 285.872C339.364 285.071 339.833 284.268 340.317 283.482C340.649 282.892 341.013 282.317 341.376 281.742C341.648 281.288 341.936 280.85 342.222 280.426C342.54 279.912 342.888 279.397 343.221 278.898C343.629 278.278 344.068 277.658 344.491 277.052V184.158C342.828 182.872 341.224 181.525 339.651 180.134C338.23 178.863 336.868 177.547 335.552 176.17" fill="#6D49D5"/>
<path fill-rule="evenodd" clip-rule="evenodd" d="M343.184 85.5312C341.285 87.9212 338.93 85.9165 335.87 85.9165C333.078 85.9165 331.477 90.4242 329.712 88.611C329.808 88.8492 328.818 92.4437 328.897 92.6907C329.169 93.4167 329.411 94.173 329.623 94.9297V94.9599C329.895 95.928 330.107 96.896 330.289 97.8943C330.334 98.1215 330.379 98.3635 330.41 98.6055C330.485 99.1197 330.561 99.6493 330.607 100.179C330.667 100.663 330.697 101.147 330.712 101.646C330.757 102.221 330.773 102.796 330.773 103.386V141.817C331.211 142.165 331.589 142.633 331.892 143.163C334.101 147.172 336.188 144.167 338.532 148.116C339.787 150.143 342.404 151.729 343.705 150.261C344.189 149.717 344.491 147.36 344.491 146.482V100.043C344.491 97.8191 344.325 95.625 344.007 93.4771C343.886 92.6281 343.358 86.3687 343.184 85.5312" fill="#6D49D5"/>
<path fill-rule="evenodd" clip-rule="evenodd" d="M175.933 85.3689C176.901 87.1689 177.461 89.2115 177.522 91.3748C176.599 89.5742 176.054 87.5322 175.933 85.3689" fill="#6D49D5"/>
<path fill-rule="evenodd" clip-rule="evenodd" d="M262.496 85.3386C262.421 87.4717 261.861 89.4682 260.923 91.2534C261.029 89.1357 261.589 87.1238 262.496 85.3386" fill="#6D49D5"/>
<path fill-rule="evenodd" clip-rule="evenodd" d="M472.555 252.776C420.135 269.148 393.029 229.052 393.029 229.052C395.011 226.117 392.016 220.596 392.016 220.596L390.193 211.278C367.036 210.143 346.08 187.563 346.08 187.563C376.043 182.254 363.126 164.306 363.126 164.306L383.787 180.462L386.026 180.265C386.298 152.279 403.919 139.209 409.44 134.776C414.961 130.344 415.899 134.746 415.899 134.746C415.899 134.746 413.479 143.702 423.825 144.942C434.17 146.183 441.749 136.486 441.749 136.486C445.303 128.528 449.387 133.46 449.387 133.46C467.129 142.9 470.335 166.257 474.147 182.58C476.773 193.76 481.781 217.864 485.145 229.608C486.311 233.677 486.064 238.017 484.453 241.932V241.932C482.311 247.142 477.933 251.097 472.555 252.776" fill="#353642"/>
<path fill-rule="evenodd" clip-rule="evenodd" d="M472.555 252.776C420.135 269.148 393.029 229.052 393.029 229.052C395.011 226.117 392.016 220.596 392.016 220.596L390.193 211.278C367.036 210.143 346.08 187.563 346.08 187.563C365.931 177.636 363.126 164.306 363.126 164.306L383.787 180.462L386.026 180.265C386.298 152.279 403.919 139.209 409.44 134.776C414.961 130.344 415.899 134.746 415.899 134.746C415.899 134.746 413.479 143.702 423.825 144.942C434.17 146.183 441.749 136.486 441.749 136.486C445.303 128.528 449.387 133.46 449.387 133.46C467.129 142.9 470.335 166.257 474.147 182.58C476.773 193.76 481.781 217.864 485.145 229.608C486.311 233.677 486.064 238.017 484.453 241.932V241.932C482.311 247.142 477.933 251.097 472.555 252.776" fill="#353642"/>
<path fill-rule="evenodd" clip-rule="evenodd" d="M416.692 105.708C416.8 102.433 414.234 99.6904 410.959 99.5829C407.685 99.4748 404.943 102.042 404.835 105.317C404.727 108.592 407.294 111.334 410.568 111.442C413.842 111.55 416.584 108.982 416.692 105.708" fill="#D7E8F0"/>
<path fill-rule="evenodd" clip-rule="evenodd" d="M412.695 124.398C412.322 124.398 411.947 124.367 411.572 124.305L411.94 122.066C413.192 122.272 414.462 121.956 415.516 121.176C416.722 120.284 417.505 118.91 417.722 117.306L419.97 117.61C419.671 119.826 418.569 121.74 416.865 123C415.626 123.917 414.177 124.398 412.695 124.398" fill="black"/>
<path fill-rule="evenodd" clip-rule="evenodd" d="M379.088 84.3795V84.3949C380.525 90.4304 385.38 93.7742 390.039 94.2428C390.281 93.1991 390.765 92.2008 391.475 91.3837C394.47 87.9801 395.605 94.5002 405.088 90.0221C418.233 83.8044 423.103 87.6168 423.103 87.6168C423.526 87.9494 423.421 90.9452 423.466 91.4742C423.753 94.5754 424.041 97.6618 424.343 100.763C424.525 102.654 424.706 104.53 424.872 106.406C425.054 106.088 425.266 105.785 425.478 105.498C426.748 101.323 430.288 96.4363 434.825 98.66C435.748 99.1139 436.534 99.8251 437.139 100.642C440.089 104.681 437.714 108.478 434.492 111.262C433.766 112.078 432.813 112.85 431.8 113.576C432.299 114.665 434.341 118.992 434.341 119.007C434.553 119.446 442.161 111.171 442.735 110.263C443.598 108.024 444.112 105.664 444.188 103.274C444.506 93.4263 440.724 81.8837 432.859 76.0742C430.908 74.6375 430.227 73.276 430.136 71.3695C430.121 70.9008 429.546 70.7346 429.229 71.0825C426.672 73.9109 420.486 73.5026 420.486 73.5026C399.114 67.6938 391.702 77.1032 387.346 78.7068C385.274 79.4784 383.323 79.1908 381.84 78.6914C381.613 79.8866 380.721 80.8701 379.541 81.218L379.632 82.2162C379.708 83.018 379.496 83.7594 379.088 84.3795" fill="#6D49D5"/>
<path fill-rule="evenodd" clip-rule="evenodd" d="M433.127 113.748C433.504 114.556 434.059 115.737 434.523 116.724C434.614 116.917 434.696 117.092 434.77 117.25C436.781 115.312 441.251 110.466 441.78 109.661C443.73 106.574 444.926 103.23 445.238 99.9953C445.282 99.5535 445.31 99.1375 445.324 98.7199C445.609 89.862 442.359 78.309 434.455 72.471C432.731 71.2011 431.779 69.8621 431.425 68.1477C428.272 70.4553 422.93 70.1348 422.681 70.1184L422.458 70.081C405.763 65.5431 397.913 70.5096 393.223 73.4769C392.017 74.2397 390.975 74.8988 390.008 75.255C387.137 76.3152 384.499 75.6435 382.779 74.8846L383.031 77.5945C383.075 78.0911 383.046 78.5356 382.945 78.9609C382.654 80.5014 381.455 81.8283 379.898 82.3025C379.962 82.9303 380.061 83.5438 380.195 84.1365L380.223 84.2655C381.577 89.7259 385.725 92.3151 389.238 92.9868C389.563 92.1186 390.031 91.3229 390.62 90.6457C392.428 88.5905 394.065 89.2199 395.509 89.7753C397.244 90.4426 399.62 91.3563 404.605 89.0031C418.224 82.5604 423.582 86.5572 423.803 86.7306C424.448 87.2372 424.564 88.1772 424.585 90.7461C424.588 91.0413 424.587 91.274 424.597 91.3849C424.884 94.4756 425.171 97.5603 425.473 100.659L425.521 101.155C425.555 101.509 425.589 101.862 425.622 102.216C426.695 100.208 428.249 98.3374 430.244 97.4703C431.88 96.7591 433.637 96.8206 435.325 97.6481C436.36 98.1569 437.302 98.9608 438.052 99.9733C440.86 103.819 439.858 108.133 435.235 112.127C434.559 112.704 433.854 113.247 433.127 113.748V113.748ZM409.765 133.698C406.698 133.698 403.625 132.683 400.682 130.675C396.849 128.059 393.612 123.962 391.8 119.435C389.402 113.434 388.361 106.304 388.618 97.635L388.621 97.5686C388.65 96.8519 388.68 96.1121 388.739 95.3657C388.74 95.3224 388.742 95.2664 388.749 95.2017C384.264 94.3082 379.458 90.8514 377.985 84.6644L377.954 84.5108C377.739 83.5197 377.606 82.4819 377.562 81.4239L377.516 80.3433L378.76 80.2308C378.925 80.2198 379.05 80.1957 379.16 80.1567L379.222 80.1364C379.989 79.9103 380.58 79.2628 380.727 78.4868C380.782 78.2508 380.793 78.0423 380.772 77.7981L380.076 70.3307L382.143 71.9321C382.174 71.9557 385.547 74.485 389.223 73.1263C389.966 72.8524 390.913 72.2531 392.01 71.5595C397.005 68.399 405.357 63.1142 422.939 67.8601C424.599 67.9479 428.909 67.7394 430.657 65.8055C431.128 65.2891 431.844 65.1113 432.486 65.3483C433.105 65.5766 433.519 66.1528 433.54 66.8163C433.607 68.2294 433.999 69.3171 435.801 70.6446C444.369 76.9727 447.896 89.3423 447.591 98.794C447.576 99.2638 447.544 99.7291 447.496 100.217C447.15 103.8 445.836 107.487 443.696 110.876C443.289 111.518 440.829 114.219 439.374 115.771C435.205 120.216 434.885 120.197 434.304 120.163L433.638 120.125L433.207 119.262C433.067 118.961 432.79 118.372 432.469 117.689C431.844 116.358 431.055 114.679 430.77 114.056L430.195 112.907L431.34 112.216C432.155 111.686 432.98 111.069 433.756 110.406C437.459 107.207 438.291 104.148 436.224 101.318C435.693 100.601 435.035 100.034 434.325 99.6852C433.224 99.1452 432.184 99.1019 431.149 99.5519C428.875 100.54 427.258 103.554 426.564 105.835C426.323 106.655 426.18 107.396 426.142 108.025L423.879 108.055L423.739 106.463C423.589 104.77 423.426 103.076 423.262 101.372L423.215 100.878C422.912 97.7766 422.625 94.6891 422.337 91.5863C422.324 91.437 422.32 91.1407 422.316 90.7653C422.312 90.2434 422.301 88.9625 422.205 88.4011C421.206 87.8781 416.338 85.9629 405.574 91.0545C399.712 93.8226 396.692 92.6613 394.695 91.893C393.333 91.3695 393.089 91.2757 392.328 92.14C391.763 92.7892 391.352 93.6091 391.144 94.5063C391.09 94.7462 391.048 95.0326 391.018 95.3767L391.002 95.5227C390.946 96.2334 390.916 96.9589 390.888 97.6608C390.639 106.053 391.627 112.887 393.906 118.593C398.616 130.358 408.522 132.714 414.052 130.629C415.186 130.192 416.349 129.62 417.5 128.932C418.994 128.041 422.954 124.89 424.255 123.854L425.002 124.709L425.668 125.63C424.196 126.801 420.287 129.912 418.663 130.88C417.402 131.634 416.122 132.263 414.86 132.749C413.18 133.383 411.473 133.698 409.765 133.698V133.698Z" fill="black"/>
<path fill-rule="evenodd" clip-rule="evenodd" d="M398.963 105.123C399.071 101.848 396.505 99.1055 393.23 98.9979C389.956 98.8898 387.214 101.457 387.106 104.732C386.998 108.007 389.565 110.749 392.839 110.857C396.113 110.965 398.855 108.398 398.963 105.123" fill="#D7E8F0"/>
<path fill-rule="evenodd" clip-rule="evenodd" d="M413.24 107.728C413.24 109.075 412.151 110.164 410.805 110.164C409.459 110.164 408.37 109.075 408.37 107.728C408.37 106.398 409.459 105.308 410.805 105.308C411.047 105.308 411.289 105.339 411.501 105.414C411.273 105.626 411.122 105.943 411.122 106.276C411.122 106.912 411.652 107.441 412.302 107.441C412.62 107.441 412.922 107.305 413.134 107.078C413.21 107.275 413.24 107.502 413.24 107.728" fill="black"/>
<path fill-rule="evenodd" clip-rule="evenodd" d="M395.997 106.957C395.997 108.288 394.908 109.378 393.562 109.378C392.231 109.378 391.141 108.288 391.141 106.957C391.141 105.611 392.231 104.521 393.562 104.521C393.894 104.521 394.197 104.582 394.484 104.703C394.166 104.93 393.955 105.293 393.955 105.701C393.955 106.352 394.484 106.866 395.135 106.866C395.452 106.866 395.739 106.745 395.951 106.533C395.981 106.669 395.997 106.806 395.997 106.957" fill="black"/>
<path fill-rule="evenodd" clip-rule="evenodd" d="M402.715 115.615C401.65 115.615 400.374 115.425 399.663 114.64C399.169 114.095 399.011 113.36 399.218 112.569C399.36 112.024 400.487 107.044 400.91 105.171L403.123 105.671C403.061 105.947 401.594 112.45 401.413 113.143C401.411 113.148 401.41 113.153 401.409 113.157C401.783 113.352 402.966 113.4 403.942 113.248L404.297 115.489C403.988 115.538 403.394 115.615 402.715 115.615" fill="black"/>
<path fill-rule="evenodd" clip-rule="evenodd" d="M417.819 96.0103C414.389 91.3763 408.05 93.6829 407.987 93.7065L407.191 91.5816C409.945 90.5498 416.093 89.8644 419.643 94.6597L417.819 96.0103Z" fill="black"/>
<path fill-rule="evenodd" clip-rule="evenodd" d="M384.776 98.5885L382.79 97.492C384.209 94.915 388.429 90.3924 394.245 91.7194L393.74 93.9321C391.426 93.4036 389.236 93.9957 387.232 95.6926C385.654 97.0283 384.785 98.5732 384.776 98.5885" fill="black"/>
<path fill-rule="evenodd" clip-rule="evenodd" d="M410.761 99.6388C407.611 99.6388 404.998 102.147 404.894 105.319C404.842 106.887 405.404 108.381 406.476 109.526C407.548 110.672 409.002 111.331 410.57 111.383C412.135 111.436 413.632 110.872 414.777 109.8C415.922 108.728 416.581 107.274 416.633 105.706C416.685 104.138 416.123 102.643 415.051 101.498C413.978 100.353 412.525 99.6937 410.957 99.6421C410.891 99.6399 410.826 99.6388 410.761 99.6388M410.77 113.655C410.679 113.655 410.587 113.654 410.495 113.651C408.321 113.579 406.306 112.665 404.82 111.077C403.334 109.489 402.555 107.418 402.626 105.244C402.775 100.756 406.54 97.2285 411.032 97.374C413.205 97.4459 415.221 98.3596 416.707 99.9472C418.193 101.535 418.972 103.607 418.9 105.781L417.767 105.743L418.9 105.781C418.829 107.955 417.915 109.97 416.327 111.457C414.807 112.88 412.843 113.655 410.77 113.655" fill="black"/>
<path fill-rule="evenodd" clip-rule="evenodd" d="M393.032 99.0536C389.883 99.0536 387.27 101.562 387.165 104.734C387.058 107.971 389.604 110.691 392.841 110.798C396.08 110.902 398.797 108.358 398.904 105.121C398.956 103.553 398.394 102.059 397.322 100.913C396.25 99.7676 394.796 99.1085 393.228 99.0569C393.163 99.0547 393.097 99.0536 393.032 99.0536M393.038 113.07C392.948 113.07 392.858 113.068 392.766 113.066C388.279 112.918 384.749 109.146 384.898 104.658C385.046 100.171 388.811 96.6433 393.303 96.7888C395.477 96.8607 397.492 97.7744 398.978 99.362C400.464 100.95 401.243 103.022 401.172 105.196C401.027 109.592 397.404 113.07 393.038 113.07" fill="black"/>
<path fill-rule="evenodd" clip-rule="evenodd" d="M393.031 99.0327C389.865 99.0327 387.249 101.546 387.144 104.733C387.037 107.987 389.587 110.711 392.84 110.819C392.906 110.821 392.972 110.822 393.038 110.822C396.203 110.822 398.82 108.309 398.925 105.121C399.032 101.868 396.482 99.143 393.229 99.036C393.163 99.0338 393.097 99.0327 393.031 99.0327M393.031 100.167C393.084 100.167 393.138 100.168 393.191 100.17C395.814 100.257 397.878 102.461 397.791 105.084C397.706 107.666 395.618 109.687 393.038 109.687C392.985 109.687 392.931 109.687 392.877 109.685C390.254 109.598 388.191 107.393 388.277 104.77C388.363 102.189 390.451 100.167 393.031 100.167" fill="white"/>
<path fill-rule="evenodd" clip-rule="evenodd" d="M403.723 106.415L400 106.292L400.075 104.025L403.798 104.147L403.723 106.415Z" fill="black"/>
<path fill-rule="evenodd" clip-rule="evenodd" d="M409.017 356.352L401.575 401.932L393.513 400.722C389.868 400.132 387.388 396.774 387.902 393.128L388.522 388.242V388.226L393.997 348.002C402.922 353.251 409.017 356.352 409.017 356.352" fill="#6D49D5"/>
<path fill-rule="evenodd" clip-rule="evenodd" d="M372.201 415.26L344.491 431.205L330.773 439.101L326.568 441.522C326.583 441.446 326.583 441.355 326.583 441.28L323.301 443.155L319.066 435.017C316.993 431.098 318.446 426.288 322.333 424.14L370.341 397.848L370.386 398.287L372.201 415.26Z" fill="#6D49D5"/>
<path fill-rule="evenodd" clip-rule="evenodd" d="M402.514 403.221L393.345 401.844C389.053 401.15 386.174 397.252 386.779 392.97L388.985 375.588L391.236 375.874L389.027 393.271C388.595 396.335 390.646 399.109 393.694 399.602L400.636 400.644L407.765 356.982C405.875 355.996 400.509 353.148 393.422 348.98C385.452 344.296 377.908 339.501 370.997 334.73L372.286 332.863C379.151 337.603 386.649 342.367 394.572 347.024C403.365 352.196 409.471 355.31 409.532 355.341L410.27 355.717L402.514 403.221Z" fill="black"/>
<path fill-rule="evenodd" clip-rule="evenodd" d="M388.2 387.524C388.113 387.478 379.345 382.742 368.395 376.047L369.578 374.111C380.476 380.774 389.19 385.48 389.276 385.527L388.2 387.524Z" fill="black"/>
<path fill-rule="evenodd" clip-rule="evenodd" d="M330.773 438.889V446.348C330.773 464.561 315.995 479.356 297.769 479.356H140.676C122.45 479.356 107.672 464.561 107.672 446.348V103.492C107.672 85.233 122.45 70.4531 140.676 70.4531H161.67C162.653 70.4531 163.606 70.559 164.544 70.7401C165.179 70.8768 165.8 71.0431 166.404 71.2549C166.676 71.3608 166.949 71.4667 167.206 71.5726C167.63 71.7537 168.053 71.9508 168.461 72.1774C168.945 72.4348 169.415 72.7372 169.868 73.0549C170.171 73.2667 170.458 73.4786 170.73 73.7052C171.078 73.9928 171.426 74.3105 171.744 74.6283L173.952 77.4573C174.149 77.7898 174.33 78.1378 174.497 78.501L175.298 80.5283C175.404 80.891 175.51 81.2543 175.586 81.6324L175.782 82.7821C175.812 82.9336 175.827 83.0999 175.843 83.2513C175.858 83.3265 175.858 83.4022 175.858 83.478C175.888 83.8413 175.918 84.1892 175.918 84.5519V84.7034C175.918 84.9301 175.918 85.1419 175.934 85.3537C175.918 85.3235 175.903 85.2934 175.873 85.2632C175.253 84.0833 174.451 83.0088 173.513 82.0863C171.018 79.6052 167.599 78.062 163.818 78.062H143.595C126.049 78.062 111.832 92.2975 111.832 109.876V439.963C111.832 457.497 126.049 471.747 143.595 471.747H294.85C311.881 471.747 325.767 458.344 326.568 441.521C326.583 441.446 326.583 441.355 326.583 441.279L330.773 438.889Z" fill="#D7E8F0"/>
<path fill-rule="evenodd" clip-rule="evenodd" d="M260.923 91.2537C260.908 91.4655 260.908 91.662 260.908 91.8738C260.878 95.6406 259.366 99.0294 256.9 101.495C254.404 103.991 250.971 105.519 247.175 105.519H190.893C183.3 105.519 177.567 99.317 177.537 91.7229C177.537 91.6016 177.537 91.4957 177.522 91.3749C179.805 95.8827 184.343 98.969 189.803 98.969H248.264C252.196 98.969 255.766 97.3803 258.352 94.7939C259.396 93.7495 260.258 92.5548 260.923 91.2537" fill="#D7E8F0"/>
<path fill-rule="evenodd" clip-rule="evenodd" d="M344.717 233.129L344.266 230.906C346.099 230.533 347.927 230.159 349.743 229.788C367.254 226.209 383.792 222.828 393.044 222.953L393.014 225.222C384.003 225.11 367.585 228.457 350.197 232.011C348.381 232.383 346.552 232.757 344.717 233.129" fill="black"/>
<path fill-rule="evenodd" clip-rule="evenodd" d="M329.477 419.836C327.477 411.975 326.133 404.101 325.483 396.431C325.408 395.622 325.347 394.789 325.287 393.957C324.43 380.845 324.205 367.438 324.617 354.078L324.653 352.808C324.836 346.345 325.026 339.663 325.482 333.038C326.192 322.146 327.526 313.37 329.678 305.423C330.677 301.752 331.894 298.184 333.295 294.816C335.876 288.602 339.331 282.405 343.565 276.399C349.191 268.35 356.385 260.4 364.943 252.773C365.896 251.917 367.794 250.47 370.197 248.639C377.272 243.249 393.84 230.625 392.49 226.24C392.176 225.194 391.382 221.752 390.615 218.423C390.018 215.835 389.454 213.389 389.244 212.635L391.43 212.027C391.653 212.83 392.197 215.185 392.826 217.913C393.55 221.054 394.37 224.612 394.66 225.579C396.334 231.016 384.172 240.844 371.572 250.444C369.209 252.244 367.343 253.666 366.456 254.464C358.025 261.977 350.949 269.794 345.421 277.702C341.282 283.577 337.908 289.626 335.39 295.687C334.027 298.966 332.841 302.442 331.867 306.018C329.756 313.814 328.446 322.448 327.745 333.19C327.292 339.773 327.104 346.432 326.921 352.872L326.885 354.146C326.475 367.435 326.699 380.769 327.549 393.78C327.609 394.61 327.669 395.427 327.743 396.23C328.383 403.785 329.706 411.536 331.675 419.276L331.711 419.414V419.556L330.48 419.581L329.477 419.836Z" fill="black"/>
<path fill-rule="evenodd" clip-rule="evenodd" d="M387.689 181.452L385.422 181.378C386.278 154.91 398.604 140.92 408.794 133.844C410.871 132.417 413.118 131.217 415.478 130.274L416.32 132.38C414.116 133.262 412.017 134.382 410.082 135.712C400.325 142.487 388.516 155.926 387.689 181.452" fill="black"/>
<path fill-rule="evenodd" clip-rule="evenodd" d="M473.029 182.753C472.185 177.753 471.071 172.854 469.715 168.192C467.085 159.065 463.657 151.011 459.802 144.897C459.395 144.258 458.964 143.618 458.522 142.999L458.454 142.891C458.442 142.87 458.431 142.849 458.42 142.83L458.369 142.786L458.294 142.685C455.889 139.459 452.798 136.742 449.107 134.609C448.059 134.004 446.978 133.459 445.895 132.988L445.364 132.753C444.938 132.576 444.482 132.384 444.012 132.208L444.809 130.083C445.307 130.27 445.789 130.472 446.271 130.674L446.816 130.914C447.961 131.411 449.12 131.996 450.242 132.644C454.172 134.915 457.473 137.811 460.055 141.251C460.223 141.422 460.329 141.597 460.405 141.732C460.857 142.368 461.299 143.023 461.718 143.682C465.689 149.979 469.206 158.235 471.895 167.561C473.274 172.304 474.408 177.289 475.266 182.376L475.282 182.564L474.1 182.573L473.029 182.753Z" fill="black"/>
<mask id="mask1_0_851" style="mask-type:luminance" maskUnits="userSpaceOnUse" x="316" y="182" width="171" height="263">
<path fill-rule="evenodd" clip-rule="evenodd" d="M316.975 182.32H487V444.726H316.975V182.32Z" fill="white"/>
</mask>
<g mask="url(#mask1_0_851)">
<path fill-rule="evenodd" clip-rule="evenodd" d="M322.839 444.726L318.06 435.54C315.689 431.059 317.324 425.611 321.784 423.147L346.861 409.245L347.961 411.229L322.883 425.132C319.514 426.994 318.279 431.102 320.068 434.486L323.762 441.585L370.986 414.647C370.315 408.989 369.734 403.524 369.257 398.392L369.213 397.965C360.473 303.389 383.657 295.426 413.01 285.345C425.206 281.155 439.031 276.408 451.785 264.397C454.421 261.923 456.892 259.172 459.129 256.22C459.941 255.147 461.09 254.387 462.364 254.078L472.252 251.682C477.336 250.084 481.4 246.374 483.404 241.501C484.913 237.834 485.144 233.722 484.056 229.922C481.711 221.737 478.545 207.457 476.002 195.984C474.892 190.978 473.844 186.251 473.043 182.839L475.252 182.32C476.056 185.746 477.106 190.48 478.217 195.493C480.754 206.937 483.911 221.179 486.237 229.298C487.465 233.586 487.205 238.227 485.503 242.364C483.236 247.874 478.641 252.065 472.893 253.859L472.823 253.879L462.898 256.283C462.131 256.469 461.434 256.933 460.937 257.59C458.623 260.644 456.067 263.49 453.339 266.05C440.23 278.395 426.16 283.228 413.747 287.491C399.235 292.475 386.703 296.779 378.706 311.296C369.812 327.443 367.512 354.912 371.471 397.743L371.515 398.17C372.012 403.519 372.622 409.22 373.328 415.125L373.417 415.872L322.839 444.726Z" fill="black"/>
</g>
<path fill-rule="evenodd" clip-rule="evenodd" d="M301.197 498.407H137.247C112.746 498.407 92.8127 478.47 92.8127 453.966V97.1232C92.8127 72.6183 112.746 52.6826 137.247 52.6826L321.111 52.7084L321.111 54.9771L137.247 54.9518C113.997 54.9518 95.0816 73.8695 95.0816 97.1232V453.966C95.0816 477.22 113.997 496.137 137.247 496.137H301.197C324.447 496.137 343.362 477.22 343.362 453.966V431.066H345.631V453.966C345.631 478.47 325.698 498.407 301.197 498.407" fill="black"/>
<path fill-rule="evenodd" clip-rule="evenodd" d="M345.626 97.1232H343.357C343.357 94.1619 343.073 91.3368 342.488 88.4864C342.183 86.648 341.531 83.4815 341.044 82.6298L343.014 81.5037C343.843 82.9546 344.579 87.2313 344.719 88.0737C345.327 91.0328 345.626 94.0066 345.626 97.1232" fill="black"/>
<mask id="mask2_0_851" style="mask-type:luminance" maskUnits="userSpaceOnUse" x="0" y="0" width="487" height="503">
<path fill-rule="evenodd" clip-rule="evenodd" d="M0 503H487V0H0V503Z" fill="white"/>
</mask>
<g mask="url(#mask2_0_851)">
<path fill-rule="evenodd" clip-rule="evenodd" d="M343.362 277.034H345.631V185.09H343.362V277.034Z" fill="black"/>
<path fill-rule="evenodd" clip-rule="evenodd" d="M343.362 152.673H345.631V97.1233H343.362V152.673Z" fill="black"/>
<path fill-rule="evenodd" clip-rule="evenodd" d="M388.061 167.207C383.34 165.102 378.952 162.47 374.646 159.158C357.58 146.036 346.152 126.293 343.292 104.99C343.221 104.46 343.153 103.926 343.091 103.387L345.344 103.125C345.406 103.65 345.471 104.172 345.54 104.688C348.322 125.401 359.434 144.599 376.029 157.359C380.191 160.56 384.429 163.103 388.985 165.134L389.658 165.434V166.171L388.516 166.188L388.061 167.207Z" fill="black"/>
<path fill-rule="evenodd" clip-rule="evenodd" d="M329.644 293.098H331.913V175.964H329.644V293.098Z" fill="black"/>
<path fill-rule="evenodd" clip-rule="evenodd" d="M331.913 143.055H329.644V103.498C329.644 97.2838 329.201 88.4028 325.365 82.9989C324.921 82.4496 316.014 71.5815 307.299 71.5815H276.776V69.3123H307.299C317.293 69.3123 326.76 81.1073 327.159 81.6094L327.193 81.6555C331.424 87.5868 331.913 96.9622 331.913 103.498V143.055Z" fill="black"/>
<path fill-rule="evenodd" clip-rule="evenodd" d="M297.767 480.495H140.676C121.848 480.495 106.531 465.174 106.531 446.344V103.498C106.531 84.6478 121.848 69.312 140.676 69.312H161.668C170.154 69.3137 177.057 76.219 177.057 84.7065C177.057 91.9439 182.944 97.8318 190.18 97.8318H248.264C255.5 97.8318 261.387 91.9439 261.387 84.7065C261.387 76.2179 268.292 69.312 276.78 69.312H289.073V71.5812H276.78C269.543 71.5812 263.656 77.4691 263.656 84.7065C263.656 93.1951 256.751 100.101 248.264 100.101H190.18C181.693 100.101 174.788 93.1951 174.788 84.7065C174.788 77.4691 168.901 71.5812 161.665 71.5812H140.676C123.099 71.5812 108.799 85.899 108.799 103.498V446.344C108.799 463.924 123.099 478.226 140.676 478.226H297.767C315.345 478.226 329.645 463.924 329.645 446.344V438.895H331.913V446.344C331.913 465.174 316.596 480.495 297.767 480.495" fill="black"/>
<path fill-rule="evenodd" clip-rule="evenodd" d="M403.266 132.08C397.385 131.592 392.333 129.634 387.821 126.093C380.767 120.555 376.259 112.789 371.9 105.28C371.188 104.053 370.478 102.83 369.759 101.621C363.471 91.059 359.153 83.0386 354.359 73.015C351.286 66.5926 345.862 59.1181 340.673 56.8978L341.565 54.8113C347.689 57.4323 353.387 65.7277 356.405 72.0354C361.168 81.9926 365.459 89.962 371.709 100.461C372.432 101.677 373.146 102.907 373.862 104.14C378.113 111.465 382.51 119.038 389.222 124.308C393.431 127.611 397.953 129.362 403.453 129.818L403.266 132.08Z" fill="black"/>
<path fill-rule="evenodd" clip-rule="evenodd" d="M400.946 213.971C398.899 213.971 396.887 213.869 394.922 213.662C381.117 212.215 367.332 206.324 355.056 196.624C353.632 195.516 352.177 194.298 350.614 192.905C347.923 190.481 345.254 187.692 342.45 184.377C341.142 182.821 339.86 181.221 338.64 179.619L340.285 178.366C341.485 179.942 342.746 181.516 344.031 183.044C346.772 186.285 349.377 189.008 351.993 191.365C353.518 192.724 354.938 193.913 356.331 194.997C368.305 204.459 381.723 210.2 395.138 211.605C413.488 213.544 436.22 205.919 450.418 193.058C460.205 184.191 465.338 173.509 465.264 162.165C465.167 148.629 458.284 137.413 447.21 132.581C446.574 134.734 444.78 137.117 442.102 139.312C438.452 142.302 432.175 145.504 426.493 144.687C423.521 144.259 421.495 143.099 420.472 141.239C419.272 139.057 419.874 136.602 420.228 135.558L418.319 132.149L420.123 131.139L422.522 135.422L422.308 135.897C422.299 135.918 421.242 138.363 422.289 140.253C422.985 141.508 424.498 142.311 426.787 142.64C430.916 143.235 436.414 141.301 440.791 137.713C443.528 135.469 445.292 132.93 445.393 131.084L445.471 129.664L446.798 130.176C459.357 135.029 467.225 147.281 467.331 162.151C467.41 174.1 462.041 185.317 451.806 194.59C438.723 206.442 418.583 213.97 400.946 213.971" fill="black"/>
<path fill-rule="evenodd" clip-rule="evenodd" d="M444.828 132.247L436.588 116.527L438.598 115.474L446.837 131.194L444.828 132.247Z" fill="black"/>
<path fill-rule="evenodd" clip-rule="evenodd" d="M9.72461 498.402H486.338V496.132H9.72461V498.402Z" fill="black"/>
<path fill-rule="evenodd" clip-rule="evenodd" d="M324.739 75.3434C324.298 75.3434 323.847 75.2813 323.397 75.1518C321.179 74.5306 319.733 72.398 319.968 70.0822L320.127 68.8046C320.171 68.3661 320.24 67.9139 320.337 67.4491C320.543 66.0815 320.822 64.8276 321.166 63.7207C321.219 63.5187 321.286 63.3316 321.349 63.1625C321.423 62.8618 321.519 62.5671 321.643 62.2647C321.683 62.1528 321.732 62.0397 321.786 61.9195L321.84 61.7966L323.927 62.6895L323.856 62.8481C323.828 62.9106 323.8 62.9677 323.781 63.0259L323.752 63.1038C323.659 63.3277 323.592 63.5324 323.542 63.7492L323.499 63.893C323.447 64.0307 323.393 64.1674 323.359 64.3051L323.341 64.3688C323.025 65.3807 322.767 66.5409 322.576 67.8179L322.564 67.8832C322.481 68.2789 322.421 68.6636 322.381 69.0581L322.222 70.3373C322.102 71.526 322.855 72.6439 324.016 72.9693C325.353 73.3529 326.699 72.6038 327.088 71.2648L327.131 71.0903C327.16 70.9147 327.203 70.7544 327.243 70.6095C327.272 70.423 327.315 70.2199 327.361 70.0169C327.448 69.6333 327.531 69.0905 327.627 68.4622C327.956 66.312 328.452 63.0632 329.997 60.2452C331.763 56.9761 335.183 54.3216 338.31 53.7959L338.498 53.7805L338.539 55.1569L338.686 56.0338C336.281 56.4383 333.403 58.7152 331.99 61.3301C330.634 63.8024 330.175 66.8131 329.87 68.8051C329.767 69.4769 329.679 70.0575 329.574 70.5157C329.539 70.6749 329.5 70.8389 329.482 70.9855L329.447 71.1561C329.416 71.2631 329.383 71.3685 329.368 71.4744L329.346 71.588L329.278 71.8575C328.657 73.9966 326.799 75.3434 324.739 75.3434" fill="black"/>
<path fill-rule="evenodd" clip-rule="evenodd" d="M340.543 83.4244C339.729 83.4244 338.941 83.2465 338.202 82.8953C337.553 82.6056 336.947 82.1759 336.425 81.6293C334.691 79.8457 334.746 76.9663 335.533 75.0494C335.997 73.8382 336.893 72.7922 337.614 71.952C337.848 71.6804 338.08 71.4109 338.285 71.1508C338.856 70.4264 339.463 69.5835 339.665 68.7932L339.687 68.6604L341.925 69.033L341.88 69.2877C341.585 70.5147 340.798 71.6271 340.068 72.554C339.844 72.8383 339.589 73.1352 339.334 73.4315C338.698 74.1735 337.975 75.017 337.642 75.8868C337.1 77.2055 337.076 79.044 338.059 80.0548C338.383 80.3945 338.749 80.6546 339.152 80.8346C339.608 81.0509 340.068 81.1551 340.543 81.1551C341.752 81.1551 343.089 80.4609 344.518 79.0906L346.087 80.7282C344.222 82.5172 342.357 83.4244 340.543 83.4244" fill="black"/>
<path fill-rule="evenodd" clip-rule="evenodd" d="M348.699 74.8696L346.906 73.4796C348.537 71.3761 349.243 68.8281 348.893 66.3047C348.514 63.5658 346.947 61.0545 344.482 59.2331C342.236 57.5846 340.87 56.8882 338.133 55.9942C337.031 55.6375 335.949 55.362 335.037 55.1403L334.661 55.0536C333.776 54.8489 332.94 54.6551 332.069 54.4889L332.494 52.2603C333.408 52.4342 334.305 52.6422 335.173 52.8425L335.56 52.932C336.526 53.1674 337.659 53.4555 338.834 53.8364C341.809 54.8077 343.377 55.6078 345.828 57.4057C348.791 59.5953 350.677 62.6449 351.141 65.9936C351.574 69.1271 350.707 72.2794 348.699 74.8696" fill="black"/>
<path fill-rule="evenodd" clip-rule="evenodd" d="M331.833 77.3609C331.407 77.3609 330.978 77.3044 330.558 77.1897C328.324 76.5476 326.882 74.4167 327.114 72.1178L327.26 70.708C327.283 70.6147 327.288 70.5203 327.296 70.4325L327.319 70.2311C327.331 70.1587 327.343 70.0983 327.355 70.0379L329.58 70.4846L329.555 70.6487C329.541 70.7936 329.524 70.9687 329.482 71.164L329.372 72.3379C329.25 73.5518 330.006 74.6702 331.17 75.005C331.845 75.1888 332.576 75.0824 333.165 74.7081C333.748 74.3459 334.133 73.7878 334.259 73.1298C334.313 72.8944 334.354 72.6908 334.396 72.485C334.454 72.1958 334.514 71.9038 334.583 71.6212C334.647 71.3512 334.707 71.0779 334.765 70.8095C335.108 69.2318 335.464 67.6008 336.865 66.1701C337.382 65.64 338.002 65.2086 338.608 64.9589C338.775 64.8876 338.968 64.8256 339.186 64.7756L339.695 66.9867C339.61 67.0064 339.542 67.0273 339.487 67.0509C339.15 67.1897 338.791 67.4449 338.487 67.7561C337.542 68.7219 337.295 69.8563 336.982 71.2925C336.921 71.574 336.858 71.861 336.789 72.1518C336.725 72.4142 336.672 72.6776 336.619 72.9377C336.573 73.1616 336.528 73.3833 336.479 73.5979C336.24 74.8447 335.489 75.9352 334.373 76.6294C333.615 77.1107 332.73 77.3609 331.833 77.3609" fill="black"/>
<path fill-rule="evenodd" clip-rule="evenodd" d="M326.79 53.8453C326.599 53.8453 326.41 53.8486 326.223 53.8552C325.63 53.8804 325.006 53.9408 324.328 54.039C322.252 54.3935 320.429 55.4033 318.936 57.037C318.058 57.9842 317.304 59.1334 316.689 60.4565C315.79 62.3493 315.185 64.5938 314.935 66.9569L314.927 67.0913L314.819 68.213C314.668 69.5762 315.63 70.7709 317.007 70.9504C318.225 71.0925 319.459 70.1053 319.738 68.753C319.848 68.2355 319.976 67.6977 320.133 67.1045C320.449 65.8566 320.875 64.4692 321.36 63.1017L321.45 62.8734C321.615 62.4541 321.783 62.0293 321.966 61.6117C322.138 61.1793 322.342 60.7188 322.547 60.2601L322.718 59.8726C323.223 58.8085 323.968 57.7532 324.947 56.7061C325.852 55.7233 327.021 54.7135 328.236 53.9024C327.737 53.8645 327.257 53.8453 326.79 53.8453M317.232 73.2317C317.066 73.2317 316.899 73.2223 316.731 73.2031C314.098 72.8596 312.275 70.5662 312.562 67.9798L312.675 66.7626C312.956 64.1032 313.632 61.6046 314.635 59.4923C315.346 57.9617 316.233 56.6161 317.267 55.5004C319.103 53.4913 321.361 52.2434 323.975 51.7978C324.757 51.6842 325.455 51.6161 326.136 51.5876C328.032 51.5245 330.056 51.7391 332.518 52.2648L340.216 53.9095L332.367 54.506C331.172 54.5966 328.631 56.0536 326.61 58.2499C325.797 59.1197 325.166 60.0049 324.781 60.8165L324.62 61.182C324.427 61.6145 324.234 62.048 324.058 62.4881C323.873 62.9129 323.716 63.3118 323.561 63.7059L323.484 63.8985C323.036 65.164 322.632 66.4816 322.329 67.6725C322.18 68.2394 322.06 68.7421 321.959 69.2179C321.476 71.5524 319.454 73.2317 317.232 73.2317" fill="black"/>
<path fill-rule="evenodd" clip-rule="evenodd" d="M394.848 182.357C384.194 182.357 375.157 176.355 370.362 172.403C366.629 169.326 362.796 166.564 358.967 164.193C350.42 158.901 343.874 153.479 339.543 149.891C337.273 148.011 335.48 146.526 334.269 145.768C332.007 144.358 330.2 143.808 328.9 144.136C328.107 144.335 327.47 144.871 326.952 145.775C326.394 146.747 326.051 147.669 325.719 148.56C325.006 150.477 324.332 152.289 321.855 153.882C320.023 155.057 317.788 155.286 315.626 155.508C312.999 155.777 310.729 156.01 309.813 157.84C309.214 159.028 309.417 160.542 310.452 162.608L308.568 163.55C307.229 160.876 307.021 158.699 307.931 156.894C309.363 154.032 312.438 153.717 315.411 153.412C317.327 153.215 319.309 153.012 320.717 152.109C322.602 150.896 323.082 149.608 323.745 147.825C324.09 146.899 324.48 145.849 325.125 144.726C325.932 143.32 327.029 142.434 328.386 142.092C330.289 141.613 332.579 142.231 335.385 143.98C336.716 144.814 338.556 146.338 340.887 148.268C345.43 152.031 351.653 157.186 360.076 162.402C363.985 164.822 367.896 167.64 371.702 170.777C376.96 175.111 387.571 182.05 399.55 179.817C409.961 177.878 419.408 169.499 427.629 154.911L429.464 155.946C420.923 171.102 410.988 179.83 399.936 181.889C398.208 182.211 396.507 182.357 394.848 182.357" fill="black"/>
<path fill-rule="evenodd" clip-rule="evenodd" d="M339.256 180.391C337.626 178.736 335.777 176.86 333.508 176.445C332.075 176.182 330.581 176.502 328.999 176.841C327.904 177.076 326.773 177.319 325.607 177.375C319.842 177.653 314.552 173.631 309.431 165.084C309.16 164.64 308.871 164.128 308.577 163.57L310.441 162.588C310.715 163.108 310.982 163.581 311.234 163.994C315.922 171.82 320.586 175.5 325.506 175.271C326.499 175.222 327.499 175.008 328.557 174.781C330.271 174.414 332.044 174.033 333.888 174.372C336.811 174.907 338.999 177.128 340.757 178.913L339.256 180.391Z" fill="black"/>
<path fill-rule="evenodd" clip-rule="evenodd" d="M318.391 173.254C316.733 173.254 315.07 172.761 313.893 171.234L315.562 169.948C317.727 172.756 323.361 169.79 323.419 169.76L324.414 171.617C324.226 171.718 321.316 173.254 318.391 173.254" fill="black"/>
<path fill-rule="evenodd" clip-rule="evenodd" d="M316.346 168.364C313.25 168.364 310.477 166.509 310.311 166.396L311.495 164.654C311.542 164.685 316.139 167.741 319.157 165.298L320.482 166.936C319.175 167.995 317.728 168.364 316.346 168.364" fill="black"/>
<path fill-rule="evenodd" clip-rule="evenodd" d="M313.027 163.383C310.742 163.383 308.298 161.942 307.922 161.712L309.021 159.915C310.278 160.68 313.207 161.922 314.237 160.866L315.743 162.339C314.992 163.108 314.025 163.383 313.027 163.383" fill="black"/>
<path fill-rule="evenodd" clip-rule="evenodd" d="M157.715 295.292C157.737 298.397 158.198 301.536 159.146 304.622C162.542 315.679 172.138 324.637 183.435 327.12C187.87 328.095 192.798 328.039 197.34 329.114C200.591 329.883 203.582 331.268 205.972 333.657C206.746 334.429 207.493 335.313 208.533 335.647C211.341 336.547 211.403 332.626 212.627 331.24C214.564 329.046 217.415 327.776 220.293 327.45C230.389 326.307 239.818 320.269 245.08 311.576C250.342 302.882 251.321 291.727 247.653 282.25C243.985 272.773 235.752 265.185 226.008 262.301C218.723 260.144 210.966 260.535 203.369 260.695C196.67 260.835 189.903 260.788 183.367 262.265C167.997 265.738 157.607 280.113 157.715 295.292" fill="#6D49D5"/>
<path fill-rule="evenodd" clip-rule="evenodd" d="M219.045 293.838C219.113 297.832 222.407 301.014 226.401 300.945C230.394 300.877 233.576 297.583 233.507 293.588C233.438 289.594 230.145 286.412 226.152 286.481C222.158 286.55 218.976 289.844 219.045 293.838" fill="white"/>
<path fill-rule="evenodd" clip-rule="evenodd" d="M196.942 294.218C197.01 298.213 200.303 301.395 204.297 301.326C208.291 301.257 211.473 297.964 211.404 293.969C211.335 289.975 208.042 286.793 204.048 286.861C200.054 286.93 196.873 290.224 196.942 294.218" fill="white"/>
<path fill-rule="evenodd" clip-rule="evenodd" d="M176.203 294.575C176.271 298.569 179.565 301.752 183.559 301.683C187.552 301.615 190.734 298.321 190.665 294.326C190.596 290.332 187.303 287.15 183.31 287.218C179.316 287.288 176.134 290.581 176.203 294.575" fill="white"/>
<path fill-rule="evenodd" clip-rule="evenodd" d="M285.776 208.589C285.754 211.694 285.293 214.833 284.345 217.919C280.949 228.976 271.353 237.934 260.056 240.417C255.621 241.392 250.693 241.336 246.151 242.411C242.9 243.18 239.909 244.565 237.519 246.954C236.745 247.726 235.998 248.611 234.958 248.944C232.15 249.844 232.088 245.923 230.864 244.537C228.927 242.343 226.076 241.073 223.198 240.747C213.102 239.604 203.673 233.566 198.411 224.873C193.149 216.18 192.17 205.024 195.838 195.547C199.506 186.07 207.739 178.482 217.483 175.598C224.768 173.441 232.525 173.832 240.122 173.992C246.821 174.132 253.588 174.086 260.124 175.562C275.494 179.035 285.884 193.41 285.776 208.589" fill="#6D49D5"/>
<path fill-rule="evenodd" clip-rule="evenodd" d="M224.446 207.135C224.378 211.129 221.084 214.311 217.09 214.243C213.097 214.174 209.915 210.88 209.984 206.886C210.053 202.892 213.346 199.709 217.339 199.778C221.333 199.847 224.515 203.141 224.446 207.135" fill="white"/>
<path fill-rule="evenodd" clip-rule="evenodd" d="M246.549 207.515C246.481 211.51 243.188 214.692 239.194 214.623C235.2 214.555 232.018 211.261 232.087 207.266C232.156 203.272 235.449 200.09 239.443 200.158C243.436 200.227 246.618 203.521 246.549 207.515" fill="white"/>
<path fill-rule="evenodd" clip-rule="evenodd" d="M267.288 207.872C267.22 211.867 263.926 215.049 259.932 214.98C255.939 214.912 252.757 211.618 252.826 207.623C252.895 203.629 256.188 200.447 260.181 200.515C264.175 200.584 267.357 203.878 267.288 207.872" fill="white"/>
<path fill-rule="evenodd" clip-rule="evenodd" d="M271.586 353.032C274.715 355.552 276.715 359.427 276.728 363.787L276.993 412.583C277.037 420.341 270.79 426.653 263.051 426.676L189.84 427.066C182.12 427.108 175.81 420.86 175.768 413.141C175.768 413.141 175.521 364.345 175.521 364.325C175.484 356.975 181.952 350.262 189.444 350.252L262.636 349.843C266.034 349.812 269.141 351.008 271.586 353.032" fill="#6D49D5"/>
<path fill-rule="evenodd" clip-rule="evenodd" d="M261.304 362.094L227.596 391.9C226.706 392.687 225.373 392.705 224.462 391.942L189.292 362.497C187.575 361.06 188.583 358.263 190.822 358.252L259.7 357.891C261.919 357.88 262.966 360.625 261.304 362.094" fill="white"/>
</g>
</svg>
