<svg width="339" height="304" viewBox="0 0 339 304" fill="none" xmlns="http://www.w3.org/2000/svg">
<g id="Group 57">
<path id="Fill 1" fill-rule="evenodd" clip-rule="evenodd" d="M308.836 186.842C309.811 180.569 310.118 174.183 309.671 167.728C306.626 123.726 290.866 66.7524 259.232 34.703C249.538 24.882 237.603 17.5989 224.23 14.0058C193.934 5.86586 165.182 3.84144 142.222 28.9749C127.348 45.2577 124.699 66.0502 113.503 84.019C92.2649 118.105 43.0917 126.5 34.8139 170.038C28.7444 201.963 48.019 233.261 69.7917 255.102C91.7573 277.137 121.085 292.564 152.104 296.539C159.625 297.503 167.229 297.816 174.804 297.435C231.684 294.569 299.684 245.685 308.836 186.842" fill="#EBEFFF"/>
<path id="Fill 3" fill-rule="evenodd" clip-rule="evenodd" d="M165.001 73.0043C165.001 76.8362 161.888 79.9423 158.048 79.9423C154.207 79.9423 151.094 76.8362 151.094 73.0043C151.094 69.1725 154.207 66.0664 158.048 66.0664C161.888 66.0664 165.001 69.1725 165.001 73.0043" fill="#D7E8F0"/>
<path id="Fill 5" fill-rule="evenodd" clip-rule="evenodd" d="M183.025 72.3897C183.025 76.2216 179.911 79.3277 176.071 79.3277C172.23 79.3277 169.117 76.2216 169.117 72.3897C169.117 68.5579 172.23 65.4514 176.071 65.4514C179.911 65.4514 183.025 68.5579 183.025 72.3897" fill="#D7E8F0"/>
<path id="Fill 7" fill-rule="evenodd" clip-rule="evenodd" d="M178.539 92.7406C176.634 94.6892 174.181 95.9292 171.437 96.3158C171.986 96.3961 172.502 96.4607 172.97 96.4607C175.65 96.5089 177.296 94.464 178.539 92.7406M170.646 116.864C171.179 117.01 171.727 117.139 172.277 117.251C172.631 117.251 172.987 117.219 173.341 117.187C176.101 116.881 178.587 115.754 180.573 114.046C178.587 115.448 176.069 116.317 173.164 116.655C172.212 116.768 171.388 116.832 170.646 116.864M250.624 112.355C249.429 107.83 246.993 103.724 243.78 100.342C237.404 93.5941 228.011 89.6326 218.713 89.9225C212.144 90.132 203.605 91.6455 198.231 86.8466C195.422 84.3504 194.825 80.2923 193.759 76.9101C192.565 73.0936 191.549 69.2125 190.757 65.2989C189.999 61.5951 188.707 57.9717 186.739 54.7349C184.624 51.24 181.718 48.1805 178.168 46.1513C171.518 42.3187 162.237 41.9642 155.554 45.8935C154.602 46.4572 153.698 47.1175 152.859 47.8261C152.665 47.9871 152.472 48.1645 152.294 48.3415C146.499 53.6719 143.707 62.2876 143.852 69.9856C143.852 69.9856 143.868 70.4686 143.868 71.306C143.868 71.7568 143.884 72.1595 143.884 72.5139C143.901 73.2064 143.917 74.0438 143.901 74.9615C144.208 79.487 144.933 98.973 136.524 109.408C140.608 108.136 144.756 106.993 148.937 106.043H148.953C148.953 106.043 148.968 106.043 148.985 106.027C149.421 105.785 153.585 103.579 156.378 104.529C157.346 104.851 158.153 105.559 158.588 106.848C158.588 106.88 158.588 106.896 158.622 106.912C158.653 107.041 158.702 107.186 158.734 107.331C158.766 107.46 158.799 107.605 158.847 107.734C159.202 108.829 159.686 109.843 160.284 110.793C160.364 110.938 160.461 111.083 160.575 111.212C161.155 111.985 161.85 112.662 162.64 113.274C162.349 112.984 162.043 112.662 161.721 112.339C158.024 108.652 158.847 104.094 158.847 104.094C158.847 104.094 159.541 104.932 160.961 104.126C162.366 103.321 160.235 96.3479 159.703 94.2705C159.509 93.4973 160.655 93.5941 162.43 94.0288C161.139 93.1593 159.945 92.0967 158.911 90.9373C158.169 90.1159 157.507 89.246 156.943 88.3765C154.392 84.4147 153.424 81.371 152.908 77.6026V77.5866C151.81 76.3626 151.148 74.7684 151.148 72.9969C151.148 71.0483 151.955 69.2932 153.279 68.0367C153.311 67.9885 153.343 67.9564 153.376 67.9242C154.183 66.8934 155.829 66.5068 156.894 65.7501C158.024 64.9126 159.041 63.8661 159.88 62.7388C160.864 61.4502 162.511 59.5498 162.349 57.8107C162.785 62.5293 166.885 65.6533 171.421 65.7822C172.519 65.8143 173.6 65.6854 174.698 65.6051C174.713 65.6051 174.713 65.6051 174.729 65.5891C175.182 65.4923 175.65 65.4441 176.134 65.4441C178.49 65.4441 180.556 66.6035 181.815 68.3911C181.88 68.4718 181.945 68.5682 181.992 68.6489C182.074 68.7777 182.154 68.9226 182.235 69.0676C182.509 69.4702 182.719 69.905 182.897 70.3558C183.93 72.9969 183.849 75.9603 183.688 78.7463C183.446 82.8687 182.494 87.1686 180.201 90.6792C180.46 90.4861 180.718 90.3893 180.976 90.4379C182.752 90.7438 181.493 102.21 183.462 102.806C185.415 103.402 185.318 104.932 185.318 104.932C185.302 105.205 185.285 105.463 185.254 105.721C185.431 104.787 185.496 103.82 185.447 102.854C186.028 102.886 186.609 102.951 187.19 103.031C190.483 101.92 196.907 105.431 196.907 105.431C196.907 105.431 196.923 105.447 196.94 105.447C212.402 111.389 222.942 126.286 226.526 142.905C227.817 148.88 228.511 154.983 228.543 161.103V130.537C228.543 128.927 229.851 127.638 231.448 127.638H251.35C251.011 122.469 251.98 117.428 250.624 112.355" fill="#6D49D5"/>
<path id="Fill 9" fill-rule="evenodd" clip-rule="evenodd" d="M220.247 196.822C219.278 199.398 218.617 200.848 218.617 200.848C218.875 213.071 211.369 241.092 211.369 241.092C201.346 241.978 192.468 241.784 184.592 240.802C204.654 225.777 214.549 209.479 220.247 196.822" fill="#2E2E2E"/>
<path id="Fill 11" fill-rule="evenodd" clip-rule="evenodd" d="M227.59 163.341C202.67 154.017 187.4 167.561 187.4 167.561C187.368 204.053 156.039 224.263 149.065 228.289C131.31 216.404 126.42 200.848 126.42 200.848L128.019 198.98C129.148 195.856 132.02 186.145 132.957 176.788C133.845 167.947 132.844 159.412 132.78 157.012C132.634 152.068 130.391 153.196 127.76 154.146C125.129 155.08 112.942 155.386 112.942 155.386C126.453 147.801 119.447 115.592 119.447 115.592L148.888 106.043C148.888 106.043 157.217 101.356 158.67 107.331C160.106 113.306 165.916 115.915 172.26 117.267C178.587 118.604 184.463 111.325 185.254 105.431C186.044 99.5366 196.842 105.431 196.842 105.431C223.507 118.669 228.865 142.712 227.59 163.341" fill="#2E2E2E"/>
<path id="Fill 13" fill-rule="evenodd" clip-rule="evenodd" d="M26.9198 281.669C26.9198 281.669 49.8482 279.161 53.8026 281.669C53.8026 281.669 54.5288 286.86 51.0316 293.302C47.5347 299.744 43.2303 295.315 20.0952 296.791C20.0952 296.791 1.29117 298.284 1.07592 291.431C0.860659 284.579 9.62067 283.614 14.7236 283.56C19.8261 283.505 26.9198 281.669 26.9198 281.669" fill="#6D49D5"/>
<mask id="mask0_0_8432" style="mask-type:luminance" maskUnits="userSpaceOnUse" x="0" y="0" width="339" height="304">
<path id="Clip 16" fill-rule="evenodd" clip-rule="evenodd" d="M0 304H339V0H0V304Z" fill="white"/>
</mask>
<g mask="url(#mask0_0_8432)">
<path id="Fill 15" fill-rule="evenodd" clip-rule="evenodd" d="M113.088 276.075H113.346V274.004H113.088V276.075Z" fill="black"/>
<path id="Fill 17" fill-rule="evenodd" clip-rule="evenodd" d="M102.441 129.202L101.621 127.299C108.801 124.219 114.17 116.776 118.908 110.21C119.381 109.555 119.845 108.911 120.303 108.284C121.783 106.253 123.376 104.004 125.063 101.624C127.133 98.7036 129.272 95.6837 131.17 93.1233C131.787 92.2908 132.523 91.3312 133.303 90.3149C136.663 85.9359 141.264 79.9381 142.642 75.8399C142.704 75.6659 142.751 75.5098 142.797 75.36L142.844 75.2039L144.829 75.8145L144.783 75.9606C144.729 76.1406 144.672 76.3289 144.604 76.5167C143.123 80.9238 138.4 87.0796 134.951 91.5744C134.177 92.5832 133.446 93.5361 132.84 94.3548C130.955 96.8977 128.822 99.9081 126.759 102.82C125.142 105.101 123.47 107.46 121.982 109.502C121.526 110.127 121.063 110.768 120.593 111.42C115.698 118.205 110.149 125.895 102.441 129.202" fill="black"/>
<path id="Fill 18" fill-rule="evenodd" clip-rule="evenodd" d="M112.692 156.41C103.699 156.41 93.6389 154.949 86.1619 149.786C80.2077 145.674 76.5726 139.691 75.3579 132.003C73.6624 121.302 77.4281 111.729 86.8694 102.734C94.8077 95.1716 105.471 89.3306 114.04 84.6375C121.591 80.5016 128.113 76.9298 129.39 74.0003C130.904 70.5252 131.347 66.913 131.775 63.4199C132.6 56.6871 133.379 50.3277 141.624 46.6856C147.246 44.1999 151.559 44.6474 153.16 47.8827L151.299 48.8C150.265 46.7121 146.88 46.6281 142.465 48.5797C135.297 51.7463 134.62 57.2723 133.836 63.6709C133.39 67.3111 132.929 71.075 131.294 74.8269C129.733 78.4051 123.249 81.9568 115.039 86.4535C97.6438 95.9814 73.82 109.03 77.409 131.68C78.5317 138.787 81.8743 144.306 87.3433 148.083C101.253 157.687 124.958 153.771 131.892 152.342L132.311 154.371C128.832 155.088 121.244 156.41 112.692 156.41" fill="black"/>
<path id="Fill 19" fill-rule="evenodd" clip-rule="evenodd" d="M54.8181 284.111L52.7869 283.683C64.0203 230.62 75.6351 207.979 81.5594 199.206L83.2811 200.364C77.4418 209.011 65.9789 231.391 54.8181 284.111" fill="black"/>
<path id="Fill 20" fill-rule="evenodd" clip-rule="evenodd" d="M127.658 203.017L125.717 202.281C131.031 188.346 135.998 167.572 129.486 147.739L131.458 147.094C135.157 158.359 137.5 177.205 127.658 203.017" fill="black"/>
<path id="Fill 21" fill-rule="evenodd" clip-rule="evenodd" d="M58.1606 302.964H44.9569C40.7768 302.964 37.3069 299.486 37.3069 295.331C37.3069 294.976 37.3391 294.622 37.387 294.284V294.268C37.7104 293.495 37.8396 292.883 37.9358 292.352C38.1619 291.096 38.2106 290.355 40.4702 289.179C41.4548 288.648 42.8755 288.036 44.909 287.247C45.1991 287.15 45.49 287.021 45.8131 286.909C47.0238 286.457 48.6533 285.846 50.5742 285.121C51.0586 284.944 51.5591 284.75 52.0754 284.557C52.6406 284.348 53.2213 284.122 53.8188 283.897C62.6637 280.612 75.2213 275.941 83.453 272.866H83.5021C83.9056 272.785 84.3249 272.753 84.7442 272.753C86.7137 272.753 88.5215 273.558 89.8127 274.846C91.1199 276.151 91.927 277.938 91.927 279.919C91.927 279.919 42.0197 294.107 58.1606 302.964" fill="#6D49D5"/>
<path id="Fill 22" fill-rule="evenodd" clip-rule="evenodd" d="M104.486 266.081C90.7077 247.407 85.4655 231.711 80.8407 217.862C79.6042 214.159 78.4362 210.662 77.1724 207.337L79.1138 206.602C80.3926 209.966 81.567 213.483 82.8106 217.207C87.3868 230.91 92.5743 246.443 106.159 264.853L104.486 266.081Z" fill="black"/>
<path id="Fill 23" fill-rule="evenodd" clip-rule="evenodd" d="M106.785 276.085C104.699 276.085 103.204 275.247 102.34 273.596C100.829 270.706 103.157 266.977 104.697 264.509C104.922 264.148 105.131 263.813 105.309 263.512C107.216 260.274 109.149 257.43 111.22 254.815C118.417 245.725 128.336 237.947 140.704 231.698C157.246 223.339 169.591 212.475 177.395 199.408C184.418 187.649 187.403 174.412 186.028 161.129L188.094 160.916C189.515 174.646 186.432 188.323 179.178 200.468C171.169 213.878 158.54 225.007 141.642 233.545C129.546 239.658 119.858 247.246 112.849 256.099C110.838 258.639 108.957 261.407 107.099 264.562C106.913 264.876 106.695 265.227 106.459 265.604C105.169 267.672 103.218 270.797 104.181 272.638C104.685 273.602 105.464 274.013 106.785 274.013C109.184 274.013 112.331 268.367 114.629 264.244C115.709 262.307 116.729 260.477 117.69 259.094L119.396 260.275C118.493 261.574 117.497 263.36 116.444 265.251C113.475 270.577 110.406 276.085 106.785 276.085" fill="black"/>
<path id="Fill 24" fill-rule="evenodd" clip-rule="evenodd" d="M113.106 276.085C111.316 276.085 110.172 275.577 109.703 274.573C108.9 272.852 110.668 270.727 111.03 270.319L112.584 271.693C111.958 272.404 111.453 273.416 111.585 273.698C111.62 273.773 112.017 274.044 113.315 274.01C115.12 273.962 117.814 271.875 120.899 268.132C123.375 265.128 125.25 262.092 125.269 262.061L127.039 263.145C126.234 264.453 119.015 275.932 113.369 276.081C113.28 276.084 113.192 276.085 113.106 276.085" fill="black"/>
<path id="Fill 25" fill-rule="evenodd" clip-rule="evenodd" d="M114.626 118.792L113.777 116.902C130.196 109.565 146.844 104.62 161.921 102.6L162.197 104.654C147.315 106.647 130.865 111.536 114.626 118.792" fill="black"/>
<path id="Fill 26" fill-rule="evenodd" clip-rule="evenodd" d="M121.095 275.804C119.732 275.804 118.331 275.435 117.663 274.47C117.284 273.922 116.854 272.75 118.239 271.052L119.849 272.36C119.39 272.921 119.338 273.244 119.371 273.293C119.639 273.68 121.347 273.934 122.622 273.51C125.141 272.682 127.125 270.571 128.574 268.824C129.299 267.974 129.969 267.083 130.588 266.245L130.688 266.128C130.675 266.141 130.664 266.154 130.654 266.167L132.396 267.294C132.361 267.347 132.306 267.429 132.225 267.52C131.594 268.375 130.908 269.284 130.165 270.155C128.548 272.106 126.294 274.484 123.274 275.476C122.661 275.68 121.884 275.804 121.095 275.804" fill="black"/>
<path id="Fill 27" fill-rule="evenodd" clip-rule="evenodd" d="M118.617 273.318L118.212 271.286L118.27 271.271C118.339 271.252 118.407 271.234 118.47 271.222L118.878 273.253L118.816 273.269C118.748 273.288 118.679 273.305 118.617 273.318" fill="black"/>
<path id="Fill 28" fill-rule="evenodd" clip-rule="evenodd" d="M143.162 268.043L142.813 266.001C148.558 265.021 151.988 264.627 158.769 264.008C166.557 263.287 174.522 262.907 182.441 262.876L182.449 264.947C174.591 264.978 166.688 265.355 158.959 266.071C152.236 266.685 148.84 267.075 143.162 268.043" fill="black"/>
<path id="Fill 29" fill-rule="evenodd" clip-rule="evenodd" d="M128.923 270.761H128.777L128.768 269.697L128.491 268.73C128.76 268.653 129.035 268.594 129.307 268.555L129.602 270.606C129.422 270.631 129.241 270.67 129.063 270.721L128.923 270.761Z" fill="black"/>
<path id="Fill 30" fill-rule="evenodd" clip-rule="evenodd" d="M224.266 304H44.9573C40.2475 304 36.2681 300.03 36.2681 295.331C36.2681 294.973 36.2961 294.6 36.3523 294.19L36.3564 294.146C36.4459 293.397 36.657 292.655 36.9835 291.94C37.25 291.291 37.6015 290.679 38.0579 290.071C38.594 289.383 39.2012 288.803 39.8735 288.332C40.6713 287.73 41.6416 287.257 42.6554 286.984L44.5811 286.264C44.7185 286.218 44.8551 286.164 44.9966 286.109C45.149 286.049 45.3059 285.988 45.4702 285.931C46.6592 285.488 48.288 284.876 50.2073 284.152C50.5139 284.04 50.8175 283.925 51.1271 283.808L51.7108 283.588C52.0589 283.458 52.4101 283.325 52.7668 283.188L53.4515 282.928L81.8441 272.251C82.2626 272.084 82.7313 271.95 83.2569 271.848L83.4044 271.83C83.8173 271.755 84.2677 271.717 84.7446 271.717C86.905 271.717 89.0202 272.591 90.5468 274.114C92.1064 275.67 92.9655 277.731 92.9655 279.919C92.9655 280.128 93.1381 280.268 93.2991 280.268C93.329 280.268 93.3796 280.259 93.4324 280.233C96.8559 278.603 102.607 276.13 110.656 273.554L111.29 275.527C103.351 278.067 97.6926 280.5 94.3436 282.094C94.0276 282.252 93.66 282.34 93.2991 282.34C91.9701 282.34 90.889 281.254 90.889 279.919C90.889 278.285 90.2462 276.744 89.0786 275.579C87.9383 274.441 86.3585 273.789 84.7446 273.789C84.3631 273.789 84.0135 273.82 83.7054 273.881L83.5553 273.902C83.1996 273.974 82.8848 274.066 82.5954 274.182L53.5081 285.124C53.1446 285.262 52.7878 285.398 52.4366 285.528L51.8639 285.744C51.5468 285.864 51.2365 285.982 50.9317 286.094C49.0191 286.815 47.3877 287.428 46.1759 287.879C46.0164 287.935 45.8839 287.987 45.7543 288.038C45.5851 288.104 45.4208 288.168 45.2564 288.223L43.2364 288.973C42.4626 289.176 41.7229 289.533 41.0962 290.006C40.5635 290.38 40.106 290.818 39.7081 291.329C39.3663 291.784 39.0975 292.251 38.8979 292.741L38.8796 292.784C38.6467 293.29 38.494 293.81 38.4255 294.332L38.415 294.43C38.3678 294.762 38.3446 295.057 38.3446 295.331C38.3446 298.907 41.3728 301.929 44.9573 301.929H224.266C229.125 301.929 233.685 300.041 237.105 296.613C240.532 293.193 242.419 288.649 242.419 283.816C242.419 278.126 239.702 272.704 235.153 269.315L215.718 254.18C211.976 251.264 208.873 245.306 210.384 240.766C214.694 227.802 217.047 214.731 217.579 200.808L219.654 200.887C219.114 215.008 216.727 228.266 212.355 241.418C211.185 244.934 213.862 250.105 216.996 252.547L236.413 267.669C241.467 271.434 244.495 277.475 244.495 283.816C244.495 289.202 242.393 294.267 238.574 298.077C234.764 301.896 229.682 304 224.266 304" fill="black"/>
<path id="Fill 31" fill-rule="evenodd" clip-rule="evenodd" d="M37.3551 297.188H6.39705C4.70832 297.188 3.05814 296.508 1.86993 295.323C0.664114 294.12 0 292.521 0 290.822C0 287.766 2.98552 284.374 6.14324 283.842L27.6917 280.501C27.0819 254.869 28.8837 229.752 32.9099 207.81C36.5139 188.17 41.8148 171.661 47.8368 161.323C51.2562 155.445 56.702 151.007 63.5849 148.489C77.8263 143.279 94.2008 149.121 102.518 162.379L124.548 197.487C124.635 197.625 124.728 197.761 124.826 197.891L129.839 204.593L128.175 205.831L123.162 199.13C123.03 198.954 122.904 198.771 122.788 198.585L100.758 163.479C92.9583 151.046 77.626 145.559 64.2996 150.434C57.8775 152.783 52.8053 156.908 49.6322 162.364C43.727 172.5 38.5141 188.772 34.9524 208.183C30.9037 230.247 29.1184 255.55 29.79 281.358L29.8132 282.269L6.47567 285.887C4.34444 286.246 2.07657 288.784 2.07657 290.822C2.07657 291.968 2.52431 293.046 3.33816 293.858C4.13967 294.658 5.25488 295.117 6.39705 295.117H37.3551V297.188Z" fill="black"/>
<path id="Fill 32" fill-rule="evenodd" clip-rule="evenodd" d="M250.249 127.706C250.125 125.798 250.174 123.902 250.221 122.069C250.305 118.805 250.385 115.722 249.559 112.614C248.45 108.436 246.17 104.437 242.967 101.053C236.715 94.4461 227.629 90.6748 218.682 90.9575C217.632 90.9911 216.54 91.0576 215.384 91.1282C209.25 91.5032 202.3 91.9275 197.473 87.6183C194.996 85.4161 194.092 82.1475 193.295 79.2637C193.097 78.5499 192.911 77.875 192.705 77.2206C191.465 73.2591 190.446 69.3175 189.675 65.5036C188.889 61.6643 187.58 58.2209 185.786 55.2721C183.646 51.7353 180.812 48.8929 177.587 47.05C171.038 43.2757 162.169 43.1677 156.017 46.7859C155.168 47.2883 154.308 47.905 153.465 48.6169C147.983 53.3145 144.671 61.4973 144.826 69.9663C144.878 71.3162 146.019 103.596 137.128 110.207L135.888 108.546C142.544 103.596 143.098 79.0612 142.75 70.0249C142.583 60.9341 146.173 52.1346 152.118 47.0403C153.055 46.2492 154.009 45.5653 154.96 45.0028C161.73 41.0219 171.46 41.1261 178.622 45.2542C182.149 47.2696 185.242 50.3638 187.562 54.1993C189.479 57.3503 190.875 61.0155 191.71 65.0916C192.467 68.8383 193.468 72.7097 194.686 76.6013C194.902 77.2889 195.102 78.0128 195.296 78.7128C196.053 81.448 196.835 84.2762 198.856 86.0731C203.039 89.8079 209.53 89.4108 215.257 89.0608C216.428 88.9891 217.535 88.9215 218.615 88.8871C228.144 88.5827 237.823 92.5991 244.477 99.6308C247.917 103.266 250.368 107.572 251.567 112.084C252.468 115.478 252.381 118.856 252.297 122.122C252.251 123.909 252.203 125.757 252.321 127.571L250.249 127.706Z" fill="black"/>
<path id="Fill 33" fill-rule="evenodd" clip-rule="evenodd" d="M162.624 110.691L160.607 101.988L157.84 91.1859L159.851 90.6731L162.625 101.498L164.647 110.224L162.624 110.691Z" fill="black"/>
<path id="Fill 34" fill-rule="evenodd" clip-rule="evenodd" d="M169.117 85.2182C168.224 85.2182 167.499 85.9424 167.499 86.8329C167.499 87.7233 168.224 88.4476 169.117 88.4476C170.009 88.4476 170.735 87.7233 170.735 86.8329C170.735 85.9424 170.009 85.2182 169.117 85.2182M169.117 90.5191C167.08 90.5191 165.422 88.8655 165.422 86.8329C165.422 84.8003 167.08 83.1467 169.117 83.1467C171.154 83.1467 172.812 84.8003 172.812 86.8329C172.812 88.8655 171.154 90.5191 169.117 90.5191" fill="black"/>
<path id="Fill 35" fill-rule="evenodd" clip-rule="evenodd" d="M291.191 206.239C291.191 210.635 287.624 214.194 283.218 214.194C282.217 214.194 281.265 214.017 280.393 213.679C278.956 212.245 278.069 210.265 278.069 208.074C278.069 203.678 281.636 200.103 286.042 200.103C287.027 200.103 287.979 200.28 288.851 200.618C290.303 202.052 291.191 204.048 291.191 206.239" fill="#D7E8F0"/>
<path id="Fill 36" fill-rule="evenodd" clip-rule="evenodd" d="M291.191 155.382C291.191 159.778 287.624 163.337 283.218 163.337C282.233 163.337 281.281 163.16 280.409 162.822C278.956 161.389 278.069 159.408 278.069 157.202C278.069 152.805 281.636 149.246 286.042 149.246C287.043 149.246 287.995 149.423 288.883 149.778C290.32 151.227 291.191 153.208 291.191 155.382" fill="#D7E8F0"/>
<path id="Fill 37" fill-rule="evenodd" clip-rule="evenodd" d="M291.191 259.866C291.191 264.262 287.624 267.821 283.218 267.821C282.217 267.821 281.265 267.644 280.393 267.306C278.956 265.872 278.069 263.892 278.069 261.701C278.069 257.305 281.636 253.73 286.042 253.73C287.027 253.73 287.979 253.907 288.851 254.245C290.303 255.678 291.191 257.675 291.191 259.866" fill="#D7E8F0"/>
<path id="Fill 38" fill-rule="evenodd" clip-rule="evenodd" d="M291.191 206.239C291.191 210.635 287.624 214.194 283.218 214.194C282.217 214.194 281.265 214.017 280.393 213.679C278.956 212.245 278.069 210.265 278.069 208.074C278.069 203.678 281.636 200.103 286.042 200.103C287.027 200.103 287.979 200.28 288.851 200.618C290.303 202.052 291.191 204.048 291.191 206.239" fill="#D7E8F0"/>
<path id="Fill 39" fill-rule="evenodd" clip-rule="evenodd" d="M291.191 155.382C291.191 159.778 287.624 163.337 283.218 163.337C282.233 163.337 281.281 163.16 280.409 162.822C278.956 161.389 278.069 159.408 278.069 157.202C278.069 152.805 281.636 149.246 286.042 149.246C287.043 149.246 287.995 149.423 288.883 149.778C290.32 151.227 291.191 153.208 291.191 155.382" fill="#D7E8F0"/>
<path id="Fill 40" fill-rule="evenodd" clip-rule="evenodd" d="M291.191 259.866C291.191 264.262 287.624 267.821 283.218 267.821C282.217 267.821 281.265 267.644 280.393 267.306C278.956 265.872 278.069 263.892 278.069 261.701C278.069 257.305 281.636 253.73 286.042 253.73C287.027 253.73 287.979 253.907 288.851 254.245C290.303 255.678 291.191 257.675 291.191 259.866" fill="#D7E8F0"/>
<path id="Fill 41" fill-rule="evenodd" clip-rule="evenodd" d="M158.047 67.102C154.786 67.102 152.132 69.7498 152.132 73.0046C152.132 76.259 154.786 78.9068 158.047 78.9068C161.31 78.9068 163.963 76.259 163.963 73.0046C163.963 69.7498 161.31 67.102 158.047 67.102M158.047 80.9782C153.641 80.9782 150.055 77.4011 150.055 73.0046C150.055 68.6076 153.641 65.0305 158.047 65.0305C162.454 65.0305 166.04 68.6076 166.04 73.0046C166.04 77.4011 162.454 80.9782 158.047 80.9782" fill="black"/>
<path id="Fill 42" fill-rule="evenodd" clip-rule="evenodd" d="M176.071 66.4875C172.809 66.4875 170.155 69.1353 170.155 72.3897C170.155 75.6445 172.809 78.2923 176.071 78.2923C179.333 78.2923 181.987 75.6445 181.987 72.3897C181.987 69.1353 179.333 66.4875 176.071 66.4875M176.071 80.3637C171.664 80.3637 168.078 76.7866 168.078 72.3897C168.078 67.9931 171.664 64.416 176.071 64.416C180.478 64.416 184.063 67.9931 184.063 72.3897C184.063 76.7866 180.478 80.3637 176.071 80.3637" fill="black"/>
<path id="Fill 43" fill-rule="evenodd" clip-rule="evenodd" d="M165.881 73.5549L164.117 72.4616C164.211 72.31 165.078 70.9691 166.661 70.6785C167.37 70.5478 168.482 70.5971 169.749 71.5682L168.484 73.2113C167.957 72.8068 167.473 72.6402 167.048 72.7138C166.351 72.8351 165.886 73.5478 165.881 73.5549" fill="black"/>
<path id="Fill 44" fill-rule="evenodd" clip-rule="evenodd" d="M169.482 97.4968C169.442 97.4968 169.403 97.4968 169.363 97.4965C163.561 97.4591 158.541 92.8623 156.005 88.9371C153.206 84.5884 152.305 81.3108 151.814 77.7266L153.871 77.4461C154.338 80.8525 155.15 83.7752 157.751 87.8166C160.183 91.5812 164.722 95.3951 169.378 95.425C169.412 95.425 169.445 95.4254 169.479 95.4254C173.503 95.4254 177.066 93.4951 179.27 90.1185C181.204 87.1551 182.322 83.3057 182.594 78.6787C182.752 76.0066 182.826 73.1915 181.874 70.7203C180.886 68.1581 178.566 66.5146 175.983 66.5665C175.344 66.5759 174.706 66.6334 174.03 66.6939C173.157 66.7723 172.254 66.853 171.332 66.8254C167.242 66.6995 163.812 64.501 162.2 61.2556C161.802 61.8775 161.358 62.4531 160.966 62.9599C160.857 63.1015 160.752 63.2375 160.653 63.3674C159.676 64.6572 158.594 65.74 157.439 66.5848C156.948 66.9442 156.384 67.2131 155.838 67.4734C155.126 67.8129 154.39 68.164 154.066 68.6283L152.362 67.445C152.999 66.5311 154.031 66.0388 154.943 65.6044C155.423 65.3754 155.877 65.1588 156.211 64.9141C157.204 64.188 158.142 63.2475 158.997 62.118C159.099 61.9836 159.208 61.8424 159.321 61.6956C160.181 60.5818 161.359 59.0564 161.254 57.9101C161.254 57.9097 161.254 57.9105 161.254 57.9101L163.322 57.72C163.734 62.1879 167.696 64.6411 171.395 64.7546C172.195 64.78 172.996 64.7072 173.844 64.6306C174.528 64.5694 175.235 64.5059 175.952 64.4951C175.993 64.4947 176.034 64.4943 176.075 64.4943C179.496 64.4943 182.523 66.6349 183.811 69.9771C184.912 72.8337 184.838 75.902 184.667 78.8001C184.374 83.7913 183.143 87.9798 181.01 91.2488C178.416 95.224 174.218 97.4968 169.482 97.4968" fill="black"/>
<path id="Fill 45" fill-rule="evenodd" clip-rule="evenodd" d="M335.04 285.883H243.425V283.811H335.04C336.079 283.811 336.923 282.975 336.923 281.948V130.537C336.923 129.51 336.079 128.674 335.04 128.674H231.383C230.354 128.674 229.517 129.51 229.517 130.537V262.801H227.44V130.537C227.44 128.368 229.209 126.603 231.383 126.603H335.04C337.223 126.603 339 128.368 339 130.537V281.948C339 284.118 337.223 285.883 335.04 285.883" fill="black"/>
<path id="Fill 46" fill-rule="evenodd" clip-rule="evenodd" d="M229.523 231.71H336.915V180.767H229.523V231.71ZM227.446 233.782H338.992V178.696H227.446V233.782Z" fill="black"/>
<path id="Fill 47" fill-rule="evenodd" clip-rule="evenodd" d="M171.776 118.312C168.436 118.312 165.215 117.16 162.565 114.99C159.494 112.478 157.558 108.9 157.112 104.916L159.176 104.686C159.561 108.13 161.232 111.221 163.881 113.389C166.523 115.551 169.823 116.535 173.169 116.163C180.091 115.392 185.076 108.989 184.282 101.89L186.345 101.66C187.266 109.894 181.459 117.324 173.399 118.221C172.857 118.282 172.314 118.312 171.776 118.312" fill="black"/>
<path id="Fill 48" fill-rule="evenodd" clip-rule="evenodd" d="M132.455 273.463C131.365 273.463 130.25 273.205 129.136 272.575C128.671 272.318 127.225 271.285 128.46 268.994C128.94 268.106 129.694 267.255 130.246 266.633C130.392 266.468 130.523 266.32 130.625 266.198L132.223 267.52C132.109 267.657 131.964 267.821 131.801 268.005C131.316 268.551 130.653 269.3 130.288 269.976C130.014 270.484 130.045 270.681 130.048 270.696C130.05 270.696 130.076 270.726 130.152 270.769C132.806 272.27 135.656 270.743 138.094 269.052C142.883 265.752 148.057 262.508 153.472 259.406C155.234 258.398 157.048 257.428 158.803 256.489C162.067 254.745 165.441 252.94 168.547 250.847C173.705 247.364 179.183 243.577 184.296 239.479C190.703 234.329 196.539 228.857 201.64 223.215C207.034 217.215 211.641 210.976 215.331 204.673C219.248 197.986 222.265 191.011 224.301 183.942C226.432 176.478 227.488 168.795 227.44 161.109C227.409 155.152 226.738 149.101 225.446 143.123C223.239 132.9 218.334 123.463 211.634 116.55C204.355 109.04 195.216 104.656 185.204 103.87C184.436 103.805 183.711 103.759 182.982 103.728L182.28 103.698L182.006 102.924L181.992 102.8L180.442 88.3388L182.506 88.1184L183.963 101.704C184.426 101.731 184.892 101.765 185.373 101.806C195.891 102.63 205.491 107.231 213.126 115.11C220.092 122.298 225.188 132.091 227.476 142.687C228.798 148.804 229.484 154.998 229.516 161.097C229.565 168.979 228.482 176.857 226.297 184.512C224.213 191.749 221.127 198.883 217.124 205.719C213.363 212.142 208.673 218.495 203.184 224.601C198.007 230.326 192.091 235.874 185.598 241.093C180.426 245.238 174.906 249.055 169.711 252.563C166.515 254.716 163.093 256.546 159.783 258.315C158.042 259.247 156.241 260.209 154.505 261.203C149.14 264.276 144.016 267.49 139.277 270.755C137.332 272.104 134.957 273.463 132.455 273.463" fill="black"/>
<path id="Fill 49" fill-rule="evenodd" clip-rule="evenodd" d="M283.219 199.316C279.393 199.316 276.281 202.421 276.281 206.239C276.281 210.056 279.393 213.161 283.219 213.161C287.045 213.161 290.158 210.056 290.158 206.239C290.158 202.421 287.045 199.316 283.219 199.316M283.219 215.233C278.248 215.233 274.204 211.198 274.204 206.239C274.204 201.279 278.248 197.244 283.219 197.244C288.19 197.244 292.234 201.279 292.234 206.239C292.234 211.198 288.19 215.233 283.219 215.233" fill="black"/>
<path id="Fill 50" fill-rule="evenodd" clip-rule="evenodd" d="M283.219 148.452C279.393 148.452 276.281 151.557 276.281 155.375C276.281 159.192 279.393 162.298 283.219 162.298C287.045 162.298 290.158 159.192 290.158 155.375C290.158 151.557 287.045 148.452 283.219 148.452M283.219 164.37C278.248 164.37 274.204 160.335 274.204 155.375C274.204 150.415 278.248 146.381 283.219 146.381C288.19 146.381 292.234 150.415 292.234 155.375C292.234 160.335 288.19 164.37 283.219 164.37" fill="black"/>
<path id="Fill 51" fill-rule="evenodd" clip-rule="evenodd" d="M283.219 252.943C279.393 252.943 276.281 256.048 276.281 259.866C276.281 263.683 279.393 266.789 283.219 266.789C287.045 266.789 290.158 263.683 290.158 259.866C290.158 256.048 287.045 252.943 283.219 252.943M283.219 268.861C278.248 268.861 274.204 264.826 274.204 259.866C274.204 254.906 278.248 250.872 283.219 250.872C288.19 250.872 292.234 254.906 292.234 259.866C292.234 264.826 288.19 268.861 283.219 268.861" fill="black"/>
<path id="Fill 52" fill-rule="evenodd" clip-rule="evenodd" d="M225.557 183.246C224.234 186.918 222.603 191.556 220.247 196.822C222.571 190.589 226.719 177.803 227.59 163.341C227.59 163.341 230.351 170.089 225.557 183.246" fill="black"/>
<path id="Fill 53" fill-rule="evenodd" clip-rule="evenodd" d="M231.309 52.9104C231.771 52.9638 232.233 53.0116 232.694 53.0718C234.825 53.35 236.828 54.0235 238.677 55.1074C243.076 57.685 245.732 61.5157 246.799 66.4718C247.142 68.067 247.227 69.681 247.119 71.3031C247.04 72.5099 246.828 73.6996 246.496 74.8645C246.254 75.7169 245.517 76.2618 244.651 76.2499C243.833 76.2383 243.094 75.684 242.913 74.8574C242.836 74.509 242.852 74.1071 242.945 73.7612C243.338 72.2903 243.511 70.7959 243.415 69.2839C243.193 65.7841 241.929 62.7206 239.395 60.2476C237.513 58.4107 235.248 57.282 232.651 56.8199C230.134 56.3721 227.705 56.6388 225.409 57.7727C222.237 59.3396 220.285 61.8799 219.59 65.3404C219.086 67.8489 219.451 70.2453 220.882 72.3945C222.708 75.135 225.323 76.4318 228.611 76.229C231.517 76.0501 233.861 74.131 234.582 71.4174C235.078 69.5525 234.806 67.806 233.394 66.4027C232.349 65.3651 231.049 64.9225 229.572 65.2878C228.714 65.4999 227.978 66.1487 228.001 67.1702C228.753 66.6201 229.53 66.5558 230.306 67.0843C230.838 67.4463 231.087 68.0047 231.19 68.615C231.399 69.8483 230.886 70.8131 229.738 71.333C229.327 71.5194 228.891 71.6867 228.449 71.7625C227.322 71.956 226.373 71.5142 225.572 70.7705C224.525 69.7979 224.122 68.5548 224.167 67.143C224.255 64.4369 226.204 62.3531 228.691 61.7009C231.84 60.8755 235.165 62.2433 237.011 64.9318C237.905 66.2346 238.434 67.6707 238.495 69.2492C238.649 73.186 237.038 76.2633 233.727 78.3572C230.429 80.4433 226.885 80.5415 223.336 79.065C219.329 77.3977 216.87 74.3278 215.971 70.1236C215.061 65.8678 216.086 61.9792 218.741 58.5504C221.047 55.5717 224.141 53.8419 227.828 53.1483C228.357 53.049 228.9 53.0228 229.437 52.9605C229.538 52.9489 229.638 52.9272 229.738 52.9104H231.309Z" fill="black"/>
<path id="Fill 54" fill-rule="evenodd" clip-rule="evenodd" d="M243.36 31.6033C242.941 32.0619 242.528 32.5258 242.102 32.9781C240.134 35.0691 237.836 36.7132 235.212 37.87C228.97 40.6205 222.725 40.5059 216.498 37.7889C214.493 36.9146 212.671 35.7451 210.989 34.3613C209.738 33.3322 208.609 32.1729 207.601 30.9037C206.863 29.9744 206.845 28.7504 207.534 27.8226C208.187 26.9449 209.367 26.5773 210.408 27.0266C210.847 27.216 211.272 27.5477 211.576 27.9182C212.869 29.4937 214.361 30.8491 216.081 31.9263C220.064 34.4195 224.386 35.4433 229.056 34.6313C232.526 34.0277 235.525 32.4549 238.056 30.0028C240.51 27.6265 242.118 24.7856 242.678 21.4124C243.451 16.7522 242.212 12.6521 238.989 9.19531C236.652 6.68944 233.759 5.21221 230.302 5.0841C225.893 4.9205 222.438 6.74061 220.09 10.4608C218.014 13.7488 218.271 17.7883 220.661 20.6897C222.303 22.6835 224.417 23.7532 227.047 23.3199C228.992 22.9995 230.49 21.9357 231.246 20.051C231.686 18.9551 231.555 17.6512 230.425 16.8784C230.437 18.1226 229.899 19.0149 228.718 19.4429C227.909 19.7357 227.106 19.5692 226.361 19.2046C224.855 18.4673 224.206 17.1578 224.538 15.5076C224.656 14.9164 224.815 14.3131 225.078 13.7749C225.747 12.4034 226.97 11.7199 228.405 11.4334C230.282 11.0588 231.949 11.5936 233.45 12.7463C236.327 14.9556 237.072 18.6955 235.838 21.8991C234.276 25.9558 230.19 28.4886 225.822 28.3881C223.705 28.3392 221.729 27.7894 219.963 26.6229C215.559 23.7132 213.469 19.5632 213.776 14.3415C214.082 9.13817 216.746 5.22117 221.124 2.53079C226.07 -0.507711 231.333 -0.774023 236.611 1.53725C241.953 3.87691 245.384 8.02548 247.041 13.5811C248.481 18.4068 247.947 23.1093 245.821 27.6463C245.515 28.2977 245.119 28.9065 244.768 29.5363C244.702 29.655 244.647 29.7798 244.587 29.9016C244.178 30.4689 243.769 31.0359 243.36 31.6033" fill="black"/>
<path id="Fill 55" fill-rule="evenodd" clip-rule="evenodd" d="M172.812 72.9726H179.699V71.2085H172.812V72.9726Z" fill="black"/>
<path id="Fill 56" fill-rule="evenodd" clip-rule="evenodd" d="M154.604 72.9726H161.491V71.2085H154.604V72.9726Z" fill="black"/>
</g>
</g>
</svg>
