<svg width="136" height="146" viewBox="0 0 136 146" fill="none" xmlns="http://www.w3.org/2000/svg">
<mask id="mask0_0_2087" style="mask-type:luminance" maskUnits="userSpaceOnUse" x="0" y="3" width="136" height="143">
<path fill-rule="evenodd" clip-rule="evenodd" d="M0 3.0675H136V146H0V3.0675Z" fill="white"/>
</mask>
<g mask="url(#mask0_0_2087)">
<path fill-rule="evenodd" clip-rule="evenodd" d="M135.49 91.2391C135.97 88.1376 136.121 84.9801 135.901 81.7881C134.402 60.0313 126.641 31.8607 111.064 16.0139C106.291 11.1579 100.414 7.55693 93.8285 5.78024C78.9106 1.75557 64.7525 0.754519 53.4471 13.1817C46.1229 21.2326 44.8182 31.5136 39.3053 40.3984C28.8475 57.252 4.63396 61.4031 0.55789 82.9305C-2.43094 98.7159 7.06021 114.191 17.7814 124.991C28.5975 135.885 43.0388 143.513 58.3128 145.479C62.0161 145.955 65.7604 146.111 69.4907 145.922C97.4992 144.505 130.983 120.334 135.49 91.2391" fill="#EBEFFF"/>
</g>
<path fill-rule="evenodd" clip-rule="evenodd" d="M107.475 62.6803C107.301 62.7302 105.113 63.3779 104.251 64.8891C103.928 64.2082 103.24 63.7266 102.419 63.7266H76.7013C75.7555 63.7266 74.9442 64.3743 74.7286 65.2959L69.6645 87.0513C69.3247 86.9848 68.9766 86.9433 68.6202 86.9101L56.6686 83.9207C55.5996 83.6551 54.5137 84.2447 54.149 85.2743C54.0663 85.5067 54.033 85.7394 54.033 85.9719C54.033 87.0513 54.8619 88.0145 56.0139 88.0976L61.6656 88.4628C56.2212 91.0287 49.5989 95.9194 44.0707 100.412C38.6917 91.9752 43.7392 83.5389 47.5351 78.9968C47.0462 73.9898 44.5679 62.3648 32.2021 62.6803C36.4621 57.2082 41.7741 52.5167 48.3557 49.3779C70.8995 74.4132 96.6922 53.9449 97.2393 53.5049C101.226 56.1038 104.616 59.2177 107.475 62.6803" fill="#2E2E2E"/>
<path fill-rule="evenodd" clip-rule="evenodd" d="M105.132 134.498V138.824H30.6795V132.696C33.5803 132.862 36.6312 132.19 39.4069 130.927C42.9211 129.325 45.9554 126.834 48.5488 123.994C51.2175 121.055 52.6846 116.978 54.3837 113.432C56.9371 108.093 60.3188 104.29 65.6887 102.679L65.3405 104.157C65.0513 105.436 66.0119 106.648 67.3131 106.648H93.1647C92.6426 111.123 90.4786 135.528 105.132 134.498" fill="#2E2E2E"/>
<path fill-rule="evenodd" clip-rule="evenodd" d="M93.1764 20.7225C93.1682 22.8151 92.9028 25.0985 92.2812 27.5813C91.9249 28.9763 91.0869 30.1471 89.9607 30.9193C89.3224 31.3512 88.5848 31.6667 87.7974 31.8079C87.756 30.2468 87.0929 28.8766 86.081 28.0296C86.1812 26.6513 86.1481 25.2978 86.0403 24.0606C85.974 23.1887 85.8663 22.3749 85.7585 21.6442C85.6922 21.2291 85.6011 20.8223 85.4767 20.4153C85.3275 20.2409 84.9546 19.8756 84.2832 19.5019C82.6919 18.6051 79.4171 17.6503 73.3511 19.0535C72.3399 19.286 71.4117 19.7261 70.6161 20.324C70.5995 20.3322 70.5828 20.3489 70.5663 20.3654C70.0194 20.872 69.3231 21.5114 68.6021 21.8436C67.856 22.1841 67.077 22.2006 66.4223 21.3868C66.4056 21.3703 66.3966 21.3536 66.3808 21.3371C66.0327 20.8886 65.7094 20.3073 65.1044 20.1911C63.828 19.9503 63.2064 21.2291 63.0482 22.2919C62.9073 23.28 63.1982 24.1519 63.6209 24.9823C63.9607 25.6631 64.4414 26.2527 64.9884 26.7925C65.1126 26.917 65.2453 27.0581 65.378 27.2409C65.32 27.2492 65.2702 27.2658 65.2204 27.2823C65.1044 27.3239 64.9884 27.3654 64.8724 27.4235C63.3307 28.1211 62.2285 29.8647 62.2036 31.9074C62.2027 31.9714 59.6143 31.9348 59.2812 31.9033C58.0189 31.7862 56.7739 31.4208 55.8854 30.4667C53.3617 27.759 53.3742 23.7417 54.4102 20.5981C55.3924 17.6145 56.6406 14.7016 58.2791 12.0179C61.8255 6.20953 67.3298 1.92402 74.2985 1.53973C75.9668 1.4474 77.6444 1.56294 79.2938 1.83186C80.0894 1.95652 80.8602 2.13087 81.6062 2.34683C88.709 5.45229 93.2178 12.4937 93.1764 20.7225" fill="#2E2E2E"/>
<path fill-rule="evenodd" clip-rule="evenodd" d="M89.0632 86.9366C88.2236 89.0947 86.2261 90.3294 84.5999 89.6951C82.9738 89.0615 82.3366 86.798 83.1753 84.6398C84.0132 82.4817 86.0115 81.2462 87.6368 81.8806C89.263 82.5149 89.9019 84.7786 89.0632 86.9366" fill="#6D49D5"/>
<path fill-rule="evenodd" clip-rule="evenodd" d="M104.364 135.41C101.637 135.41 99.3305 134.523 97.4825 132.759C90.0578 125.672 92.6466 106.914 92.7604 106.119L93.991 106.296C93.9843 106.343 93.3146 111.11 93.536 116.648C93.7376 121.687 94.7349 128.417 98.3409 131.858C100.484 133.904 103.375 134.592 106.933 133.903C110.384 133.235 113.594 129.708 115.97 123.975C118.375 118.172 119.718 110.617 119.752 102.699C119.804 90.205 116.655 78.1392 110.883 68.725C107.548 63.2864 103.356 58.726 98.4231 55.17C92.9804 51.2468 86.5921 48.5229 79.436 47.0738L79.6825 45.8528C87.0125 47.3372 93.5622 50.1319 99.1491 54.1592C104.217 57.8118 108.521 62.4931 111.942 68.073C117.833 77.6823 121.049 89.9813 120.995 102.705C120.961 110.78 119.584 118.504 117.118 124.452C114.577 130.585 111.043 134.376 107.169 135.126C106.19 135.315 105.255 135.41 104.364 135.41" fill="black"/>
<path fill-rule="evenodd" clip-rule="evenodd" d="M43.3831 100.755C40.0089 95.4643 40.149 89.3304 43.7883 83.0168C46.4986 78.3152 50.1372 75.213 50.2908 75.0832L51.0924 76.0351C51.0564 76.0658 47.4473 79.1469 44.8487 83.6678C41.4241 89.626 41.2836 95.1494 44.4307 100.085L43.3831 100.755Z" fill="black"/>
<path fill-rule="evenodd" clip-rule="evenodd" d="M92.5976 101.025C92.3714 100.97 92.1419 100.925 91.8989 100.877C91.6861 100.835 91.4664 100.792 91.2471 100.741C90.0562 100.464 89.1006 100.168 88.2397 99.8094C87.1358 99.3522 86.2108 98.6407 85.4515 98.005C84.9651 97.5977 83.8556 96.5009 84.0581 95.113C84.1618 94.3987 84.654 93.7905 85.3427 93.5261C85.9939 93.2752 86.8233 93.4964 87.3056 93.8452C88.8668 94.9737 90.4393 95.772 92.1124 96.2856C92.403 96.3745 92.7073 96.4615 93.016 96.5442C93.1025 96.5676 93.2017 96.6011 93.3056 96.6371C93.4114 96.6739 93.6086 96.7423 93.678 96.7435L93.7504 97.9866C93.4525 98.0056 93.1578 97.9039 92.899 97.8142C92.8255 97.7887 92.7558 97.764 92.6946 97.7475C92.3721 97.6612 92.0537 97.57 91.7488 97.4767C89.9428 96.9223 88.2516 96.0648 86.5781 94.855C86.3677 94.7029 85.9691 94.619 85.7884 94.6888C85.5145 94.794 85.3281 95.0194 85.2883 95.2925C85.197 95.9187 85.7246 96.6104 86.2487 97.0492C86.9357 97.6244 87.766 98.2654 88.7158 98.6588C89.5127 98.9906 90.406 99.2666 91.5282 99.5278C91.73 99.5747 91.9341 99.6146 92.1378 99.6547C92.3841 99.703 92.6385 99.753 92.8926 99.8151L92.5976 101.025Z" fill="black"/>
<path fill-rule="evenodd" clip-rule="evenodd" d="M86.3439 94.7001C85.1336 94.3081 84.3258 93.2757 84.183 91.9384C84.0524 90.7152 84.5441 89.5566 85.4063 89.055C85.8905 88.7734 86.9175 88.4558 88.3521 89.4942C91.6797 91.9028 94.4941 93.0127 97.7632 93.2052C97.9101 93.2114 98.0179 93.2035 98.0934 93.1808L98.1405 93.1686C98.7235 93.0414 98.9123 92.2939 98.9684 91.6894C99.059 90.7169 98.9081 89.7177 98.7485 88.8685L99.9703 88.6383C100.146 89.5724 100.311 90.6792 100.206 91.8048C100.029 93.7223 99.0269 94.2422 98.4283 94.3805C98.2192 94.4401 97.9936 94.4615 97.7008 94.4491C94.1679 94.241 91.1574 93.0613 87.624 90.5038C87.2526 90.2349 86.5509 89.8293 86.0305 90.1324C85.5925 90.3871 85.3411 91.075 85.4192 91.8058C85.4619 92.2062 85.6751 93.1745 86.7264 93.5149L86.3439 94.7001Z" fill="black"/>
<path fill-rule="evenodd" clip-rule="evenodd" d="M94.1707 106.92C93.921 106.92 93.6238 106.89 93.2718 106.83C91.0866 106.442 89.2247 105.821 87.7333 104.982C86.9042 104.526 86.2947 103.977 85.9273 103.352C85.7488 103.05 85.2229 102.035 85.5181 101.009C84.699 100.306 84.3483 99.1346 84.4386 98.2333C84.5049 97.573 84.8119 97.1014 85.2811 96.9396C85.63 96.8192 86.1907 96.8273 86.8794 97.5482L86.8818 97.5503C86.9445 97.6131 86.9986 97.667 87.0502 97.7085L86.2731 98.6808C86.1682 98.5967 86.0807 98.5091 86.0035 98.4317L85.9813 98.4093C85.8614 98.2838 85.7709 98.2135 85.7097 98.1743C85.6722 98.3029 85.6424 98.5455 85.7024 98.8799C85.8083 99.4682 86.1176 99.9644 86.5295 100.207C86.5777 100.237 86.6141 100.258 86.6531 100.281L86.6762 100.295C86.7243 100.309 86.7643 100.325 86.7952 100.337L86.8359 100.355C86.9563 100.411 87.0703 100.462 87.1897 100.512L87.2048 100.517C88.8895 101.057 90.4753 101.571 92.052 102.087L91.6957 103.279L91.5723 103.246C89.9779 102.811 88.3298 102.36 86.7725 101.687C86.7471 101.679 86.7214 101.671 86.6955 101.662C86.6889 101.66 86.6826 101.658 86.6762 101.656C86.6778 102.014 86.8182 102.415 86.9975 102.718C87.2472 103.143 87.7099 103.549 88.3365 103.893C89.7111 104.666 91.4414 105.24 93.4844 105.603C94.0077 105.692 94.2479 105.676 94.3269 105.665L94.4968 106.899C94.3986 106.913 94.29 106.92 94.1707 106.92" fill="black"/>
<path fill-rule="evenodd" clip-rule="evenodd" d="M108.587 110.542C108.356 110.147 102.912 100.772 102.287 92.4205C102.024 88.8668 101.153 86.7794 99.8973 86.6929L99.9824 85.4503C102.503 85.624 103.301 89.2862 103.527 92.3279C104.13 100.387 109.604 109.817 109.659 109.911L108.587 110.542Z" fill="black"/>
<path fill-rule="evenodd" clip-rule="evenodd" d="M93.2838 107.528H67.4329C66.6254 107.528 65.873 107.165 65.3688 106.533C64.8615 105.896 64.6739 105.074 64.8542 104.276L65.2033 102.786L73.9637 65.1546C74.246 63.9471 75.3061 63.1039 76.5417 63.1039H102.261C103.065 63.1039 103.817 63.4641 104.322 64.0919C104.827 64.7191 105.019 65.5302 104.848 66.3168L98.8808 93.9092L97.6657 93.6454L103.633 66.0527C103.723 65.6359 103.622 65.2062 103.354 64.8735C103.086 64.5405 102.688 64.3494 102.261 64.3494H76.5417C75.8866 64.3494 75.324 64.7972 75.1742 65.4382L66.414 103.069L66.0656 104.556C65.9703 104.978 66.07 105.417 66.3402 105.756C66.607 106.09 67.0056 106.283 67.4329 106.283H93.2838V107.528Z" fill="black"/>
<path fill-rule="evenodd" clip-rule="evenodd" d="M66.3849 20.8076C66.3849 20.8076 67.745 15.025 75.4313 14.2578C83.1187 13.4897 85.0366 19.2466 85.0366 19.2466L84.7944 19.8245C84.7944 19.8245 74.6971 15.7632 69.1175 21.5549C69.1175 21.5549 67.1076 22.4684 66.3849 20.8076" fill="#6D49D5"/>
<path fill-rule="evenodd" clip-rule="evenodd" d="M61.4621 89.0878L55.8112 88.715C54.9498 88.6581 54.1825 88.2119 53.7062 87.4908C53.23 86.7698 53.1201 85.8881 53.4045 85.0717C53.8731 83.7228 55.2713 82.9664 56.6549 83.3126L68.6092 86.3044L68.3078 87.5128L56.3537 84.521C55.5975 84.3315 54.8343 84.7449 54.5786 85.4816C54.4228 85.9282 54.4828 86.4098 54.743 86.8035C55.003 87.1973 55.4223 87.4411 55.8931 87.4722L61.544 87.8448L61.4621 89.0878Z" fill="black"/>
<path fill-rule="evenodd" clip-rule="evenodd" d="M73.608 62.4256C70.7627 62.4256 67.9788 62.0498 65.2779 61.2984C58.9122 59.5277 53.0092 55.6581 47.7323 49.7975L48.6554 48.9632C53.7715 54.6454 59.476 58.3919 65.6105 60.0984C70.5099 61.4614 75.7029 61.5363 81.045 60.3207C90.1733 58.2438 96.6298 53.0669 96.694 53.015L97.4763 53.9827C97.2053 54.2028 90.7284 59.3948 81.3205 61.5353C78.7118 62.1289 76.1359 62.4256 73.608 62.4256" fill="black"/>
<path fill-rule="evenodd" clip-rule="evenodd" d="M46.7577 79.0575C46.2841 74.2173 43.8983 62.9924 32.0504 63.3027L32.0178 62.0577C37.6076 61.9134 41.8656 64.0804 44.6861 68.5042C46.9201 72.0084 47.7187 76.1113 47.995 78.9359L46.7577 79.0575Z" fill="black"/>
<path fill-rule="evenodd" clip-rule="evenodd" d="M104.633 65.2008L103.552 64.5847C104.561 62.8084 107.049 62.106 107.154 62.0769L107.485 63.2776C107.464 63.2835 105.385 63.8758 104.633 65.2008" fill="black"/>
<mask id="mask1_0_2087" style="mask-type:luminance" maskUnits="userSpaceOnUse" x="0" y="0" width="136" height="146">
<path fill-rule="evenodd" clip-rule="evenodd" d="M0 146H136V0H0V146Z" fill="white"/>
</mask>
<g mask="url(#mask1_0_2087)">
<path fill-rule="evenodd" clip-rule="evenodd" d="M12.566 139.704H123.42V138.459H12.566V139.704Z" fill="black"/>
<path fill-rule="evenodd" clip-rule="evenodd" d="M86.0813 28.0295C87.1265 28.9097 87.8053 30.3463 87.8053 31.9737C87.8053 34.6723 85.9322 36.8562 83.6197 36.8562C83.3546 36.8562 83.0901 36.823 82.8414 36.7649C85.5359 34.7055 86.0813 28.0295 86.0813 28.0295" fill="#6D49D5"/>
<path fill-rule="evenodd" clip-rule="evenodd" d="M75.4484 40.6265C73.7911 40.6265 72.1191 40.2438 70.5668 39.4834L71.1127 38.3644C73.6402 39.6026 76.5197 39.7149 79.0129 38.6729C82.0834 37.3886 86.9636 33.4807 85.1442 21.7398C85.0959 21.438 85.0336 21.1399 84.9583 20.8515L84.8814 20.5943C84.0413 17.7894 81.867 15.6755 79.2072 15.0775C73.5532 13.7967 68.5902 17.1668 66.61 21.1576L65.4968 20.6031C67.6931 16.1769 73.2015 12.4408 79.4804 13.8624C82.4337 14.5263 84.8684 16.7787 85.9278 19.7925H86.0984L86.1054 20.3312C86.216 20.7219 86.3059 21.1299 86.3721 21.5457C86.7626 24.0651 87.0579 27.8001 86.2501 31.3022C85.2858 35.4833 83.0119 38.35 79.4917 39.8223C78.2068 40.3593 76.8326 40.6265 75.4484 40.6265" fill="black"/>
<path fill-rule="evenodd" clip-rule="evenodd" d="M85.4764 21.0381H85.1966L85.061 20.8847L85.0598 20.8856C85.0569 20.8816 85.0507 20.8737 85.0413 20.8624L85.0111 20.8282C84.8155 20.6072 84.0419 19.8486 82.2929 19.3699C80.0023 18.7427 77.0409 18.8407 73.4912 19.6603C72.5776 19.8704 71.736 20.2613 70.9894 20.8221L70.9398 20.8594L70.8837 20.8863C70.9537 20.8529 70.998 20.8134 71.0098 20.802L70.1375 19.9144C70.1641 19.8887 70.207 19.847 70.2688 19.8068C71.149 19.1508 72.1393 18.6933 73.2125 18.4466C76.9637 17.58 80.1294 17.4864 82.6206 18.1684C84.3265 18.6352 85.2857 19.3575 85.7391 19.7925H86.098L86.1064 20.4236H85.6847L85.4827 20.5718L85.4764 21.0381Z" fill="black"/>
<path fill-rule="evenodd" clip-rule="evenodd" d="M62.5572 35.223H58.2887C54.9653 35.223 52.2974 32.2748 51.1277 29.3534C49.5225 25.3435 50.6317 21.2289 51.9284 17.7329C53.1948 14.318 54.6721 11.4501 56.4447 8.96539C60.9151 2.701 67.6393 -0.540469 74.8966 0.0737109C75.5347 0.126841 76.203 0.209718 76.882 0.320277C86.8935 1.94531 93.8496 10.3363 93.7978 20.7256C93.7897 22.9849 93.4823 25.3428 92.8839 27.7326C92.2727 30.146 90.3195 31.9855 87.9073 32.4206L87.6871 31.1949C89.6204 30.846 91.1872 29.3675 91.6785 27.4279C92.2519 25.1373 92.547 22.8799 92.5545 20.7203C92.6032 10.9574 86.0766 3.07446 76.6829 1.54984C76.0354 1.44444 75.3997 1.36535 74.793 1.31479C71.3246 1.02129 68.0332 1.62962 65.0101 3.12243C62.072 4.57294 59.5304 6.78258 57.4559 9.68962C55.7484 12.0836 54.3215 14.8565 53.0939 18.1667C51.8187 21.6046 50.8377 25.283 52.2816 28.8898C53.6885 32.4041 56.3125 33.9774 58.2887 33.9774H62.5572V35.223Z" fill="black"/>
<path fill-rule="evenodd" clip-rule="evenodd" d="M64.8753 27.6068C64.7648 27.4546 64.6531 27.337 64.5489 27.2323C63.8875 26.5799 63.4009 25.9338 63.0649 25.2604C62.678 24.5006 62.2544 23.4621 62.4328 22.204C62.5048 21.7193 62.7664 20.5342 63.6465 19.9072C64.1004 19.5837 64.6445 19.4703 65.2196 19.5788C65.9672 19.7225 66.3801 20.2865 66.7115 20.7397C66.7652 20.813 66.8179 20.8854 66.8717 20.9543C67.1061 21.2585 67.3522 21.4165 67.6247 21.4392C68.4324 21.5059 69.4853 20.5215 70.1871 19.8704L70.2269 19.8334L71.0716 20.7473L71.0318 20.7841C70.1188 21.6318 68.8692 22.7925 67.5219 22.6804C66.8909 22.628 66.3415 22.3041 65.8891 21.7176C65.8297 21.6409 65.7697 21.559 65.7089 21.4762C65.4746 21.156 65.2534 20.8535 64.9874 20.8025C64.7437 20.7567 64.5463 20.7944 64.3671 20.9222C64.0314 21.1613 63.7617 21.7213 63.663 22.3835C63.5627 23.091 63.7203 23.8065 64.1746 24.699C64.4507 25.2522 64.8588 25.7902 65.4245 26.3485C65.5615 26.4855 65.7195 26.6521 65.8805 26.8741L64.8753 27.6068Z" fill="black"/>
<path fill-rule="evenodd" clip-rule="evenodd" d="M83.6197 37.479C83.3151 37.479 83.0056 37.4427 82.7003 37.3713L82.9828 36.1584C83.1956 36.2081 83.41 36.2334 83.6197 36.2334C85.585 36.2334 87.1838 34.3226 87.1838 31.9737C87.1838 30.5947 86.6221 29.2986 85.6814 28.5061L86.4815 27.5529C87.6996 28.5789 88.4271 30.2316 88.4271 31.9737C88.4271 35.0093 86.2704 37.479 83.6197 37.479" fill="black"/>
<path fill-rule="evenodd" clip-rule="evenodd" d="M78.9387 32.5406C78.162 32.5406 77.297 32.2081 76.779 31.8601L77.4719 30.8257C78.0738 31.2303 79.0211 31.4055 79.2641 31.2358C79.3122 31.2021 79.3275 31.0312 79.2635 30.7698C78.562 27.9185 78.717 25.763 79.7239 24.3636C80.4389 23.3702 81.5531 22.8063 83.0357 22.6875L83.0737 22.6845L83.1116 22.6861C83.3327 22.6954 85.3027 22.7992 86.3967 23.5534L85.6921 24.5795C85.0298 24.123 83.6301 23.9602 83.0963 23.9323C81.9988 24.0274 81.2255 24.4071 80.7324 25.0921C79.9596 26.166 79.8689 28.0265 80.4707 30.4722C80.7324 31.5401 80.2733 32.0485 79.9765 32.2566C79.6877 32.4588 79.324 32.5406 78.9387 32.5406" fill="black"/>
<path fill-rule="evenodd" clip-rule="evenodd" d="M77.5391 35.9704C77.254 35.9704 76.9492 35.9313 76.6417 35.8282C75.8768 35.5718 75.2804 34.9961 74.8685 34.117L75.9942 33.5879C76.2543 34.1433 76.6022 34.4987 77.0282 34.6443C77.7499 34.8912 78.5246 34.4999 78.5323 34.4959L79.11 35.5988C79.0727 35.6186 78.3953 35.9704 77.5391 35.9704" fill="black"/>
<path fill-rule="evenodd" clip-rule="evenodd" d="M74.2246 26.5443C74.1375 27.305 74.4343 27.9642 74.8893 28.0174C75.3435 28.0696 75.7836 27.4959 75.8715 26.7354C75.9593 25.9747 75.6617 25.3155 75.2074 25.263C74.7533 25.2099 74.3124 25.7837 74.2246 26.5443" fill="black"/>
<path fill-rule="evenodd" clip-rule="evenodd" d="M81.6006 26.994C81.5127 27.7546 81.8095 28.4139 82.2645 28.467C82.7194 28.5201 83.1588 27.9455 83.2467 27.185C83.3354 26.4243 83.0378 25.7651 82.5835 25.7127C82.1285 25.6595 81.6885 26.2333 81.6006 26.994" fill="black"/>
<path fill-rule="evenodd" clip-rule="evenodd" d="M72.9321 24.2143L72.2579 23.1677C75.8792 20.8262 77.6294 23.4349 77.6469 23.4616L76.6041 24.1397L77.1255 23.8007L76.6083 24.1461C76.496 23.9822 75.4404 22.5924 72.9321 24.2143" fill="black"/>
<path fill-rule="evenodd" clip-rule="evenodd" d="M78.941 50.994H80.1843V39.1091H78.941V50.994Z" fill="black"/>
<path fill-rule="evenodd" clip-rule="evenodd" d="M33.0923 110.679L32.2373 109.775C32.2864 109.728 37.2163 105.057 43.5116 99.9366C50.6673 94.1213 56.6331 90.0713 61.2431 87.8995C61.9724 87.5601 62.6695 87.2639 63.3174 87.0173C65.0218 86.3777 66.7696 86.1335 68.5159 86.29C68.9662 86.3319 69.3076 86.3782 69.624 86.4403L69.3855 87.6626C69.1112 87.609 68.8081 87.568 68.4029 87.5304C66.8458 87.3908 65.282 87.61 63.7562 88.1827C63.1384 88.4176 62.4692 88.7023 61.7695 89.028C57.2529 91.1558 51.3729 95.1517 44.2951 100.904C38.0387 105.993 33.1411 110.632 33.0923 110.679" fill="black"/>
<path fill-rule="evenodd" clip-rule="evenodd" d="M31.6605 133.602C30.8963 133.602 30.1468 133.549 29.4186 133.442C25.7007 132.894 22.6685 130.974 20.6495 127.889C17.5119 123.09 16.546 117.09 16.0925 112.994C15.0511 103.569 18.5171 79.0226 31.5534 62.2972C36.2111 56.3133 41.7206 51.7774 47.9289 48.8159C52.6925 46.5502 57.9029 45.1827 63.4238 44.7482L64.9911 36.6466L66.2115 36.8835L64.463 45.9229L63.9863 45.9556C58.4443 46.3368 53.2213 47.6774 48.4627 49.9407C42.4311 52.818 37.0715 57.2331 32.5336 63.0634C25.2832 72.3655 21.5239 83.4273 19.6469 91.0686C17.2407 100.864 16.894 108.928 17.328 112.857C17.7676 116.826 18.6978 122.631 21.6893 127.207C23.5077 129.985 26.2432 131.715 29.5997 132.21C32.6108 132.654 36.0455 132.088 39.2691 130.618C42.3865 129.196 45.3946 126.913 48.2101 123.831C50.2368 121.599 51.5694 118.64 52.8582 115.779C53.2102 114.998 53.5745 114.19 53.943 113.42C56.8275 107.387 60.5412 103.866 65.6302 102.34L65.8074 102.932L66.4302 102.928V103.4L65.9869 103.533C61.2573 104.951 57.7867 108.264 55.064 113.958C54.7016 114.715 54.3566 115.481 53.9912 116.292C52.6628 119.241 51.289 122.291 49.1284 124.671C46.1981 127.878 43.0548 130.26 39.7844 131.752C37.1168 132.968 34.3032 133.602 31.6605 133.602" fill="black"/>
<path fill-rule="evenodd" clip-rule="evenodd" d="M104.629 139.081H105.872V134.788H104.629V139.081Z" fill="black"/>
<path fill-rule="evenodd" clip-rule="evenodd" d="M30.1766 139.082H31.4199V133.253H30.1766V139.082Z" fill="black"/>
<path fill-rule="evenodd" clip-rule="evenodd" d="M70.5662 31.9737C70.5662 33.3522 70.0772 34.5975 69.2816 35.4861C68.8182 35.7019 68.3043 35.8182 67.773 35.8182C65.4607 35.8182 63.5876 33.6345 63.5876 30.9357C63.5876 29.5574 64.0765 28.3118 64.8722 27.4234C65.3363 27.2074 65.851 27.0912 66.3806 27.0912C68.6931 27.0912 70.5662 29.275 70.5662 31.9737" fill="#6D49D5"/>
<path fill-rule="evenodd" clip-rule="evenodd" d="M66.3849 27.7123C64.4219 27.7123 62.8251 29.6236 62.8251 31.9729C62.8251 34.3221 64.4219 36.2335 66.3849 36.2335C68.3478 36.2335 69.9445 34.3221 69.9445 31.9729C69.9445 29.6236 68.3478 27.7123 66.3849 27.7123M66.3849 37.479C63.7364 37.479 61.5818 35.0089 61.5818 31.9729C61.5818 28.9369 63.7364 26.4668 66.3849 26.4668C69.0332 26.4668 71.1878 28.9369 71.1878 31.9729C71.1878 35.0089 69.0332 37.479 66.3849 37.479" fill="black"/>
<path fill-rule="evenodd" clip-rule="evenodd" d="M119.638 57.8669C120.543 59.0521 121.522 60.2665 122.236 61.587C122.409 61.9039 121.954 62.3675 121.635 62.1998C120.639 61.6747 119.709 61.0528 118.794 60.401C118.124 59.9326 116.862 59.3506 116.618 58.4781C116.397 57.702 117.122 56.8435 117.837 56.6373C118.715 56.3852 119.182 57.2852 119.638 57.8669M124.211 64.134C123.829 64.5226 123.193 64.5281 122.805 64.146C122.41 63.7568 122.412 63.1268 122.793 62.738C123.182 62.3422 123.803 62.3367 124.199 62.726C124.586 63.108 124.599 63.738 124.211 64.134M115.684 55.7367C113.052 58.4197 113.089 62.7323 115.767 65.3696C118.445 68.0072 122.749 67.9702 125.382 65.2874C128.014 62.6046 127.978 58.2919 125.3 55.6545C122.622 53.017 118.317 53.054 115.684 55.7367" fill="#6D49D5"/>
<path fill-rule="evenodd" clip-rule="evenodd" d="M115.472 43.2006C114.831 44.2039 114.187 45.271 113.392 46.1675C113.202 46.3838 112.731 46.168 112.769 45.8821C112.892 44.9902 113.104 44.1215 113.344 43.2556C113.512 42.6244 113.605 41.5166 114.192 41.0955C114.714 40.7179 115.554 41.0295 115.904 41.5116C116.332 42.1034 115.784 42.6992 115.472 43.2006M112.021 48.3458C111.626 48.1648 111.449 47.6878 111.629 47.292C111.814 46.8888 112.286 46.7189 112.681 46.8998C113.084 47.0843 113.257 47.5503 113.073 47.9535C112.892 48.3493 112.423 48.5302 112.021 48.3458M115.992 39.6474C113.265 38.3977 110.044 39.5994 108.797 42.3313C107.549 45.0634 108.749 48.2908 111.476 49.5405C114.202 50.7902 117.424 49.5888 118.671 46.8566C119.919 44.1246 118.719 40.8971 115.992 39.6474" fill="#6D49D5"/>
</g>
</svg>
