<svg width="145" height="148" viewBox="0 0 145 148" fill="none" xmlns="http://www.w3.org/2000/svg">
<path fill-rule="evenodd" clip-rule="evenodd" d="M139.312 88.9204C139.771 85.9767 139.916 82.9799 139.705 79.9504C138.272 59.3011 130.854 32.5642 115.964 17.5239C111.401 12.9149 105.784 9.49725 99.4884 7.81093C85.2285 3.99106 71.6948 3.04094 60.8881 14.8357C53.8869 22.4769 52.6399 32.2346 47.37 40.6672C37.3734 56.6631 14.228 60.6028 10.3317 81.0348C7.47462 96.0166 16.547 110.704 26.7954 120.954C37.1344 131.294 50.9389 138.534 65.5393 140.4C69.0792 140.852 72.6585 140.999 76.2241 140.82C102.997 139.475 135.005 116.534 139.312 88.9204" fill="#EBEFFF"/>
<path fill-rule="evenodd" clip-rule="evenodd" d="M77.0272 9.18606C80.6552 9.18606 83.3823 8.81045 83.8943 12.7268C84.1096 14.3747 87.8444 14.6348 87.8444 16.8C87.8444 16.8056 87.8442 16.811 87.8442 16.8165C88.138 15.8537 88.2974 14.8326 88.2974 13.7743C88.2974 8.00017 83.592 3.31927 77.7873 3.31927C71.9882 3.31927 67.2864 7.99136 67.2773 13.7578C67.4319 13.252 68.852 13.2146 68.7864 12.7635C68.1723 8.5409 72.8456 9.18606 77.0272 9.18606" fill="#2E2E2E"/>
<path fill-rule="evenodd" clip-rule="evenodd" d="M35.0337 108.597C33.6363 108.426 32.2288 108.237 30.8316 108.02C31.2499 108.067 31.6778 108.095 32.1055 108.095C32.9991 108.095 33.8643 107.991 34.7009 107.802L35.0337 108.597Z" fill="#D7E8F0"/>
<path fill-rule="evenodd" clip-rule="evenodd" d="M77.844 95.0806C83.2725 97.095 88.1213 99.5916 92.1428 102.75C87.9691 99.7334 82.046 96.7167 73.5087 93.5769C59.1335 88.2715 49.6835 89.3874 49.6835 89.3874C51.6991 87.5812 50.3301 85.1789 50.3301 85.1789C50.3301 85.1789 47.1261 82.0864 34.5291 86.1057C21.9225 90.1251 21.5611 96.972 21.5611 96.972C20.7246 102.051 24.4989 105.484 24.4989 105.484L24.5274 105.606C23.8905 105.049 23.3295 104.405 22.8732 103.706C22.7495 103.526 22.6355 103.337 22.5309 103.148C22.2648 102.684 22.0462 102.193 21.8749 101.682C21.8085 101.512 21.7514 101.341 21.7038 101.161C21.6943 101.105 21.6753 101.048 21.6658 100.991C21.6087 100.812 21.5708 100.623 21.5328 100.433C21.5232 100.367 21.5042 100.291 21.4947 100.216C21.4566 100.036 21.4376 99.847 21.4186 99.6484C21.3615 99.1945 21.3522 98.7311 21.371 98.2677C21.371 98.2677 21.371 98.0784 21.3901 97.7854C21.3901 97.7665 21.3996 97.7475 21.3996 97.7286C21.4376 97.0099 21.5708 95.7142 21.9415 94.8347C21.6372 95.2697 21.3425 95.7142 21.0479 96.1588C20.8671 96.4424 20.6011 96.9247 20.2873 97.4449C20.2587 97.4827 20.2302 97.5206 20.2112 97.5584C19.3937 98.6365 18.5189 99.5349 17.8059 99.4025C17.7581 99.3931 17.7109 99.3741 17.6633 99.3552C17.226 99.1756 16.9598 98.7027 16.7887 98.0879C16.8455 98.0879 16.7412 97.9272 16.7316 97.842C16.665 97.549 16.6268 97.2842 16.6078 97.0667V97.0572C16.5986 96.8963 16.5796 96.7261 16.5697 96.5559V96.3574C16.513 94.6834 16.7792 92.8203 16.874 92.1017C17.5872 86.6731 20.2017 81.6703 22.7495 76.9039C26.4479 69.9811 31.2206 63.6354 36.7253 58.0369C43.6942 50.9439 54.9029 45.6098 64.876 43.8887V67.4277L73.4042 62.4627C73.4042 62.4627 76.8552 71.1161 77.844 82.9092C78.1481 86.5312 78.2242 90.456 77.8914 94.5133C77.882 94.5604 77.882 94.6077 77.8725 94.6456C77.8725 94.7874 77.8535 94.9388 77.844 95.0806" fill="#6D49D5"/>
<path fill-rule="evenodd" clip-rule="evenodd" d="M82.0054 93.5769C95.6662 88.2714 102.03 88.9429 102.03 88.9429C100.115 87.1366 100.699 85.4025 100.699 85.4025C100.699 85.4025 107.077 82.0865 119.048 86.1057C131.029 90.125 131.372 96.9721 131.372 96.9721C132.167 102.051 128.58 105.483 128.58 105.483L128.553 105.607C129.158 105.048 129.692 104.405 130.125 103.706C130.243 103.526 130.351 103.337 130.451 103.148C130.703 102.684 130.911 102.192 131.074 101.682C131.137 101.512 131.191 101.341 131.236 101.162C131.246 101.105 131.264 101.048 131.273 100.991C131.327 100.812 131.363 100.622 131.399 100.433C131.408 100.367 131.426 100.292 131.435 100.216C131.471 100.036 131.49 99.8471 131.508 99.6485C131.562 99.1946 131.571 98.731 131.553 98.2676C131.553 98.2676 131.553 98.0785 131.535 97.7853C131.535 97.7666 131.526 97.7476 131.526 97.7287C131.49 97.01 131.363 95.7141 131.011 94.8348C131.3 95.2696 131.58 95.7141 131.86 96.1587C132.032 96.4425 132.284 96.9248 132.583 97.445C132.61 97.4828 132.637 97.5207 132.655 97.5584C133.432 98.6366 134.263 99.5349 134.941 99.4026C134.986 99.3932 135.031 99.3742 135.076 99.3553C135.492 99.1757 135.745 98.7028 135.907 98.088C135.854 98.088 135.953 97.9273 135.962 97.8421C136.025 97.5489 136.061 97.2842 136.079 97.0667V97.0573C136.088 96.8964 136.106 96.7262 136.115 96.556V96.3575C136.17 94.6835 135.917 92.8203 135.826 92.1018C135.149 86.6731 132.664 81.6704 130.243 76.9038C126.728 69.9812 122.193 63.6353 116.961 58.0368C110.339 50.944 99.6867 45.6099 90.2091 43.8887V67.4278L82.9049 62.9047C82.9049 62.9047 80.0046 72.0979 79.065 83.8911C78.776 87.5132 77.5241 90.4561 77.8404 94.5132C77.8492 94.5603 77.8492 94.6078 77.8582 94.6457C77.8582 94.7873 77.8764 94.9389 77.8855 95.0807L82.0054 93.5769Z" fill="#6D49D5"/>
<path fill-rule="evenodd" clip-rule="evenodd" d="M106.432 136.759C106.451 135.945 106.47 135.075 106.48 134.139L106.508 135.018C106.527 135.595 106.527 136.191 106.432 136.759" fill="#6D49D5"/>
<path fill-rule="evenodd" clip-rule="evenodd" d="M73.5638 62.4627L65.0356 67.4277V43.8887C65.1213 43.8699 65.2164 43.8605 65.3022 43.8416L73.5638 62.4627Z" fill="#2E2E2E"/>
<path fill-rule="evenodd" clip-rule="evenodd" d="M90.5436 44.2954V67.4278L88.3474 66.1226L82.9569 62.9071L90.2773 44.2387C90.3249 44.1251 90.4581 44.1251 90.515 44.2103L90.5436 44.2954Z" fill="#2E2E2E"/>
<path fill-rule="evenodd" clip-rule="evenodd" d="M58.0743 136.332L57.5121 135.029C57.5758 135.001 57.6371 134.974 57.6985 134.947C57.7654 134.918 57.8325 134.888 57.9019 134.858L58.464 136.162C58.4004 136.189 58.3392 136.216 58.2778 136.243C58.2107 136.273 58.1437 136.303 58.0743 136.332" fill="black"/>
<path fill-rule="evenodd" clip-rule="evenodd" d="M94.9928 135.45C94.8322 135.38 94.6672 135.314 94.4976 135.246L94.2697 135.155L94.8074 133.841L95.0279 133.93C95.2127 134.003 95.3927 134.075 95.5677 134.152L94.9928 135.45Z" fill="black"/>
<path fill-rule="evenodd" clip-rule="evenodd" d="M90.1404 133.818C89.7598 133.71 89.3526 133.609 88.9297 133.517L89.2333 132.131C89.6857 132.229 90.1228 132.338 90.5324 132.455L90.1404 133.818Z" fill="black"/>
<path fill-rule="evenodd" clip-rule="evenodd" d="M63.0991 134.684L62.679 133.329C62.9536 133.245 63.2287 133.184 63.4949 133.125L63.8044 134.51C63.5548 134.565 63.3189 134.617 63.0991 134.684" fill="black"/>
<path fill-rule="evenodd" clip-rule="evenodd" d="M78.2216 95.7359L77.6754 94.4253C84.3971 91.653 92.0132 89.6092 100.323 88.3468C100.237 87.8685 100.089 87.1589 99.8501 86.2938L101.225 85.9179C101.71 87.6729 101.84 88.8173 101.845 88.8651L101.921 89.5452L101.24 89.6446C92.7703 90.8799 85.0259 92.9294 78.2216 95.7359" fill="black"/>
<path fill-rule="evenodd" clip-rule="evenodd" d="M44.2586 129.988C43.4806 129.988 42.7325 129.728 42.1518 129.327C40.9411 128.49 40.1221 126.844 41.0181 125.053L41.0574 124.965C41.8106 123.547 42.9739 122.499 44.0988 121.486C44.5311 121.096 44.9395 120.729 45.3271 120.34C46.8132 118.85 48.3346 117.12 50.1146 114.895C51.5295 113.126 52.9725 111.474 55.0633 110.701L55.5603 112.031C53.8107 112.678 52.5642 114.111 51.2305 115.778C49.4171 118.045 47.863 119.812 46.3393 121.339C45.9248 121.755 45.4831 122.152 45.0559 122.537C43.9868 123.5 42.9762 124.411 42.3391 125.589C42.325 125.624 42.3109 125.653 42.2965 125.681C41.7411 126.786 42.3098 127.708 42.9657 128.162C43.7244 128.687 44.8706 128.811 45.7208 127.905C46.9956 126.56 47.0023 126.554 47.0133 126.543L48.0185 127.549C47.9819 127.588 46.7607 128.876 46.7607 128.876C46.0142 129.671 45.1181 129.988 44.2586 129.988" fill="black"/>
<path fill-rule="evenodd" clip-rule="evenodd" d="M49.0125 144.63C47.7965 144.63 46.6362 143.922 46.1299 142.817C45.6671 141.808 45.6581 140.694 45.686 139.729L45.6912 139.55C45.8859 132.815 46.1067 125.182 49.6789 119.339L50.8973 120.076C47.5215 125.599 47.3064 133.032 47.1168 139.59L47.1116 139.769C47.0871 140.612 47.0914 141.496 47.4273 142.229C47.7833 143.005 48.6336 143.3 49.29 143.189C49.6491 143.128 50.2637 142.892 50.3467 141.99C50.616 138.871 51.2208 135.025 52.1436 130.561C52.1756 130.406 52.1984 130.296 52.2104 130.235L53.6104 130.505C53.5979 130.569 53.574 130.685 53.5405 130.847C52.6288 135.256 52.0323 139.048 51.7672 142.115C51.6463 143.429 50.7886 144.374 49.5287 144.587C49.3568 144.616 49.1841 144.63 49.0125 144.63" fill="black"/>
<path fill-rule="evenodd" clip-rule="evenodd" d="M100.818 113.077L100.58 111.679C100.596 111.676 100.612 111.672 100.629 111.668C100.665 111.66 100.701 111.652 100.735 111.645C107.443 110.088 114.895 108.6 123.513 107.095C123.56 107.085 123.604 107.077 123.649 107.069C123.68 107.063 123.711 107.058 123.743 107.051L123.772 107.046C126.134 106.627 128.147 105.304 129.44 103.32L130.637 104.091C129.151 106.371 126.745 107.955 124.035 108.44C123.988 108.45 123.942 108.458 123.897 108.466C123.867 108.471 123.836 108.476 123.803 108.483L123.773 108.49C115.168 109.992 107.732 111.478 101.042 113.031L100.999 113.039C100.984 113.042 100.967 113.046 100.95 113.05C100.905 113.06 100.86 113.07 100.818 113.077" fill="black"/>
<path fill-rule="evenodd" clip-rule="evenodd" d="M60.6739 144.589C59.3593 144.589 58.2499 143.609 58.0929 142.309C57.807 139.944 57.6036 137.734 57.4712 135.553C57.3528 133.744 57.2883 132.012 57.2798 130.407L58.7059 130.4C58.7142 131.976 58.7777 133.68 58.8945 135.464C59.0254 137.62 59.2263 139.803 59.5089 142.14C59.5798 142.728 60.0806 143.171 60.6739 143.171C61.329 143.171 61.8468 142.661 61.8529 142.01C61.8629 139.408 62.035 136.197 62.1775 133.962C62.3658 131.065 62.5569 128.778 62.5587 128.756L63.9804 128.761L64.6744 137.926C64.7052 138.568 65.2191 139.057 65.8459 139.057H66.2927C66.9427 139.057 67.4715 138.531 67.4715 137.884C67.4715 136.462 67.4202 135.006 67.3707 133.598L67.3484 132.962C67.1966 128.748 67.3963 124.01 71.7132 121.128C75.0456 118.904 78.2177 117.755 81.1492 116.845L81.5739 118.199C78.7451 119.077 75.6889 120.183 72.5079 122.306C68.7989 124.782 68.6355 129.079 68.7736 132.912L68.7957 133.549C68.8458 134.968 68.8976 136.437 68.8976 137.884C68.8976 139.313 67.7291 140.475 66.2927 140.475H65.8459C64.6762 140.475 63.6836 139.708 63.3597 138.642C63.3144 139.798 63.2829 140.96 63.279 142.02C63.2658 143.438 62.0973 144.589 60.6739 144.589" fill="black"/>
<path fill-rule="evenodd" clip-rule="evenodd" d="M55.6141 148C55.5933 148 55.5726 148 55.5518 148C54.3587 147.975 52.869 147.386 52.5489 144.722L52.4605 143.989C51.8995 139.353 51.3696 134.975 52.2038 130.247L52.243 130.026L52.4036 129.867C52.276 129.993 52.2027 130.166 52.2027 130.342L53.6287 130.342C53.6287 130.425 53.6159 130.499 53.5959 130.564C52.8163 135.058 53.3312 139.315 53.8764 143.82L53.965 144.554C54.1766 146.315 54.9009 146.567 55.5818 146.581C56.0318 146.591 56.5037 146.403 56.8069 146.091C56.9649 145.929 57.1489 145.657 57.1288 145.28C56.9306 141.599 56.9815 136.588 57.2798 130.387V130.356H58.7059L58.7051 130.437C58.4084 136.599 58.357 141.567 58.5527 145.204C58.5899 145.897 58.3337 146.562 57.8315 147.078C57.2669 147.658 56.4422 148 55.6141 148" fill="black"/>
<path fill-rule="evenodd" clip-rule="evenodd" d="M108.264 91.4064C105.002 89.0271 101.298 89.6352 101.261 89.6412L101.011 88.2447C101.186 88.2135 105.338 87.5134 109.107 90.2624L108.264 91.4064Z" fill="black"/>
<path fill-rule="evenodd" clip-rule="evenodd" d="M107.578 129.025C106.969 129.025 106.364 128.901 105.895 128.592L106.683 127.41C107.243 127.779 108.514 127.586 109.017 127.27C110.169 126.547 110.123 125.24 109.567 124.266C109.06 123.394 108.246 122.746 107.384 122.06C107.043 121.788 106.691 121.508 106.356 121.21C105.127 120.104 104.228 118.813 103.511 117.696C103.406 117.537 103.298 117.37 103.19 117.203C103.084 117.039 102.978 116.875 102.87 116.711L102.592 116.275C100.42 112.871 98.1741 109.352 95.34 106.461C91.0676 102.07 85.2977 98.5659 77.6993 95.7452C70.8222 93.184 62.3427 91.1886 51.776 89.6446L51.9833 88.2412C62.6513 89.7998 71.2264 91.8198 78.1986 94.4165C85.9994 97.3123 91.9414 100.929 96.3628 105.473C99.2987 108.467 101.585 112.05 103.796 115.515L104.068 115.941C104.173 116.1 104.281 116.268 104.39 116.436C104.495 116.599 104.601 116.762 104.708 116.925C105.379 117.97 106.209 119.165 107.31 120.155C107.612 120.424 107.934 120.681 108.275 120.952C109.202 121.69 110.159 122.453 110.804 123.56C111.861 125.412 111.438 127.428 109.779 128.469C109.274 128.786 108.423 129.025 107.578 129.025" fill="black"/>
<path fill-rule="evenodd" clip-rule="evenodd" d="M97.4012 143.199C96.6025 143.199 95.829 142.869 95.2792 142.295C94.7251 141.717 94.4415 140.959 94.4805 140.163C94.6568 136.556 94.6002 131.693 94.312 125.709L94.3112 125.627H95.7373V125.658C96.027 131.68 96.0834 136.583 95.9048 140.231C95.8849 140.637 96.0294 141.022 96.3117 141.317C96.5979 141.616 96.9849 141.781 97.4012 141.781C98.1687 141.781 98.8092 141.209 98.8907 140.451L98.9048 140.322C99.2929 136.724 99.8785 131.294 98.6827 124.442C98.6798 124.429 98.6772 124.417 98.6745 124.406C98.6573 124.345 98.6465 124.276 98.6465 124.199L100.058 124.064C100.032 123.94 99.9691 123.823 99.8779 123.731L100.033 123.888L100.071 124.105C100.075 124.123 100.078 124.142 100.081 124.16C100.117 124.31 100.186 124.586 100.264 124.895C100.82 127.09 102.295 132.921 102.671 137.265C102.753 138.163 103.368 138.399 103.727 138.46C104.384 138.571 105.234 138.277 105.59 137.501C105.926 136.768 105.93 135.884 105.906 135.041L105.9 134.862C105.711 128.303 105.496 120.87 102.12 115.348L103.338 114.611C106.91 120.454 107.131 128.086 107.326 134.821L107.331 135C107.359 135.965 107.35 137.08 106.887 138.089C106.309 139.349 104.88 140.094 103.488 139.858C102.229 139.646 101.371 138.7 101.25 137.391C101.159 136.338 101.001 135.192 100.806 134.031C100.743 136.571 100.511 138.732 100.323 140.473L100.309 140.602C100.149 142.083 98.8993 143.199 97.4012 143.199" fill="black"/>
<path fill-rule="evenodd" clip-rule="evenodd" d="M44.7535 91.4064L43.9101 90.2624C47.6787 87.5137 51.8312 88.2137 52.0062 88.2447L51.7549 89.6411L51.8806 88.9429L51.7566 89.6412C51.7195 89.6349 48.0147 89.0276 44.7535 91.4064" fill="black"/>
<path fill-rule="evenodd" clip-rule="evenodd" d="M65.6932 46.6044V66.1907L72.5995 62.1701L65.6932 46.6044ZM64.2672 68.6648V43.895C64.2672 43.4905 64.545 43.1497 64.9429 43.0661C65.3415 42.9815 65.7337 43.1828 65.8981 43.553L74.4179 62.7552L64.2672 68.6648Z" fill="black"/>
<path fill-rule="evenodd" clip-rule="evenodd" d="M83.7882 62.6043L89.7801 66.1759V47.3274L83.7882 62.6043ZM78.6587 95.1445L77.2375 95.0265C77.2387 95.0122 77.2674 94.6429 77.323 93.9899C78.5581 77.2968 72.9042 62.8708 72.8458 62.7239L74.1715 62.201C74.2163 62.3134 77.485 70.6445 78.5753 82.0015C79.676 73.1326 80.9046 66.6345 82.2284 62.6808L82.5092 61.8422L82.5475 61.8649L89.561 43.9835C89.7099 43.6038 90.1095 43.3829 90.5122 43.4586C90.9144 43.534 91.2064 43.8841 91.2064 44.2916V68.6795L83.3123 63.9746C80.7028 72.5826 79.1107 89.8137 78.742 94.1355C78.7171 94.4706 78.6892 94.8074 78.6587 95.1445V95.1445Z" fill="black"/>
<path fill-rule="evenodd" clip-rule="evenodd" d="M89.8069 44.4839L85.4155 28.9759L86.7883 28.5912L91.1797 44.0991L89.8069 44.4839Z" fill="black"/>
<path fill-rule="evenodd" clip-rule="evenodd" d="M65.9468 43.9694L64.5449 43.7094L66.9928 30.6343L68.3948 30.8942L65.9468 43.9694Z" fill="black"/>
<path fill-rule="evenodd" clip-rule="evenodd" d="M76.6644 37.0858C76.5435 37.0858 76.4223 37.0836 76.3003 37.0794C73.1499 36.9701 70.4891 35.6213 68.3919 33.0706C66.4782 30.7432 65.4242 27.6962 65.4242 24.4913L65.4235 23.1179L66.8496 23.117L66.8504 24.4908C66.8504 27.3699 67.7898 30.0977 69.4959 32.1725C71.3217 34.3932 73.6277 35.5672 76.3501 35.6615C79.4358 35.7669 82.0134 34.3416 84.0109 31.4195C85.3706 29.4308 86.0805 27.0318 86.0641 24.4817L87.3697 22.6878L87.4901 24.4727C87.5085 27.3115 86.7131 29.9895 85.1901 32.2171C83.0089 35.4081 80.0669 37.0858 76.6644 37.0858" fill="black"/>
<path fill-rule="evenodd" clip-rule="evenodd" d="M76.2219 1.52588e-05C76.3588 1.52588e-05 76.4963 0.00246275 76.6344 0.00719456C80.2046 0.131038 83.22 1.65958 85.5966 4.55022C87.7654 7.1878 88.9598 10.6407 88.9598 14.2726L88.9606 15.8291L87.3445 15.83L87.3437 14.2733C87.3437 11.0106 86.2789 7.91911 84.3457 5.56789C82.2765 3.05122 79.663 1.72093 76.5781 1.61405C73.0812 1.49462 70.16 3.1098 67.8964 6.42125C66.3557 8.67506 65.5511 11.3937 65.5697 14.2836L64.0901 16.3164L63.9537 14.2937C63.9328 11.0767 64.8342 8.04165 66.5601 5.51747C69.0322 1.90122 72.366 1.52588e-05 76.2219 1.52588e-05" fill="black"/>
<path fill-rule="evenodd" clip-rule="evenodd" d="M69.6424 13.8198C66.9244 13.8198 64.7133 16.0194 64.7133 18.7231C64.7133 21.4268 66.9244 23.6262 69.6424 23.6262C72.3601 23.6262 74.5713 21.4268 74.5713 18.7231C74.5713 16.0194 72.3601 13.8198 69.6424 13.8198M69.6424 25.0446C66.138 25.0446 63.2872 22.2088 63.2872 18.7231C63.2872 15.2372 66.138 12.4014 69.6424 12.4014C73.1465 12.4014 75.9975 15.2372 75.9975 18.7231C75.9975 22.2088 73.1465 25.0446 69.6424 25.0446" fill="black"/>
<path fill-rule="evenodd" clip-rule="evenodd" d="M83.3823 13.8198C80.6645 13.8198 78.4534 16.0194 78.4534 18.7231C78.4534 21.4268 80.6645 23.6262 83.3823 23.6262C86.1002 23.6262 88.3113 21.4268 88.3113 18.7231C88.3113 16.0194 86.1002 13.8198 83.3823 13.8198M83.3823 25.0446C79.8781 25.0446 77.0272 22.2088 77.0272 18.7231C77.0272 15.2372 79.8781 12.4014 83.3823 12.4014C86.8864 12.4014 89.7374 15.2372 89.7374 18.7231C89.7374 22.2088 86.8864 25.0446 83.3823 25.0446" fill="black"/>
<path fill-rule="evenodd" clip-rule="evenodd" d="M77.7546 31.9565C77.5199 31.9565 77.2785 31.9377 77.0305 31.8995C75.8494 31.7174 74.9379 31.1434 74.8997 31.1189L75.667 29.9232C75.6741 29.9276 76.3952 30.3755 77.2865 30.5031C78.3724 30.6593 79.2005 30.2835 79.8186 29.3561L81.0072 30.1403C80.2088 31.3376 79.0941 31.9565 77.7546 31.9565" fill="black"/>
<path fill-rule="evenodd" clip-rule="evenodd" d="M76.8623 16.894C77.0027 16.9209 77.1436 16.9669 77.2847 17.033C77.9566 17.3471 78.3927 18.0153 78.4109 18.0436L77.7246 19.1298C77.7212 19.1246 77.3749 18.6022 76.8661 18.3747C76.2461 18.0968 75.6792 18.371 75.1331 19.2108L74.5714 18.3045C75.2765 17.2203 76.0611 16.7404 76.8623 16.894" fill="black"/>
<path fill-rule="evenodd" clip-rule="evenodd" d="M69.4051 13.2454H68.1723V11.2894C68.1723 9.77393 69.4119 8.54089 70.9355 8.54089H81.6166C83.1402 8.54089 84.3798 9.77393 84.3798 11.2894V13.2254H83.1471V11.2894C83.1471 10.4501 82.4605 9.76708 81.6166 9.76708H70.9355C70.0916 9.76708 69.4051 10.4501 69.4051 11.2894V13.2454Z" fill="black"/>
<path fill-rule="evenodd" clip-rule="evenodd" d="M92.332 139.858C91.7066 139.858 91.0966 139.635 90.6233 139.222C90.0671 138.738 89.7445 138.036 89.7382 137.296C89.7299 136.181 89.6921 134.959 89.6529 133.901C89.3177 134.974 88.3076 135.748 87.1331 135.748H86.7244C85.288 135.748 84.1194 134.582 84.1194 133.147C84.1194 132.754 84.1194 132.37 84.1291 131.976C84.1499 131.112 84.2557 130.265 84.3581 129.446C84.4985 128.323 84.631 127.262 84.5584 126.177C84.343 123.011 82.9993 120.045 80.8718 118.039C80.242 117.431 79.5526 116.909 78.8164 116.482C76.5334 115.141 73.7784 114.797 71.1143 114.465C70.4504 114.382 69.764 114.297 69.0967 114.197C65.9823 113.726 62.869 113.247 59.7558 112.768C58.2385 112.534 56.7212 112.301 55.204 112.069C51.8081 111.542 49.2161 111.154 46.7982 110.812C45.9072 110.677 45.0155 110.55 44.1297 110.425L43.5922 110.348C41.7541 110.1 39.8706 109.882 38.0489 109.672C37.0248 109.553 36.0002 109.435 34.9758 109.31L34.7255 109.273C33.0595 109.066 31.121 108.809 29.1874 108.473L29.0201 108.448C24.0891 107.583 20.55 103.196 20.764 98.2389L22.1888 98.2998C22.0054 102.549 25.0385 106.309 29.244 107.047L29.4128 107.072C31.4133 107.42 33.4074 107.681 35.0995 107.89C35.1451 107.894 35.1876 107.901 35.2273 107.912C36.2227 108.032 37.2184 108.147 38.2136 108.262C40.0418 108.474 41.9324 108.693 43.7905 108.943L44.3313 109.02C45.2215 109.147 46.1176 109.274 47.0062 109.409C49.4236 109.751 52.0215 110.139 55.4225 110.667C56.9387 110.899 58.4562 111.132 59.9738 111.366C63.0857 111.845 66.1977 112.324 69.3098 112.794C69.9587 112.891 70.6363 112.976 71.2917 113.057C74.1001 113.408 77.004 113.77 79.5381 115.259C80.3706 115.741 81.1525 116.333 81.859 117.015C84.2372 119.258 85.742 122.565 85.9812 126.082C86.063 127.303 85.9157 128.481 85.7733 129.621C85.6708 130.441 85.5739 131.217 85.5547 132.011C85.5453 132.393 85.5455 132.766 85.5455 133.147C85.5455 133.799 86.0743 134.33 86.7244 134.33H87.1331C87.7692 134.33 88.3002 133.835 88.3422 133.205L88.3707 132.779L89.0367 124.034L90.4582 124.027C90.4621 124.073 90.8515 128.642 91.0495 133.107C91.0974 134.316 91.1538 135.88 91.1641 137.285C91.1671 137.619 91.3123 137.937 91.5627 138.155C91.815 138.375 92.1414 138.471 92.4829 138.43C93.0145 138.368 93.4477 137.897 93.5175 137.31C93.6047 136.608 93.7038 135.694 93.8298 134.43C94.0325 132.373 94.2807 129.183 94.3112 125.67L95.7373 125.682C95.7063 129.247 95.4546 132.482 95.2489 134.569C95.1217 135.845 95.0214 136.77 94.9333 137.48C94.7874 138.707 93.8291 139.7 92.6552 139.838C92.5474 139.852 92.4395 139.858 92.332 139.858" fill="black"/>
<path fill-rule="evenodd" clip-rule="evenodd" d="M136.123 98.0879C135.676 99.9606 134.298 102.798 130.039 103.706C131.075 102.145 131.626 100.254 131.541 98.2677C131.493 97.2369 131.471 96.7319 131.357 95.5686C132.403 97.1954 134.098 99.8376 135.248 99.3552C135.686 99.1756 135.952 98.7027 136.123 98.0879" fill="black"/>
<path fill-rule="evenodd" clip-rule="evenodd" d="M130.188 104.399L129.889 103.012C132.312 102.496 133.725 101.316 134.544 100.04C134.283 99.9552 134.016 99.7996 133.743 99.5733C132.741 98.7423 132.096 97.6497 131.472 96.5932C131.099 95.9611 130.746 95.3641 130.329 94.8367C129.706 94.0475 128.949 93.3434 128.095 92.5705C127.269 91.8222 126.407 91.1265 125.534 90.5024C122.609 88.4031 119.322 86.9077 115.763 86.0577C110.91 84.9002 105.64 84.9394 100.525 86.171C99.7037 86.3725 99.0348 86.5649 98.4229 86.776L97.4763 87.1023V81.8122C97.4763 80.9012 97.2227 80.0265 96.7429 79.2823C95.8705 77.9213 94.8668 76.6731 93.7586 75.5706L94.7671 74.5674C95.9484 75.7425 97.0174 77.0719 97.9445 78.518C98.5709 79.4897 98.9024 80.6294 98.9024 81.8122V85.1352C99.2949 85.0205 99.7173 84.9079 100.186 84.793C105.523 83.5081 111.023 83.4686 116.096 84.6783C119.836 85.5718 123.292 87.1439 126.368 89.3512C127.284 90.0062 128.188 90.7368 129.055 91.5213C129.957 92.338 130.76 93.0851 131.451 93.9602C131.927 94.5629 132.321 95.2296 132.702 95.8746C133.29 96.8704 133.845 97.8109 134.657 98.4838C134.853 98.6463 134.957 98.6838 134.992 98.6923C135.161 98.607 135.317 98.3273 135.436 97.8987L136.817 98.2518C136.373 100.115 134.921 103.39 130.188 104.399" fill="black"/>
<path fill-rule="evenodd" clip-rule="evenodd" d="M136.8 98.3123L135.447 97.8637C135.464 97.813 135.469 97.7872 135.471 97.764L135.487 97.6766C135.529 97.5025 135.563 97.2873 135.592 97.0192L135.592 97.0156C135.597 96.9325 135.604 96.8472 135.611 96.7606C135.618 96.6863 135.624 96.6109 135.629 96.5354V96.3574C135.681 94.8143 135.456 93.1363 135.349 92.3298L135.331 92.1942C134.615 86.744 131.915 81.6932 129.532 77.2369C125.953 70.5357 121.291 64.2427 115.677 58.5326C108.068 50.7905 99.2587 45.9001 90.1995 44.3898L90.4352 42.9907C99.7945 44.5512 108.875 49.5824 116.696 57.541C122.406 63.3476 127.148 69.7502 130.792 76.5711C133.11 80.9078 135.995 86.3051 136.745 92.0098L136.762 92.1428C136.875 92.9874 137.11 94.7445 137.054 96.3812L137.055 96.5757L137.054 96.5958C137.048 96.6909 137.04 96.7862 137.032 96.88C137.027 96.9474 137.021 97.014 137.017 97.0787L137.013 97.1394C136.979 97.4687 136.937 97.7334 136.883 97.9678C136.867 98.0804 136.841 98.1886 136.8 98.3123" fill="black"/>
<path fill-rule="evenodd" clip-rule="evenodd" d="M136.8 98.3123L135.447 97.8637C135.464 97.813 135.469 97.7872 135.471 97.764L135.485 97.6859C135.535 97.4654 135.571 97.2409 135.591 97.0344L135.597 96.9614C135.613 96.8482 135.618 96.7465 135.622 96.6485C135.624 96.6062 135.626 96.567 135.629 96.531V96.3574H137.055L137.053 96.6108C137.05 96.6424 137.049 96.6775 137.047 96.7165C137.042 96.8198 137.035 96.9586 137.015 97.1195L137.014 97.128C136.99 97.398 136.947 97.6789 136.883 97.9634C136.868 98.0776 136.842 98.187 136.8 98.3123" fill="black"/>
<path fill-rule="evenodd" clip-rule="evenodd" d="M16.8915 98.0879C17.3382 99.9606 18.7169 102.798 22.976 103.706C21.9397 102.145 21.3884 100.254 21.4738 98.2677C21.5214 97.2369 21.5431 96.7319 21.6571 95.5686C20.6111 97.1954 18.9165 99.8376 17.7661 99.3552C17.3288 99.1756 17.0626 98.7027 16.8915 98.0879" fill="black"/>
<path fill-rule="evenodd" clip-rule="evenodd" d="M22.8267 104.399C18.094 103.39 16.642 100.115 16.1978 98.2517L17.5788 97.8989C17.7028 98.3444 17.866 98.6289 18.0384 98.6999C18.682 98.9708 19.8325 96.9976 20.2106 96.3493C20.342 96.1242 20.4555 95.9295 20.5561 95.7753C21.4595 94.3902 22.5421 92.8049 23.9598 91.5212C24.8262 90.7367 25.7307 90.0066 26.6479 89.3505C29.7225 87.144 33.1782 85.5716 36.9182 84.6782C41.9912 83.4685 47.4915 83.5085 52.8252 84.7921C53.2958 84.9076 53.7192 85.0204 54.112 85.1353V81.8122C54.112 80.6293 54.4437 79.4897 55.0711 78.5166C55.9972 77.0716 57.0664 75.7426 58.2474 74.5675L59.2558 75.5706C58.1478 76.6728 57.1441 77.921 56.2725 79.2809C55.7917 80.0264 55.5383 80.9013 55.5383 81.8122V87.1024L54.5917 86.7761C53.9797 86.5649 53.3109 86.3725 52.4867 86.1701C47.3746 84.9395 42.105 84.9001 37.2509 86.0578C33.6926 86.9077 30.4056 88.403 27.4813 90.5018C26.6074 91.1267 25.7458 91.8223 24.9197 92.5704C23.6277 93.7405 22.6466 95.1767 21.7523 96.5476C21.6665 96.6789 21.5632 96.8571 21.4441 97.0614C20.841 98.0955 19.8224 99.8416 18.5201 100.115C19.3459 101.362 20.7503 102.506 23.1254 103.012L22.8267 104.399Z" fill="black"/>
<path fill-rule="evenodd" clip-rule="evenodd" d="M16.2148 98.3118C16.1735 98.1881 16.1472 98.0799 16.1317 97.9678C16.0779 97.7352 16.0352 97.4635 16.0016 97.1394L15.9977 97.0789C15.9936 97.0145 15.988 96.9485 15.9822 96.8816C15.9742 96.7873 15.9662 96.6912 15.9607 96.5954L15.9598 96.3691C15.9055 94.7349 16.1397 92.9843 16.2524 92.1418L16.2701 92.009C17.0192 86.3054 19.9045 80.9079 22.2229 76.5709C25.8666 69.7502 30.609 63.3476 36.3183 57.5407C43.1705 50.568 54.4789 44.9152 65.128 43.1398L65.3637 44.539C54.9933 46.268 43.9926 51.7607 37.3379 58.5324C31.7237 64.2426 27.062 70.5357 23.4821 77.2368C21.0998 81.6932 18.3997 86.7441 17.684 92.1937L17.666 92.3288C17.5581 93.1353 17.3337 94.8137 17.3855 96.3334L17.3858 96.5356C17.3904 96.6116 17.397 96.6875 17.4032 96.7622C17.4106 96.8482 17.4177 96.9329 17.4226 97.0154L17.4229 97.021C17.4514 97.2879 17.4857 97.5026 17.5277 97.6764L17.5431 97.764C17.5456 97.787 17.5508 97.813 17.5679 97.8642L16.2148 98.3118Z" fill="black"/>
<path fill-rule="evenodd" clip-rule="evenodd" d="M16.3181 97.6807C16.2654 97.7573 16.2334 97.8357 16.2157 97.9105L16.5841 97.8698L16.3181 97.6807ZM16.8913 98.7971V98.088L16.6148 97.8914L16.2024 97.9841C16.1873 98.1051 16.207 98.2086 16.2288 98.2649L16.2185 98.2401C16.1919 98.1771 16.1535 98.0864 16.1337 97.9756C16.0691 97.6866 16.0243 97.4016 16.0005 97.1278L15.9994 97.1154C15.9792 96.9558 15.9726 96.8181 15.9677 96.7156C15.9659 96.6769 15.9642 96.6419 15.9618 96.6105L15.9597 96.556V96.3573H17.3859V96.5312C17.3882 96.5671 17.3901 96.606 17.3921 96.6477C17.3969 96.7461 17.4016 96.8476 17.4174 96.9612L17.4238 97.0346C17.4431 97.2386 17.4791 97.4601 17.5281 97.6781L17.533 97.6899C17.5801 97.8011 17.7233 98.1399 17.5004 98.4737L17.2888 98.7906L16.8913 98.7971Z" fill="black"/>
<path fill-rule="evenodd" clip-rule="evenodd" d="M130.377 104.469L129.208 103.656C132.141 99.4854 130.249 94.7128 130.229 94.6649L131.551 94.132C131.642 94.356 133.749 99.6739 130.377 104.469" fill="black"/>
<path fill-rule="evenodd" clip-rule="evenodd" d="M22.1868 98.2785L20.7609 98.2574C20.7622 98.1643 20.8014 95.9607 21.3942 94.5575L22.7089 95.1069C22.2239 96.2551 22.1872 98.2583 22.1868 98.2785" fill="black"/>
<path fill-rule="evenodd" clip-rule="evenodd" d="M51.0266 89.0266L49.643 88.6826L50.5663 85.0062L51.9499 85.3501L51.0266 89.0266Z" fill="black"/>
<path fill-rule="evenodd" clip-rule="evenodd" d="M106.518 129.845C106.508 131.396 106.499 132.824 106.48 134.139C106.423 132.134 106.347 130.063 106.185 128.001C105.852 123.916 105.139 119.849 103.371 116.34C103.371 116.331 103.371 116.331 103.361 116.321C102.515 114.988 101.659 113.655 100.785 112.34H100.775C99.2638 110.08 97.6378 107.895 95.746 105.966C94.6716 104.869 93.5213 103.829 92.2853 102.854C95.0614 104.888 97.0389 106.93 98.4937 109.011C102.125 114.222 106.546 118.969 106.518 129.845" fill="black"/>
<path fill-rule="evenodd" clip-rule="evenodd" d="M71.2409 18.8363C71.2409 19.6182 70.6038 20.2519 69.8178 20.2519C69.0319 20.2519 68.3947 19.6182 68.3947 18.8363C68.3947 18.0544 69.0319 17.4206 69.8178 17.4206C70.6038 17.4206 71.2409 18.0544 71.2409 18.8363" fill="black"/>
<path fill-rule="evenodd" clip-rule="evenodd" d="M84.3799 18.8363C84.3799 19.6182 83.7428 20.2519 82.9568 20.2519C82.1709 20.2519 81.5337 19.6182 81.5337 18.8363C81.5337 18.0544 82.1709 17.4206 82.9568 17.4206C83.7428 17.4206 84.3799 18.0544 84.3799 18.8363" fill="black"/>
<mask id="mask0_0_2024" style="mask-type:luminance" maskUnits="userSpaceOnUse" x="0" y="0" width="145" height="148">
<path fill-rule="evenodd" clip-rule="evenodd" d="M0 148H145V0H0V148Z" fill="white"/>
</mask>
<g mask="url(#mask0_0_2024)">
<path fill-rule="evenodd" clip-rule="evenodd" d="M115.288 110.052H145V108.633H115.288V110.052Z" fill="black"/>
<path fill-rule="evenodd" clip-rule="evenodd" d="M8.66101 110.052H40.6576V108.633H8.66101V110.052Z" fill="black"/>
<path fill-rule="evenodd" clip-rule="evenodd" d="M76.8443 26.3462C76.031 26.3462 75.163 26.1966 74.6195 25.6713C74.1804 25.2473 74.0108 24.6449 74.1417 23.9749C74.2314 23.5158 74.8431 19.7261 75.1946 17.5351C75.7443 18.0383 77.013 17.2275 77.013 17.2275L76.9692 17.5024C76.9289 17.7544 75.98 23.6758 75.8566 24.3065C75.8378 24.4053 75.8475 24.444 75.8475 24.4445C76.0331 24.6352 77.189 24.6863 78.3299 24.4327L78.7129 26.1289C78.3732 26.2049 77.6344 26.3462 76.8443 26.3462" fill="black"/>
</g>
</svg>
